<svg width="38" height="36" viewBox="0 0 38 36" fill="none" xmlns="http://www.w3.org/2000/svg">
<path d="M35.8662 24.7534C35.8662 34.2538 28.1659 34.6048 18.6655 34.6048C9.16508 34.6048 1.46484 34.2538 1.46484 24.7534C1.50196 20.2157 3.33059 15.8766 6.55241 12.681C9.77424 9.48544 14.1282 7.69238 18.6661 7.69238C23.2039 7.69238 27.5579 9.48544 30.7797 12.681C34.0016 15.8766 35.8302 20.2157 35.8673 24.7534H35.8662Z" fill="#F8D7E6"/>
<path d="M26.6196 34.5108C26.3698 33.4427 25.7644 32.035 24.4637 30.3672L16.043 33.4611L16.4343 34.6512" fill="white"/>
<path d="M26.6196 34.5108C26.3698 33.4427 25.7644 32.035 24.4637 30.3672L16.043 33.4611L16.4343 34.6512" stroke="#404041" stroke-width="0.8" stroke-linecap="round" stroke-linejoin="round"/>
<path d="M21.0899 34.6507L21.4041 34.3606L20.7941 30.8984L18.1836 31.2587V34.7071" fill="#8BC53F"/>
<path d="M21.0899 34.6507L21.4041 34.3606L20.7941 30.8984L18.1836 31.2587V34.7071" stroke="#404041" stroke-width="0.8" stroke-linecap="round" stroke-linejoin="round"/>
<path d="M6.66797 10.095C6.66797 10.5826 6.76401 11.0654 6.95062 11.5159C7.13722 11.9664 7.41073 12.3757 7.75552 12.7205C8.10032 13.0653 8.50966 13.3388 8.96016 13.5255C9.41066 13.7121 9.8935 13.8081 10.3811 13.8081C10.8687 13.8081 11.3516 13.7121 11.8021 13.5255C12.2526 13.3388 12.6619 13.0653 13.0067 12.7205C13.3515 12.3757 13.625 11.9664 13.8116 11.5159C13.9982 11.0654 14.0943 10.5826 14.0943 10.095C14.0943 9.11018 13.7031 8.16573 13.0067 7.46939C12.3104 6.77304 11.3659 6.38184 10.3811 6.38184C9.39633 6.38184 8.45188 6.77304 7.75552 7.46939C7.05917 8.16573 6.66797 9.11018 6.66797 10.095Z" fill="#F1F1F2" stroke="#404041" stroke-width="0.8" stroke-miterlimit="10"/>
<path d="M7.3125 16.9305C7.3125 19.9465 8.51061 22.839 10.6433 24.9716C12.7759 27.1043 15.6684 28.3024 18.6845 28.3024C21.7005 28.3024 24.593 27.1043 26.7256 24.9716C28.8583 22.839 30.0564 19.9465 30.0564 16.9305C30.0564 13.9145 28.8583 11.022 26.7256 8.88934C24.593 6.7567 21.7005 5.55859 18.6845 5.55859C15.6684 5.55859 12.7759 6.7567 10.6433 8.88934C8.51061 11.022 7.3125 13.9145 7.3125 16.9305Z" fill="white"/>
<path d="M9.33478 13.0206C8.86413 13.0177 8.39526 13.0785 7.94091 13.2013C7.72639 13.8193 7.5658 14.4547 7.46094 15.1005C8.05477 15.3452 8.69262 15.4651 9.33478 15.4527C10.8069 15.4527 12.0017 14.9082 12.0017 14.2361C12.0017 13.5639 10.8069 13.0206 9.33478 13.0206Z" fill="#F9C1B6"/>
<path d="M18.6845 25.3037C15.9293 25.3038 13.2677 24.3037 11.1943 22.4892C9.12097 20.6748 7.77676 18.1693 7.41149 15.4385C7.34597 15.9346 7.3129 16.4344 7.3125 16.9348C7.3125 19.9508 8.51061 22.8433 10.6433 24.9759C12.7759 27.1086 15.6684 28.3067 18.6845 28.3067C21.7005 28.3067 24.593 27.1086 26.7256 24.9759C28.8583 22.8433 30.0564 19.9508 30.0564 16.9348C30.056 16.4344 30.0229 15.9346 29.9574 15.4385C29.5921 18.1693 28.2479 20.6748 26.1746 22.4892C24.1012 24.3037 21.4397 25.3038 18.6845 25.3037Z" fill="#F1F1F2"/>
<path d="M7.3125 16.9305C7.3125 19.9465 8.51061 22.839 10.6433 24.9716C12.7759 27.1043 15.6684 28.3024 18.6845 28.3024C21.7005 28.3024 24.593 27.1043 26.7256 24.9716C28.8583 22.839 30.0564 19.9465 30.0564 16.9305C30.0564 13.9145 28.8583 11.022 26.7256 8.88934C24.593 6.7567 21.7005 5.55859 18.6845 5.55859C15.6684 5.55859 12.7759 6.7567 10.6433 8.88934C8.51061 11.022 7.3125 13.9145 7.3125 16.9305Z" stroke="#404041" stroke-width="0.8" stroke-linecap="round" stroke-linejoin="round"/>
<path d="M26.1602 8.98446C26.3798 8.28366 26.8023 7.66373 27.3743 7.20308C27.9463 6.74243 28.6421 6.46174 29.3736 6.39651C30.1051 6.33129 30.8395 6.48445 31.484 6.83664C32.1284 7.18882 32.654 7.72421 32.9942 8.37509C33.3343 9.02597 33.4739 9.76312 33.3951 10.4933C33.3163 11.2235 33.0227 11.9139 32.5516 12.4772C32.0804 13.0406 31.4527 13.4515 30.748 13.6581C30.0432 13.8647 29.293 13.8577 28.5922 13.638" fill="white"/>
<path d="M26.1602 8.98446C26.3798 8.28366 26.8023 7.66373 27.3743 7.20308C27.9463 6.74243 28.6421 6.46174 29.3736 6.39651C30.1051 6.33129 30.8395 6.48445 31.484 6.83664C32.1284 7.18882 32.654 7.72421 32.9942 8.37509C33.3343 9.02598 33.4739 9.76312 33.3951 10.4933C33.3163 11.2235 33.0227 11.9139 32.5516 12.4772C32.0804 13.0406 31.4527 13.4515 30.748 13.6581C30.0432 13.8647 29.293 13.8577 28.5922 13.638" stroke="#404041" stroke-width="0.8" stroke-linecap="round" stroke-linejoin="round"/>
<path d="M22.4844 14.2352C22.4844 14.5578 22.7652 14.8673 23.2652 15.0954C23.7651 15.3236 24.4431 15.4518 25.1501 15.4518C25.8571 15.4518 26.5351 15.3236 27.0351 15.0954C27.535 14.8673 27.8158 14.5578 27.8158 14.2352C27.8158 13.9125 27.535 13.603 27.0351 13.3749C26.5351 13.1467 25.8571 13.0186 25.1501 13.0186C24.4431 13.0186 23.7651 13.1467 23.2652 13.3749C22.7652 13.603 22.4844 13.9125 22.4844 14.2352Z" fill="#F9C1B6"/>
<path d="M17.2422 11.7217V13.6116" stroke="#404041" stroke-width="0.8" stroke-linecap="round" stroke-linejoin="round"/>
<path d="M17.2437 12.2877L17.8756 11.6569C17.9166 11.6158 17.9444 11.5635 17.9557 11.5065C17.9669 11.4496 17.961 11.3906 17.9387 11.337C17.9164 11.2834 17.8787 11.2376 17.8304 11.2055C17.7821 11.1733 17.7253 11.1562 17.6673 11.1563H16.8201C16.7622 11.1564 16.7056 11.1737 16.6574 11.2059C16.6093 11.2382 16.5718 11.284 16.5496 11.3375C16.5275 11.3911 16.5217 11.45 16.5329 11.5068C16.5442 11.5637 16.572 11.6159 16.613 11.6569L17.2437 12.2877Z" fill="#424143" stroke="#404041" stroke-width="0.8" stroke-miterlimit="10"/>
<path d="M19.2972 13.7324H15.1076C15.1076 13.7324 14.2904 19.3171 17.245 19.3171C20.1996 19.3171 19.2972 13.7324 19.2972 13.7324Z" fill="#E15F5F"/>
<path d="M14.0583 27.6509C14.0388 24.633 14.5521 20.799 17.2708 20.6574C17.2708 20.6574 17.6 19.2969 19.803 20.1418C22.0061 20.9866 23.1812 23.9953 23.4632 25.5641C23.4632 25.5641 24.3081 24.2762 25.2933 25.5641C26.2786 26.8521 26.3292 29.527 24.2137 32.3424C22.0981 35.1577 19.2402 32.3424 19.2402 32.3424C19.2402 32.3424 18.5795 34.3601 16.1958 34.3601C13.469 34.3601 12.3077 27.4334 13.1882 27.1088C14.0687 26.7842 14.0583 27.6509 14.0583 27.6509Z" fill="white" stroke="#404041" stroke-width="0.8" stroke-linecap="round" stroke-linejoin="round"/>
<path d="M19.2466 32.3423C19.2466 32.3423 19.112 27.5668 18.6458 25.64C18.6458 25.64 20.4483 25.3914 20.324 24.3647C20.1997 23.338 16.1596 24.71 16.0653 23.9296C15.9709 23.1492 15.9502 22.3182 19.4273 22.2825C19.4273 22.2825 19.981 22.3136 20.0431 21.7853C20.1053 21.257 19.7266 20.556 17.2738 20.6573M14.0625 27.6508C14.0625 27.6508 14.1649 29.9724 14.4746 31.258L14.0625 27.6508ZM23.4697 25.5663C23.4697 25.5663 23.7747 28.1664 23.4697 29.4567V25.5663Z" fill="white"/>
<path d="M19.2466 32.3423C19.2466 32.3423 19.112 27.5668 18.6458 25.64C18.6458 25.64 20.4483 25.3914 20.324 24.3647C20.1997 23.338 16.1596 24.71 16.0653 23.9296C15.9709 23.1492 15.9502 22.3182 19.4273 22.2825C19.4273 22.2825 19.981 22.3136 20.0431 21.7853C20.1053 21.257 19.7266 20.556 17.2738 20.6573M14.0625 27.6508C14.0625 27.6508 14.1649 29.9724 14.4746 31.258M23.4697 25.5663C23.4697 25.5663 23.7747 28.1664 23.4697 29.4567" stroke="#404041" stroke-width="0.8" stroke-linecap="round" stroke-linejoin="round"/>
<path d="M5.93954 18.4844C5.82078 19.0745 5.82394 19.6827 5.94884 20.2715C6.07374 20.8604 6.31773 21.4175 6.66582 21.9086M4.32812 20.1971C4.34505 20.8753 4.53031 21.5387 4.86725 22.1276C5.20418 22.7165 5.68222 23.2124 6.25836 23.5707M27.5198 29.4546C27.5198 29.4546 28.4475 30.792 28.5488 32.3424M28.5488 28.3024C29.2191 29.1473 29.608 30.181 29.6606 31.2582" stroke="#404041" stroke-width="0.8" stroke-linecap="round" stroke-linejoin="round"/>
<path d="M19.4115 16.0875C18.8901 15.9997 18.3622 15.9554 17.8335 15.9551C16.8886 15.9518 15.9488 16.0935 15.0469 16.3753C15.1919 17.8186 15.7099 19.3161 17.2395 19.3161C18.8763 19.3161 19.3309 17.6137 19.4115 16.0875Z" fill="#EF8E8E"/>
<path d="M19.2972 13.7324H15.1076C15.1076 13.7324 14.2904 19.3171 17.245 19.3171C20.1996 19.3171 19.2972 13.7324 19.2972 13.7324Z" stroke="#333333" stroke-width="0.8" stroke-linecap="round" stroke-linejoin="round"/>
<path d="M34.0366 7.49542C33.9719 7.49536 33.9073 7.49074 33.8433 7.48161C33.4727 7.43097 33.1135 7.08682 33.1699 6.65634C33.1934 6.4942 33.2628 6.34216 33.3698 6.21816C33.4769 6.09416 33.6172 6.00338 33.7742 5.95654C33.7593 5.94618 33.7443 5.93352 33.7293 5.92085C33.2424 5.49614 33.3 4.68813 33.3944 3.96415C33.4163 3.7915 33.4439 3.6108 33.4715 3.42318C33.4991 3.23557 33.5314 3.02494 33.559 2.8143L33.5831 2.50353C33.5901 2.45289 33.5958 2.38843 33.6004 2.33779C33.605 2.28714 33.6108 2.2319 33.6142 2.19852L33.6246 2.12255C33.6349 2.03643 33.6565 1.95205 33.689 1.87163C33.6948 1.85801 33.7017 1.84492 33.7098 1.8325C33.7961 1.70128 33.9768 1.5459 34.3451 1.5459C34.4113 1.54607 34.4775 1.55069 34.5431 1.55971C34.8281 1.59745 35.101 1.69852 35.3419 1.85552C35.4931 1.95142 35.6205 2.08059 35.7142 2.23319C35.808 2.38578 35.8657 2.55777 35.8829 2.73603C35.9133 2.96903 35.9091 3.20525 35.8702 3.43699C35.7355 4.33362 35.2567 5.3442 34.9724 5.67339C34.8605 5.8102 34.7223 5.92329 34.5661 6.00603C34.6802 6.06153 34.7798 6.14268 34.8573 6.24313C34.9126 6.31612 34.9526 6.3995 34.975 6.48829C34.9973 6.57709 35.0015 6.66947 34.9874 6.75993C34.9206 7.21803 34.5569 7.49542 34.0366 7.49542Z" fill="#404041"/>
<path d="M34.3424 1.78187C34.3986 1.78239 34.4547 1.78623 34.5105 1.79338C34.76 1.82628 34.999 1.91435 35.2103 2.05121C35.3348 2.12988 35.4395 2.23625 35.5162 2.36203C35.5928 2.48781 35.6394 2.6296 35.6523 2.77634C35.6789 2.98723 35.6746 3.20088 35.6396 3.41054C35.5153 4.24156 35.0641 5.22337 34.7959 5.53068C34.6394 5.71139 34.4333 5.87598 34.21 5.87598C34.1894 5.8777 34.1686 5.8777 34.1479 5.87598C34.0488 5.86747 33.9551 5.82709 33.8809 5.76088C33.5068 5.4363 33.5171 4.80325 33.6196 4.00791C33.6656 3.6534 33.7347 3.26551 33.7853 2.85691C33.7934 2.75102 33.8026 2.64512 33.8106 2.53923C33.8199 2.46442 33.8325 2.30903 33.8406 2.24573C33.8406 2.2204 33.8475 2.19508 33.8498 2.16976C33.8582 2.10387 33.8748 2.03929 33.8993 1.97754C33.9522 1.91273 34.0204 1.86208 34.0978 1.83013C34.1751 1.79819 34.2592 1.78596 34.3424 1.79453M34.1122 6.14877C34.1507 6.14843 34.1892 6.15112 34.2273 6.15683C34.5427 6.20057 34.8109 6.42156 34.7637 6.74499C34.7004 7.11446 34.3792 7.26524 34.0339 7.26524C33.9797 7.26484 33.9255 7.261 33.8717 7.25373C33.6414 7.2215 33.356 6.99361 33.3951 6.68514C33.4148 6.55845 33.4724 6.4407 33.5604 6.34741C33.6483 6.25413 33.7625 6.18968 33.8878 6.16258C33.9592 6.14188 34.0332 6.13141 34.1076 6.13151M34.3378 1.31687C33.8417 1.31687 33.6069 1.56088 33.5102 1.70706C33.4939 1.73175 33.4801 1.75796 33.4688 1.78532C33.4285 1.88496 33.4014 1.98944 33.3882 2.0961L33.379 2.16976C33.379 2.20659 33.3698 2.26069 33.3641 2.31709C33.3583 2.37349 33.3537 2.43219 33.3491 2.46326V2.48628L33.3307 2.72684L33.3249 2.7913C33.2985 2.99618 33.2685 3.19645 33.2386 3.38982C33.2087 3.58319 33.1834 3.76044 33.1603 3.9354C33.0729 4.626 33.0153 5.3776 33.3905 5.8921C33.2678 5.97605 33.1642 6.08495 33.0864 6.21169C33.0087 6.33843 32.9586 6.48015 32.9393 6.62759C32.8657 7.19388 33.3295 7.64507 33.8095 7.71068C33.8839 7.72077 33.9589 7.72577 34.0339 7.72564C34.667 7.72564 35.1297 7.35962 35.2126 6.79333C35.2309 6.67245 35.225 6.54912 35.1951 6.43055C35.1653 6.31198 35.1121 6.20054 35.0388 6.10273C35.0139 6.07034 34.9874 6.03922 34.9594 6.0095C35.0254 5.95131 35.0873 5.88862 35.1447 5.82189C35.49 5.42479 35.9619 4.36011 36.0954 3.46924C36.1374 3.21379 36.1413 2.95351 36.1069 2.69692C36.0851 2.48734 36.0164 2.28538 35.9058 2.10603C35.7952 1.92669 35.6456 1.77458 35.4681 1.66102C35.1983 1.4845 34.8922 1.37082 34.5726 1.32838C34.4963 1.31806 34.4194 1.31267 34.3424 1.31226L34.3378 1.31687ZM30.8595 7.11676C30.8095 7.11695 30.7595 7.11426 30.7098 7.10871C30.3381 7.06957 29.9686 6.73693 30.0112 6.30301C30.0298 6.1404 30.0945 5.98652 30.1977 5.85947C30.3009 5.73243 30.4383 5.63752 30.5936 5.58593C30.5786 5.57557 30.5637 5.56291 30.5487 5.55025C30.0469 5.14049 30.0814 4.33134 30.1527 3.60621C30.17 3.43586 30.1919 3.26091 30.2138 3.07214C30.2356 2.88338 30.2621 2.66239 30.284 2.44715C30.284 2.44715 30.2989 2.13178 30.2989 2.12832C30.2989 2.09034 30.3058 2.03279 30.3093 1.97869C30.3127 1.9246 30.3162 1.86359 30.3196 1.83367L30.3277 1.7577C30.3346 1.67146 30.3536 1.58661 30.3841 1.50563C30.3895 1.49204 30.396 1.47894 30.4037 1.4665C30.49 1.32608 30.6765 1.15918 31.0701 1.15918C31.1232 1.15951 31.1762 1.16258 31.2289 1.16839C31.5146 1.19609 31.7901 1.2886 32.0346 1.43887C32.1883 1.53011 32.3192 1.65517 32.4173 1.80454C32.5154 1.95392 32.5782 2.1237 32.6009 2.30097C32.6391 2.53284 32.6422 2.76914 32.6101 3.00193C32.5043 3.90317 32.0565 4.92756 31.7826 5.26595C31.6742 5.40558 31.5397 5.52285 31.3866 5.61125C31.5021 5.66388 31.6038 5.7427 31.6836 5.84145C31.7414 5.91268 31.7842 5.9949 31.8093 6.08314C31.8344 6.17137 31.8414 6.2638 31.8298 6.3548C31.7768 6.81635 31.3958 7.11676 30.8595 7.11676Z" fill="#404041"/>
<path d="M31.0731 1.39665C31.1168 1.39665 31.1617 1.39665 31.2077 1.4047C31.4576 1.42765 31.6991 1.50631 31.9145 1.6349C32.0403 1.70972 32.1473 1.81247 32.2271 1.93521C32.307 2.05794 32.3575 2.19739 32.3749 2.34277C32.408 2.55271 32.4103 2.76636 32.3818 2.97697C32.2828 3.81145 31.8581 4.80821 31.6025 5.12244C31.4495 5.31235 31.2434 5.4827 31.0155 5.4827H30.9672C30.8678 5.4776 30.7726 5.44091 30.6956 5.37796C30.3123 5.06374 30.3031 4.43183 30.3825 3.63304C30.417 3.27853 30.4711 2.88834 30.5125 2.47283C30.5125 2.36694 30.5229 2.26105 30.5275 2.15516C30.5356 2.07919 30.5413 1.92495 30.5482 1.8605C30.5482 1.83518 30.5482 1.80985 30.5563 1.78453C30.5616 1.71843 30.5759 1.65337 30.5989 1.59116C30.6875 1.44844 30.8647 1.39319 31.0696 1.39319M30.9614 5.75318C30.9898 5.75143 31.0182 5.75143 31.0466 5.75318C31.3643 5.78656 31.6371 6.00065 31.6002 6.32869C31.5554 6.72693 31.2147 6.88922 30.859 6.88922C30.8171 6.88925 30.7752 6.88694 30.7335 6.88232C30.4964 6.857 30.2098 6.6383 30.2398 6.32869C30.2556 6.20162 30.3095 6.08231 30.3943 5.98639C30.4791 5.89048 30.5909 5.82243 30.7151 5.79117C30.7948 5.76581 30.8779 5.75299 30.9614 5.75318ZM31.0731 0.936245C30.5471 0.936245 30.3077 1.19752 30.211 1.35176C30.1956 1.37704 30.1826 1.40362 30.1718 1.43118C30.1343 1.53111 30.1103 1.63563 30.1005 1.74195L30.0947 1.7995V1.81561C30.0947 1.85244 30.0878 1.90999 30.0844 1.96869C30.0809 2.02739 30.0775 2.07458 30.074 2.10912C30.0734 2.11716 30.0734 2.12524 30.074 2.13329L30.0671 2.26105L30.059 2.4406C30.0383 2.64893 30.0142 2.85266 29.99 3.05063C29.9658 3.24861 29.9462 3.4155 29.929 3.58815C29.8611 4.27875 29.8277 5.03381 30.2167 5.5368C30.0964 5.62408 29.9959 5.73589 29.9219 5.86485C29.8479 5.99381 29.802 6.13699 29.7874 6.28495C29.731 6.85354 30.2087 7.29092 30.6909 7.34157C30.7496 7.34732 30.806 7.35077 30.8647 7.35077C31.5151 7.35077 31.9973 6.96174 32.0641 6.38278C32.0784 6.26154 32.0685 6.13866 32.0349 6.02128C32.0013 5.90391 31.9447 5.79439 31.8684 5.69909C31.8436 5.66702 31.8163 5.637 31.7867 5.60931C31.8502 5.54791 31.9098 5.48256 31.9651 5.41364C32.2955 5.00503 32.7374 3.9277 32.8433 3.03222C32.8776 2.77562 32.8737 2.51536 32.8318 2.2599C32.8027 2.05167 32.7274 1.85257 32.6115 1.67714C32.4956 1.5017 32.342 1.35436 32.1619 1.24586C31.8864 1.07838 31.5769 0.974567 31.2561 0.942C31.1957 0.935204 31.135 0.931746 31.0742 0.931641L31.0731 0.936245ZM27.1033 6.78333H27.002C26.7073 6.76376 26.3033 6.6291 26.1295 6.32293C26.113 6.29357 26.1032 6.26096 26.1007 6.2274C26.0861 5.85862 26.0926 5.48931 26.1203 5.12128C26.141 4.78519 26.1675 4.47672 26.202 4.17977C26.2319 3.85979 26.2699 3.54441 26.3033 3.26702C26.3033 3.22904 26.3125 3.19106 26.316 3.15192C26.164 3.13351 25.9707 3.10933 25.8268 3.08286C25.6377 3.06007 25.4573 2.99044 25.3019 2.88029C25.0821 2.74447 24.9566 2.37615 24.9843 1.90884C25.0107 1.35291 25.3457 0.994946 25.8371 0.994946H25.8901C26.2354 1.01336 26.5749 1.03408 26.9156 1.05595C27.5061 1.09278 28.0172 1.13997 28.3233 1.17105C28.4235 1.18026 28.5017 1.18831 28.5535 1.19177C29.0957 1.23551 29.4479 1.37478 29.6642 1.63145C29.751 1.74153 29.8144 1.86806 29.8508 2.00338C29.8873 2.1387 29.8958 2.28 29.876 2.41873C29.8093 3.13696 28.999 3.1853 28.4085 3.22444L28.2934 3.23134C28.2635 3.66297 28.2439 4.24652 28.2266 4.72074C28.214 5.09021 28.2002 5.48155 28.1714 5.85102C28.1714 5.91432 28.1599 5.97993 28.153 6.04439C28.1461 6.10884 28.1392 6.15949 28.1357 6.22049C28.1318 6.2679 28.1133 6.31294 28.0828 6.3494C27.9614 6.4893 27.8108 6.60073 27.6415 6.67573C27.4722 6.75073 27.2884 6.78747 27.1033 6.78333Z" fill="#404041"/>
<path d="M25.8381 1.21912H25.8784C26.2237 1.23754 26.5609 1.2571 26.9028 1.27897C27.6843 1.32846 28.3266 1.39407 28.5361 1.41134C29.1967 1.46428 29.7124 1.67952 29.6479 2.38854C29.5904 3.00662 28.7168 2.94332 28.0826 3.00317C28.0826 3.0377 28.0768 3.07338 28.0745 3.10906C28.0411 3.53954 28.0193 4.13806 27.9997 4.6986C27.987 5.07037 27.9732 5.45596 27.9456 5.81967C27.9364 5.93477 27.918 6.06829 27.9088 6.18914C27.8099 6.30574 27.6863 6.3988 27.5469 6.46153C27.4075 6.52425 27.2559 6.55506 27.1031 6.55171H27.0167C26.7566 6.53329 26.4481 6.41474 26.3261 6.20641C26.3114 5.84761 26.3179 5.48825 26.3457 5.13022C26.3653 4.8206 26.3906 4.51098 26.4263 4.20136C26.47 3.73291 26.5299 3.27366 26.5667 2.95023C26.4804 2.93641 26.0994 2.89843 25.8634 2.85469C25.7056 2.83819 25.5548 2.78065 25.426 2.6878C25.3178 2.6291 25.1866 2.37933 25.2085 1.91778C25.2304 1.45623 25.4962 1.22718 25.8323 1.22718M25.8323 0.766776C25.3201 0.766776 24.7872 1.11208 24.7492 1.89936C24.7216 2.45299 24.877 2.88577 25.1659 3.07223C25.35 3.20091 25.5624 3.28342 25.7851 3.31279C25.8669 3.32775 25.9613 3.34157 26.0556 3.35423C26.0257 3.60169 25.9946 3.87563 25.9682 4.15993C25.9336 4.46034 25.9072 4.76996 25.8864 5.10835C25.857 5.48629 25.8505 5.86566 25.8669 6.24439C25.8716 6.31214 25.8909 6.37807 25.9233 6.43776C26.142 6.8291 26.6139 6.996 26.981 7.02132H27.0961C27.3167 7.02385 27.5351 6.97759 27.7356 6.88586C27.9362 6.79413 28.114 6.65919 28.2564 6.49071C28.3166 6.41748 28.3528 6.32744 28.36 6.23288C28.36 6.17763 28.3703 6.11778 28.3761 6.06484C28.3818 6.01189 28.391 5.92902 28.3956 5.86226C28.4244 5.48933 28.4394 5.09569 28.452 4.72392C28.4658 4.32222 28.4831 3.84225 28.5061 3.444C29.1093 3.40602 30.0174 3.30934 30.098 2.44033C30.1215 2.27109 30.1102 2.09883 30.0646 1.93414C30.0191 1.76945 29.9404 1.61582 29.8332 1.4827C29.4879 1.07985 28.947 0.992373 28.5671 0.962447L28.3369 0.941728C28.0296 0.914104 27.5151 0.866913 26.9212 0.826628L25.8933 0.765625L25.8323 0.766776Z" fill="#404041"/>
<path d="M23.9299 6.5599C23.7549 6.5599 23.55 6.55415 23.3544 6.54839C22.7789 6.52998 22.1896 6.51041 22.2034 5.73348C22.2034 5.585 22.216 5.2397 22.5118 5.09007C22.5751 5.06192 22.6347 5.02596 22.6891 4.98303C22.6891 4.75283 22.7041 4.52263 22.7121 4.27401C22.7225 3.98626 22.734 3.68585 22.742 3.36587C22.742 3.27725 22.7512 3.18171 22.7581 3.08388C22.7651 2.98604 22.772 2.89166 22.7743 2.79843C22.7885 2.67605 22.7838 2.55222 22.7605 2.43126C22.7535 2.40824 22.7489 2.39558 22.6534 2.35875C22.4232 2.27127 22.292 2.02841 22.3 1.69347C22.3005 1.51879 22.3448 1.34702 22.429 1.19393C22.62 0.892371 23.0678 0.848633 23.4361 0.848633H23.6352L23.8205 0.855539C24.3109 0.872804 25.1315 0.901579 25.1407 1.64973V1.74641C25.1453 1.90562 25.0976 2.06193 25.0049 2.19144C24.9122 2.32094 24.7796 2.4165 24.6274 2.46349C24.6136 2.64995 24.6044 2.879 24.5963 3.06661L24.5641 3.8516C24.556 4.05187 24.5388 4.26596 24.5215 4.47314C24.5042 4.68032 24.4904 4.86448 24.4835 5.03828V5.05439C24.7874 5.22589 24.9278 5.36056 24.9082 5.79333C24.891 6.19964 24.693 6.46897 24.3684 6.53228C24.2233 6.55437 24.0766 6.56362 23.9299 6.5599Z" fill="#404041"/>
<path d="M23.4312 1.07801H23.8076C24.5592 1.10563 24.8999 1.22879 24.9057 1.6466V1.72947C24.8907 2.06211 24.733 2.17606 24.4982 2.25778C24.4703 2.2677 24.4459 2.28548 24.428 2.30897C24.41 2.33246 24.3992 2.36066 24.3969 2.39015C24.3796 2.60193 24.3693 2.87472 24.3601 3.09341L24.329 3.83581C24.3129 4.22139 24.2634 4.65992 24.2484 5.02249C24.2404 5.0645 24.2458 5.10795 24.2638 5.14675C24.2817 5.18555 24.3114 5.21777 24.3486 5.23888C24.6144 5.38621 24.6939 5.44376 24.6743 5.77639C24.6628 6.01926 24.5753 6.24946 24.3198 6.3001C24.1912 6.31699 24.0615 6.32391 23.9319 6.32082C23.7615 6.32082 23.5624 6.31506 23.3656 6.30931C22.6819 6.28744 22.431 6.22989 22.4448 5.73381C22.4448 5.56001 22.469 5.37124 22.6267 5.29182C22.8154 5.19744 22.9179 5.11687 22.9294 5.02709C22.9432 4.51144 22.9674 3.97393 22.9835 3.3685C22.9892 3.19355 23.0099 2.99097 23.0157 2.80106C23.0274 2.64673 23.0158 2.49151 22.9812 2.34066C22.9443 2.22556 22.8661 2.17836 22.7395 2.12887C22.5887 2.07247 22.5288 1.89867 22.5334 1.68458C22.5318 1.55363 22.5626 1.42431 22.6232 1.30821C22.7498 1.10793 23.1043 1.0688 23.4393 1.0688M23.4393 0.608398C23.0468 0.608398 22.4966 0.654439 22.2376 1.05614C22.1264 1.24651 22.0676 1.46296 22.0673 1.68343C22.0558 2.1047 22.2353 2.43043 22.5461 2.5605C22.55 2.63718 22.55 2.71401 22.5461 2.7907C22.5461 2.87817 22.5369 2.97371 22.5311 3.06694C22.5254 3.16017 22.5173 3.26376 22.515 3.35929C22.5058 3.67812 22.4943 3.97738 22.4851 4.26513C22.477 4.46771 22.4701 4.66338 22.4644 4.85559L22.4126 4.88207C21.9913 5.095 21.9798 5.55425 21.9763 5.7269C21.9533 6.73288 22.7901 6.7628 23.3449 6.77777C23.5417 6.77777 23.7477 6.78928 23.9204 6.78928C24.0798 6.79379 24.2393 6.78377 24.3969 6.75935C24.8274 6.67533 25.099 6.31852 25.122 5.80517C25.1451 5.29182 24.9644 5.095 24.7031 4.92926C24.7111 4.79229 24.7226 4.64611 24.7353 4.49303C24.7514 4.28355 24.7687 4.06716 24.7779 3.86228L24.7928 3.49166L24.8078 3.12103V3.0773C24.8136 2.93687 24.8205 2.77113 24.8297 2.6169C24.9889 2.53704 25.1224 2.41391 25.2149 2.26162C25.3073 2.10933 25.3549 1.93407 25.3522 1.75595V1.67192C25.3528 1.66311 25.3528 1.65427 25.3522 1.64545C25.3407 0.677459 24.268 0.639476 23.811 0.623362H23.4174L23.4393 0.608398ZM19.3048 6.50958C18.4473 6.50958 17.8258 6.30586 17.507 5.91797C17.0661 5.3793 16.9913 4.27088 16.9787 3.81969C16.9522 2.83674 17.172 1.62703 17.8661 1.17239C18.2425 0.929528 18.9388 0.764935 19.5984 0.762633H19.6145C20.0208 0.762633 20.5721 0.829391 20.8886 1.14937C20.9685 1.23006 21.0311 1.32616 21.0727 1.43183C21.1142 1.5375 21.1339 1.65051 21.1303 1.764C21.1344 1.85418 21.1235 1.94441 21.0981 2.03104C20.9381 2.49144 20.3454 2.5087 19.8228 2.52712C19.5189 2.53748 19.0585 2.55359 19.024 2.69056C19.0135 2.74788 19.0089 2.80611 19.0102 2.86436H19.1817C19.7146 2.86436 20.3764 2.87357 20.3741 3.47209C20.3741 4.31462 19.5684 4.40325 19.0286 4.4562C19.0321 4.5098 19.0549 4.56033 19.0928 4.59843C19.1306 4.63652 19.181 4.65959 19.2346 4.66338C19.2899 4.67258 19.5074 4.68064 19.6202 4.68064C19.7615 4.67744 19.9026 4.6663 20.0426 4.64726C20.1919 4.6274 20.3421 4.61587 20.4927 4.61273C20.5856 4.61143 20.6779 4.6289 20.7639 4.6641C20.85 4.69931 20.928 4.75152 20.9934 4.81761C21.1278 4.95577 21.2019 5.14165 21.1994 5.33441C21.1902 6.06875 20.5088 6.49577 19.3348 6.50613L19.3048 6.50958Z" fill="#404041"/>
<path d="M19.6116 0.997614C20.2216 0.997614 20.903 1.1576 20.8973 1.76648C20.899 1.82986 20.8932 1.89322 20.88 1.95525C20.6682 2.57794 18.9521 2.02776 18.7979 2.64585C18.7816 2.72807 18.7747 2.81185 18.7771 2.89562C18.7773 2.9666 18.7835 3.03745 18.7956 3.1074H19.1673C19.6818 3.1074 20.1422 3.11315 20.1411 3.48378C20.1411 4.21006 19.363 4.1951 18.784 4.26301V4.36084C18.784 4.59104 18.8681 4.85232 19.195 4.90296C19.3345 4.9173 19.4748 4.92421 19.6151 4.92368C19.9247 4.92368 20.2032 4.85577 20.4887 4.85577H20.4956C20.5588 4.85604 20.6214 4.86902 20.6795 4.89394C20.7377 4.91887 20.7902 4.95523 20.834 5.00086C20.8778 5.0465 20.912 5.10047 20.9346 5.15958C20.9571 5.21869 20.9675 5.28173 20.9652 5.34495C20.956 6.13223 19.973 6.28301 19.3285 6.28877H19.3054C18.5216 6.28877 17.9519 6.10461 17.686 5.78118C17.3695 5.39444 17.2256 4.57953 17.2095 3.82447C17.1841 2.86339 17.4017 1.76418 17.991 1.38205C18.2937 1.18753 18.921 1.01143 19.6024 1.00912H19.6185M19.6185 0.548724H19.6001C18.8911 0.548724 18.1625 0.725978 17.7447 0.995312C17.4984 1.1553 16.6996 1.83209 16.7525 3.83714C16.7686 4.4276 16.8676 5.50263 17.328 6.07583C17.6929 6.51782 18.3766 6.75147 19.3043 6.75147H19.3342C21.2104 6.73536 21.4245 5.76736 21.4291 5.353C21.4308 5.22714 21.4078 5.10216 21.3612 4.98523C21.3145 4.8683 21.2453 4.76173 21.1574 4.67161C21.0717 4.58475 20.9695 4.5158 20.8569 4.46877C20.7443 4.42174 20.6234 4.39757 20.5013 4.39767H20.4921C20.3648 4.39884 20.2376 4.40729 20.1112 4.42299C20.2673 4.32311 20.3949 4.18433 20.4812 4.02028C20.5676 3.85622 20.6098 3.67253 20.6038 3.48723C20.6063 3.32943 20.5597 3.17476 20.4704 3.04463C20.3811 2.9145 20.2535 2.81537 20.1054 2.76095C20.6061 2.73102 21.1344 2.63434 21.314 2.12675C21.3483 2.01894 21.3639 1.90603 21.36 1.79296V1.78605C21.3642 1.6415 21.3391 1.4976 21.2861 1.36306C21.233 1.22852 21.1532 1.10615 21.0515 1.00337C20.6797 0.626992 20.0651 0.542969 19.6139 0.542969L19.6185 0.548724Z" fill="#404041"/>
<path d="M14.5177 6.62603C13.6302 6.62603 13.3264 5.96765 13.0041 5.2713L12.9512 5.1562C12.4873 4.11855 12.1145 3.04253 11.837 1.9403C11.8359 1.92728 11.8359 1.91419 11.837 1.90117C11.8151 1.47645 12.1385 1.17949 12.6611 1.14611H12.7693C13.1906 1.14611 13.5681 1.3084 13.7557 1.56853L13.7638 1.58119C13.9038 1.84711 14.0127 2.12827 14.0884 2.41912C14.1401 2.58716 14.1942 2.76442 14.2495 2.90714L14.4037 3.31575C14.4739 3.50336 14.5338 3.66105 14.5902 3.80953C14.6797 3.58458 14.7539 3.35386 14.8123 3.11892V3.10511C14.9228 2.73833 15.0341 2.37154 15.1461 2.00476C15.3372 1.33142 15.6906 0.993025 16.2258 0.974609H16.2983C17.0856 0.974609 17.2248 1.48335 17.2387 1.78031C17.2536 2.3489 16.967 3.06253 16.7783 3.53329L16.7564 3.58853C16.6781 3.78075 16.6022 3.97757 16.5262 4.17324C16.0462 5.40251 15.5939 6.57538 14.6984 6.62027H14.6213C14.5833 6.62603 14.5499 6.62603 14.5177 6.62603Z" fill="#404041"/>
<path d="M16.2947 1.18829C16.6964 1.18829 16.9853 1.32641 17.0049 1.77875C17.0175 2.28749 16.7574 2.94587 16.5606 3.43734C16.5525 3.45461 16.5456 3.47303 16.5387 3.49144C15.9954 4.83581 15.5592 6.34477 14.6787 6.38966H14.5164C13.7717 6.38966 13.5208 5.83833 13.2054 5.15579L13.1605 5.0522C12.9084 4.51468 12.3145 3.00687 12.0601 1.87889C12.0417 1.52323 12.3709 1.38396 12.669 1.36439H12.7622C13.0868 1.36439 13.4091 1.47949 13.561 1.69012C13.7395 1.97557 13.8684 2.56028 14.0272 2.97579C14.2045 3.44425 14.3253 3.77114 14.4335 4.04738C14.4692 4.12795 14.5267 4.21427 14.5739 4.21427C14.7224 4.20621 14.9607 3.43734 15.0274 3.15305C15.1372 2.78626 15.2484 2.41948 15.3612 2.05269C15.5419 1.41619 15.8493 1.19865 16.2279 1.18599H16.2924M16.2924 0.725586H16.2118C15.5742 0.747455 15.1391 1.15031 14.9192 1.92263C14.8041 2.2898 14.6948 2.65927 14.5866 3.02068C14.5834 3.02934 14.5807 3.03818 14.5785 3.04716C14.5749 3.06618 14.5703 3.085 14.5647 3.10355C14.5313 3.01263 14.4945 2.91709 14.4565 2.8135C14.4024 2.67308 14.3495 2.50273 14.2988 2.33814C14.2191 2.02866 14.1032 1.72965 13.9535 1.44726L13.9363 1.42194C13.7061 1.09736 13.2652 0.903991 12.7634 0.903991H12.6391C11.9899 0.946578 11.5721 1.34713 11.6032 1.90191C11.6053 1.92784 11.6092 1.9536 11.6147 1.97903C11.8748 3.13003 12.478 4.67122 12.745 5.24212L12.7588 5.27434L12.7876 5.33995V5.34801L12.7933 5.36067C13.1156 6.05817 13.4839 6.84891 14.5198 6.84891H14.7109C15.7618 6.79597 16.2394 5.55749 16.7459 4.24535C16.8196 4.05313 16.8967 3.85401 16.9761 3.66294L16.9853 3.64222L16.998 3.6123C17.1959 3.11967 17.4929 2.37957 17.4768 1.77069V1.76264C17.4641 1.45302 17.3237 0.726737 16.3074 0.726737L16.2924 0.725586Z" fill="#404041"/>
<path d="M9.73188 6.99321C8.3219 6.99321 7.4667 6.08852 7.25837 4.37583C7.15363 3.52064 7.34585 2.73795 7.80049 2.17281C8.21025 1.66062 8.81338 1.3533 9.54542 1.28194C9.6398 1.27273 9.73419 1.26813 9.82627 1.26813C10.2034 1.26007 10.5771 1.34102 10.917 1.5044C11.257 1.66779 11.5537 1.90901 11.783 2.20849C12.0926 2.60674 12.2779 3.188 12.3332 3.935C12.4816 6.0068 11.2132 6.87235 10.0829 6.97939C9.96093 6.98745 9.84353 6.99321 9.73188 6.99321ZM9.81706 3.13735H9.73994C9.68117 3.14009 9.6236 3.15501 9.5709 3.18116C9.51819 3.20731 9.4715 3.24413 9.43377 3.28928C9.29795 3.45503 9.24501 3.7681 9.28644 4.16865C9.32443 4.52661 9.50629 5.05952 9.85504 5.05952H9.89418C10.3477 5.01579 10.4041 4.48402 10.373 4.03974C10.3143 3.13735 9.96554 3.13735 9.81706 3.13735Z" fill="#404041"/>
<path d="M9.82561 1.49829C10.1664 1.49027 10.5042 1.56282 10.8116 1.71003C11.119 1.85723 11.3873 2.07494 11.5947 2.34543C11.94 2.78281 12.0551 3.39744 12.1 3.94877C12.1932 5.25861 11.6281 6.59608 10.057 6.74686C9.94186 6.75722 9.83712 6.76297 9.73238 6.76297C8.29823 6.76297 7.66057 5.73282 7.48792 4.34587C7.31296 2.92899 8.00932 1.66288 9.56779 1.51095C9.65526 1.50289 9.74159 1.49829 9.82561 1.49829ZM9.85439 5.2966C9.87471 5.29774 9.89507 5.29774 9.91539 5.2966C10.5507 5.23559 10.6382 4.54499 10.606 4.03049C10.5646 3.38133 10.3666 2.91287 9.82101 2.91287C9.78842 2.91122 9.75576 2.91122 9.72317 2.91287C9.11084 2.97157 9.00034 3.60347 9.0625 4.19624C9.10854 4.63937 9.34449 5.29429 9.85899 5.29429M9.83022 1.03559C9.72759 1.03528 9.62501 1.04027 9.5229 1.05055C8.72755 1.12767 8.07033 1.46491 7.62028 2.02545C7.1265 2.64123 6.91702 3.48492 7.02982 4.40227C7.24966 6.2197 8.2096 7.22107 9.73123 7.22107C9.84633 7.22107 9.97524 7.22107 10.1019 7.20265C10.9697 7.11978 11.658 6.71348 12.0908 6.02633C12.4488 5.45889 12.6145 4.70843 12.5581 3.91309C12.5017 3.11775 12.298 2.50311 11.9596 2.06458C11.7092 1.73803 11.3857 1.4748 11.0151 1.29608C10.6444 1.11736 10.237 1.02813 9.82561 1.03559H9.83022ZM9.85899 4.83389C9.72202 4.83389 9.55628 4.50125 9.51945 4.14329C9.47916 3.7554 9.54247 3.52175 9.61613 3.43312C9.63468 3.41136 9.65782 3.39398 9.6839 3.38224C9.70997 3.3705 9.73832 3.36468 9.76691 3.36521H9.82101C9.91194 3.36521 10.1019 3.36521 10.1467 4.05582C10.1675 4.33551 10.1583 4.80512 9.87626 4.83274L9.85899 4.83389Z" fill="#404041"/>
<path d="M5.54902 7.46928C4.71914 7.46928 4.2104 7.12398 3.99171 6.42072C3.84705 5.94153 3.73666 5.45265 3.66137 4.9578C3.5545 4.21001 3.49683 3.45602 3.48872 2.70069C3.48814 2.69456 3.48814 2.68839 3.48872 2.68227C3.51634 2.21036 3.94912 1.98246 4.30823 1.93067C4.42777 1.91122 4.54856 1.90045 4.66965 1.89844C5.13005 1.89844 5.41205 2.139 5.51909 2.63278V2.65119C5.51909 2.67575 5.5237 2.69992 5.5329 2.72371C5.53981 2.75939 5.54672 2.79507 5.55132 2.83075C5.56053 2.90902 5.57319 3.05404 5.59046 3.2405C5.63534 3.73774 5.70556 4.56876 5.78267 5.09132C5.79994 5.21217 5.81605 5.3008 5.82986 5.3641C5.97464 5.35955 6.11908 5.34765 6.26264 5.32842C6.42752 5.30618 6.59354 5.2935 6.75988 5.29044C6.8819 5.29006 7.00368 5.30124 7.1236 5.32382C7.48501 5.39633 7.68184 5.61962 7.72903 6.00521C7.8706 7.2011 7.08677 7.30584 6.3271 7.40713C6.22466 7.42094 6.1533 7.42785 6.0969 7.43245L6.02784 7.43936C5.86892 7.45829 5.70906 7.46828 5.54902 7.46928Z" fill="#404041"/>
<path d="M4.674 2.12819C4.97327 2.12819 5.20232 2.2433 5.299 2.68068C5.30706 2.74168 5.32317 2.79578 5.33123 2.86023C5.36001 3.13072 5.4636 4.40257 5.56143 5.1231C5.57561 5.2828 5.61083 5.43993 5.66617 5.59041H5.79509C6.14039 5.59041 6.44541 5.51789 6.76654 5.51789C6.87389 5.5168 6.98108 5.52644 7.08652 5.54667C7.34549 5.59846 7.4721 5.73543 7.50663 6.02894C7.62173 6.99233 7.08997 7.06484 6.30383 7.17994C6.14384 7.20181 6.06672 7.20411 6.00572 7.21217C5.85516 7.22945 5.70377 7.23868 5.55222 7.23979C4.88924 7.23979 4.42193 7.02225 4.21475 6.35352C4.07366 5.88484 3.96596 5.40674 3.89247 4.92283C3.78612 4.18504 3.72883 3.44101 3.72097 2.69564C3.74399 2.3089 4.16756 2.18459 4.34367 2.15927C4.45253 2.14136 4.56255 2.13136 4.67285 2.12935M4.67285 1.66895C4.54059 1.67091 4.40865 1.68245 4.27806 1.70348C3.79579 1.77369 3.2951 2.09942 3.26172 2.66917V2.706C3.2701 3.47139 3.32893 4.23539 3.43782 4.99304C3.51394 5.4992 3.62626 5.99925 3.77392 6.48934C4.02369 7.29504 4.62106 7.70365 5.55222 7.70365C5.72068 7.70253 5.88896 7.69254 6.05636 7.67372H6.12773C6.18182 7.67372 6.25779 7.66221 6.36714 7.64725C7.11069 7.54711 8.13278 7.41705 7.96358 5.99096C7.89107 5.37977 7.49627 5.1749 7.1786 5.11044C7.04271 5.08522 6.90474 5.07288 6.76654 5.07361C6.59177 5.07643 6.41731 5.08911 6.24398 5.11159C6.17031 5.1208 6.0978 5.12886 6.02644 5.13461C6.02644 5.11504 6.02068 5.09433 6.01723 5.07246C5.94587 4.55566 5.87105 3.72694 5.82616 3.23085C5.8089 3.04209 5.79624 2.89591 5.78818 2.82225V2.81074C5.78127 2.7647 5.77322 2.72211 5.76631 2.68873C5.7594 2.65535 5.75825 2.65075 5.7548 2.63118C5.75135 2.61162 5.7548 2.60701 5.7548 2.59435C5.62359 1.99583 5.25181 1.67355 4.67976 1.67355L4.67285 1.66895Z" fill="#404041"/>
<path d="M33.4585 7.26576C33.3939 7.26552 33.3293 7.26129 33.2652 7.2531C32.8945 7.20245 32.5354 6.8583 32.5918 6.42668C32.6151 6.26459 32.6844 6.11259 32.7915 5.98875C32.8986 5.8649 33.0391 5.7744 33.1961 5.72802C33.1807 5.71671 33.1661 5.70441 33.1524 5.69119C32.6643 5.26762 32.7219 4.45962 32.8163 3.73449C32.8381 3.56184 32.8658 3.38228 32.8934 3.19352C32.921 3.00475 32.9532 2.79527 32.9809 2.58579L33.005 2.27387C33.0119 2.22437 33.0177 2.16567 33.0223 2.10812C33.0269 2.05057 33.0326 2.00338 33.0361 1.97L33.0465 1.89288C33.0567 1.80713 33.0784 1.72314 33.1109 1.64312C33.1167 1.62912 33.1236 1.61565 33.1316 1.60283C33.218 1.47277 33.3987 1.31738 33.767 1.31738C33.8332 1.31756 33.8994 1.32217 33.965 1.33119C34.25 1.36804 34.5231 1.46877 34.7638 1.62585C34.9151 1.72138 35.0426 1.85031 35.1363 2.00274C35.2301 2.15517 35.2877 2.32706 35.3047 2.50522C35.3352 2.73821 35.331 2.97444 35.2921 3.20618C35.1574 4.10396 34.6786 5.11339 34.3943 5.44372C34.2811 5.57741 34.1431 5.68801 33.988 5.76946C34.1021 5.82496 34.2017 5.90611 34.2792 6.00656C34.3345 6.07955 34.3745 6.16293 34.3968 6.25172C34.4192 6.34051 34.4234 6.4329 34.4093 6.52336C34.3425 6.98031 33.9788 7.26576 33.4585 7.26576Z" fill="#F180B2"/>
<path d="M33.7702 1.54421C33.8264 1.54415 33.8826 1.548 33.9382 1.55572C34.1879 1.58809 34.4271 1.67621 34.6381 1.81355C34.7623 1.89174 34.8668 1.99754 34.9434 2.12271C35.0201 2.24788 35.0668 2.38904 35.08 2.53523C35.1067 2.74612 35.1024 2.95977 35.0674 3.16943C34.9431 4.00045 34.4919 4.98341 34.2237 5.28957C34.0672 5.47143 33.8611 5.63487 33.6378 5.63487C33.6171 5.63602 33.5964 5.63602 33.5757 5.63487C33.4767 5.6258 33.3832 5.58549 33.3086 5.51977C32.9346 5.19404 32.9449 4.56214 33.0474 3.76565C33.0934 3.41229 33.1625 3.0244 33.2131 2.61465C33.2212 2.5099 33.2304 2.40401 33.2384 2.29812C33.2476 2.22215 33.2603 2.06792 33.2684 2.00346C33.2684 1.97814 33.2753 1.95397 33.2776 1.92865C33.286 1.86276 33.3026 1.79818 33.3271 1.73643C33.3799 1.67146 33.448 1.62069 33.5254 1.58873C33.6028 1.55677 33.6869 1.54464 33.7702 1.55342M33.54 5.90651C33.5785 5.90676 33.6169 5.90946 33.6551 5.91457C33.9705 5.9583 34.2387 6.18045 34.1915 6.50273C34.1282 6.8768 33.807 7.03564 33.4617 7.03564C33.4074 7.03582 33.3532 7.03197 33.2994 7.02413C33.0692 6.9919 32.7838 6.764 32.8229 6.45669C32.8427 6.32991 32.9003 6.21207 32.9882 6.11862C33.0761 6.02516 33.1902 5.96045 33.3156 5.93298C33.387 5.91227 33.461 5.90181 33.5354 5.90191M33.7656 1.08842C33.2695 1.08842 33.0347 1.33243 32.938 1.47746C32.922 1.50269 32.9081 1.52926 32.8966 1.55688C32.8563 1.65611 32.8292 1.76021 32.816 1.86649L32.8068 1.94016C32.8068 1.97814 32.7976 2.03224 32.7918 2.08864C32.7861 2.14504 32.7815 2.20374 32.7769 2.23482V2.25668L32.7585 2.49839L32.7527 2.56285C32.7262 2.76773 32.6963 2.968 32.6664 3.16137C32.6365 3.35474 32.6111 3.53084 32.5881 3.70695C32.5006 4.39179 32.4431 5.148 32.8183 5.66365C32.6954 5.74738 32.5916 5.85623 32.5138 5.98301C32.4361 6.10979 32.3861 6.25162 32.3671 6.39914C32.2935 6.96543 32.7573 7.41662 33.2373 7.48223C33.3117 7.49194 33.3867 7.49656 33.4617 7.49604C34.0948 7.49604 34.5575 7.13002 34.6404 6.56488C34.6587 6.444 34.6528 6.32067 34.6229 6.2021C34.5931 6.08353 34.5399 5.97209 34.4666 5.87428C34.442 5.84202 34.4154 5.81128 34.3871 5.7822C34.4529 5.72372 34.5148 5.66105 34.5725 5.59459C34.9178 5.19634 35.3897 4.13282 35.5232 3.24079C35.5652 2.98534 35.5691 2.72506 35.5347 2.46847C35.5126 2.25899 35.4437 2.05714 35.3331 1.87785C35.2226 1.69855 35.0731 1.54638 34.8959 1.43257C34.6257 1.25691 34.3198 1.14367 34.0004 1.10108C33.9242 1.09019 33.8472 1.0848 33.7702 1.08496L33.7656 1.08842Z" fill="#404041"/>
<path d="M30.2852 6.87813C30.2358 6.87813 30.1851 6.87813 30.1356 6.87123C29.7638 6.83094 29.3944 6.4983 29.437 6.06553C29.4557 5.90297 29.5205 5.74915 29.6237 5.62213C29.7268 5.49511 29.8641 5.40017 30.0194 5.34845C30.0048 5.33771 29.9898 5.3262 29.9745 5.31392C29.4726 4.90301 29.5072 4.09501 29.5785 3.36988C29.5958 3.19953 29.6177 3.02458 29.6395 2.83582C29.6614 2.64705 29.6879 2.42606 29.7097 2.20967C29.7097 2.20967 29.7247 1.8943 29.7247 1.89084C29.7247 1.85286 29.7316 1.79646 29.7351 1.74121C29.7385 1.68597 29.742 1.62611 29.7454 1.59619L29.7535 1.52022C29.7607 1.43402 29.7796 1.3492 29.8099 1.26815C29.8152 1.25456 29.8218 1.24146 29.8294 1.22902C29.9158 1.08975 30.1022 0.922853 30.4959 0.922853C30.5489 0.922782 30.6019 0.925472 30.6547 0.93091C30.9401 0.95971 31.2155 1.05214 31.4604 1.2014C31.6142 1.29275 31.7452 1.41798 31.8433 1.56757C31.9415 1.71716 32.0042 1.88717 32.0267 2.06465C32.0649 2.29651 32.068 2.53281 32.0359 2.76561C31.93 3.66569 31.4823 4.69008 31.2084 5.02847C31.0998 5.168 30.9654 5.28525 30.8124 5.37377C30.928 5.42633 31.0297 5.50516 31.1094 5.60398C31.1668 5.67495 31.2094 5.75679 31.2345 5.8446C31.2597 5.93241 31.2668 6.02438 31.2555 6.11502C31.2026 6.57542 30.8216 6.87813 30.2852 6.87813Z" fill="#F180B2"/>
<path d="M30.4996 1.15324C30.5433 1.15324 30.5882 1.15554 30.6342 1.16014C30.884 1.18309 31.1255 1.26175 31.3409 1.39034C31.4669 1.46535 31.5739 1.56829 31.6537 1.69123C31.7336 1.81416 31.7841 1.9538 31.8013 2.09936C31.8343 2.30892 31.8367 2.52218 31.8083 2.73241C31.7093 3.56804 31.2845 4.56365 31.029 4.87788C30.8759 5.06779 30.6699 5.23814 30.442 5.23814C30.4259 5.23927 30.4098 5.23927 30.3937 5.23814C30.2959 5.23331 30.2021 5.19788 30.1255 5.13685C29.7422 4.82378 29.733 4.19188 29.8124 3.39193C29.8469 3.03743 29.901 2.64724 29.9425 2.23288C29.9425 2.12698 29.9528 2.01994 29.9574 1.91405C29.9655 1.83808 29.9712 1.68385 29.9782 1.61939C29.9782 1.59407 29.9781 1.56875 29.9862 1.54458C29.9914 1.47809 30.0057 1.41263 30.0288 1.35006C30.1174 1.20848 30.2947 1.15324 30.4996 1.15324ZM30.3914 5.51208H30.4765C30.7942 5.54661 31.067 5.76069 31.0302 6.08758C30.9853 6.48467 30.6446 6.64697 30.2889 6.64697H30.1635C29.9264 6.62164 29.6398 6.4018 29.6697 6.09333C29.6855 5.96627 29.7394 5.84696 29.8242 5.75104C29.909 5.65513 30.0209 5.58708 30.145 5.55582C30.2245 5.52959 30.3077 5.51638 30.3914 5.51668M30.4996 0.69744C29.9735 0.69744 29.7341 0.957566 29.6374 1.11295C29.6221 1.13824 29.609 1.16481 29.5983 1.19237C29.5604 1.293 29.5364 1.39833 29.527 1.50544L29.5212 1.56299V1.57911C29.5212 1.61479 29.5143 1.67234 29.5108 1.73219C29.5074 1.79204 29.5039 1.83693 29.5005 1.87261C29.4999 1.88066 29.4999 1.88874 29.5005 1.89678L29.4936 2.02339L29.4832 2.2018C29.4625 2.41128 29.4383 2.61501 29.4142 2.81183C29.39 3.00865 29.3704 3.1767 29.3532 3.3505C29.2852 4.0411 29.2519 4.79616 29.6409 5.29914C29.5205 5.38643 29.42 5.49824 29.346 5.62719C29.272 5.75615 29.2262 5.89933 29.2116 6.0473C29.1552 6.61589 29.6328 7.05212 30.1151 7.10276C30.1728 7.10924 30.2309 7.11232 30.2889 7.11197C30.9392 7.11197 31.4215 6.72293 31.4883 6.14398C31.5026 6.02274 31.4927 5.89985 31.4591 5.78248C31.4255 5.6651 31.3689 5.55558 31.2926 5.46028C31.2672 5.42872 31.2399 5.39874 31.2109 5.37051C31.2755 5.3095 31.3359 5.24412 31.3916 5.17484C31.7219 4.76623 32.1639 3.68774 32.2698 2.79226C32.304 2.53566 32.3002 2.27541 32.2583 2.01994C32.2292 1.81187 32.1539 1.61293 32.038 1.43769C31.9221 1.26244 31.7685 1.11531 31.5884 1.00706C31.3123 0.84026 31.0024 0.737232 30.6814 0.705497C30.6193 0.705497 30.5583 0.696289 30.4996 0.696289V0.69744Z" fill="#404041"/>
<path d="M26.529 6.54459H26.4277C26.1331 6.52388 25.7291 6.39036 25.5553 6.08419C25.5387 6.05449 25.5288 6.02147 25.5265 5.98751C25.5119 5.61873 25.5184 5.24942 25.5461 4.8814C25.5668 4.5453 25.5933 4.23799 25.6278 3.93988C25.6577 3.6199 25.6957 3.30453 25.7291 3.02598C25.7291 2.98915 25.7383 2.95232 25.7417 2.91088C25.5898 2.89362 25.3964 2.86945 25.2526 2.84297C25.0634 2.81984 24.883 2.74981 24.7277 2.63925C24.5079 2.50343 24.3824 2.13511 24.41 1.6678C24.4365 1.11302 24.7715 0.753906 25.2618 0.753906H25.3159C25.6612 0.772322 26.0007 0.79304 26.3414 0.814909C26.9342 0.852892 27.4464 0.900083 27.7526 0.930009L27.9828 0.950727C28.5249 0.993314 28.8771 1.13374 29.0935 1.38926C29.1803 1.49948 29.2439 1.6262 29.2803 1.76173C29.3167 1.89727 29.3252 2.03878 29.3053 2.17769C29.2385 2.89477 28.4294 2.94311 27.8377 2.9834L27.7226 2.9903C27.6927 3.42193 27.6731 4.00433 27.6559 4.4797C27.6432 4.84802 27.6294 5.23936 27.6006 5.60883C27.6006 5.67213 27.5891 5.73774 27.5822 5.80335C27.5753 5.86896 27.5684 5.91845 27.5649 5.9783C27.561 6.02571 27.5425 6.07074 27.512 6.10721C27.3906 6.2482 27.2395 6.36054 27.0696 6.43617C26.8996 6.51179 26.715 6.54882 26.529 6.54459Z" fill="#F180B2"/>
<path d="M25.2639 0.979746H25.3042C25.6495 0.998162 25.9867 1.01888 26.3286 1.04075C27.1101 1.09024 27.7524 1.15585 27.9618 1.17311C28.6225 1.22606 29.1382 1.44015 29.0737 2.14916C29.0162 2.7684 28.1425 2.7051 27.5083 2.7638C27.5083 2.79948 27.5026 2.83401 27.5003 2.86969C27.4669 3.30017 27.445 3.89869 27.4255 4.45922C27.4128 4.831 27.399 5.21773 27.3714 5.5803C27.3622 5.6954 27.3437 5.82891 27.3345 5.94977C27.236 6.06677 27.1124 6.16018 26.973 6.22312C26.8336 6.28607 26.6818 6.31695 26.5288 6.31349H26.4425C26.1824 6.29622 25.8739 6.17767 25.7519 5.96819C25.7372 5.609 25.7437 5.24926 25.7715 4.89085C25.791 4.58123 25.8164 4.27161 25.852 3.96199C25.8958 3.49353 25.9556 3.04119 25.9925 2.71085C25.9061 2.69819 25.5252 2.66021 25.2892 2.61647C25.1312 2.59962 24.9804 2.54169 24.8518 2.44842C24.7436 2.39087 24.6124 2.14111 24.6343 1.67956C24.6561 1.218 24.922 0.988955 25.2581 0.988955M25.2581 0.528554C24.7459 0.528554 24.213 0.873854 24.175 1.66114C24.1474 2.21477 24.3028 2.64755 24.5917 2.83401C24.7756 2.96318 24.9881 3.04573 25.2109 3.07457C25.2927 3.08953 25.387 3.10334 25.4814 3.116C25.4515 3.36462 25.4204 3.63741 25.3939 3.92171C25.3675 4.206 25.3329 4.53174 25.3122 4.86898C25.2828 5.2473 25.2763 5.62706 25.2927 6.00617C25.2971 6.0736 25.3164 6.13923 25.349 6.19839C25.5677 6.59088 26.0397 6.75662 26.4068 6.78194H26.5219C26.7426 6.78482 26.9612 6.7386 27.1619 6.64663C27.3625 6.55466 27.5402 6.41925 27.6821 6.25018C27.7424 6.17696 27.7786 6.08692 27.7857 5.99236C27.7857 5.93826 27.7961 5.87726 27.8018 5.82546C27.8076 5.77367 27.8168 5.68849 27.8214 5.62288C27.8502 5.24996 27.8652 4.85517 27.8778 4.48339C27.8916 4.08169 27.9089 3.60173 27.9319 3.20463C28.535 3.16665 29.4432 3.06996 29.5238 2.19981C29.5472 2.03057 29.5357 1.85834 29.4902 1.69367C29.4447 1.529 29.366 1.37536 29.259 1.24217C28.9137 0.839324 28.3727 0.752999 27.9929 0.721922L27.7627 0.702355C27.4554 0.67358 26.9409 0.626389 26.347 0.587255C26.0132 0.565386 25.6667 0.544668 25.3191 0.526252C25.2973 0.525103 25.2754 0.525103 25.2535 0.526252L25.2581 0.528554Z" fill="#404041"/>
<path d="M23.3478 6.32054C23.174 6.32054 22.9703 6.32054 22.7723 6.30903C22.1968 6.29061 21.6075 6.2722 21.6213 5.49412C21.6213 5.34679 21.634 5.00034 21.9298 4.85186C21.993 4.82305 22.0525 4.78672 22.1071 4.74367C22.1071 4.51347 22.122 4.28327 22.1301 4.0358C22.1404 3.7469 22.1519 3.44649 22.16 3.12766C22.16 3.03903 22.1692 2.94235 22.1761 2.84452C22.183 2.74668 22.1899 2.65345 22.1922 2.56022C22.2044 2.43515 22.1971 2.30894 22.1704 2.18614C22.1635 2.16312 22.1589 2.15161 22.0633 2.11478C21.8331 2.02615 21.7019 1.78329 21.71 1.44835C21.7105 1.27368 21.7548 1.10194 21.8389 0.948816C22.0299 0.647254 22.4777 0.603516 22.846 0.603516H23.0451L23.2316 0.610422C23.7208 0.627687 24.5414 0.657613 24.5506 1.40576V1.50245C24.5548 1.66157 24.507 1.8177 24.4143 1.94713C24.3217 2.07656 24.1893 2.1722 24.0373 2.21952C24.0235 2.40483 24.0143 2.63503 24.0062 2.8215L23.974 3.60648C23.9659 3.8079 23.9487 4.02199 23.9314 4.22917C23.9141 4.43635 23.9003 4.62051 23.8934 4.79431V4.81043C24.1973 4.98193 24.3377 5.11659 24.3181 5.54937C24.3009 5.95452 24.1029 6.22386 23.7783 6.28716C23.6361 6.31132 23.4921 6.32249 23.3478 6.32054Z" fill="#F180B2"/>
<path d="M22.8538 0.838051H23.0448L23.2302 0.844958C23.9818 0.871431 24.3225 0.995739 24.3282 1.4124V1.49642C24.3133 1.82906 24.1556 1.94301 23.9208 2.02358C23.893 2.03363 23.8687 2.05144 23.8507 2.07491C23.8327 2.09837 23.8219 2.1265 23.8195 2.15595C23.8022 2.36773 23.7918 2.64052 23.7826 2.86036L23.7516 3.60161C23.7354 3.98834 23.686 4.42572 23.671 4.78944C23.6632 4.83144 23.6686 4.87482 23.6866 4.91359C23.7045 4.95236 23.7341 4.98459 23.7711 5.00583C24.037 5.15316 24.1164 5.20955 24.0969 5.54334C24.0854 5.78621 23.9979 6.01641 23.7424 6.0659C23.6139 6.08388 23.4841 6.0912 23.3545 6.08777C23.1841 6.08777 22.985 6.08777 22.7882 6.07511C22.1045 6.05324 21.8536 5.99684 21.8674 5.49961C21.8674 5.32466 21.8915 5.13589 22.0492 5.05647C22.238 4.96324 22.3404 4.88267 22.3519 4.79174C22.3657 4.27724 22.3899 3.73973 22.406 3.13315C22.4118 2.95935 22.4325 2.75677 22.4383 2.5657C22.45 2.41137 22.4383 2.25616 22.4037 2.1053C22.3669 1.9902 22.2886 1.94301 22.162 1.89467C22.0112 1.83827 21.9514 1.66447 21.956 1.45038C21.9547 1.31911 21.9855 1.1895 22.0458 1.07286C22.1724 0.873732 22.5269 0.833448 22.8618 0.833448M22.8618 0.373047C22.4693 0.373047 21.9192 0.420238 21.6602 0.821937C21.5496 1.0105 21.4909 1.22491 21.4898 1.44348C21.4783 1.86474 21.6579 2.19048 21.9687 2.32054C21.9726 2.39722 21.9726 2.47406 21.9687 2.55074C21.9687 2.63937 21.9594 2.7349 21.9537 2.82698C21.9479 2.91906 21.9399 3.0238 21.9376 3.11934C21.9284 3.43816 21.9169 3.73857 21.9076 4.02632C21.9 4.22813 21.8931 4.42496 21.8869 4.61679L21.8351 4.64326C21.4139 4.8562 21.4024 5.3143 21.3989 5.48695C21.3759 6.49292 22.2127 6.52285 22.7674 6.53781C22.9643 6.53781 23.1703 6.55047 23.343 6.55047C23.5024 6.55534 23.662 6.54493 23.8195 6.51939C24.2499 6.43652 24.5216 6.07971 24.5446 5.56637C24.5676 5.05302 24.3869 4.8562 24.1256 4.6893C24.1337 4.55233 24.1452 4.40616 24.1579 4.25422C24.174 4.04474 24.1912 3.82835 24.2005 3.62232L24.2154 3.2517L24.2304 2.88108V2.83734C24.2361 2.69692 24.243 2.53233 24.2522 2.37694C24.4115 2.29709 24.545 2.17395 24.6374 2.02166C24.7299 1.86938 24.7775 1.69411 24.7748 1.51599V1.43197C24.7754 1.42315 24.7754 1.41431 24.7748 1.4055C24.7633 0.437503 23.6906 0.398369 23.2336 0.382255H23.1945L23.046 0.3765H22.84L22.8618 0.373047Z" fill="#404041"/>
<path d="M18.7267 6.27182C17.8692 6.27182 17.2477 6.06694 16.9289 5.6802C16.488 5.14038 16.4132 4.03197 16.4005 3.58078C16.3741 2.59897 16.5939 1.39387 17.288 0.939228C17.6643 0.695215 18.3607 0.530622 19.0202 0.52832H19.0363C19.4426 0.52832 19.994 0.595078 20.3105 0.915057C20.3902 0.995867 20.4527 1.09199 20.4943 1.19763C20.5358 1.30327 20.5555 1.41623 20.5522 1.52969C20.5563 1.61987 20.5454 1.7101 20.52 1.79672C20.36 2.25712 19.7672 2.27439 19.2447 2.29281C18.9408 2.30432 18.4804 2.32043 18.4459 2.4574C18.4353 2.51471 18.4307 2.57295 18.4321 2.6312H18.6036C19.1365 2.6312 19.7983 2.64041 19.796 3.23778C19.796 4.08146 18.9903 4.16894 18.4505 4.22303C18.4538 4.27661 18.4765 4.32713 18.5145 4.36508C18.5524 4.40303 18.6029 4.42579 18.6565 4.42906C18.7843 4.44124 18.9126 4.447 19.0409 4.44633C19.1826 4.44352 19.324 4.43276 19.4645 4.4141C19.6133 4.39367 19.7632 4.38213 19.9134 4.37957C20.0064 4.37848 20.0987 4.39594 20.1848 4.43092C20.271 4.4659 20.3493 4.5177 20.4153 4.5833C20.5495 4.7216 20.6235 4.90738 20.6213 5.1001C20.6121 5.83559 19.9307 6.26261 18.7566 6.27182H18.7267Z" fill="#F180B2"/>
<path d="M19.0374 0.757973C19.6474 0.757973 20.3288 0.917963 20.3231 1.52684C20.3248 1.5906 20.319 1.65434 20.3058 1.71676C20.094 2.33945 18.3779 1.78812 18.2236 2.40045C18.2075 2.48307 18.2005 2.56722 18.2029 2.65137C18.2032 2.72235 18.2094 2.79319 18.2213 2.86315H18.5931C19.1076 2.86315 19.568 2.86315 19.5669 3.23838C19.5669 3.96581 18.7888 3.9497 18.2098 4.01761V4.11659C18.2098 4.3468 18.2938 4.60807 18.6207 4.65872C18.699 4.67253 18.966 4.67828 19.0408 4.67828C19.3505 4.67828 19.629 4.61153 19.9145 4.61153H19.9214C19.9846 4.61164 20.0471 4.62448 20.1052 4.64927C20.1634 4.67407 20.2159 4.71033 20.2598 4.75587C20.3036 4.80141 20.3378 4.85531 20.3603 4.91436C20.3829 4.97341 20.3933 5.03639 20.391 5.09955C20.3818 5.88799 19.3988 6.03877 18.7542 6.04337H18.7312C17.9474 6.04337 17.3776 5.85921 17.1118 5.53578C16.7952 5.14789 16.6514 4.33413 16.6352 3.57908C16.6099 2.61684 16.8275 1.51878 17.4168 1.13665C17.7195 0.940982 18.3468 0.764879 19.0282 0.762577H19.0443M19.0443 0.302177H19.0259C18.3169 0.302177 17.5883 0.480582 17.1705 0.749916C16.9241 0.909905 16.1253 1.58554 16.1783 3.59059C16.1944 4.18105 16.2934 5.25724 16.7538 5.82928C17.1187 6.27242 17.8024 6.50607 18.7301 6.50607H18.76C20.6361 6.48996 20.8502 5.52312 20.8548 5.10761C20.8582 4.85345 20.7605 4.60836 20.5832 4.42621C20.4974 4.33956 20.3952 4.27082 20.2825 4.22399C20.1699 4.17716 20.0491 4.15318 19.9271 4.15343H19.9179C19.7906 4.15481 19.6634 4.16288 19.5369 4.1776C19.6936 4.07729 19.8213 3.9377 19.9074 3.77273C19.9934 3.60775 20.0347 3.42313 20.0273 3.23723C20.0301 3.07936 19.9836 2.92453 19.8943 2.79433C19.805 2.66414 19.6772 2.56507 19.5289 2.51095C20.0296 2.48102 20.5579 2.38319 20.7374 1.8756C20.7718 1.76779 20.7873 1.65488 20.7835 1.54181V1.5349C20.7878 1.39051 20.7627 1.24675 20.7097 1.11238C20.6567 0.978014 20.5768 0.85586 20.475 0.753369C20.1032 0.376992 19.4886 0.292969 19.0374 0.292969L19.0443 0.302177Z" fill="#404041"/>
<path d="M13.9435 6.38816C13.056 6.38816 12.7522 5.72979 12.4299 5.03228L12.3769 4.91718C11.9129 3.8792 11.5401 2.80279 11.2628 1.70014C11.2616 1.6875 11.2616 1.67479 11.2628 1.66215C11.2409 1.23628 11.5643 0.940474 12.0869 0.905944H12.1951C12.6163 0.905944 12.9939 1.06708 13.1815 1.32836L13.1895 1.34102C13.3298 1.60684 13.4387 1.88803 13.5141 2.17895C13.5659 2.347 13.62 2.52425 13.6753 2.66582L13.8307 3.07788C13.8997 3.26435 13.9607 3.42318 14.016 3.56821C14.1059 3.34145 14.1801 3.10878 14.2381 2.87185V2.85919C14.3486 2.49241 14.4599 2.12524 14.5719 1.75768C14.763 1.0855 15.1163 0.747106 15.6516 0.727539H15.7241C16.5114 0.727539 16.6506 1.23628 16.6644 1.53899C16.6794 2.10874 16.3928 2.82121 16.204 3.29312L16.181 3.34837C16.1039 3.54059 16.0279 3.73741 15.9508 3.93193C15.4731 5.17271 15.0208 6.34903 14.1196 6.38931H14.0413C14.0083 6.38855 13.9757 6.38816 13.9435 6.38816Z" fill="#F180B2"/>
<path d="M15.7205 0.94903C16.1222 0.94903 16.4111 1.08715 16.4306 1.54065C16.4433 2.04824 16.1832 2.70661 15.9864 3.19809C15.9783 3.2165 15.9714 3.23492 15.9645 3.25218C15.4212 4.59655 14.985 6.10667 14.1045 6.15041H13.9422C13.1975 6.15041 12.9465 5.59908 12.6312 4.91653L12.5863 4.81294C12.3342 4.27427 11.7403 2.76646 11.4859 1.63848C11.4675 1.28282 11.7967 1.1447 12.0948 1.12513H12.188C12.5126 1.12513 12.8349 1.24023 12.9868 1.45087C13.1652 1.73632 13.2941 2.32102 13.453 2.73769C13.6302 3.20614 13.7511 3.53303 13.8593 3.80812C13.895 3.88869 13.9525 3.97501 13.9997 3.97501C14.1482 3.96811 14.3865 3.19809 14.4532 2.91379C14.5629 2.547 14.6742 2.1806 14.787 1.81458C14.9677 1.17693 15.275 0.96054 15.6537 0.946728H15.7182M15.7182 0.486328H15.6376C14.9999 0.509348 14.5649 0.912199 14.345 1.68337C14.2299 2.05169 14.1206 2.42116 14.0124 2.78142C14.0092 2.79047 14.0065 2.79969 14.0043 2.80905C14.0007 2.82769 13.9961 2.84613 13.9905 2.8643C13.9571 2.77452 13.9203 2.67783 13.8823 2.57424C13.8282 2.43497 13.7753 2.26462 13.7246 2.09888C13.6447 1.78947 13.5288 1.49048 13.3793 1.20801L13.3621 1.18268C13.1319 0.858101 12.691 0.664733 12.1892 0.664733H12.0649C11.4157 0.706169 10.9979 1.10787 11.029 1.6615C11.031 1.68744 11.0349 1.71321 11.0405 1.73862C11.3006 2.89537 11.9037 4.43081 12.1708 5.00286L12.1846 5.03509L12.2134 5.10069V5.12026C12.5356 5.81777 12.904 6.60965 13.9399 6.60965H14.1309C15.1818 6.55671 15.6595 5.31708 16.1659 4.00494C16.2396 3.81272 16.3155 3.61475 16.3961 3.42368L16.4053 3.40181L16.418 3.37304C16.616 2.87926 16.9129 2.14032 16.8968 1.53144V1.52453C16.8841 1.21376 16.7437 0.48863 15.7274 0.48863L15.7182 0.486328Z" fill="#404041"/>
<path d="M9.14985 6.7538C7.73987 6.7538 6.88467 5.84912 6.67634 4.13758C6.5716 3.28238 6.76381 2.4997 7.21846 1.93341C7.62822 1.42237 8.23135 1.1139 8.96339 1.04369C9.05777 1.03448 9.15215 1.02988 9.24424 1.02988C9.62126 1.02159 9.99492 1.10232 10.3349 1.26551C10.6749 1.4287 10.9716 1.66975 11.2009 1.96909C11.5106 2.36734 11.6959 2.94859 11.7511 3.69559C11.8996 5.7674 10.6312 6.6318 9.50091 6.73884C9.3789 6.74805 9.2615 6.7538 9.14985 6.7538ZM9.23503 2.8991H9.15791C9.09914 2.90184 9.04157 2.91676 8.98887 2.94291C8.93616 2.96906 8.88947 3.00588 8.85174 3.05103C8.71592 3.21793 8.66298 3.52985 8.70441 3.9304C8.7424 4.28836 8.92426 4.82127 9.27301 4.82127H9.31214C9.76564 4.77754 9.82204 4.24577 9.79096 3.80033C9.73226 2.8991 9.38351 2.8991 9.23503 2.8991Z" fill="#F180B2"/>
<path d="M9.24679 1.26004C9.58758 1.25174 9.9255 1.32416 10.233 1.47139C10.5404 1.61862 10.8087 1.83648 11.0159 2.10717C11.3612 2.54455 11.4763 3.15804 11.5212 3.70937C11.6144 5.02036 11.0493 6.35667 9.47814 6.50745C9.37032 6.51876 9.26198 6.52452 9.15356 6.52472C7.7194 6.52472 7.08175 5.48881 6.90909 4.10761C6.73414 2.68958 7.4305 1.42348 8.98896 1.2727C9.07463 1.26397 9.16069 1.25974 9.24679 1.26004ZM9.27557 5.05834H9.33657C9.97193 4.99734 10.0594 4.30674 10.0272 3.79224C9.98574 3.14192 9.78776 2.67462 9.24219 2.67462C9.2096 2.67295 9.17694 2.67295 9.14435 2.67462C8.53201 2.73447 8.42152 3.36522 8.48367 3.95913C8.52971 4.40112 8.76567 5.05604 9.28017 5.05604M9.25139 0.797333C9.15126 0.797333 9.04997 0.797333 8.94868 0.811145C8.15333 0.889413 7.49611 1.22666 7.04606 1.78719C6.55228 2.40183 6.3428 3.24551 6.4556 4.16286C6.67544 5.98144 7.63538 6.98282 9.15701 6.98282C9.27211 6.98282 9.40103 6.97591 9.52764 6.96325C10.3955 6.88153 11.0838 6.47407 11.5166 5.78692C11.8745 5.21948 12.0403 4.46903 11.9839 3.67484C11.9275 2.88065 11.7238 2.26371 11.3854 1.82518C11.135 1.49876 10.8114 1.23571 10.4408 1.05718C10.0701 0.878658 9.66272 0.789653 9.25139 0.797333ZM9.28017 4.59564C9.1432 4.59564 8.97745 4.263 8.94062 3.90504C8.90034 3.5183 8.96364 3.28465 9.03731 3.19602C9.0559 3.17423 9.07903 3.15676 9.10507 3.14483C9.13111 3.13291 9.15944 3.12681 9.18809 3.12696H9.24219C9.33312 3.12696 9.52303 3.12696 9.56792 3.81756C9.58864 4.0984 9.57943 4.56801 9.29743 4.59449L9.28017 4.59564Z" fill="#404041"/>
<path d="M4.9748 7.2302C4.14492 7.2302 3.63618 6.8849 3.41749 6.18049C3.27271 5.70133 3.16232 5.21244 3.08715 4.71757C2.98028 3.96978 2.92261 3.21579 2.9145 2.46045C2.91392 2.45433 2.91392 2.44816 2.9145 2.44204C2.94212 1.97128 3.3749 1.74338 3.73286 1.69043C3.85286 1.67161 3.97399 1.66084 4.09543 1.6582C4.55583 1.6582 4.83783 1.89876 4.94487 2.39254V2.41096C4.94487 2.43628 4.95293 2.46045 4.95869 2.48462C4.96444 2.50879 4.9725 2.55483 4.9771 2.59051C4.98631 2.66878 4.99897 2.81381 5.01624 3.00142C5.06113 3.4975 5.13134 4.32968 5.20845 4.85223C5.22572 4.96733 5.24183 5.06171 5.25565 5.12387C5.4008 5.11927 5.54562 5.10736 5.68958 5.08819C5.85409 5.06633 6.01973 5.05404 6.18566 5.05136C6.30764 5.05061 6.42943 5.0614 6.54938 5.08358C6.91079 5.15725 7.10762 5.37939 7.15481 5.76613C7.29638 6.96087 6.51255 7.06561 5.75288 7.1669C5.65159 7.18071 5.58023 7.18761 5.52268 7.19222L5.45132 7.19912C5.29318 7.21831 5.13409 7.22869 4.9748 7.2302Z" fill="#F180B2"/>
<path d="M4.09588 1.88814C4.39514 1.88814 4.62419 2.00324 4.72088 2.44177C4.72893 2.50162 4.74505 2.55687 4.75311 2.62017C4.78188 2.89181 4.88547 4.16366 4.98331 4.88304C4.99732 5.04277 5.03254 5.19992 5.08805 5.35035H5.21696C5.56226 5.35035 5.86728 5.27668 6.18841 5.27668C6.29574 5.27613 6.40288 5.28577 6.50839 5.30546C6.76737 5.35725 6.89398 5.49537 6.92851 5.78888C7.04361 6.75227 6.51184 6.82478 5.72571 6.93988C5.56572 6.96175 5.4886 6.96405 5.4276 6.97211C5.2771 6.99033 5.12569 6.99993 4.9741 7.00088C4.31112 7.00088 3.84381 6.78219 3.63663 6.11346C3.49555 5.64516 3.38786 5.16745 3.31435 4.68392C3.20804 3.94613 3.15075 3.2021 3.14285 2.45673C3.16587 2.06884 3.58944 1.94568 3.76554 1.91921C3.87448 1.90187 3.98445 1.89187 4.09473 1.88929M4.09473 1.42889C3.96244 1.43121 3.83049 1.44313 3.69993 1.46457C3.21766 1.53363 2.71697 1.85936 2.68359 2.42911V2.46594C2.69197 3.23171 2.7508 3.99609 2.8597 4.75413C2.93608 5.26024 3.0484 5.76027 3.19579 6.25043C3.44556 7.05613 4.04293 7.46474 4.9741 7.46474C5.14259 7.46377 5.3109 7.4534 5.47824 7.43366H5.4932L5.5519 7.42675C5.606 7.42675 5.68197 7.41524 5.79131 7.40028C6.53486 7.30129 7.55696 7.16433 7.38776 5.74399C7.31525 5.13281 6.92045 4.92908 6.60277 4.86462C6.467 4.83845 6.32898 4.82573 6.19071 4.82664C6.0159 4.82925 5.84141 4.84232 5.66816 4.86578L5.45062 4.8888C5.45062 4.86808 5.44486 4.84736 5.44141 4.82549C5.37005 4.30869 5.29523 3.47997 5.25034 2.98389C5.23308 2.79627 5.22041 2.6501 5.21236 2.57643V2.56492C5.20545 2.51773 5.19739 2.4763 5.19049 2.44177C5.18358 2.40724 5.18243 2.40378 5.17898 2.38537C5.17962 2.3731 5.17962 2.3608 5.17898 2.34854C5.04776 1.74886 4.67599 1.42773 4.10394 1.42773L4.09473 1.42889Z" fill="#404041"/>
<path d="M34.4664 29.596C34.4664 29.596 30.4011 22.8764 33.1853 22.1041C34.471 21.7484 34.9786 22.9961 35.1524 24.4429C35.1524 24.4429 36.5808 21.89 37.794 23.2286C39.0071 24.5672 34.4664 29.596 34.4664 29.596ZM4.25823 15.8645C4.25823 15.8645 -1.16647 13.4474 0.229701 11.7693C0.873114 10.9935 1.72601 11.5483 2.46035 12.3712C2.46035 12.3712 2.24396 10.1694 3.57453 10.4767C4.90509 10.784 4.25823 15.8645 4.25823 15.8645ZM36.5348 14.4223C36.5348 14.4223 33.2924 11.9212 34.4963 11.0211C35.0534 10.6056 35.5322 11.1178 35.8925 11.7877C35.8925 11.7877 36.1066 10.2776 36.9491 10.7C37.7917 11.1224 36.5348 14.4223 36.5348 14.4223Z" fill="#F180B2"/>
<path d="M21.7372 13.6163C21.7372 13.6163 19.0715 9.93313 20.6737 9.48654C21.4138 9.28051 21.911 9.81687 22.0112 10.6502C22.0112 10.6502 22.7156 9.269 23.6525 9.95039C24.6688 10.6905 21.7372 13.6163 21.7372 13.6163ZM13.313 13.858C13.313 13.858 15.9787 10.1748 14.3765 9.72825C13.6364 9.52222 13.1392 10.0586 13.0391 10.8919C13.0391 10.8919 12.3346 9.51071 11.3977 10.1921C10.3814 10.9322 13.313 13.858 13.313 13.858Z" fill="#F180B2" stroke="#DA5B7D" stroke-width="0.8" stroke-linecap="round" stroke-linejoin="round"/>
</svg>
