<svg width="66" height="66" viewBox="0 0 66 66" fill="none" xmlns="http://www.w3.org/2000/svg">
<path d="M33.5429 58.7455C26.3825 58.7455 20.5779 57.2628 20.5779 55.4338C20.5779 53.6048 26.3825 52.1221 33.5429 52.1221C40.7032 52.1221 46.5078 53.6048 46.5078 55.4338C46.5078 57.2628 40.7032 58.7455 33.5429 58.7455Z" fill="#D5D6D5"/>
<path d="M28.9102 49.9357C28.9102 49.9357 23.646 52.5696 21.0018 48.4326C18.3577 44.2955 23.5838 43.4615 23.397 45.7319C23.2448 47.6248 21.6088 46.3043 21.9685 45.7635" stroke="#404041" stroke-width="1.42" stroke-linecap="round" stroke-linejoin="round"/>
<path d="M35.4348 43.8397C36.0209 45.9775 36.3912 48.1702 36.5399 50.3841C36.5399 50.3841 40.4759 52.8425 39.0354 54.6687C38.2589 55.6555 36.3289 55.2745 34.712 54.7126C34.712 54.7126 34.8365 56.0541 32.6748 56.1577C30.5131 56.2613 26.2675 54.753 26.2675 54.753C26.2675 54.753 25.8888 52.4808 27.1599 52.4017C28.431 52.3227 28.8789 52.5317 28.8789 52.5317C28.8789 52.5317 27.8897 51.9575 27.5282 50.1804C27.1668 48.4034 26.9887 41.4814 26.9887 41.4814L34.52 40.5508L41.3821 33.2899C41.3821 33.2899 41.095 31.2495 41.6432 30.8649C42.1914 30.4804 42.4404 31.627 42.4404 31.627C42.4404 31.627 43.6337 29.7604 44.2338 30.2942C44.8339 30.828 44.2338 31.3232 44.2338 31.3232C44.2338 31.3232 44.8719 30.6366 45.3233 31.1705C45.7746 31.7043 45.0224 32.2381 45.0224 32.2381C45.0224 32.2381 45.7349 31.5901 46.1482 32.1222C46.5615 32.6542 45.2835 33.9062 45.2835 33.9062C45.2835 33.9062 37.9372 41.8344 35.4348 43.8397Z" fill="white"/>
<path d="M35.04 40.875C35.2561 42.1586 34.5713 43.4352 34.5212 43.4422C34.5073 43.4422 34.3482 43.314 34.1217 43.1314" stroke="#404041" stroke-width="1.42" stroke-linecap="round" stroke-linejoin="round"/>
<path d="M32.3197 44.556L32.6794 49.4639L33.9263 50.2506L34.8359 49.0776L33.5251 44.3418" fill="#8BC53F"/>
<path d="M32.3197 44.556L32.6794 49.4639L33.9263 50.2506L34.8359 49.0776L33.5251 44.3418" stroke="#404041" stroke-width="1.42" stroke-linecap="round" stroke-linejoin="round"/>
<path d="M31.2741 43.6413L32.1699 44.5895L33.697 44.3174L34.1172 43.1321C33.505 42.6316 32.4034 41.708 32.4034 41.708C32.4034 41.708 31.6857 42.9565 31.2741 43.6413Z" fill="#8BC53F" stroke="#404041" stroke-width="1.42" stroke-linecap="round" stroke-linejoin="round"/>
<path d="M33.5425 53.0563C33.6608 53.1245 33.772 53.2045 33.8746 53.2951C34.2855 53.6692 34.579 54.1577 34.7185 54.6999C36.1625 55.2003 37.8676 55.5603 38.7617 54.9106C36.3873 55.2039 35.5192 52.7578 35.5192 52.7578C34.884 52.9799 34.2139 53.0811 33.5425 53.0563Z" fill="#F1F1F2"/>
<path d="M26.2761 54.7352C26.2761 54.7352 30.5182 56.2524 32.6747 56.14C33.9544 56.0785 34.4317 55.5851 34.6133 55.1935C34.6012 55.2164 33.1831 56.4227 30.6461 55.1935C30.6461 55.1935 30.6998 53.9521 28.8805 52.5122L28.5104 52.4226C28.0658 52.3601 27.6157 52.3478 27.1684 52.3857C25.8973 52.4648 26.2761 54.7352 26.2761 54.7352Z" fill="#F1F1F2"/>
<path d="M35.4348 43.8218C36.0219 45.9618 36.3928 48.157 36.5416 50.3733C36.5416 50.3733 40.4776 52.8317 39.0371 54.6578C38.2606 55.6429 36.3306 55.2619 34.7137 54.7017C34.7137 54.7017 34.8382 56.0415 32.6765 56.1469C30.5148 56.2523 26.2693 54.7421 26.2693 54.7421C26.2693 54.7421 25.8906 52.4699 27.1616 52.3909C28.4327 52.3119 28.8806 52.5226 28.8806 52.5226C28.8806 52.5226 27.8914 51.9467 27.53 50.1714C27.1685 48.3961 26.9904 41.4706 26.9904 41.4706L34.5148 40.5364L41.3821 33.2703C41.3821 33.2703 41.095 31.2299 41.6432 30.8471C42.1914 30.4643 42.4404 31.6092 42.4404 31.6092C42.4404 31.6092 43.6337 29.7408 44.2338 30.2746C44.8339 30.8084 44.2338 31.3036 44.2338 31.3036C44.2338 31.3036 44.8719 30.617 45.3233 31.1509C45.7746 31.6847 45.0224 32.2185 45.0224 32.2185C45.0224 32.2185 45.7349 31.5705 46.1482 32.1043C46.5615 32.6381 45.2835 33.8884 45.2835 33.8884C45.2835 33.8884 37.9372 41.8165 35.4348 43.8218Z" stroke="#404041" stroke-width="1.42" stroke-linecap="round" stroke-linejoin="round"/>
<path d="M32.1465 17.63C29.604 17.63 27.5429 15.5372 27.5429 12.9556C27.5429 10.374 29.604 8.28125 32.1465 8.28125C34.689 8.28125 36.75 10.374 36.75 12.9556C36.75 15.5372 34.689 17.63 32.1465 17.63Z" fill="#E6E7E8" stroke="#404041" stroke-width="1.42" stroke-linecap="round" stroke-linejoin="round"/>
<path d="M8.43063 17.5931C9.39904 17.0672 10.5049 16.861 11.5941 17.0033C12.6833 17.1456 13.7017 17.6292 14.5076 18.3868C16.6412 15.3557 19.7696 13.1969 23.3305 12.2982C26.8914 11.3995 30.6512 11.8199 33.9342 13.4839C37.2171 15.1479 39.8079 17.9463 41.2408 21.3762C42.6737 24.806 42.8547 28.6423 41.7514 32.1956C40.6477 35.749 38.3317 38.7861 35.22 40.7608C32.1082 42.7354 28.4047 43.5182 24.7754 42.9684C21.1461 42.4187 17.8289 40.5724 15.4202 37.7615C13.0116 34.9506 11.6694 31.3594 11.6351 27.6336C10.7182 27.7625 9.78405 27.6443 8.92632 27.2909C8.0686 26.9375 7.31745 26.3614 6.74822 25.6202C6.17899 24.879 5.81166 23.9989 5.68311 23.0682C5.55455 22.1374 5.66927 21.1886 6.01576 20.3171C6.47971 19.1498 7.33336 18.1855 8.42717 17.5931H8.43063Z" fill="white"/>
<path d="M6.26557 24.8554C6.77597 25.819 7.56398 26.6013 8.52419 27.0977C9.4844 27.5942 10.571 27.781 11.6387 27.6333C11.6597 29.7719 12.1122 31.8833 12.9682 33.8374C13.8242 35.7914 15.0655 37.5466 16.6156 38.9946C18.9507 41.1762 21.892 42.573 25.038 42.9942C28.184 43.4154 31.3813 42.8406 34.1936 41.3481C37.0058 39.8557 39.296 37.5184 40.7515 34.6553C42.207 31.7922 42.7568 28.5428 42.326 25.3506C41.797 29.2684 39.8271 32.8377 36.8123 35.3411C33.7976 37.8445 29.9613 39.0965 26.0746 38.8454C22.188 38.5943 18.5389 36.8588 15.8609 33.9876C13.1829 31.1164 11.6744 27.3224 11.6387 23.3681C10.5701 23.5183 9.4819 23.3323 8.52064 22.8352C7.42729 22.2702 6.56201 21.3361 6.07361 20.1934C5.75753 20.9349 5.61062 21.7394 5.64386 22.5467C5.6771 23.354 5.88964 24.1433 6.26557 24.8554Z" fill="#F1F1F2"/>
<path d="M8.43062 17.5931C9.39904 17.0672 10.5049 16.861 11.5941 17.0033C12.6833 17.1456 13.7017 17.6292 14.5076 18.3868C16.6412 15.3557 19.7696 13.1969 23.3305 12.2982C26.8914 11.3995 30.6512 11.8199 33.9342 13.4839C37.2171 15.1479 39.8079 17.9463 41.2408 21.3762C42.6737 24.806 42.8547 28.6423 41.7514 32.1956C40.6477 35.749 38.3317 38.7861 35.22 40.7608C32.1082 42.7354 28.4047 43.5182 24.7754 42.9684C21.1461 42.4187 17.8289 40.5724 15.4202 37.7615C13.0116 34.9506 11.6694 31.3594 11.6351 27.6336C10.7182 27.7625 9.78405 27.6443 8.92632 27.2909C8.0686 26.9375 7.31745 26.3614 6.74822 25.6202C6.17898 24.879 5.81167 23.9989 5.68311 23.0682C5.55455 22.1374 5.66927 21.1886 6.01576 20.3171C6.47971 19.1498 7.33336 18.1855 8.42717 17.5931H8.43062Z" stroke="#404041" stroke-width="1.42" stroke-linecap="round" stroke-linejoin="round"/>
<path d="M34.5449 21.6265C34.2968 21.6265 34.0588 21.5264 33.8833 21.3483C33.7079 21.1701 33.6093 20.9285 33.6093 20.6765C33.6093 20.4246 33.7079 20.183 33.8833 20.0048C34.0588 19.8266 34.2968 19.7266 34.5449 19.7266C34.793 19.7266 35.031 19.8266 35.2064 20.0048C35.3819 20.183 35.4805 20.4246 35.4805 20.6765C35.4805 20.9285 35.3819 21.1701 35.2064 21.3483C35.031 21.5264 34.793 21.6265 34.5449 21.6265Z" fill="#404041"/>
<path d="M21.5136 25.3052C21.2655 25.3052 21.0275 25.2051 20.8521 25.027C20.6766 24.8488 20.5781 24.6072 20.5781 24.3552C20.5781 24.1033 20.6766 23.8617 20.8521 23.6835C21.0275 23.5054 21.2655 23.4053 21.5136 23.4053C21.7618 23.4053 21.9997 23.5054 22.1752 23.6835C22.3507 23.8617 22.4492 24.1033 22.4492 24.3552C22.4492 24.6072 22.3507 24.8488 22.1752 25.027C21.9997 25.2051 21.7618 25.3052 21.5136 25.3052Z" fill="#404041"/>
<path d="M16.495 30.3549C16.3406 29.7698 17.4155 28.9689 18.896 28.5659C20.3765 28.1629 21.7017 28.3106 21.8563 28.8959C22.0108 29.481 20.9358 30.2819 19.4553 30.6848C17.9748 31.0877 16.6496 30.94 16.495 30.3549Z" fill="#F9C1B6"/>
<path d="M35.4253 24.5211C35.2726 23.9381 36.3447 23.1426 37.8196 22.7444C39.2946 22.3461 40.6141 22.4959 40.7668 23.0789C40.9193 23.6619 39.8475 24.4573 38.3723 24.8554C36.8974 25.2536 35.5779 25.1039 35.4253 24.5211Z" fill="#F9C1B6"/>
<path d="M28.9151 22.3922C28.9849 22.3645 29.0612 22.358 29.1347 22.3734C29.208 22.3891 29.2755 22.4261 29.3285 22.4798C29.3815 22.5338 29.4179 22.6022 29.4333 22.6767C29.4486 22.7513 29.4421 22.8287 29.4148 22.8997L29.2194 23.4054L28.6591 23.2526C28.5813 23.2307 28.5123 23.1846 28.4617 23.1207C28.4111 23.0568 28.3816 22.9785 28.3772 22.8966C28.3728 22.8148 28.3938 22.7336 28.4372 22.6645C28.4807 22.5955 28.5444 22.542 28.6193 22.5116L28.9151 22.3922Z" fill="#404041" stroke="#404041" stroke-width="1.42" stroke-miterlimit="10"/>
<path d="M29.2203 23.4053L29.625 24.4588" stroke="#404041" stroke-width="1.42" stroke-miterlimit="10"/>
<path d="M32.1914 23.5586L31.7089 29.4059L25.6268 25.8624L32.1914 23.5586Z" fill="#E15F5F" stroke="#404041" stroke-width="1.42" stroke-linecap="round" stroke-linejoin="round"/>
<path d="M27.0785 26.7099L31.708 29.4071L31.8809 27.242L31.957 26.3148C30.5096 25.767 28.6436 25.7547 27.0785 26.7099Z" fill="#EF8E8E"/>
<path d="M32.1914 23.5586L31.7089 29.4059L25.6268 25.8624L32.1914 23.5586Z" stroke="#404041" stroke-width="1.42" stroke-linecap="round" stroke-linejoin="round"/>
<path d="M30.5128 44.0787L35.623 36.9706C35.623 36.9706 36.5638 35.8011 35.8893 35.3621C35.2149 34.9231 34.9365 35.6993 34.9365 35.6993C34.9365 35.6993 35.5348 34.7879 34.8915 34.507C34.2482 34.226 33.9732 35.0022 33.9732 35.0022C33.9732 35.0022 34.5162 34.1365 33.8504 33.9117C33.1846 33.6869 32.1782 35.1813 32.1782 35.1813C32.1782 35.1813 32.0571 34.5403 31.4363 34.7317C30.8154 34.9231 31.0385 36.3858 31.0385 36.3858C31.0385 36.3858 27.3585 40.8091 27.1682 43.5993" fill="white"/>
<path d="M30.5128 44.0787L35.623 36.9706C35.623 36.9706 36.5638 35.8011 35.8893 35.3621C35.2149 34.9231 34.9365 35.6993 34.9365 35.6993C34.9365 35.6993 35.5348 34.7879 34.8915 34.507C34.2482 34.226 33.9732 35.0022 33.9732 35.0022C33.9732 35.0022 34.5162 34.1365 33.8504 33.9117C33.1846 33.6869 32.1782 35.1813 32.1782 35.1813C32.1782 35.1813 32.0571 34.5403 31.4363 34.7317C30.8154 34.9231 31.0385 36.3858 31.0385 36.3858C31.0385 36.3858 27.3585 40.8091 27.1682 43.5993" stroke="#404041" stroke-width="1.42" stroke-linecap="round" stroke-linejoin="round"/>
<path d="M35.5195 52.7617C35.5195 52.7617 34.4629 53.1375 33.5446 53.0567C33.5446 53.0567 34.3159 53.3974 34.7413 54.6775" stroke="#404041" stroke-width="1.42" stroke-linecap="round" stroke-linejoin="round"/>
<path d="M42.4633 31.585C42.4633 31.585 43.6998 32.3102 42.906 33.8677" stroke="#404041" stroke-width="1.42" stroke-linecap="round" stroke-linejoin="round"/>
<path d="M28.5079 52.4229L28.8711 52.5089C28.7538 52.4658 28.6319 52.4369 28.5079 52.4229Z" fill="white" stroke="#404041" stroke-width="1.42" stroke-linecap="round" stroke-linejoin="round"/>
<path d="M42.8855 15.7301C42.8722 15.7421 42.863 15.7582 42.8593 15.7759C42.8556 15.7936 42.8577 15.8121 42.8651 15.8286C42.8698 15.8398 42.8767 15.8499 42.8855 15.8582C44.6685 17.5352 46.0174 20.357 46.5707 23.7249C46.5707 23.7365 46.573 23.7479 46.5773 23.7585C46.5817 23.7692 46.588 23.7789 46.5961 23.787C46.6041 23.7952 46.6136 23.8016 46.6241 23.806C46.6346 23.8105 46.6459 23.8127 46.6572 23.8127C46.6686 23.8127 46.6798 23.8105 46.6903 23.806C46.7008 23.8016 46.7103 23.7952 46.7184 23.787C46.7264 23.7789 46.7328 23.7692 46.7371 23.7585C46.7414 23.7479 46.7437 23.7365 46.7437 23.7249C47.3161 20.357 48.6667 17.5352 50.441 15.8582C50.4499 15.85 50.457 15.84 50.4617 15.8288C50.4665 15.8176 50.4689 15.8055 50.4687 15.7933C50.4691 15.7813 50.4668 15.7694 50.462 15.7584C50.4572 15.7475 50.4501 15.7378 50.441 15.7301C48.6667 14.0531 47.3161 11.226 46.7437 7.85635C46.7437 7.83307 46.7346 7.81073 46.7184 7.79427C46.7021 7.7778 46.6801 7.76855 46.6572 7.76855C46.6343 7.76855 46.6123 7.7778 46.5961 7.79427C46.5799 7.81073 46.5707 7.83307 46.5707 7.85635C46.0174 11.226 44.6685 14.0531 42.8855 15.7301Z" fill="#F8D53F" stroke="#EBCB00" stroke-width="1.42" stroke-miterlimit="10"/>
<path d="M54.0456 31.3462C54.0367 31.3544 54.0297 31.3644 54.0249 31.3756C54.0201 31.3868 54.0177 31.3989 54.0179 31.4111C54.0177 31.4229 54.0198 31.4347 54.0243 31.4455C54.0288 31.4564 54.0354 31.4663 54.0439 31.4744C55.519 32.8703 56.6379 35.197 57.1187 37.9872C57.1224 38.0076 57.1331 38.026 57.149 38.0392C57.1648 38.0524 57.1847 38.0595 57.2051 38.0592C57.2254 38.0595 57.2451 38.0524 57.2607 38.0392C57.2762 38.026 57.2866 38.0075 57.2899 37.9872C57.7724 35.197 58.893 32.8703 60.3647 31.4744C60.3731 31.4663 60.3798 31.4565 60.3843 31.4456C60.3887 31.4347 60.3909 31.4229 60.3906 31.4111C60.3909 31.3991 60.3887 31.3871 60.3842 31.3759C60.3798 31.3648 60.3731 31.3546 60.3647 31.3462C58.893 29.9519 57.7706 27.62 57.2899 24.8298C57.2866 24.8095 57.2762 24.791 57.2607 24.7778C57.2451 24.7646 57.2254 24.7575 57.2051 24.7578C57.1847 24.7575 57.1647 24.7645 57.1489 24.7777C57.1331 24.7909 57.1223 24.8094 57.1187 24.8298C56.6414 27.62 55.519 29.9519 54.0456 31.3462Z" fill="#F8D53F" stroke="#EBCB00" stroke-width="1.42" stroke-miterlimit="10"/>
<path d="M47.0511 48.6276C47.0341 48.6449 47.0243 48.6681 47.0235 48.6926C47.0235 48.7045 47.026 48.7163 47.0307 48.7271C47.0355 48.738 47.0424 48.7478 47.0511 48.7558C48.196 49.8462 49.071 51.6478 49.4584 53.8077C49.461 53.8229 49.4674 53.8371 49.4772 53.849C49.4869 53.8608 49.4996 53.8698 49.5139 53.8751C49.5282 53.8803 49.5436 53.8816 49.5585 53.8788C49.5735 53.8761 49.5874 53.8693 49.599 53.8593C49.6148 53.8462 49.6256 53.828 49.6296 53.8077C50.0187 51.6496 50.892 49.8568 52.0351 48.7575C52.0438 48.7493 52.0507 48.7394 52.0554 48.7284C52.0601 48.7174 52.0625 48.7055 52.0625 48.6934C52.0625 48.6814 52.0601 48.6695 52.0554 48.6585C52.0507 48.6475 52.0438 48.6376 52.0351 48.6294C50.8938 47.5389 50.0187 45.7338 49.6296 43.574C49.6257 43.5536 49.615 43.5353 49.5992 43.5221C49.5834 43.509 49.5636 43.5018 49.5431 43.502C49.5229 43.5017 49.5031 43.5087 49.4876 43.522C49.472 43.5352 49.4617 43.5536 49.4584 43.574C49.071 45.7338 48.196 47.5389 47.0511 48.6276Z" fill="#F8D53F" stroke="#EBCB00" stroke-width="1.42" stroke-miterlimit="10"/>
<path d="M7.72915 45.3307C7.72054 45.3387 7.71367 45.3485 7.709 45.3594C7.70432 45.3703 7.70194 45.382 7.702 45.3939C7.70194 45.4058 7.70432 45.4175 7.709 45.4284C7.71367 45.4393 7.72054 45.4491 7.72915 45.4571C8.87398 46.5493 9.74904 48.3492 10.1364 50.509C10.1364 50.5323 10.1455 50.5546 10.1617 50.5711C10.178 50.5876 10.1999 50.5968 10.2229 50.5968C10.2458 50.5968 10.2678 50.5876 10.284 50.5711C10.3002 50.5546 10.3093 50.5323 10.3093 50.509C10.7002 48.3492 11.5735 46.5493 12.7166 45.4571C12.733 45.4403 12.7422 45.4176 12.7422 45.3939C12.7422 45.3702 12.733 45.3475 12.7166 45.3307C11.5735 44.2385 10.7002 42.4351 10.3093 40.2753C10.3093 40.252 10.3002 40.2297 10.284 40.2132C10.2678 40.1967 10.2458 40.1875 10.2229 40.1875C10.1999 40.1875 10.178 40.1967 10.1617 40.2132C10.1455 40.2297 10.1364 40.252 10.1364 40.2753C9.74904 42.4351 8.86879 44.2385 7.72915 45.3307Z" fill="#F8D53F" stroke="#EBCB00" stroke-width="1.42" stroke-miterlimit="10"/>
</svg>
