<svg width="129" height="123" viewBox="0 0 129 123" fill="none" xmlns="http://www.w3.org/2000/svg">
<path d="M74.3762 1.97266H124.447C125.124 1.97266 125.773 2.24165 126.252 2.72046C126.731 3.19928 127 3.84869 127 4.52583V35.2693C126.999 35.9458 126.729 36.5941 126.251 37.0721C125.772 37.55 125.123 37.8184 124.447 37.8184H110.814C107.572 42.5195 102.708 45.1538 92.7955 49.1659C94.9678 46.252 96.9414 41.2065 97.0306 37.8184H74.3762C73.6997 37.8184 73.0509 37.55 72.5723 37.0721C72.0936 36.5941 71.8241 35.9458 71.823 35.2693V4.52583C71.823 4.19054 71.889 3.85854 72.0174 3.54877C72.1457 3.23901 72.3337 2.95755 72.5708 2.72046C72.8079 2.48338 73.0894 2.29531 73.3991 2.167C73.7089 2.03869 74.0409 1.97266 74.3762 1.97266Z" fill="white" stroke="#414141" stroke-width="2.418" stroke-linecap="round" stroke-linejoin="round"/>
<path d="M113.963 21.9002C113.963 22.802 113.605 23.6668 112.967 24.3045C112.329 24.9421 111.464 25.3004 110.563 25.3004C109.661 25.3004 108.796 24.9421 108.158 24.3045C107.521 23.6668 107.163 22.802 107.163 21.9002C107.163 20.9984 107.521 20.1335 108.158 19.4959C108.796 18.8582 109.661 18.5 110.563 18.5C111.464 18.5 112.329 18.8582 112.967 19.4959C113.605 20.1335 113.963 20.9984 113.963 21.9002Z" fill="#525252"/>
<path d="M102.58 21.9002C102.58 22.3467 102.492 22.7888 102.321 23.2014C102.15 23.6139 101.9 23.9887 101.584 24.3045C101.268 24.6202 100.894 24.8707 100.481 25.0415C100.069 25.2124 99.6264 25.3004 99.1799 25.3004C98.7334 25.3004 98.2912 25.2124 97.8787 25.0415C97.4662 24.8707 97.0913 24.6202 96.7756 24.3045C96.4599 23.9887 96.2094 23.6139 96.0385 23.2014C95.8677 22.7888 95.7797 22.3467 95.7797 21.9002C95.7797 21.4537 95.8677 21.0115 96.0385 20.599C96.2094 20.1865 96.4599 19.8116 96.7756 19.4959C97.0913 19.1802 97.4662 18.9297 97.8787 18.7588C98.2912 18.5879 98.7334 18.5 99.1799 18.5C99.6264 18.5 100.069 18.5879 100.481 18.7588C100.894 18.9297 101.268 19.1802 101.584 19.4959C101.9 19.8116 102.15 20.1865 102.321 20.599C102.492 21.0115 102.58 21.4537 102.58 21.9002Z" fill="#525252"/>
<path d="M91.1953 21.9002C91.1953 22.802 90.8371 23.6668 90.1994 24.3045C89.5618 24.9421 88.6969 25.3004 87.7951 25.3004C86.8933 25.3004 86.0285 24.9421 85.3908 24.3045C84.7532 23.6668 84.3949 22.802 84.3949 21.9002C84.3949 20.9984 84.7532 20.1335 85.3908 19.4959C86.0285 18.8582 86.8933 18.5 87.7951 18.5C88.6969 18.5 89.5618 18.8582 90.1994 19.4959C90.8371 20.1335 91.1953 20.9984 91.1953 21.9002Z" fill="#525252"/>
<path d="M113.168 121.241C113.168 121.241 107.997 105.78 98.1123 100.828H9.87372C9.87372 100.828 4.36209 105.493 1.99939 120.905" fill="#F8D53E"/>
<path d="M113.168 121.241C113.168 121.241 107.997 105.78 98.1123 100.828H9.87372C9.87372 100.828 4.36209 105.493 1.99939 120.905" stroke="#404041" stroke-width="2.418" stroke-linecap="round" stroke-linejoin="round"/>
<path d="M65.498 45.8473C65.498 45.8473 65.652 36.3397 69.4898 33.4745C73.3277 30.6092 75.0298 38.0297 70.8029 47.517" fill="#CBEBF9"/>
<path d="M65.498 45.8473C65.498 45.8473 65.652 36.3397 69.4898 33.4745C73.3277 30.6092 75.0298 38.0297 70.8029 47.517" stroke="#404041" stroke-width="2.418" stroke-linecap="round" stroke-linejoin="round"/>
<path d="M9.87438 100.827C9.87438 100.827 -0.727386 38.8944 36.2167 32.7425C90.7047 23.6645 97.0958 100.827 98.1211 100.827C98.1211 100.827 96.4109 104.248 77.6025 105.958C58.7941 107.668 9.87438 100.827 9.87438 100.827Z" fill="#CBEBF9" stroke="#404041" stroke-width="2.418" stroke-linecap="round" stroke-linejoin="round"/>
<path d="M20.134 44.9094C20.134 44.9094 14.3184 37.3836 9.5322 37.3836C4.74601 37.3836 7.82198 44.3542 16.8837 49.42M48.8633 34.9926C48.8633 34.9926 46.6384 25.0717 41.682 25.7566C36.7256 26.4415 37.7874 34.9926 37.7874 34.9926" fill="#CBEBF9"/>
<path d="M20.134 44.9094C20.134 44.9094 14.3184 37.3836 9.5322 37.3836C4.74601 37.3836 7.82198 44.3542 16.8837 49.42M48.8633 34.9926C48.8633 34.9926 46.6384 25.0717 41.682 25.7566C36.7256 26.4415 37.7874 34.9926 37.7874 34.9926" stroke="#404041" stroke-width="2.418" stroke-linecap="round" stroke-linejoin="round"/>
<path d="M63.7402 47.5143C63.7402 47.5143 56.5143 14.2217 49.2033 16.0089C44.5874 17.1396 43.0473 43.4009 43.0473 43.4009" fill="#CBEBF9"/>
<path d="M63.7402 47.5143C63.7402 47.5143 56.5143 14.2217 49.2033 16.0089C44.5874 17.1396 43.0473 43.4009 43.0473 43.4009" stroke="#404041" stroke-width="2.418" stroke-linecap="round" stroke-linejoin="round"/>
<path d="M37.791 57.6021C37.791 58.9252 37.2654 60.1942 36.3298 61.1297C35.3942 62.0653 34.1253 62.5909 32.8022 62.5909C31.4791 62.5909 30.2101 62.0653 29.2746 61.1297C28.339 60.1942 27.8134 58.9252 27.8134 57.6021C27.8134 56.279 28.339 55.0101 29.2746 54.0745C30.2101 53.1389 31.4791 52.6133 32.8022 52.6133C34.1253 52.6133 35.3942 53.1389 36.3298 54.0745C37.2654 55.0101 37.791 56.279 37.791 57.6021Z" fill="#F9C1B6"/>
<path d="M37.791 52.0944C37.791 52.8446 37.5925 53.5641 37.2391 54.0946C36.8856 54.6251 36.4063 54.9231 35.9065 54.9231C35.4067 54.9231 34.9274 54.6251 34.574 54.0946C34.2206 53.5641 34.022 52.8446 34.022 52.0944C34.022 51.3442 34.2206 50.6246 34.574 50.0941C34.9274 49.5637 35.4067 49.2656 35.9065 49.2656C36.4063 49.2656 36.8856 49.5637 37.2391 50.0941C37.5925 50.6246 37.791 51.3442 37.791 52.0944Z" fill="#404041"/>
<path d="M77.7451 62.5714C77.2057 62.6015 76.6645 62.5024 76.1522 62.2798C75.6399 62.0573 75.1667 61.7156 74.7595 61.2743C74.3524 60.833 74.0192 60.3007 73.7791 59.7078C73.539 59.115 73.3967 58.4731 73.3602 57.819C73.3238 57.1648 73.3939 56.5112 73.5667 55.8953C73.7394 55.2794 74.0113 54.7134 74.3669 54.2296C74.7225 53.7458 75.1549 53.3536 75.6392 53.0755C76.1236 52.7974 76.6505 52.6388 77.1899 52.6088C77.7293 52.5787 78.2705 52.6778 78.7828 52.9003C79.295 53.1229 79.7682 53.4646 80.1754 53.9059C80.5825 54.3471 80.9157 54.8794 81.1557 55.4722C81.3958 56.0651 81.5382 56.7069 81.5746 57.361C81.6111 58.0151 81.5409 58.6688 81.3682 59.2846C81.1955 59.9005 80.9236 60.4664 80.568 60.9502C80.2124 61.434 79.78 61.8262 79.2957 62.1043C78.8114 62.3824 78.2845 62.5414 77.7451 62.5714Z" fill="#F9C1B6"/>
<path d="M74.7623 55.0627C74.5574 55.0768 74.3502 55.0171 74.1526 54.8869C73.9549 54.7568 73.7708 54.5588 73.6107 54.3044C73.4506 54.05 73.3177 53.7442 73.2197 53.4046C73.1218 53.065 73.0606 52.6983 73.0399 52.3257C73.0191 51.9531 73.0391 51.5819 73.0987 51.2335C73.1583 50.8852 73.2564 50.5665 73.3872 50.2958C73.518 50.0252 73.6791 49.808 73.861 49.6566C74.043 49.5053 74.2422 49.4229 74.4474 49.4141C74.6522 49.4 74.8594 49.4598 75.0571 49.5899C75.2547 49.7201 75.4389 49.9181 75.599 50.1725C75.7591 50.4269 75.892 50.7327 75.9899 51.0723C76.0879 51.4119 76.149 51.7785 76.1698 52.1511C76.1905 52.5237 76.1706 52.8949 76.1109 53.2433C76.0513 53.5917 75.9533 53.9104 75.8225 54.181C75.6916 54.4517 75.5306 54.6689 75.3486 54.8202C75.1667 54.9716 74.9674 55.054 74.7623 55.0627Z" fill="#404041"/>
<path d="M72.2383 69.1133C72.2383 69.1133 71.5899 74.3534 63.7277 74.3534C55.8655 74.3534 48.8504 69.1133 48.8504 69.1133" fill="#CBEBF9"/>
<path d="M72.2383 69.1133C72.2383 69.1133 71.5899 74.3534 63.7277 74.3534C55.8655 74.3534 48.8504 69.1133 48.8504 69.1133" stroke="#404041" stroke-width="2.418" stroke-linecap="round" stroke-linejoin="round"/>
<path d="M65.498 57.5977H54.2479" stroke="#404041" stroke-width="2.418" stroke-linecap="round" stroke-linejoin="round"/>
<path d="M98.1133 107.67C98.1133 107.67 96.4031 111.086 77.5947 112.797C63.9291 114.041 34.3852 110.77 19.2363 108.89" stroke="#F89F33" stroke-width="2.418" stroke-linecap="round" stroke-linejoin="round"/>
</svg>
