<svg width="139" height="114" viewBox="0 0 139 114" fill="none" xmlns="http://www.w3.org/2000/svg">
<path d="M94.8284 1.83398H135.664C136.216 1.83398 136.746 2.05628 137.136 2.45196C137.527 2.84765 137.746 3.38432 137.746 3.9439V29.35C137.745 29.909 137.525 30.4448 137.135 30.8398C136.745 31.2347 136.216 31.4566 135.664 31.4566H124.545C121.901 35.3415 117.935 37.5184 109.85 40.834C111.622 38.426 113.232 34.2564 113.304 31.4566H94.8284C94.2767 31.4566 93.7475 31.2347 93.3571 30.8398C92.9667 30.4448 92.747 29.909 92.7461 29.35V3.9439C92.7461 3.66682 92.8 3.39246 92.9046 3.13647C93.0092 2.88048 93.1626 2.64789 93.356 2.45196C93.5493 2.25604 93.7789 2.10062 94.0315 1.99459C94.2841 1.88856 94.5549 1.83398 94.8284 1.83398Z" fill="white" stroke="#414141" stroke-width="2" stroke-linecap="round" stroke-linejoin="round"/>
<path d="M127 18.5C127 19.163 126.737 19.7989 126.268 20.2678C125.799 20.7366 125.163 21 124.5 21C123.837 21 123.201 20.7366 122.732 20.2678C122.263 19.7989 122 19.163 122 18.5C122 17.837 122.263 17.2011 122.732 16.7322C123.201 16.2634 123.837 16 124.5 16C125.163 16 125.799 16.2634 126.268 16.7322C126.737 17.2011 127 17.837 127 18.5Z" fill="#525252"/>
<path d="M118 18.5C118 18.8283 117.935 19.1534 117.81 19.4567C117.684 19.76 117.5 20.0356 117.268 20.2678C117.036 20.4999 116.76 20.6841 116.457 20.8097C116.153 20.9353 115.828 21 115.5 21C115.172 21 114.847 20.9353 114.543 20.8097C114.24 20.6841 113.964 20.4999 113.732 20.2678C113.5 20.0356 113.316 19.76 113.19 19.4567C113.065 19.1534 113 18.8283 113 18.5C113 18.1717 113.065 17.8466 113.19 17.5433C113.316 17.24 113.5 16.9644 113.732 16.7322C113.964 16.5001 114.24 16.3159 114.543 16.1903C114.847 16.0647 115.172 16 115.5 16C115.828 16 116.153 16.0647 116.457 16.1903C116.76 16.3159 117.036 16.5001 117.268 16.7322C117.5 16.9644 117.684 17.24 117.81 17.5433C117.935 17.8466 118 18.1717 118 18.5Z" fill="#525252"/>
<path d="M109 18.5C109 19.163 108.737 19.7989 108.268 20.2678C107.799 20.7366 107.163 21 106.5 21C105.837 21 105.201 20.7366 104.732 20.2678C104.263 19.7989 104 19.163 104 18.5C104 17.837 104.263 17.2011 104.732 16.7322C105.201 16.2634 105.837 16 106.5 16C107.163 16 107.799 16.2634 108.268 16.7322C108.737 17.2011 109 17.837 109 18.5Z" fill="#525252"/>
<path d="M106.613 113C106.613 113 101.701 98.3122 92.3104 93.6074H8.48357C8.48357 93.6074 3.24751 98.0388 1.00294 112.68" fill="#F8D53E"/>
<path d="M106.613 113C106.613 113 101.701 98.3122 92.3104 93.6074H8.48357C8.48357 93.6074 3.24751 98.0388 1.00294 112.68" stroke="#404041" stroke-width="2" stroke-linecap="round" stroke-linejoin="round"/>
<path d="M61.3242 41.3752C61.3242 41.3752 61.4705 32.343 65.1165 29.6211C68.7625 26.8991 70.3795 33.9485 66.3639 42.9614" fill="#CBEBF9"/>
<path d="M61.3242 41.3752C61.3242 41.3752 61.4705 32.343 65.1165 29.6211C68.7625 26.8991 70.3795 33.9485 66.3639 42.9614" stroke="#404041" stroke-width="2" stroke-linecap="round" stroke-linejoin="round"/>
<path d="M8.47797 93.6077C8.47797 93.6077 -1.59373 34.7714 33.5032 28.927C85.2669 20.303 91.3384 93.6077 92.3125 93.6077C92.3125 93.6077 90.6878 96.8571 72.8198 98.4818C54.9518 100.107 8.47797 93.6077 8.47797 93.6077Z" fill="#CBEBF9" stroke="#404041" stroke-width="2" stroke-linecap="round" stroke-linejoin="round"/>
<path d="M18.2305 40.4843C18.2305 40.4843 12.7057 33.3348 8.15884 33.3348C3.61195 33.3348 6.53413 39.9569 15.1428 44.7694M45.5234 31.0633C45.5234 31.0633 43.4098 21.6384 38.7012 22.289C33.9926 22.9397 35.0013 31.0633 35.0013 31.0633" fill="#CBEBF9"/>
<path d="M18.2305 40.4843C18.2305 40.4843 12.7057 33.3348 8.15884 33.3348C3.61195 33.3348 6.53413 39.9569 15.1428 44.7694M45.5234 31.0633C45.5234 31.0633 43.4098 21.6384 38.7012 22.289C33.9926 22.9397 35.0013 31.0633 35.0013 31.0633" stroke="#404041" stroke-width="2" stroke-linecap="round" stroke-linejoin="round"/>
<path d="M59.6523 42.962C59.6523 42.962 52.7877 11.3339 45.8423 13.0318C41.4571 14.106 39.9941 39.0542 39.9941 39.0542" fill="#CBEBF9"/>
<path d="M59.6523 42.962C59.6523 42.962 52.7877 11.3339 45.8423 13.0318C41.4571 14.106 39.9941 39.0542 39.9941 39.0542" stroke="#404041" stroke-width="2" stroke-linecap="round" stroke-linejoin="round"/>
<path d="M35.0039 52.5451C35.0039 53.802 34.5046 55.0075 33.6158 55.8963C32.727 56.7851 31.5215 57.2845 30.2645 57.2845C29.0075 57.2845 27.8021 56.7851 26.9133 55.8963C26.0244 55.0075 25.5251 53.802 25.5251 52.5451C25.5251 51.2881 26.0244 50.0826 26.9133 49.1938C27.8021 48.305 29.0075 47.8057 30.2645 47.8057C31.5215 47.8057 32.727 48.305 33.6158 49.1938C34.5046 50.0826 35.0039 51.2881 35.0039 52.5451Z" fill="#F9C1B6"/>
<path d="M35.0039 47.3104C35.0039 48.0231 34.8153 48.7066 34.4795 49.2106C34.1438 49.7146 33.6884 49.9977 33.2136 49.9977C32.7388 49.9977 32.2835 49.7146 31.9477 49.2106C31.612 48.7066 31.4234 48.0231 31.4234 47.3104C31.4234 46.5977 31.612 45.9141 31.9477 45.4101C32.2835 44.9062 32.7388 44.623 33.2136 44.623C33.6884 44.623 34.1438 44.9062 34.4795 45.4101C34.8153 45.9141 35.0039 46.5977 35.0039 47.3104Z" fill="#404041"/>
<path d="M72.9585 57.2635C72.4461 57.292 71.9319 57.1979 71.4453 56.9865C70.9586 56.775 70.509 56.4504 70.1222 56.0312C69.7354 55.6119 69.4189 55.1063 69.1908 54.5431C68.9628 53.9798 68.8275 53.3701 68.7929 52.7487C68.7583 52.1272 68.8249 51.5062 68.989 50.9211C69.1531 50.3361 69.4114 49.7984 69.7493 49.3387C70.0871 48.8791 70.4978 48.5066 70.958 48.2424C71.4181 47.9782 71.9187 47.8275 72.4311 47.7989C72.9435 47.7704 73.4577 47.8645 73.9443 48.0759C74.4309 48.2874 74.8805 48.612 75.2673 49.0312C75.6541 49.4504 75.9706 49.956 76.1986 50.5192C76.4267 51.0824 76.5619 51.6921 76.5966 52.3136C76.6312 52.935 76.5646 53.556 76.4005 54.141C76.2364 54.7261 75.9781 55.2637 75.6402 55.7233C75.3024 56.1829 74.8917 56.5555 74.4316 56.8197C73.9715 57.0839 73.4709 57.2349 72.9585 57.2635Z" fill="#F9C1B6"/>
<path d="M70.1241 50.1298C69.9295 50.1432 69.7326 50.0865 69.5449 49.9628C69.3571 49.8392 69.1821 49.6511 69.03 49.4094C68.8779 49.1677 68.7517 48.8772 68.6586 48.5546C68.5656 48.232 68.5075 47.8836 68.4878 47.5297C68.468 47.1757 68.487 46.8231 68.5437 46.4921C68.6003 46.1611 68.6934 45.8584 68.8177 45.6013C68.942 45.3442 69.095 45.1378 69.2679 44.994C69.4407 44.8503 69.63 44.772 69.8249 44.7636C70.0195 44.7502 70.2163 44.807 70.4041 44.9306C70.5919 45.0543 70.7669 45.2424 70.9189 45.4841C71.071 45.7258 71.1973 46.0163 71.2903 46.3389C71.3834 46.6615 71.4415 47.0098 71.4612 47.3638C71.4809 47.7178 71.4619 48.0704 71.4053 48.4014C71.3487 48.7323 71.2555 49.0351 71.1312 49.2922C71.007 49.5493 70.854 49.7557 70.6811 49.8994C70.5083 50.0432 70.3189 50.1215 70.1241 50.1298Z" fill="#404041"/>
<path d="M67.7305 63.4766C67.7305 63.4766 67.1145 68.4547 59.6454 68.4547C52.1763 68.4547 45.5119 63.4766 45.5119 63.4766" fill="#CBEBF9"/>
<path d="M67.7305 63.4766C67.7305 63.4766 67.1145 68.4547 59.6454 68.4547C52.1763 68.4547 45.5119 63.4766 45.5119 63.4766" stroke="#404041" stroke-width="2.77555" stroke-linecap="round" stroke-linejoin="round"/>
<path d="M61.3281 52.5371H50.6404" stroke="#404041" stroke-width="2.77555" stroke-linecap="round" stroke-linejoin="round"/>
<path d="M92.3086 100.105C92.3086 100.105 90.6839 103.351 72.8159 104.976C59.8336 106.158 31.7668 103.051 17.3754 101.264" stroke="#F89F33" stroke-width="2.77555" stroke-linecap="round" stroke-linejoin="round"/>
</svg>
