<svg width="63" height="8" viewBox="0 0 63 8" fill="none" xmlns="http://www.w3.org/2000/svg">
<g clip-path="url(#clip0_125_392)">
<path d="M40.17 0.139485C35.6839 0.264475 31.2015 0.474114 26.725 0.768402L14.5397 0.96283C10.083 1.03425 5.62638 1.10501 1.17045 1.17644C0.739324 1.18305 0.0717053 1.46808 0.00560447 1.8986C-0.0671065 2.37343 0.585089 2.45279 0.952316 2.4475C3.84827 2.4012 6.74422 2.35491 9.64017 2.30862C8.43493 2.44683 7.23116 2.59034 6.02739 2.74046C5.61022 2.79271 5.0278 2.96862 4.89487 3.3793C4.77588 3.74567 5.14752 4.00557 5.54192 4.01218C12.2299 4.11535 18.9185 4.21917 25.6065 4.32234C27.0298 4.34416 28.4532 4.36665 29.8766 4.38847C27.8289 4.59018 25.7842 4.8223 23.7454 5.08484C20.5483 5.49751 17.3644 5.98689 14.1945 6.54438C13.8523 6.60456 13.3668 6.87438 13.3146 7.22025C13.264 7.55091 13.6687 7.76716 13.9933 7.76981C21.5993 7.82933 29.2053 7.88951 36.8113 7.94902C38.9559 7.96556 41.0998 7.98275 43.2444 7.99929C43.7357 8.00325 44.3659 7.87694 44.6134 7.44245C44.8345 7.0536 44.4202 6.73021 43.9979 6.7269L22.0326 6.5543C22.2368 6.52652 22.4402 6.49809 22.6444 6.47097C25.4111 6.10196 28.1873 5.78915 30.9695 5.53322C36.5366 5.02136 42.1287 4.73633 47.7246 4.68012C47.9721 4.67747 48.2225 4.67615 48.4722 4.67483C51.3087 4.71847 54.1444 4.76278 56.9809 4.80643C57.4715 4.8137 58.1039 4.68144 58.3499 4.2496C58.5761 3.8528 58.1531 3.54926 57.7344 3.53405C54.8399 3.42956 51.9425 3.38459 49.0458 3.3998C45.2538 3.34094 41.4619 3.28274 37.6699 3.22389C30.9819 3.12072 24.2933 3.01689 17.6053 2.91373C17.0662 2.90513 16.5264 2.89719 15.9873 2.8886C19.4892 2.55331 22.997 2.2696 26.5091 2.0388C33.8309 1.92175 41.1534 1.80535 48.4752 1.6883C52.9318 1.61688 57.3885 1.54612 61.8444 1.47469C62.2535 1.46808 62.8543 1.21545 62.977 0.835856C63.0974 0.464855 62.7228 0.216199 62.3299 0.202972C54.9472 -0.0456845 47.5542 -0.0668468 40.17 0.138824V0.139485Z" fill="#2F5AE5"/>
</g>
<defs>
<clipPath id="clip0_125_392">
<rect width="63" height="8" fill="white"/>
</clipPath>
</defs>
</svg>
