<svg width="138" height="53" viewBox="0 0 138 53" fill="none" xmlns="http://www.w3.org/2000/svg">
<path d="M8.23233 51.4955L11.9373 46.8128C12.0624 46.6547 12.2529 46.5625 12.4545 46.5625H23.3607C23.5608 46.5625 23.75 46.6533 23.8752 46.8093L27.6316 51.492C27.9779 51.9237 27.6706 52.5642 27.1171 52.5642H8.74955C8.19818 52.5642 7.89022 51.9279 8.23233 51.4955Z" fill="url(#paint0_linear_380_1855)"/>
<path d="M32.1194 30.8662H3.72195C3.41849 30.8662 3.13953 31.0328 2.99566 31.3C2.85472 31.5618 2.86553 31.8791 3.02395 32.1307L12.216 46.7261C12.4104 47.0349 12.7505 47.2212 13.1154 47.219L22.7062 47.1602C23.0635 47.158 23.3954 46.9752 23.5882 46.6744L32.857 32.2151C33.0477 31.9174 33.0409 31.5343 32.8397 31.2436C32.6761 31.0073 32.4069 30.8662 32.1194 30.8662Z" fill="url(#paint1_linear_380_1855)"/>
<path d="M7.98752 8.6393C-0.920967 3.15715 -0.608975 9.28728 0.663121 13.0475C0.665543 13.0547 0.668604 13.0616 0.672222 13.0683C3.97219 19.1205 8.21625 21.5092 10.2849 22.0677C10.4094 22.1013 10.4323 22.2863 10.319 22.3479C8.71273 23.2212 6.81946 25.0649 9.90019 26.7764C13.2154 28.6182 15.7127 26.0209 16.5547 24.4804C16.5593 24.472 16.5627 24.4639 16.5653 24.4547C17.4173 21.4563 16.8911 14.1184 7.98752 8.6393Z" fill="url(#paint2_linear_380_1855)"/>
<path d="M23.6094 3.76947C33.9848 -4.22872 34.4039 3.4412 33.315 8.2861C33.3134 8.29348 33.3111 8.30069 33.3081 8.30768C29.9523 16.38 24.891 19.9002 22.4217 20.8123C22.3007 20.857 22.2987 21.0407 22.4185 21.0885C24.5505 21.939 27.2889 24.0053 23.6219 26.5803C19.7333 29.3109 16.2778 26.4063 15.0271 24.6019C15.0216 24.594 15.0174 24.5863 15.0138 24.5774C13.5554 20.9632 13.2386 11.7641 23.6094 3.76947Z" fill="url(#paint3_linear_380_1855)" fill-opacity="0.8"/>
<path d="M48.9191 21H47.1341V10.5H49.1291L52.6691 18.66L56.2091 10.5H58.1891V21H56.4191V13.905L53.3441 21H51.9941L48.9191 13.905V21ZM60.5409 13.5H62.2359V21H60.5409V13.5ZM61.3959 12.36C61.0859 12.36 60.8259 12.255 60.6159 12.045C60.4059 11.835 60.3009 11.585 60.3009 11.295C60.3009 10.985 60.4059 10.725 60.6159 10.515C60.8259 10.305 61.0859 10.2 61.3959 10.2C61.6959 10.2 61.9509 10.305 62.1609 10.515C62.3709 10.725 62.4759 10.985 62.4759 11.295C62.4759 11.585 62.3709 11.835 62.1609 12.045C61.9509 12.255 61.6959 12.36 61.3959 12.36ZM64.4757 13.5H66.0057L66.1257 14.235C66.3757 13.975 66.6707 13.77 67.0107 13.62C67.3607 13.47 67.7357 13.395 68.1357 13.395C68.7257 13.395 69.2307 13.52 69.6507 13.77C70.0807 14.01 70.4107 14.37 70.6407 14.85C70.8707 15.32 70.9857 15.91 70.9857 16.62V21H69.2907V16.845C69.2907 16.215 69.1607 15.74 68.9007 15.42C68.6507 15.1 68.2707 14.94 67.7607 14.94C67.2407 14.94 66.8457 15.105 66.5757 15.435C66.3057 15.755 66.1707 16.23 66.1707 16.86V21H64.4757V13.5ZM72.8546 13.5H74.3846L74.5046 14.235C74.7546 13.975 75.0496 13.77 75.3896 13.62C75.7396 13.47 76.1146 13.395 76.5146 13.395C77.1046 13.395 77.6096 13.52 78.0296 13.77C78.4596 14.01 78.7896 14.37 79.0196 14.85C79.2496 15.32 79.3646 15.91 79.3646 16.62V21H77.6696V16.845C77.6696 16.215 77.5396 15.74 77.2796 15.42C77.0296 15.1 76.6496 14.94 76.1396 14.94C75.6196 14.94 75.2246 15.105 74.9546 15.435C74.6846 15.755 74.5496 16.23 74.5496 16.86V21H72.8546V13.5ZM85.7035 21L85.5535 20.085C85.3135 20.405 85.0285 20.65 84.6985 20.82C84.3685 20.99 83.9285 21.075 83.3785 21.075C82.8585 21.075 82.4085 20.99 82.0285 20.82C81.6485 20.64 81.3535 20.395 81.1435 20.085C80.9435 19.765 80.8435 19.395 80.8435 18.975C80.8435 18.345 81.0735 17.82 81.5335 17.4C82.0035 16.97 82.6885 16.705 83.5885 16.605L85.5535 16.395V15.81C85.5535 15.57 85.4485 15.355 85.2385 15.165C85.0285 14.965 84.6935 14.865 84.2335 14.865C83.8335 14.865 83.4835 14.965 83.1835 15.165C82.8935 15.355 82.6985 15.645 82.5985 16.035L81.1285 15.495C81.3185 14.835 81.6935 14.32 82.2535 13.95C82.8235 13.58 83.5135 13.395 84.3235 13.395C85.3035 13.395 86.0385 13.64 86.5285 14.13C87.0185 14.62 87.2635 15.245 87.2635 16.005V21H85.7035ZM85.5535 17.7L83.7535 17.925C83.3735 17.975 83.0885 18.085 82.8985 18.255C82.7085 18.415 82.6135 18.62 82.6135 18.87C82.6135 19.1 82.7035 19.3 82.8835 19.47C83.0735 19.63 83.3285 19.71 83.6485 19.71C84.0585 19.71 84.4035 19.635 84.6835 19.485C84.9735 19.335 85.1885 19.12 85.3285 18.84C85.4785 18.56 85.5535 18.215 85.5535 17.805V17.7ZM93.3478 13.5H94.8778L94.9978 14.235C95.2478 13.975 95.5428 13.77 95.8828 13.62C96.2328 13.47 96.6078 13.395 97.0078 13.395C97.5978 13.395 98.1028 13.52 98.5228 13.77C98.9528 14.01 99.2828 14.37 99.5128 14.85C99.7428 15.32 99.8578 15.91 99.8578 16.62V21H98.1628V16.845C98.1628 16.215 98.0328 15.74 97.7728 15.42C97.5228 15.1 97.1428 14.94 96.6328 14.94C96.1128 14.94 95.7178 15.105 95.4478 15.435C95.1778 15.755 95.0428 16.23 95.0428 16.86V21H93.3478V13.5ZM105.072 21.105C104.352 21.105 103.707 20.95 103.137 20.64C102.567 20.32 102.122 19.875 101.802 19.305C101.482 18.725 101.322 18.045 101.322 17.265C101.322 16.475 101.487 15.79 101.817 15.21C102.147 14.63 102.602 14.185 103.182 13.875C103.762 13.555 104.407 13.395 105.117 13.395C105.837 13.395 106.482 13.555 107.052 13.875C107.632 14.185 108.092 14.63 108.432 15.21C108.772 15.78 108.942 16.455 108.942 17.235C108.942 18.025 108.767 18.71 108.417 19.29C108.077 19.87 107.612 20.32 107.022 20.64C106.442 20.95 105.792 21.105 105.072 21.105ZM105.057 19.59C105.407 19.59 105.737 19.505 106.047 19.335C106.367 19.165 106.627 18.91 106.827 18.57C107.027 18.22 107.127 17.775 107.127 17.235C107.127 16.715 107.032 16.285 106.842 15.945C106.652 15.595 106.402 15.335 106.092 15.165C105.782 14.995 105.447 14.91 105.087 14.91C104.737 14.91 104.412 14.995 104.112 15.165C103.822 15.335 103.587 15.595 103.407 15.945C103.227 16.285 103.137 16.725 103.137 17.265C103.137 17.785 103.222 18.22 103.392 18.57C103.572 18.91 103.807 19.165 104.097 19.335C104.387 19.505 104.707 19.59 105.057 19.59ZM47.4991 31H49.8791V36.92H56.4791V31H58.8391V45H56.4791V38.9H49.8791V45H47.4991V31ZM66.1164 45.14C65.1564 45.14 64.2964 44.9333 63.5364 44.52C62.7764 44.0933 62.1831 43.5 61.7564 42.74C61.3297 41.9667 61.1164 41.06 61.1164 40.02C61.1164 38.9667 61.3364 38.0533 61.7764 37.28C62.2164 36.5067 62.8231 35.9133 63.5964 35.5C64.3697 35.0733 65.2297 34.86 66.1764 34.86C67.1364 34.86 67.9964 35.0733 68.7564 35.5C69.5297 35.9133 70.1431 36.5067 70.5964 37.28C71.0497 38.04 71.2764 38.94 71.2764 39.98C71.2764 41.0333 71.0431 41.9467 70.5764 42.72C70.1231 43.4933 69.5031 44.0933 68.7164 44.52C67.9431 44.9333 67.0764 45.14 66.1164 45.14ZM66.0964 43.12C66.5631 43.12 67.0031 43.0067 67.4164 42.78C67.8431 42.5533 68.1897 42.2133 68.4564 41.76C68.7231 41.2933 68.8564 40.7 68.8564 39.98C68.8564 39.2867 68.7297 38.7133 68.4764 38.26C68.2231 37.7933 67.8897 37.4467 67.4764 37.22C67.0631 36.9933 66.6164 36.88 66.1364 36.88C65.6697 36.88 65.2364 36.9933 64.8364 37.22C64.4497 37.4467 64.1364 37.7933 63.8964 38.26C63.6564 38.7133 63.5364 39.3 63.5364 40.02C63.5364 40.7133 63.6497 41.2933 63.8764 41.76C64.1164 42.2133 64.4297 42.5533 64.8164 42.78C65.2031 43.0067 65.6297 43.12 66.0964 43.12ZM73.3947 30.6H75.6547V45H73.3947V30.6ZM82.757 45.14C81.797 45.14 80.937 44.9333 80.177 44.52C79.417 44.0933 78.8237 43.5 78.397 42.74C77.9704 41.9667 77.757 41.06 77.757 40.02C77.757 38.9667 77.977 38.0533 78.417 37.28C78.857 36.5067 79.4637 35.9133 80.237 35.5C81.0104 35.0733 81.8704 34.86 82.817 34.86C83.777 34.86 84.637 35.0733 85.397 35.5C86.1704 35.9133 86.7837 36.5067 87.237 37.28C87.6904 38.04 87.917 38.94 87.917 39.98C87.917 41.0333 87.6837 41.9467 87.217 42.72C86.7637 43.4933 86.1437 44.0933 85.357 44.52C84.5837 44.9333 83.717 45.14 82.757 45.14ZM82.737 43.12C83.2037 43.12 83.6437 43.0067 84.057 42.78C84.4837 42.5533 84.8304 42.2133 85.097 41.76C85.3637 41.2933 85.497 40.7 85.497 39.98C85.497 39.2867 85.3704 38.7133 85.117 38.26C84.8637 37.7933 84.5304 37.4467 84.117 37.22C83.7037 36.9933 83.257 36.88 82.777 36.88C82.3104 36.88 81.877 36.9933 81.477 37.22C81.0904 37.4467 80.777 37.7933 80.537 38.26C80.297 38.7133 80.177 39.3 80.177 40.02C80.177 40.7133 80.2904 41.2933 80.517 41.76C80.757 42.2133 81.0704 42.5533 81.457 42.78C81.8437 43.0067 82.2704 43.12 82.737 43.12ZM97.3553 35H99.3953V43.5C99.3953 44.6333 99.1153 45.6067 98.5553 46.42C97.9953 47.2467 97.1886 47.88 96.1353 48.32C95.082 48.7733 93.8153 49 92.3353 49L91.9953 47.06C93.6753 47.02 94.9486 46.7 95.8153 46.1C96.6953 45.5 97.1353 44.64 97.1353 43.52V43.5H97.3953C97.0886 43.9533 96.642 44.34 96.0553 44.66C95.482 44.98 94.7953 45.14 93.9953 45.14C93.1153 45.14 92.3353 44.9267 91.6553 44.5C90.9753 44.0733 90.442 43.4733 90.0553 42.7C89.682 41.9267 89.4953 41.0267 89.4953 40C89.4953 38.9733 89.682 38.0733 90.0553 37.3C90.442 36.5267 90.9753 35.9267 91.6553 35.5C92.3353 35.0733 93.1153 34.86 93.9953 34.86C94.4886 34.86 94.9353 34.9267 95.3353 35.06C95.7486 35.18 96.1086 35.3467 96.4153 35.56C96.7353 35.76 96.9953 35.9867 97.1953 36.24L97.3553 35ZM91.9153 40C91.9153 40.92 92.1553 41.6667 92.6353 42.24C93.1153 42.8133 93.7553 43.1 94.5553 43.1C95.022 43.1 95.4486 42.98 95.8353 42.74C96.222 42.4867 96.5353 42.1267 96.7753 41.66C97.0153 41.1933 97.1353 40.64 97.1353 40C97.1353 39.3333 97.0153 38.7733 96.7753 38.32C96.5353 37.8533 96.2153 37.5 95.8153 37.26C95.4286 37.02 95.0086 36.9 94.5553 36.9C93.7553 36.9 93.1153 37.1867 92.6353 37.76C92.1553 38.32 91.9153 39.0667 91.9153 40ZM102.047 35H104.087L104.267 36.24C104.534 35.9067 104.847 35.6333 105.207 35.42C105.567 35.1933 105.954 35.04 106.367 34.96C106.794 34.88 107.22 34.8933 107.647 35V37.08C107.3 36.96 106.927 36.9333 106.527 37C106.14 37.0533 105.78 37.2 105.447 37.44C105.114 37.6667 104.84 37.9933 104.627 38.42C104.414 38.8333 104.307 39.3467 104.307 39.96V45H102.047V35ZM115.39 45L115.19 43.78C114.87 44.2067 114.49 44.5333 114.05 44.76C113.61 44.9867 113.023 45.1 112.29 45.1C111.597 45.1 110.997 44.9867 110.49 44.76C109.983 44.52 109.59 44.1933 109.31 43.78C109.043 43.3533 108.91 42.86 108.91 42.3C108.91 41.46 109.217 40.76 109.83 40.2C110.457 39.6267 111.37 39.2733 112.57 39.14L115.19 38.86V38.08C115.19 37.76 115.05 37.4733 114.77 37.22C114.49 36.9533 114.043 36.82 113.43 36.82C112.897 36.82 112.43 36.9533 112.03 37.22C111.643 37.4733 111.383 37.86 111.25 38.38L109.29 37.66C109.543 36.78 110.043 36.0933 110.79 35.6C111.55 35.1067 112.47 34.86 113.55 34.86C114.857 34.86 115.837 35.1867 116.49 35.84C117.143 36.4933 117.47 37.3267 117.47 38.34V45H115.39ZM115.19 40.6L112.79 40.9C112.283 40.9667 111.903 41.1133 111.65 41.34C111.397 41.5533 111.27 41.8267 111.27 42.16C111.27 42.4667 111.39 42.7333 111.63 42.96C111.883 43.1733 112.223 43.28 112.65 43.28C113.197 43.28 113.657 43.18 114.03 42.98C114.417 42.78 114.703 42.4933 114.89 42.12C115.09 41.7467 115.19 41.2867 115.19 40.74V40.6ZM119.977 35H122.017L122.177 35.94C122.51 35.6067 122.903 35.3467 123.357 35.16C123.81 34.96 124.303 34.86 124.837 34.86C125.503 34.86 126.103 35 126.637 35.28C127.17 35.5467 127.603 35.94 127.937 36.46C128.283 35.94 128.757 35.5467 129.357 35.28C129.957 35 130.603 34.86 131.297 34.86C132.083 34.86 132.763 35.0267 133.337 35.36C133.923 35.68 134.377 36.16 134.697 36.8C135.017 37.4267 135.177 38.2133 135.177 39.16V45H132.897V39.46C132.897 38.62 132.717 37.9867 132.357 37.56C132.01 37.1333 131.497 36.92 130.817 36.92C130.123 36.92 129.583 37.14 129.197 37.58C128.81 38.0067 128.617 38.6467 128.617 39.5V45H126.357V39.46C126.357 38.62 126.19 37.9867 125.857 37.56C125.537 37.1333 125.037 36.92 124.357 36.92C123.663 36.92 123.137 37.14 122.777 37.58C122.417 38.0067 122.237 38.64 122.237 39.48V45H119.977V35Z" fill="black"/>
<defs>
<linearGradient id="paint0_linear_380_1855" x1="9.82699" y1="49.5963" x2="25.9196" y2="49.5963" gradientUnits="userSpaceOnUse">
<stop stop-color="#1060F5"/>
<stop offset="0.298077" stop-color="#3659ED"/>
<stop offset="1" stop-color="#6A5BE8"/>
</linearGradient>
<linearGradient id="paint1_linear_380_1855" x1="30.5339" y1="30.8662" x2="11.8032" y2="43.0676" gradientUnits="userSpaceOnUse">
<stop offset="0.0974452" stop-color="#AA5CFD"/>
<stop offset="1" stop-color="#204EE9"/>
</linearGradient>
<linearGradient id="paint2_linear_380_1855" x1="1.12121" y1="7.12237" x2="12.9928" y2="27.436" gradientUnits="userSpaceOnUse">
<stop offset="0.025507" stop-color="#55CFF8"/>
<stop offset="1" stop-color="#31BAF2"/>
</linearGradient>
<linearGradient id="paint3_linear_380_1855" x1="32.3832" y1="1.05525" x2="17.6097" y2="26.0515" gradientUnits="userSpaceOnUse">
<stop stop-color="#F641D4"/>
<stop offset="1" stop-color="#9B00F7"/>
</linearGradient>
</defs>
</svg>
