<svg width="57" height="52" viewBox="0 0 57 52" fill="none" xmlns="http://www.w3.org/2000/svg">
<path d="M52.9899 36.1413C52.9899 50.1787 41.6124 50.6974 27.575 50.6974C13.5377 50.6974 2.16016 50.1787 2.16016 36.1413C2.215 29.4366 4.91689 23.0252 9.67731 18.3036C14.4377 13.582 20.871 10.9326 27.5759 10.9326C34.2808 10.9326 40.714 13.582 45.4745 18.3036C50.2349 23.0252 52.9368 29.4366 52.9916 36.1413H52.9899Z" fill="#F8D7E6"/>
<path d="M39.3267 50.5589C38.9577 48.9807 38.0631 46.9008 36.1413 44.4365L23.6992 49.0079L24.2774 50.7664" fill="white"/>
<path d="M39.3267 50.5589C38.9577 48.9807 38.0631 46.9008 36.1413 44.4365L23.6992 49.0079L24.2774 50.7664" stroke="#404041" stroke-linecap="round" stroke-linejoin="round"/>
<path d="M31.1614 50.7649L31.6257 50.3363L30.7243 45.2207L26.8672 45.753V50.8482" fill="#8BC53F"/>
<path d="M31.1614 50.7649L31.6257 50.3363L30.7243 45.2207L26.8672 45.753V50.8482" stroke="#404041" stroke-linecap="round" stroke-linejoin="round"/>
<path d="M9.85547 14.4825C9.85547 15.203 9.99738 15.9164 10.2731 16.582C10.5488 17.2477 10.9529 17.8525 11.4624 18.3619C11.9718 18.8714 12.5767 19.2755 13.2423 19.5512C13.9079 19.8269 14.6214 19.9688 15.3418 19.9688C16.0623 19.9688 16.7757 19.8269 17.4414 19.5512C18.107 19.2755 18.7118 18.8714 19.2213 18.3619C19.7308 17.8525 20.1349 17.2477 20.4106 16.582C20.6863 15.9164 20.8282 15.203 20.8282 14.4825C20.8282 13.0274 20.2502 11.6319 19.2213 10.603C18.1924 9.57412 16.7969 8.99609 15.3418 8.99609C13.8868 8.99609 12.4913 9.57412 11.4624 10.603C10.4335 11.6319 9.85547 13.0274 9.85547 14.4825Z" fill="#F1F1F2" stroke="#404041" stroke-miterlimit="10"/>
<path d="M10.8008 24.5829C10.8008 29.0393 12.5711 33.3131 15.7222 36.4642C18.8733 39.6153 23.1471 41.3856 27.6034 41.3856C32.0598 41.3856 36.3336 39.6153 39.4847 36.4642C42.6358 33.3131 44.4061 29.0393 44.4061 24.5829C44.4061 20.1266 42.6358 15.8528 39.4847 12.7017C36.3336 9.55055 32.0598 7.78027 27.6034 7.78027C23.1471 7.78027 18.8733 9.55055 15.7222 12.7017C12.5711 15.8528 10.8008 20.1266 10.8008 24.5829Z" fill="white"/>
<path d="M13.7921 18.8058C13.0967 18.8015 12.4039 18.8914 11.7326 19.0728C11.4157 19.986 11.1784 20.9248 11.0234 21.8789C11.9009 22.2405 12.8433 22.4176 13.7921 22.3993C15.9673 22.3993 17.7326 21.5949 17.7326 20.6017C17.7326 19.6085 15.9673 18.8058 13.7921 18.8058Z" fill="#F9C1B6"/>
<path d="M27.6034 36.9544C23.5325 36.9545 19.5999 35.4768 16.5364 32.7958C13.4729 30.1149 11.4868 26.4129 10.947 22.3779C10.8502 23.1109 10.8014 23.8494 10.8008 24.5888C10.8008 29.0451 12.5711 33.319 15.7222 36.4701C18.8733 39.6212 23.1471 41.3915 27.6034 41.3915C32.0598 41.3915 36.3336 39.6212 39.4847 36.4701C42.6358 33.319 44.4061 29.0451 44.4061 24.5888C44.4055 23.8494 44.3566 23.1109 44.2598 22.3779C43.7201 26.4129 41.734 30.1149 38.6705 32.7958C35.607 35.4768 31.6744 36.9545 27.6034 36.9544Z" fill="#F1F1F2"/>
<path d="M10.8008 24.5829C10.8008 29.0393 12.5711 33.3131 15.7222 36.4642C18.8733 39.6153 23.1471 41.3856 27.6034 41.3856C32.0598 41.3856 36.3336 39.6153 39.4847 36.4642C42.6358 33.3131 44.4061 29.0393 44.4061 24.5829C44.4061 20.1266 42.6358 15.8528 39.4847 12.7017C36.3336 9.55055 32.0598 7.78027 27.6034 7.78027C23.1471 7.78027 18.8733 9.55055 15.7222 12.7017C12.5711 15.8528 10.8008 20.1266 10.8008 24.5829Z" stroke="#404041" stroke-linecap="round" stroke-linejoin="round"/>
<path d="M38.6562 12.8416C38.9808 11.8062 39.6051 10.8902 40.4502 10.2095C41.2954 9.52889 42.3234 9.11416 43.4042 9.01778C44.4851 8.9214 45.5703 9.14771 46.5225 9.66809C47.4747 10.1885 48.2512 10.9795 48.7539 11.9413C49.2565 12.903 49.4626 13.9921 49.3462 15.071C49.2298 16.1499 48.7961 17.17 48.0999 18.0024C47.4037 18.8348 46.4763 19.442 45.435 19.7473C44.3937 20.0525 43.2852 20.0422 42.2498 19.7175" fill="white"/>
<path d="M38.6562 12.8416C38.9808 11.8062 39.6051 10.8902 40.4502 10.2095C41.2954 9.52889 42.3234 9.11416 43.4042 9.01778C44.4851 8.9214 45.5703 9.14771 46.5225 9.66809C47.4747 10.1885 48.2512 10.9795 48.7539 11.9413C49.2565 12.903 49.4626 13.9921 49.3462 15.071C49.2298 16.1499 48.7961 17.17 48.0999 18.0024C47.4037 18.8348 46.4763 19.442 45.435 19.7473C44.3937 20.0525 43.2852 20.0422 42.2498 19.7175" stroke="#404041" stroke-linecap="round" stroke-linejoin="round"/>
<path d="M33.2227 20.6003C33.2227 21.0771 33.6376 21.5343 34.3763 21.8715C35.115 22.2086 36.1168 22.398 37.1614 22.398C38.206 22.398 39.2079 22.2086 39.9465 21.8715C40.6852 21.5343 41.1002 21.0771 41.1002 20.6003C41.1002 20.1236 40.6852 19.6664 39.9465 19.3292C39.2079 18.9921 38.206 18.8027 37.1614 18.8027C36.1168 18.8027 35.115 18.9921 34.3763 19.3292C33.6376 19.6664 33.2227 20.1236 33.2227 20.6003Z" fill="#F9C1B6"/>
<path d="M25.4766 16.8857V19.6782" stroke="#404041" stroke-linecap="round" stroke-linejoin="round"/>
<path d="M25.4764 17.7225L26.4101 16.7906C26.4706 16.7298 26.5118 16.6525 26.5284 16.5684C26.545 16.4842 26.5363 16.397 26.5033 16.3179C26.4704 16.2387 26.4147 16.171 26.3433 16.1235C26.2719 16.076 26.188 16.0507 26.1023 16.0508H24.8506C24.765 16.051 24.6813 16.0765 24.6102 16.1242C24.5391 16.1719 24.4837 16.2395 24.4509 16.3186C24.4182 16.3978 24.4096 16.4848 24.4262 16.5688C24.4429 16.6528 24.484 16.7299 24.5445 16.7906L25.4764 17.7225Z" fill="#424143" stroke="#404041" stroke-miterlimit="10"/>
<path d="M28.5077 19.8574H22.3172C22.3172 19.8574 21.1097 28.1091 25.4754 28.1091C29.841 28.1091 28.5077 19.8574 28.5077 19.8574Z" fill="#E15F5F"/>
<path d="M20.7724 40.4237C20.7435 35.9645 21.502 30.2996 25.519 30.0904C25.519 30.0904 26.0054 28.0802 29.2605 29.3285C32.5156 30.5768 34.252 35.0224 34.6686 37.3404C34.6686 37.3404 35.9169 35.4373 37.3727 37.3404C38.8285 39.2435 38.9033 43.1958 35.7775 47.3557C32.6516 51.5155 28.4289 47.3557 28.4289 47.3557C28.4289 47.3557 27.4527 50.3369 23.9306 50.3369C19.9017 50.3369 18.1857 40.1023 19.4867 39.6227C20.7877 39.1431 20.7724 40.4237 20.7724 40.4237Z" fill="white" stroke="#404041" stroke-linecap="round" stroke-linejoin="round"/>
<path d="M28.4333 47.355C28.4333 47.355 28.2343 40.2989 27.5455 37.452C27.5455 37.452 30.2088 37.0846 30.0251 35.5676C29.8414 34.0506 23.8721 36.0778 23.7326 34.9248C23.5932 33.7717 23.5625 32.5438 28.7003 32.4911C28.7003 32.4911 29.5183 32.537 29.6101 31.7564C29.702 30.9758 29.1425 29.9401 25.5183 30.0898M20.7734 40.423C20.7734 40.423 20.9248 43.8533 21.3823 45.753L20.7734 40.423ZM34.673 37.3431C34.673 37.3431 35.1237 41.1849 34.673 43.0914V37.3431Z" fill="white"/>
<path d="M28.4333 47.355C28.4333 47.355 28.2343 40.2989 27.5455 37.452C27.5455 37.452 30.2088 37.0846 30.0251 35.5676C29.8414 34.0506 23.8721 36.0778 23.7326 34.9248C23.5932 33.7717 23.5625 32.5438 28.7003 32.4911C28.7003 32.4911 29.5183 32.537 29.6101 31.7564C29.702 30.9758 29.1425 29.9401 25.5183 30.0898M20.7734 40.423C20.7734 40.423 20.9248 43.8533 21.3823 45.753M34.673 37.3431C34.673 37.3431 35.1237 41.185 34.673 43.0914" stroke="#404041" stroke-linecap="round" stroke-linejoin="round"/>
<path d="M8.77938 26.8789C8.60391 27.7509 8.60859 28.6495 8.79313 29.5195C8.97768 30.3896 9.33818 31.2128 9.85251 31.9384M6.39844 29.4095C6.42345 30.4117 6.69718 31.3919 7.19502 32.262C7.69286 33.1321 8.39919 33.8648 9.25047 34.3942M40.6653 43.088C40.6653 43.088 42.0361 45.0642 42.1857 47.355M42.1857 41.3857C43.1762 42.634 43.7507 44.1613 43.8286 45.753" stroke="#404041" stroke-linecap="round" stroke-linejoin="round"/>
<path d="M28.6794 23.3382C27.909 23.2085 27.1291 23.1431 26.3478 23.1427C24.9517 23.1377 23.5631 23.3471 22.2305 23.7634C22.4448 25.8961 23.2101 28.1086 25.4703 28.1086C27.8886 28.1086 28.5604 25.5933 28.6794 23.3382Z" fill="#EF8E8E"/>
<path d="M28.5077 19.8574H22.3172C22.3172 19.8574 21.1097 28.1091 25.4754 28.1091C29.841 28.1091 28.5077 19.8574 28.5077 19.8574Z" stroke="#333333" stroke-linecap="round" stroke-linejoin="round"/>
<path d="M50.2932 10.6423C50.1976 10.6422 50.1021 10.6354 50.0075 10.6219C49.4599 10.5471 48.9293 10.0386 49.0126 9.40256C49.0473 9.16298 49.1497 8.93833 49.308 8.75511C49.4662 8.57189 49.6735 8.43776 49.9054 8.36855C49.8833 8.35324 49.8612 8.33453 49.8391 8.31582C49.1197 7.68828 49.2048 6.4944 49.3442 5.42468C49.3765 5.16958 49.4173 4.90257 49.4582 4.62536C49.499 4.34815 49.5466 4.03693 49.5874 3.72571L49.6231 3.26652C49.6333 3.19169 49.6418 3.09646 49.6486 3.02163C49.6554 2.9468 49.6639 2.86516 49.669 2.81584L49.6844 2.7036C49.6995 2.57635 49.7316 2.45167 49.7796 2.33285C49.7881 2.31273 49.7983 2.29338 49.8102 2.27503C49.9378 2.08115 50.2048 1.85156 50.749 1.85156C50.8468 1.85182 50.9446 1.85864 51.0415 1.87197C51.4626 1.92773 51.8659 2.07707 52.2218 2.30904C52.4452 2.45075 52.6334 2.64161 52.7719 2.86708C52.9105 3.09254 52.9957 3.34666 53.0211 3.61006C53.0661 3.95432 53.0598 4.30336 53.0024 4.64577C52.8034 5.97059 52.0959 7.46379 51.6758 7.95018C51.5104 8.15233 51.3063 8.31943 51.0755 8.44167C51.244 8.52368 51.3913 8.64359 51.5058 8.79201C51.5875 8.89985 51.6466 9.02305 51.6796 9.15425C51.7126 9.28545 51.7189 9.42195 51.698 9.55562C51.5993 10.2325 51.0619 10.6423 50.2932 10.6423Z" fill="#404041"/>
<path d="M50.7444 2.20034C50.8275 2.2011 50.9104 2.20678 50.9927 2.21735C51.3614 2.26595 51.7147 2.39609 52.0268 2.5983C52.2108 2.71454 52.3654 2.87171 52.4787 3.05756C52.592 3.2434 52.6608 3.4529 52.6798 3.66972C52.7192 3.98133 52.7128 4.297 52.6611 4.60679C52.4774 5.83468 51.8108 7.28535 51.4145 7.73943C51.1832 8.00644 50.8788 8.24964 50.5489 8.24964C50.5183 8.25217 50.4876 8.25217 50.457 8.24964C50.3106 8.23706 50.1722 8.17739 50.0625 8.07957C49.5098 7.59998 49.5251 6.66461 49.6764 5.48944C49.7444 4.96563 49.8465 4.39251 49.9213 3.78877C49.9332 3.63231 49.9468 3.47584 49.9587 3.31938C49.9723 3.20884 49.991 2.97925 50.003 2.88571C50.003 2.8483 50.0132 2.81088 50.0166 2.77347C50.029 2.67611 50.0535 2.58069 50.0897 2.48945C50.1679 2.39369 50.2687 2.31885 50.383 2.27165C50.4972 2.22445 50.6215 2.20638 50.7444 2.21905M50.4043 8.6527C50.4612 8.65219 50.5181 8.65617 50.5744 8.6646C51.0404 8.72923 51.4366 9.05576 51.3669 9.53365C51.2734 10.0796 50.7989 10.3024 50.2887 10.3024C50.2085 10.3018 50.1284 10.2961 50.0489 10.2853C49.7087 10.2377 49.287 9.90099 49.3448 9.44521C49.3739 9.25802 49.459 9.08404 49.5889 8.9462C49.7189 8.80837 49.8875 8.71315 50.0727 8.6731C50.1782 8.64251 50.2876 8.62705 50.3975 8.62719M50.7376 1.51327C50.0047 1.51327 49.6577 1.87381 49.5149 2.08979C49.4908 2.12629 49.4703 2.16501 49.4536 2.20544C49.3941 2.35266 49.3541 2.50703 49.3346 2.66462L49.321 2.77347C49.321 2.82789 49.3074 2.90782 49.2989 2.99115C49.2904 3.07448 49.2836 3.16122 49.2768 3.20714V3.24115L49.2496 3.59659L49.2411 3.69183C49.2019 3.99455 49.1577 4.29047 49.1135 4.57618C49.0693 4.86189 49.0319 5.1238 48.9979 5.3823C48.8686 6.4027 48.7836 7.51324 49.338 8.27345C49.1567 8.39748 49.0036 8.55839 48.8887 8.74566C48.7738 8.93292 48.6997 9.14233 48.6713 9.36018C48.5625 10.1969 49.2479 10.8636 49.957 10.9605C50.0669 10.9754 50.1777 10.9828 50.2887 10.9826C51.224 10.9826 51.9077 10.4418 52.0302 9.60507C52.0572 9.42646 52.0485 9.24424 52.0044 9.06904C51.9603 8.89385 51.8818 8.72919 51.7734 8.58467C51.7366 8.53681 51.6974 8.49083 51.656 8.44692C51.7536 8.36094 51.845 8.26831 51.9298 8.1697C52.44 7.58297 53.1373 6.00985 53.3346 4.69353C53.3967 4.31608 53.4024 3.9315 53.3516 3.55237C53.3194 3.24272 53.2178 2.9443 53.0544 2.67931C52.891 2.41431 52.6699 2.18956 52.4077 2.02177C52.009 1.76095 51.5569 1.59299 51.0846 1.53027C50.9718 1.51502 50.8582 1.50707 50.7444 1.50646L50.7376 1.51327ZM45.5982 10.083C45.5243 10.0832 45.4505 10.0793 45.3771 10.0711C44.8278 10.0132 44.2819 9.52174 44.3448 8.88059C44.3724 8.64033 44.468 8.41295 44.6205 8.22524C44.7729 8.03752 44.9758 7.89729 45.2054 7.82107C45.1832 7.80576 45.1611 7.78705 45.139 7.76835C44.3975 7.16291 44.4485 5.96733 44.554 4.89591C44.5795 4.64421 44.6118 4.3857 44.6441 4.10679C44.6764 3.82788 44.7156 3.50135 44.7479 3.18333C44.7479 3.18333 44.77 2.71734 44.77 2.71224C44.77 2.65612 44.7802 2.57109 44.7853 2.49115C44.7904 2.41122 44.7955 2.32109 44.8006 2.27687L44.8125 2.16462C44.8227 2.03719 44.8508 1.91183 44.8958 1.79218C44.9037 1.77209 44.9134 1.75274 44.9247 1.73435C45.0523 1.52687 45.3278 1.28027 45.9094 1.28027C45.9878 1.28076 46.0662 1.2853 46.1441 1.29388C46.5662 1.33481 46.9733 1.4715 47.3346 1.69354C47.5617 1.82835 47.755 2.01312 47.9 2.23384C48.045 2.45456 48.1378 2.70541 48.1713 2.96734C48.2278 3.30994 48.2324 3.65909 48.1849 4.00305C48.0285 5.33468 47.3669 6.84828 46.9621 7.34828C46.802 7.55459 46.6033 7.72786 46.3771 7.85848C46.5478 7.93624 46.698 8.0527 46.8159 8.19862C46.9013 8.30385 46.9645 8.42534 47.0017 8.55572C47.0388 8.68609 47.0491 8.82265 47.0319 8.95712C46.9536 9.63909 46.3907 10.083 45.5982 10.083Z" fill="#404041"/>
<path d="M45.9123 1.62946C45.9769 1.62946 46.0433 1.62946 46.1113 1.64136C46.4804 1.67526 46.8372 1.79149 47.1555 1.98149C47.3415 2.09205 47.4995 2.24386 47.6175 2.42521C47.7354 2.60656 47.8101 2.8126 47.8358 3.02741C47.8847 3.33761 47.8881 3.65329 47.846 3.96448C47.6997 5.19747 47.0722 6.67025 46.6946 7.13454C46.4684 7.41515 46.164 7.66685 45.8273 7.66685H45.7558C45.609 7.65931 45.4684 7.6051 45.3545 7.51209C44.7882 7.0478 44.7746 6.11413 44.8919 4.93386C44.9429 4.41006 45.0229 3.83353 45.0841 3.21959C45.0841 3.06312 45.0994 2.90666 45.1062 2.7502C45.1181 2.63796 45.1266 2.41006 45.1368 2.31483C45.1368 2.27741 45.1368 2.24 45.1487 2.20258C45.1565 2.10492 45.1777 2.00878 45.2116 1.91687C45.3426 1.70599 45.6045 1.62435 45.9072 1.62435M45.7473 8.06651C45.7893 8.06392 45.8313 8.06392 45.8732 8.06651C46.3426 8.11583 46.7456 8.43215 46.6912 8.91684C46.6249 9.50528 46.1215 9.74507 45.596 9.74507C45.5341 9.74511 45.4722 9.7417 45.4106 9.73487C45.0603 9.69745 44.6368 9.37432 44.681 8.91684C44.7044 8.7291 44.784 8.55281 44.9094 8.41109C45.0347 8.26936 45.1999 8.16882 45.3834 8.12263C45.5011 8.08516 45.6239 8.06622 45.7473 8.06651ZM45.9123 0.949185C45.1351 0.949185 44.7814 1.33524 44.6385 1.56313C44.6159 1.60049 44.5965 1.63975 44.5807 1.68048C44.5252 1.82814 44.4897 1.98257 44.4752 2.13966L44.4667 2.22469V2.2485C44.4667 2.30292 44.4565 2.38796 44.4514 2.47469C44.4463 2.56142 44.4412 2.63115 44.4361 2.68217C44.4353 2.69406 44.4353 2.706 44.4361 2.71789L44.4259 2.90666L44.414 3.17197C44.3834 3.47979 44.3477 3.78081 44.312 4.07332C44.2763 4.36584 44.2474 4.61244 44.2218 4.86754C44.1215 5.88794 44.0722 7.00358 44.647 7.74678C44.4692 7.87575 44.3207 8.04095 44.2113 8.23149C44.102 8.42204 44.0343 8.6336 44.0127 8.85222C43.9293 9.69235 44.6351 10.3386 45.3477 10.4134C45.4344 10.4219 45.5178 10.427 45.6045 10.427C46.5654 10.427 47.278 9.85221 47.3766 8.99677C47.3978 8.81763 47.3831 8.63607 47.3335 8.46264C47.2839 8.28921 47.2002 8.12738 47.0875 7.98657C47.0508 7.93919 47.0105 7.89483 46.9667 7.85392C47.0606 7.76321 47.1487 7.66664 47.2303 7.56481C47.7184 6.96107 48.3715 5.36924 48.5279 4.04611C48.5785 3.66697 48.5728 3.28243 48.5109 2.90496C48.4679 2.59729 48.3567 2.30311 48.1855 2.0439C48.0142 1.78469 47.7873 1.56698 47.5211 1.40667C47.114 1.1592 46.6567 1.00581 46.1827 0.957689C46.0935 0.947648 46.0038 0.942538 45.914 0.942383L45.9123 0.949185ZM40.0467 9.58861H39.897C39.4617 9.5597 38.8647 9.36072 38.6079 8.90834C38.5836 8.86496 38.5691 8.81678 38.5654 8.76718C38.5438 8.2223 38.5534 7.67662 38.5943 7.13284C38.6249 6.63624 38.664 6.18046 38.7151 5.74168C38.7593 5.2689 38.8154 4.80291 38.8647 4.39305C38.8647 4.33693 38.8783 4.28081 38.8834 4.22298C38.6589 4.19577 38.3732 4.16006 38.1606 4.12094C37.8813 4.08727 37.6147 3.98439 37.3851 3.82162C37.0603 3.62094 36.8749 3.07673 36.9157 2.38626C36.9549 1.56483 37.4498 1.03592 38.1759 1.03592H38.2542C38.7644 1.06313 39.2661 1.09374 39.7695 1.12606C40.6419 1.18048 41.397 1.25021 41.8494 1.29612C41.9974 1.30973 42.113 1.32163 42.1895 1.32674C42.9906 1.39136 43.511 1.59714 43.8307 1.97639C43.9588 2.13904 44.0526 2.326 44.1064 2.52594C44.1602 2.72589 44.1728 2.93467 44.1436 3.13965C44.045 4.20087 42.8477 4.2723 41.9753 4.33013L41.8052 4.34033C41.761 4.97808 41.7321 5.84032 41.7065 6.541C41.6878 7.08692 41.6674 7.66515 41.6249 8.21106C41.6249 8.3046 41.6079 8.40154 41.5977 8.49678C41.5875 8.59202 41.5773 8.66684 41.5722 8.75698C41.5664 8.82703 41.5391 8.89357 41.494 8.94746C41.3147 9.15417 41.0921 9.3188 40.8419 9.42962C40.5917 9.54045 40.3202 9.59473 40.0467 9.58861Z" fill="#404041"/>
<path d="M38.176 1.36733H38.2355C38.7457 1.39454 39.244 1.42345 39.7491 1.45577C40.9039 1.5289 41.8528 1.62583 42.1624 1.65134C43.1386 1.72958 43.9005 2.0476 43.8052 3.09522C43.7202 4.00848 42.4294 3.91494 41.4923 4.00338C41.4923 4.0544 41.4838 4.10712 41.4804 4.15984C41.4311 4.79589 41.3988 5.68024 41.3699 6.50847C41.3512 7.05779 41.3307 7.62751 41.2899 8.16493C41.2763 8.33499 41.2491 8.53227 41.2355 8.71084C41.0895 8.88312 40.9068 9.02062 40.7008 9.1133C40.4949 9.20599 40.2708 9.25151 40.045 9.24655H39.9175C39.5331 9.21934 39.0773 9.04417 38.8971 8.73635C38.8753 8.2062 38.885 7.67523 38.926 7.14622C38.9549 6.68874 38.9923 6.23126 39.045 5.77378C39.1097 5.0816 39.1981 4.40303 39.2525 3.92515C39.125 3.90474 38.562 3.84861 38.2134 3.78399C37.9802 3.7596 37.7574 3.67459 37.5672 3.53739C37.4073 3.45066 37.2134 3.08161 37.2457 2.39964C37.278 1.71767 37.6709 1.37924 38.1675 1.37924M38.1675 0.698967C37.4107 0.698967 36.6233 1.20917 36.5672 2.37243C36.5263 3.19045 36.7559 3.82991 37.1828 4.10542C37.4549 4.29555 37.7687 4.41746 38.0978 4.46086C38.2185 4.48297 38.358 4.50337 38.4974 4.52208C38.4532 4.88773 38.4073 5.29249 38.3682 5.71255C38.3171 6.15643 38.278 6.61391 38.2474 7.11391C38.2039 7.67234 38.1943 8.23288 38.2185 8.79247C38.2256 8.89257 38.254 8.99 38.3018 9.07819C38.625 9.65642 39.3222 9.90301 39.8648 9.94043H40.0348C40.3607 9.94417 40.6834 9.87582 40.9797 9.74028C41.2761 9.60474 41.5388 9.40537 41.7491 9.15642C41.8381 9.04823 41.8916 8.91518 41.9022 8.77547C41.9022 8.69384 41.9175 8.6054 41.926 8.52717C41.9345 8.44894 41.9481 8.32649 41.9549 8.22785C41.9974 7.67683 42.0195 7.0952 42.0382 6.54588C42.0586 5.95235 42.0841 5.24317 42.1182 4.65473C43.0093 4.59861 44.3511 4.45576 44.4702 3.17175C44.505 2.92169 44.4882 2.66715 44.4209 2.42381C44.3537 2.18047 44.2373 1.95347 44.079 1.75679C43.5688 1.16155 42.7695 1.0323 42.2083 0.988081L41.8682 0.957469C41.4141 0.916653 40.6539 0.846925 39.7763 0.787402L38.2576 0.697266L38.1675 0.698967Z" fill="#404041"/>
<path d="M35.356 9.26003C35.0975 9.26003 34.7948 9.25153 34.5057 9.24303C33.6554 9.21582 32.7846 9.1869 32.805 8.03895C32.805 7.81956 32.8237 7.30936 33.2608 7.08827C33.3544 7.04668 33.4424 6.99354 33.5227 6.93011C33.5227 6.58998 33.5448 6.24984 33.5567 5.8825C33.572 5.45733 33.589 5.01345 33.601 4.54066C33.601 4.40971 33.6146 4.26856 33.6248 4.124C33.635 3.97944 33.6452 3.83999 33.6486 3.70223C33.6696 3.52141 33.6627 3.33845 33.6282 3.15972C33.618 3.1257 33.6112 3.107 33.47 3.05257C33.1299 2.92332 32.936 2.56448 32.9479 2.06958C32.9486 1.81148 33.0141 1.55769 33.1384 1.33149C33.4207 0.885915 34.0822 0.821289 34.6265 0.821289H34.9207L35.1945 0.831493C35.919 0.857004 37.1316 0.89952 37.1452 2.00496V2.14781C37.1519 2.38305 37.0814 2.61402 36.9444 2.80537C36.8074 2.99672 36.6115 3.13791 36.3867 3.20734C36.3663 3.48284 36.3526 3.82128 36.3407 4.09849L36.2931 5.25835C36.2812 5.55427 36.2557 5.87059 36.2302 6.17671C36.2047 6.48283 36.1843 6.75494 36.1741 7.01174V7.03555C36.6231 7.28895 36.8305 7.48793 36.8016 8.12739C36.7761 8.72772 36.4836 9.12568 36.004 9.21922C35.7896 9.25187 35.5728 9.26553 35.356 9.26003Z" fill="#404041"/>
<path d="M34.6191 1.1597H35.1752C36.2858 1.20051 36.7892 1.38248 36.7977 1.99983V2.12228C36.7756 2.61377 36.5426 2.78214 36.1956 2.90289C36.1545 2.91754 36.1184 2.94381 36.0919 2.97852C36.0653 3.01323 36.0494 3.05489 36.046 3.09846C36.0205 3.41139 36.0052 3.81445 35.9916 4.13758L35.9456 5.23451C35.9218 5.80424 35.8487 6.45219 35.8266 6.98791C35.8148 7.04997 35.8227 7.11417 35.8493 7.17151C35.8758 7.22885 35.9196 7.27644 35.9745 7.30763C36.3674 7.52532 36.4848 7.61035 36.4558 8.10185C36.4388 8.46069 36.3096 8.80082 35.932 8.87565C35.7421 8.90061 35.5505 8.91084 35.3589 8.90627C35.1072 8.90627 34.813 8.89776 34.5222 8.88926C33.512 8.85695 33.1412 8.77191 33.1616 8.03892C33.1616 7.78212 33.1973 7.50321 33.4303 7.38586C33.7093 7.24641 33.8606 7.12736 33.8776 6.99471C33.898 6.23281 33.9337 5.43859 33.9575 4.54404C33.9661 4.28553 33.9967 3.98622 34.0052 3.7056C34.0225 3.47757 34.0053 3.24824 33.9542 3.02534C33.8997 2.85527 33.7841 2.78554 33.597 2.71241C33.3742 2.62908 33.2858 2.37228 33.2926 2.05595C33.2901 1.86246 33.3357 1.67138 33.4252 1.49983C33.6123 1.20391 34.1361 1.14609 34.631 1.14609M34.631 0.46582C34.0511 0.46582 33.2382 0.533848 32.8555 1.12738C32.6912 1.40867 32.6043 1.72848 32.6038 2.05425C32.5868 2.6767 32.8521 3.15799 33.3113 3.35016C33.3171 3.46347 33.3171 3.577 33.3113 3.6903C33.3113 3.81955 33.2977 3.96071 33.2892 4.09846C33.2807 4.23622 33.2688 4.38928 33.2654 4.53043C33.2518 5.00152 33.2348 5.44369 33.2212 5.86886C33.2093 6.16818 33.199 6.4573 33.1905 6.74131L33.114 6.78042C32.4916 7.09505 32.4746 7.77362 32.4695 8.02872C32.4354 9.51511 33.6718 9.55933 34.4916 9.58143C34.7824 9.58143 35.0868 9.59844 35.3419 9.59844C35.5774 9.60511 35.8131 9.59031 36.046 9.55422C36.682 9.43007 37.0834 8.90287 37.1174 8.14436C37.1514 7.38586 36.8844 7.09505 36.4984 6.85015C36.5103 6.64777 36.5273 6.43179 36.546 6.2056C36.5698 5.89607 36.5953 5.57635 36.6089 5.27363L36.631 4.72601L36.6531 4.17839V4.11377C36.6616 3.90628 36.6718 3.66139 36.6854 3.4335C36.9207 3.31551 37.118 3.13357 37.2545 2.90856C37.3911 2.68354 37.4615 2.42458 37.4575 2.16139V2.03724C37.4584 2.02422 37.4584 2.01115 37.4575 1.99813C37.4405 0.567861 35.8555 0.511739 35.1803 0.487929H34.5987L34.631 0.46582ZM28.5222 9.18518C27.2552 9.18518 26.3368 8.88416 25.8657 8.31103C25.2144 7.51512 25.1038 5.87737 25.0851 5.2107C25.046 3.75833 25.3708 1.97092 26.3964 1.29915C26.9525 0.940309 27.9814 0.697112 28.9559 0.693711H28.9797C29.58 0.693711 30.3946 0.79235 30.8623 1.26514C30.9804 1.38436 31.0729 1.52636 31.1343 1.68249C31.1957 1.83862 31.2247 2.00561 31.2195 2.1733C31.2254 2.30654 31.2093 2.43986 31.1718 2.56785C30.9355 3.24812 30.0596 3.27363 29.2875 3.30084C28.8385 3.31615 28.1583 3.33996 28.1072 3.54234C28.0918 3.62703 28.0849 3.71307 28.0868 3.79914H28.3402C29.1276 3.79914 30.1055 3.81275 30.1021 4.6971C30.1021 5.94199 28.9117 6.07294 28.114 6.15117C28.1192 6.23038 28.1529 6.30504 28.2088 6.36133C28.2648 6.41761 28.3393 6.45171 28.4185 6.4573C28.5001 6.4709 28.8215 6.48281 28.9882 6.48281C29.197 6.47808 29.4054 6.46161 29.6123 6.43349C29.8329 6.40414 30.0549 6.3871 30.2773 6.38247C30.4146 6.38054 30.5509 6.40635 30.6781 6.45837C30.8052 6.51039 30.9205 6.58753 31.0171 6.68519C31.2157 6.88933 31.3252 7.16397 31.3215 7.44879C31.3079 8.53382 30.3011 9.16477 28.5664 9.18007L28.5222 9.18518Z" fill="#404041"/>
<path d="M28.9743 1.04091C29.8756 1.04091 30.8824 1.2773 30.8739 2.17696C30.8764 2.27061 30.8679 2.36422 30.8484 2.45587C30.5355 3.37593 27.9998 2.56301 27.7719 3.47627C27.7479 3.59775 27.7376 3.72154 27.7413 3.84532C27.7416 3.95021 27.7507 4.05488 27.7685 4.15824H28.3178C29.078 4.15824 29.7583 4.16675 29.7566 4.71436C29.7566 5.78749 28.6069 5.76538 27.7515 5.86572V6.01028C27.7515 6.35041 27.8756 6.73646 28.3586 6.81129C28.5649 6.83248 28.7721 6.8427 28.9794 6.84191C29.4369 6.84191 29.8484 6.74157 30.2702 6.74157H30.2804C30.3739 6.74196 30.4663 6.76114 30.5522 6.79797C30.6381 6.8348 30.7157 6.88852 30.7805 6.95595C30.8452 7.02338 30.8957 7.10313 30.929 7.19047C30.9623 7.27781 30.9777 7.37095 30.9743 7.46435C30.9607 8.62761 29.5083 8.8504 28.5559 8.85891H28.5219C27.3637 8.85891 26.5219 8.5868 26.1291 8.10891C25.6614 7.53748 25.4488 6.33341 25.425 5.21776C25.3876 3.7977 25.709 2.17356 26.5797 1.60893C27.027 1.32152 27.9539 1.06131 28.9607 1.05791H28.9845M28.9845 0.377644H28.9573C27.9097 0.377644 26.8331 0.639547 26.2158 1.03751C25.8518 1.2739 24.6716 2.2739 24.7498 5.23647C24.7736 6.10892 24.9199 7.69735 25.6001 8.54428C26.1393 9.19734 27.1495 9.54258 28.5202 9.54258H28.5644C31.3365 9.51877 31.6528 8.0885 31.6596 7.47626C31.6623 7.29029 31.6282 7.10562 31.5593 6.93285C31.4904 6.76009 31.3881 6.60261 31.2583 6.46946C31.1316 6.34111 30.9807 6.23923 30.8142 6.16975C30.6478 6.10026 30.4692 6.06455 30.2889 6.0647H30.2753C30.0871 6.06642 29.8991 6.07891 29.7124 6.10211C29.9432 5.95453 30.1316 5.74947 30.2592 5.50707C30.3868 5.26467 30.4492 4.99326 30.4403 4.71946C30.444 4.48631 30.3751 4.25777 30.2432 4.0655C30.1112 3.87323 29.9228 3.72674 29.7039 3.64634C30.4437 3.60212 31.2243 3.45927 31.4896 2.70927C31.5403 2.54997 31.5633 2.38315 31.5576 2.21607V2.20587C31.5639 1.99229 31.5267 1.77967 31.4484 1.58088C31.37 1.38209 31.2521 1.20128 31.1018 1.04941C30.5525 0.493289 29.6443 0.369141 28.9777 0.369141L28.9845 0.377644Z" fill="#404041"/>
<path d="M21.4507 9.35715C20.1395 9.35715 19.6905 8.38436 19.2143 7.35545L19.1361 7.18539C18.4507 5.65219 17.8998 4.06231 17.4898 2.4337C17.4882 2.41446 17.4882 2.39512 17.4898 2.37588C17.4575 1.74833 17.9354 1.30956 18.7075 1.26024H18.8674C19.4898 1.26024 20.0476 1.50003 20.3248 1.88438L20.3367 1.90309C20.5436 2.296 20.7045 2.71144 20.8163 3.14118C20.8929 3.38948 20.9728 3.65138 21.0544 3.86227L21.2823 4.46601C21.3861 4.74322 21.4745 4.97621 21.5578 5.1956C21.6901 4.86323 21.7997 4.52232 21.8861 4.17519V4.15478C22.0493 3.61284 22.2137 3.07089 22.3793 2.52894C22.6616 1.53404 23.1837 1.03405 23.9745 1.00684H24.0816C25.2449 1.00684 25.4507 1.75853 25.4711 2.19731C25.4932 3.03744 25.0697 4.09186 24.7908 4.78743L24.7585 4.86907C24.6429 5.15308 24.5306 5.44389 24.4184 5.73301C23.7092 7.54933 23.0408 9.28232 21.7177 9.34864H21.6038C21.5476 9.35715 21.4983 9.35715 21.4507 9.35715Z" fill="#404041"/>
<path d="M24.0789 1.32332C24.6724 1.32332 25.0993 1.5274 25.1282 2.19576C25.1469 2.94746 24.7625 3.92025 24.4717 4.64644C24.4598 4.67195 24.4496 4.69916 24.4394 4.72637C23.6367 6.71275 22.9921 8.94234 21.6911 9.00867H21.4513C20.351 9.00867 19.9803 8.19404 19.5143 7.18554L19.4479 7.03248C19.0755 6.23827 18.1979 4.01038 17.8221 2.34372C17.7949 1.81822 18.2813 1.61243 18.7218 1.58352H18.8595C19.3391 1.58352 19.8153 1.75359 20.0398 2.06481C20.3034 2.48658 20.4939 3.35052 20.7285 3.96447C20.9905 4.65664 21.169 5.13963 21.3289 5.54779C21.3816 5.66684 21.4666 5.79439 21.5364 5.79439C21.7558 5.78249 22.1078 4.64644 22.2064 4.22637C22.3686 3.68442 22.533 3.14247 22.6996 2.60053C22.9666 1.66005 23.4207 1.33863 23.9802 1.31992H24.0755M24.0755 0.639648H23.9564C23.0143 0.671961 22.3714 1.2672 22.0466 2.40835C21.8765 2.95086 21.7149 3.49678 21.5551 4.03079C21.5503 4.04358 21.5464 4.05664 21.5432 4.06991C21.5378 4.09801 21.531 4.12582 21.5228 4.15324C21.4734 4.01889 21.419 3.87773 21.3629 3.72467C21.283 3.51719 21.2047 3.26549 21.1299 3.02229C21.0121 2.56502 20.8408 2.12321 20.6197 1.70597L20.5942 1.66856C20.2541 1.18897 19.6027 0.903253 18.8612 0.903253H18.6775C17.7184 0.966178 17.101 1.55801 17.1469 2.37774C17.1501 2.41605 17.1558 2.45411 17.1639 2.49168C17.5483 4.19236 18.4394 6.46956 18.834 7.31309L18.8544 7.36071L18.8969 7.45765V7.46955L18.9054 7.48826C19.3816 8.51887 19.9258 9.68723 21.4564 9.68723H21.7387C23.2915 9.609 23.9972 7.77908 24.7455 5.84031C24.8544 5.5563 24.9683 5.26208 25.0857 4.97977L25.0993 4.94916L25.118 4.90494C25.4105 4.17705 25.8493 3.08352 25.8255 2.18386V2.17196C25.8068 1.71447 25.5993 0.641349 24.0976 0.641349L24.0755 0.639648Z" fill="#404041"/>
<path d="M14.3757 9.89942C12.2923 9.89942 11.0287 8.56269 10.7209 6.03208C10.5662 4.76848 10.8502 3.61202 11.5219 2.77699C12.1274 2.02019 13.0185 1.56611 14.1002 1.46067C14.2396 1.44706 14.3791 1.44026 14.5151 1.44026C15.0723 1.42836 15.6245 1.54797 16.1268 1.78938C16.6291 2.03079 17.0675 2.3872 17.4063 2.82971C17.8637 3.41815 18.1376 4.27699 18.2192 5.38072C18.4386 8.44194 16.5644 9.72084 14.8944 9.87901C14.7141 9.89091 14.5406 9.89942 14.3757 9.89942ZM14.5015 4.20216H14.3876C14.3007 4.2062 14.2157 4.22824 14.1378 4.26689C14.0599 4.30553 13.9909 4.35993 13.9352 4.42665C13.7345 4.67154 13.6563 5.13413 13.7175 5.72596C13.7736 6.25487 14.0423 7.04228 14.5576 7.04228H14.6155C15.2855 6.97766 15.3689 6.19195 15.3229 5.53549C15.2362 4.20216 14.7209 4.20216 14.5015 4.20216Z" fill="#404041"/>
<path d="M14.5148 1.78001C15.0183 1.76817 15.5175 1.87536 15.9717 2.09286C16.4259 2.31037 16.8224 2.63204 17.1288 3.03171C17.639 3.67796 17.809 4.58612 17.8754 5.40075C18.0131 7.33611 17.1781 9.3123 14.8567 9.53508C14.6866 9.55039 14.5318 9.55889 14.3771 9.55889C12.258 9.55889 11.3159 8.03679 11.0608 5.98748C10.8023 3.89395 11.8312 2.02321 14.1339 1.79872C14.2631 1.78681 14.3907 1.78001 14.5148 1.78001ZM14.5574 7.39224C14.5874 7.39393 14.6175 7.39393 14.6475 7.39224C15.5863 7.3021 15.7155 6.2817 15.6679 5.52149C15.6067 4.56231 15.3142 3.87014 14.508 3.87014C14.4599 3.8677 14.4116 3.8677 14.3635 3.87014C13.4587 3.95688 13.2955 4.89054 13.3873 5.76639C13.4553 6.42115 13.804 7.38883 14.5642 7.38883M14.5216 1.09634C14.37 1.09588 14.2184 1.10326 14.0676 1.11845C12.8924 1.23239 11.9213 1.73069 11.2563 2.55892C10.5268 3.46878 10.2172 4.71537 10.3839 6.07081C10.7087 8.75618 12.1271 10.2358 14.3754 10.2358C14.5454 10.2358 14.7359 10.2358 14.923 10.2086C16.2053 10.0861 17.2223 9.48577 17.8618 8.47046C18.3907 7.63203 18.6356 6.52319 18.5522 5.34803C18.4689 4.17286 18.1679 3.2647 17.6679 2.61674C17.298 2.13424 16.82 1.7453 16.2723 1.48123C15.7247 1.21716 15.1227 1.08533 14.5148 1.09634H14.5216ZM14.5642 6.70856C14.3618 6.70856 14.1169 6.21707 14.0625 5.68816C14.0029 5.11503 14.0965 4.7698 14.2053 4.63884C14.2327 4.60669 14.2669 4.58101 14.3054 4.56366C14.344 4.54631 14.3859 4.53772 14.4281 4.53851H14.508C14.6424 4.53851 14.923 4.53851 14.9893 5.55891C15.0199 5.97217 15.0063 6.66605 14.5897 6.70686L14.5642 6.70856Z" fill="#404041"/>
<path d="M8.2011 10.6024C6.97491 10.6024 6.22321 10.0922 5.90009 9.05304C5.68636 8.345 5.52325 7.62266 5.41199 6.89148C5.25409 5.78659 5.16888 4.67252 5.15689 3.55646C5.15604 3.54741 5.15604 3.5383 5.15689 3.52925C5.19771 2.83198 5.83716 2.49524 6.36777 2.41871C6.54439 2.38998 6.72286 2.37407 6.90178 2.37109C7.58205 2.37109 7.99872 2.72653 8.15688 3.45612V3.48333C8.15688 3.51962 8.16368 3.55533 8.17729 3.59048C8.18749 3.6432 8.1977 3.69592 8.2045 3.74864C8.21811 3.86429 8.23681 4.07857 8.26232 4.35408C8.32865 5.08877 8.43239 6.31666 8.54634 7.08876C8.57185 7.26733 8.59565 7.39829 8.61606 7.49182C8.82997 7.4851 9.0434 7.46751 9.25552 7.4391C9.49913 7.40624 9.74443 7.3875 9.99021 7.38298C10.1705 7.38243 10.3504 7.39894 10.5276 7.4323C11.0616 7.53944 11.3524 7.86937 11.4222 8.4391C11.6314 10.2061 10.4732 10.3609 9.35075 10.5105C9.19939 10.5309 9.09395 10.5411 9.01062 10.5479L8.90858 10.5581C8.67377 10.5861 8.43757 10.6009 8.2011 10.6024Z" fill="#404041"/>
<path d="M6.90313 2.7108C7.34531 2.7108 7.68374 2.88086 7.8266 3.52712C7.8385 3.61726 7.86231 3.69719 7.87422 3.79242C7.91674 4.19208 8.0698 6.07133 8.21435 7.13595C8.2353 7.37192 8.28734 7.60409 8.36911 7.82642H8.55959C9.06979 7.82642 9.52047 7.71928 9.99496 7.71928C10.1536 7.71767 10.312 7.73191 10.4677 7.7618C10.8504 7.83833 11.0375 8.04071 11.0885 8.47438C11.2586 9.89784 10.4728 10.005 9.31129 10.1751C9.07489 10.2074 8.96095 10.2108 8.87081 10.2227C8.64835 10.2482 8.42467 10.2618 8.20075 10.2635C7.22116 10.2635 6.53069 9.94206 6.22456 8.95397C6.01609 8.26146 5.85696 7.55504 5.74838 6.84003C5.59124 5.74991 5.50659 4.65056 5.49498 3.54923C5.52899 2.9778 6.15484 2.79413 6.41504 2.75671C6.57589 2.73025 6.73845 2.71547 6.90143 2.7125M6.90143 2.03223C6.70601 2.03513 6.51106 2.05218 6.3181 2.08325C5.60552 2.18699 4.86573 2.66828 4.81641 3.51011V3.56453C4.82879 4.69544 4.91571 5.8243 5.07661 6.94377C5.18907 7.69166 5.35503 8.43051 5.57321 9.15465C5.94225 10.3451 6.8249 10.9489 8.20075 10.9489C8.44965 10.9472 8.69829 10.9324 8.94564 10.9046H9.05108C9.13102 10.9046 9.24326 10.8876 9.40483 10.8655C10.5035 10.7176 12.0137 10.5254 11.7637 8.41826C11.6565 7.5152 11.0732 7.21248 10.6038 7.11724C10.403 7.07997 10.1992 7.06175 9.99496 7.06282C9.73674 7.06699 9.47896 7.08573 9.22285 7.11894C9.11401 7.13255 9.00687 7.14445 8.90143 7.15296C8.90143 7.12405 8.89292 7.09343 8.88782 7.06112C8.78238 6.29752 8.67183 5.07303 8.60551 4.34004C8.58 4.06113 8.56129 3.84514 8.54939 3.7363V3.7193C8.53918 3.65127 8.52728 3.58834 8.51707 3.53902C8.50687 3.4897 8.50517 3.4829 8.50007 3.45399C8.49496 3.42508 8.50007 3.41828 8.50007 3.39957C8.30619 2.51522 7.75687 2.03903 6.91164 2.03903L6.90143 2.03223Z" fill="#404041"/>
<path d="M49.4377 10.3028C49.3422 10.3024 49.2468 10.2962 49.152 10.284C48.6044 10.2092 48.0738 9.70072 48.1571 9.06297C48.1915 8.82347 48.2939 8.59889 48.4522 8.41589C48.6105 8.2329 48.8179 8.09919 49.05 8.03066C49.0273 8.01395 49.0057 7.99577 48.9853 7.97623C48.2643 7.35039 48.3493 6.15651 48.4888 5.08509C48.5211 4.82999 48.5619 4.56468 48.6027 4.28577C48.6435 4.00686 48.6911 3.69734 48.7319 3.38782L48.7677 2.92693C48.7779 2.8538 48.7864 2.76707 48.7932 2.68204C48.8 2.597 48.8085 2.52727 48.8136 2.47795L48.8289 2.36401C48.8441 2.23731 48.8761 2.1132 48.9241 1.99496C48.9326 1.97429 48.9429 1.95437 48.9547 1.93544C49.0823 1.74326 49.3493 1.51367 49.8935 1.51367C49.9914 1.51393 50.0891 1.52075 50.186 1.53408C50.6072 1.58853 51.0106 1.73735 51.3663 1.96945C51.5899 2.1106 51.7782 2.3011 51.9168 2.52633C52.0553 2.75156 52.1404 3.00553 52.1656 3.26877C52.2107 3.61303 52.2043 3.96207 52.1469 4.30448C51.9479 5.631 51.2404 7.1225 50.8204 7.61059C50.6531 7.80812 50.4492 7.97153 50.22 8.09188C50.3886 8.17389 50.5358 8.2938 50.6503 8.44222C50.732 8.55006 50.7911 8.67326 50.8241 8.80445C50.8572 8.93565 50.8634 9.07216 50.8425 9.20582C50.7438 9.88099 50.2064 10.3028 49.4377 10.3028Z" fill="#F180B2"/>
<path d="M49.8971 1.8485C49.9801 1.84841 50.0631 1.85409 50.1454 1.8655C50.5143 1.91332 50.8676 2.04352 51.1794 2.24645C51.3629 2.36199 51.5173 2.51831 51.6306 2.70326C51.7439 2.8882 51.8129 3.09678 51.8324 3.31278C51.8718 3.62438 51.8655 3.94006 51.8137 4.24985C51.6301 5.47774 50.9634 6.93011 50.5671 7.38249C50.3358 7.6512 50.0314 7.89269 49.7015 7.89269C49.6709 7.89438 49.6402 7.89438 49.6097 7.89269C49.4634 7.87929 49.3252 7.81973 49.2151 7.72262C48.6624 7.24133 48.6777 6.30766 48.829 5.1308C48.8971 4.60869 48.9991 4.03556 49.0739 3.43012C49.0859 3.27536 49.0995 3.1189 49.1114 2.96244C49.125 2.85019 49.1437 2.6223 49.1556 2.52707C49.1556 2.48965 49.1658 2.45394 49.1692 2.41652C49.1816 2.31917 49.2062 2.22375 49.2423 2.13251C49.3203 2.03651 49.4211 1.96149 49.5354 1.91427C49.6497 1.86705 49.7741 1.84912 49.8971 1.8621M49.5569 8.29405C49.6138 8.29443 49.6706 8.2984 49.727 8.30596C50.193 8.37058 50.5892 8.69881 50.5195 9.175C50.426 9.72772 49.9515 9.96241 49.4413 9.96241C49.3611 9.96268 49.2809 9.95699 49.2015 9.94541C48.8614 9.89779 48.4396 9.56105 48.4974 9.10697C48.5266 8.91966 48.6117 8.74554 48.7416 8.60745C48.8715 8.46937 49.0401 8.37376 49.2253 8.33317C49.3309 8.30257 49.4402 8.28711 49.5501 8.28725M49.8903 1.17503C49.1573 1.17503 48.8103 1.53557 48.6675 1.74986C48.6437 1.78714 48.6233 1.8264 48.6063 1.8672C48.5467 2.01384 48.5067 2.16764 48.4872 2.32469L48.4736 2.43353C48.4736 2.48965 48.46 2.56958 48.4515 2.65292C48.443 2.73625 48.4362 2.82298 48.4294 2.8689V2.90121L48.4022 3.25836L48.3937 3.35359C48.3546 3.65631 48.3103 3.95223 48.2661 4.23794C48.2219 4.52366 48.1845 4.78386 48.1505 5.04406C48.0212 6.05596 47.9362 7.17331 48.4906 7.93521C48.309 8.05893 48.1557 8.21976 48.0407 8.40708C47.9258 8.5944 47.8519 8.80397 47.8239 9.02194C47.7151 9.85867 48.4005 10.5253 49.1097 10.6223C49.2196 10.6366 49.3304 10.6434 49.4413 10.6427C50.3767 10.6427 51.0603 10.1019 51.1828 9.26684C51.2099 9.08822 51.2011 8.906 51.157 8.7308C51.1129 8.55561 51.0344 8.39095 50.926 8.24643C50.8896 8.19877 50.8504 8.15334 50.8086 8.11038C50.9058 8.02396 50.9972 7.93137 51.0824 7.83317C51.5926 7.24474 52.2899 5.67331 52.4872 4.35529C52.5493 3.97784 52.5551 3.59327 52.5042 3.21414C52.4715 2.90461 52.3698 2.60638 52.2064 2.34146C52.043 2.07654 51.8222 1.8517 51.5603 1.68353C51.1612 1.42398 50.7092 1.25666 50.2372 1.19374C50.1245 1.17764 50.0109 1.16968 49.8971 1.16993L49.8903 1.17503Z" fill="#404041"/>
<path d="M44.7505 9.72995C44.6774 9.72995 44.6026 9.72995 44.5295 9.71975C43.9801 9.66023 43.4342 9.16873 43.4972 8.52928C43.5249 8.28909 43.6206 8.06181 43.773 7.87413C43.9255 7.68645 44.1283 7.54617 44.3577 7.46976C44.3361 7.45388 44.314 7.43688 44.2914 7.41874C43.5499 6.8116 43.6009 5.61772 43.7063 4.5463C43.7318 4.2946 43.7642 4.0361 43.7965 3.75719C43.8288 3.47828 43.8679 3.15175 43.9002 2.83202C43.9002 2.83202 43.9223 2.36603 43.9223 2.36093C43.9223 2.30481 43.9325 2.22148 43.9376 2.13985C43.9427 2.05821 43.9478 1.96978 43.9529 1.92556L43.9648 1.81332C43.9755 1.68594 44.0035 1.56062 44.0482 1.44087C44.0561 1.42078 44.0658 1.40143 44.0771 1.38305C44.2046 1.17726 44.4801 0.930666 45.0618 0.930666C45.1402 0.930562 45.2185 0.934536 45.2965 0.942571C45.7182 0.985124 46.125 1.12169 46.4869 1.34223C46.7142 1.47721 46.9077 1.66225 47.0527 1.88328C47.1977 2.10431 47.2904 2.3555 47.3237 2.61773C47.3801 2.96033 47.3847 3.30948 47.3373 3.65345C47.1808 4.98337 46.5193 6.49697 46.1145 6.99697C45.9542 7.20314 45.7555 7.37638 45.5295 7.50717C45.7002 7.58482 45.8505 7.7013 45.9682 7.84731C46.0532 7.95218 46.1161 8.0731 46.1532 8.20285C46.1903 8.33259 46.2008 8.46849 46.1842 8.60241C46.106 9.28268 45.5431 9.72995 44.7505 9.72995Z" fill="#F180B2"/>
<path d="M45.0621 1.27087C45.1267 1.27087 45.1931 1.27427 45.2611 1.28107C45.6302 1.31498 45.987 1.43121 46.3053 1.62121C46.4914 1.73203 46.6495 1.88414 46.7675 2.06578C46.8854 2.24743 46.96 2.45375 46.9856 2.66882C47.0343 2.97847 47.0378 3.29356 46.9958 3.6042C46.8495 4.83889 46.222 6.30997 45.8444 6.77425C45.6182 7.05486 45.3138 7.30656 44.9771 7.30656C44.9533 7.30823 44.9294 7.30823 44.9057 7.30656C44.7612 7.29942 44.6225 7.24707 44.5094 7.1569C43.9431 6.69432 43.9295 5.76065 44.0468 4.57868C44.0978 4.05487 44.1778 3.47835 44.239 2.8661C44.239 2.70964 44.2543 2.55148 44.2611 2.39502C44.273 2.28277 44.2815 2.05488 44.2917 1.95964C44.2917 1.92223 44.2917 1.88481 44.3036 1.8491C44.3113 1.75085 44.3324 1.65413 44.3665 1.56169C44.4975 1.3525 44.7594 1.27087 45.0621 1.27087ZM44.9023 7.71132H45.0281C45.4975 7.76234 45.9006 8.07867 45.8461 8.56166C45.7798 9.14839 45.2764 9.38819 44.7509 9.38819H44.5655C44.2152 9.35077 43.7917 9.02594 43.8359 8.57016C43.8593 8.38242 43.9389 8.20613 44.0643 8.06441C44.1896 7.92268 44.3548 7.82214 44.5383 7.77595C44.6557 7.7372 44.7786 7.71768 44.9023 7.71813M45.0621 0.597404C44.2849 0.597404 43.9312 0.981756 43.7883 1.21135C43.7657 1.24871 43.7463 1.28797 43.7305 1.32869C43.6745 1.47739 43.639 1.63301 43.625 1.79128L43.6165 1.87631V1.90012C43.6165 1.95284 43.6063 2.03787 43.6012 2.12631C43.5961 2.21475 43.591 2.28107 43.5859 2.33379C43.5851 2.34568 43.5851 2.35762 43.5859 2.36951L43.5757 2.55658L43.5604 2.82018C43.5298 3.12971 43.4941 3.43073 43.4584 3.72154C43.4227 4.01236 43.3938 4.26066 43.3682 4.51746C43.2679 5.53786 43.2186 6.6535 43.7934 7.3967C43.6156 7.52567 43.4671 7.69087 43.3577 7.88141C43.2484 8.07196 43.1807 8.28352 43.1591 8.50214C43.0757 9.34227 43.7815 9.98683 44.4941 10.0617C44.5794 10.0712 44.6651 10.0758 44.7509 10.0753C45.7118 10.0753 46.4244 9.50043 46.523 8.64499C46.5442 8.46585 46.5295 8.28428 46.4799 8.11086C46.4303 7.93743 46.3466 7.7756 46.2339 7.63479C46.1964 7.58815 46.1561 7.54385 46.1131 7.50214C46.2087 7.412 46.2979 7.3154 46.3801 7.21303C46.8682 6.60929 47.5213 5.01576 47.6778 3.69263C47.7283 3.31349 47.7226 2.92895 47.6607 2.55148C47.6177 2.24404 47.5065 1.9501 47.3352 1.69116C47.164 1.43223 46.937 1.21484 46.671 1.05489C46.263 0.80843 45.8051 0.656199 45.3308 0.609309C45.239 0.609309 45.1489 0.595703 45.0621 0.595703V0.597404Z" fill="#404041"/>
<path d="M39.199 9.23676H39.0494C38.614 9.20614 38.0171 9.00886 37.7603 8.55649C37.7357 8.5126 37.7212 8.46381 37.7177 8.41363C37.6961 7.86874 37.7058 7.32306 37.7467 6.77928C37.7773 6.28268 37.8164 5.8286 37.8674 5.38813C37.9116 4.91534 37.9677 4.44936 38.0171 4.03779C38.0171 3.98337 38.0307 3.92895 38.0358 3.86773C37.8113 3.84222 37.5256 3.8065 37.313 3.76739C37.0334 3.73321 36.7669 3.62974 36.5375 3.46637C36.2126 3.26569 36.0273 2.72147 36.0681 2.031C36.1072 1.21127 36.6021 0.680664 37.3266 0.680664H37.4065C37.9167 0.707875 38.4184 0.738487 38.9218 0.7708C39.7977 0.826922 40.5545 0.89665 41.0068 0.940867L41.347 0.971479C42.148 1.0344 42.6684 1.24189 42.9881 1.61944C43.1165 1.78229 43.2104 1.96953 43.2642 2.16979C43.318 2.37005 43.3305 2.57915 43.3011 2.7844C43.2024 3.84392 42.0068 3.91535 41.1327 3.97487L40.9626 3.98507C40.9184 4.62283 40.8895 5.48337 40.864 6.18575C40.8453 6.72996 40.8249 7.30819 40.7824 7.85411C40.7824 7.94764 40.7653 8.04458 40.7551 8.14152C40.7449 8.23846 40.7347 8.31159 40.7296 8.40002C40.7239 8.47007 40.6965 8.53662 40.6514 8.5905C40.4721 8.79881 40.2488 8.96481 39.9977 9.07655C39.7466 9.18829 39.4738 9.24301 39.199 9.23676Z" fill="#F180B2"/>
<path d="M37.3283 1.01411H37.3879C37.8981 1.04132 38.3964 1.07193 38.9015 1.10425C40.0562 1.17738 41.0052 1.27432 41.3147 1.29983C42.2909 1.37806 43.0528 1.69438 42.9576 2.742C42.8725 3.65696 41.5817 3.56342 40.6446 3.65016C40.6446 3.70288 40.6361 3.7539 40.6327 3.80662C40.5834 4.44267 40.5511 5.32702 40.5222 6.15525C40.5035 6.70457 40.4831 7.27599 40.4423 7.81171C40.4287 7.98177 40.4015 8.17905 40.3878 8.35762C40.2422 8.5305 40.0597 8.66851 39.8536 8.76152C39.6476 8.85452 39.4234 8.90015 39.1974 8.89504H39.0698C38.6855 8.86952 38.2297 8.69436 38.0494 8.38483C38.0276 7.85412 38.0373 7.32258 38.0783 6.793C38.1072 6.33552 38.1447 5.87804 38.1974 5.42056C38.262 4.72838 38.3504 4.06002 38.4049 3.57193C38.2773 3.55322 37.7144 3.4971 37.3657 3.43247C37.1323 3.40758 36.9095 3.32197 36.7195 3.18417C36.5596 3.09914 36.3658 2.73009 36.3981 2.04812C36.4304 1.36615 36.8232 1.02772 37.3198 1.02772M37.3198 0.347448C36.563 0.347448 35.7756 0.85765 35.7195 2.02091C35.6787 2.83893 35.9083 3.47839 36.3351 3.7539C36.6068 3.94475 36.9208 4.06673 37.2501 4.10934C37.3709 4.13145 37.5103 4.15186 37.6498 4.17056C37.6055 4.53791 37.5596 4.94097 37.5205 5.36103C37.4814 5.7811 37.4304 6.26239 37.3998 6.76069C37.3563 7.31968 37.3466 7.8808 37.3709 8.44096C37.3774 8.5406 37.4059 8.63756 37.4542 8.72497C37.7773 9.3049 38.4746 9.54979 39.0171 9.58721H39.1872C39.5133 9.59145 39.8363 9.52316 40.1327 9.38728C40.4292 9.25139 40.6918 9.05131 40.9014 8.8015C40.9905 8.69331 41.0439 8.56026 41.0545 8.42055C41.0545 8.34062 41.0698 8.25048 41.0783 8.17395C41.0868 8.09742 41.1004 7.97157 41.1072 7.87463C41.1497 7.32361 41.1719 6.74028 41.1906 6.19096C41.211 5.59743 41.2365 4.88825 41.2705 4.30152C42.1616 4.24539 43.5035 4.10254 43.6225 2.81683C43.6571 2.56677 43.6403 2.31229 43.573 2.06898C43.5057 1.82566 43.3895 1.59866 43.2314 1.40187C42.7212 0.806629 41.9219 0.679079 41.3606 0.633161L41.0205 0.60425C40.5664 0.561733 39.8062 0.492005 38.9287 0.434182C38.4355 0.401869 37.9236 0.371257 37.41 0.344046C37.3777 0.342349 37.3453 0.342349 37.313 0.344046L37.3198 0.347448Z" fill="#404041"/>
<path d="M34.5006 8.90623C34.2438 8.90623 33.9428 8.90623 33.6502 8.88923C32.7999 8.86201 31.9292 8.8348 31.9496 7.68515C31.9496 7.46746 31.9683 6.95556 32.4054 6.73617C32.4988 6.6936 32.5867 6.63993 32.6673 6.57631C32.6673 6.23617 32.6894 5.89604 32.7013 5.5304C32.7166 5.10353 32.7336 4.65965 32.7455 4.18856C32.7455 4.05761 32.7591 3.91475 32.7693 3.7702C32.7795 3.62564 32.7897 3.48789 32.7931 3.35013C32.8111 3.16533 32.8002 2.97885 32.7608 2.79741C32.7506 2.7634 32.7438 2.74639 32.6026 2.69197C32.2625 2.56102 32.0686 2.20218 32.0805 1.70728C32.0813 1.4492 32.1468 1.19543 32.271 0.969186C32.5533 0.52361 33.2149 0.458984 33.7591 0.458984H34.0533L34.3288 0.469189C35.0516 0.494699 36.2642 0.538916 36.2778 1.64435V1.78721C36.284 2.02232 36.2132 2.25302 36.0763 2.44426C35.9394 2.6355 35.7438 2.77681 35.5193 2.84673C35.4989 3.12054 35.4853 3.46067 35.4734 3.73618L35.4257 4.89604C35.4138 5.19366 35.3883 5.50999 35.3628 5.81611C35.3373 6.12223 35.3169 6.39434 35.3067 6.65114V6.67495C35.7557 6.92835 35.9632 7.12733 35.9343 7.76678C35.9087 8.36542 35.6162 8.76338 35.1366 8.85691C34.9265 8.89261 34.7137 8.90911 34.5006 8.90623Z" fill="#F180B2"/>
<path d="M33.7714 0.806213H34.0537L34.3276 0.816417C35.4381 0.855533 35.9415 1.03921 35.95 1.65485V1.779C35.9279 2.27049 35.6949 2.43886 35.348 2.55791C35.3069 2.57275 35.271 2.59907 35.2444 2.63374C35.2179 2.66841 35.2019 2.70998 35.1983 2.75349C35.1728 3.06641 35.1575 3.46947 35.1439 3.7943L35.098 4.88953C35.0742 5.46096 35.001 6.10721 34.9789 6.64463C34.9674 6.70668 34.9754 6.77079 35.0019 6.82807C35.0284 6.88535 35.0721 6.93298 35.1269 6.96435C35.5197 7.18204 35.6371 7.26537 35.6082 7.75857C35.5912 8.11741 35.4619 8.45755 35.0844 8.53068C34.8945 8.55724 34.7028 8.56805 34.5112 8.56299C34.2595 8.56299 33.9653 8.56299 33.6745 8.54428C32.6643 8.51197 32.2935 8.42864 32.314 7.69394C32.314 7.43544 32.3497 7.15653 32.5827 7.03918C32.8616 6.90143 33.0129 6.78238 33.0299 6.64803C33.0503 5.88783 33.0861 5.09361 33.1099 4.19736C33.1184 3.94056 33.149 3.64124 33.1575 3.35893C33.1748 3.13089 33.1576 2.90156 33.1065 2.67866C33.052 2.50859 32.9364 2.43886 32.7493 2.36743C32.5265 2.2841 32.4381 2.0273 32.4449 1.71097C32.443 1.517 32.4886 1.32551 32.5776 1.15315C32.7646 0.858934 33.2884 0.799411 33.7833 0.799411M33.7833 0.119141C33.2034 0.119141 32.3905 0.188868 32.0078 0.782404C31.8445 1.06101 31.7577 1.37782 31.7561 1.70077C31.7391 2.32321 32.0044 2.80451 32.4636 2.99668C32.4694 3.10999 32.4694 3.22351 32.4636 3.33682C32.4636 3.46777 32.45 3.60892 32.4415 3.74498C32.433 3.88103 32.4211 4.03579 32.4177 4.17695C32.4041 4.64804 32.3871 5.09191 32.3735 5.51708C32.3621 5.81527 32.3519 6.10608 32.3429 6.38953L32.2663 6.42864C31.6439 6.74327 31.6269 7.42014 31.6218 7.67524C31.5878 9.16163 32.8242 9.20584 33.6439 9.22795C33.9347 9.22795 34.2391 9.24666 34.4942 9.24666C34.7298 9.25386 34.9656 9.23848 35.1983 9.20074C35.8343 9.07829 36.2357 8.55108 36.2697 7.79258C36.3037 7.03408 36.0367 6.74327 35.6507 6.49667C35.6626 6.29429 35.6796 6.0783 35.6983 5.85381C35.7221 5.54429 35.7476 5.22457 35.7612 4.92014L35.7833 4.37253L35.8054 3.82491V3.76028C35.8139 3.5528 35.8241 3.30961 35.8378 3.08001C36.073 2.96203 36.2703 2.78009 36.4069 2.55507C36.5434 2.33006 36.6138 2.0711 36.6099 1.80791V1.68376C36.6107 1.67074 36.6107 1.65767 36.6099 1.64465C36.5929 0.214378 35.0078 0.156556 34.3327 0.132746H34.2748L34.0554 0.124243H33.751L33.7833 0.119141Z" fill="#404041"/>
<path d="M27.6706 8.83402C26.4036 8.83402 25.4853 8.5313 25.0142 7.95987C24.3628 7.16226 24.2523 5.52451 24.2336 4.85784C24.1945 3.40717 24.5193 1.62656 25.5448 0.954797C26.1009 0.594254 27.1298 0.351058 28.1043 0.347656H28.1281C28.7285 0.347656 29.5431 0.446295 30.0108 0.919083C30.1285 1.03848 30.2209 1.18051 30.2823 1.3366C30.3437 1.49269 30.3728 1.65959 30.3679 1.82724C30.3739 1.96049 30.3578 2.0938 30.3203 2.2218C30.0839 2.90207 29.208 2.92758 28.4359 2.95479C27.987 2.9718 27.3067 2.99561 27.2557 3.19799C27.2401 3.28266 27.2333 3.36872 27.2353 3.45479H27.4887C28.2761 3.45479 29.254 3.46839 29.2506 4.35104C29.2506 5.59764 28.0601 5.72689 27.2625 5.80682C27.2673 5.88598 27.3009 5.96063 27.357 6.0167C27.4131 6.07278 27.4877 6.10641 27.5669 6.11124C27.7557 6.12923 27.9453 6.13774 28.1349 6.13675C28.3443 6.1326 28.5532 6.1167 28.7608 6.08913C28.9806 6.05894 29.2021 6.0419 29.424 6.03811C29.5614 6.0365 29.6978 6.06229 29.8251 6.11398C29.9524 6.16566 30.0681 6.24221 30.1655 6.33913C30.3639 6.54348 30.4733 6.81799 30.4699 7.10273C30.4563 8.18946 29.4495 8.82041 27.7149 8.83402H27.6706Z" fill="#F180B2"/>
<path d="M28.1266 0.687072C29.028 0.687072 30.0348 0.923466 30.0263 1.82312C30.0288 1.91734 30.0202 2.01151 30.0008 2.10373C29.6878 3.0238 27.1521 2.20918 26.9242 3.11393C26.9003 3.236 26.8901 3.36035 26.8936 3.48468C26.894 3.58956 26.9031 3.69423 26.9208 3.79761H27.4702C28.2304 3.79761 28.9106 3.7976 28.9089 4.35202C28.9089 5.42685 27.7593 5.40304 26.9038 5.50338V5.64964C26.9038 5.98977 27.028 6.37583 27.511 6.45066C27.6266 6.47107 28.0212 6.47957 28.1317 6.47957C28.5892 6.47957 29.0008 6.38093 29.4225 6.38093H29.4327C29.5261 6.38109 29.6185 6.40006 29.7044 6.43671C29.7903 6.47335 29.868 6.52691 29.9327 6.5942C29.9975 6.6615 30.048 6.74114 30.0813 6.82838C30.1146 6.91563 30.13 7.00869 30.1266 7.10201C30.113 8.26698 28.6606 8.48977 27.7083 8.49657H27.6742C26.5161 8.49657 25.6743 8.22446 25.2814 7.74657C24.8137 7.17344 24.6011 5.97107 24.5773 4.85542C24.5399 3.43366 24.8613 1.81122 25.7321 1.24659C26.1794 0.957479 27.1062 0.697276 28.113 0.693875H28.1368M28.1368 0.0136056H28.1096C27.062 0.0136056 25.9855 0.27721 25.3681 0.675168C25.0042 0.911561 23.8239 1.90986 23.9021 4.87243C23.926 5.74488 24.0722 7.33501 24.7525 8.18024C25.2916 8.835 26.3018 9.18024 27.6725 9.18024H27.7168C30.4889 9.15643 30.8052 7.72786 30.812 7.11392C30.8169 6.73839 30.6726 6.37625 30.4106 6.10712C30.2838 5.97908 30.1328 5.87752 29.9664 5.80832C29.8 5.73913 29.6215 5.70369 29.4412 5.70406H29.4276C29.2395 5.7061 29.0516 5.71802 28.8647 5.73978C29.0962 5.59156 29.2849 5.38532 29.412 5.14156C29.5391 4.8978 29.6002 4.62501 29.5892 4.35032C29.5934 4.11706 29.5247 3.88829 29.3927 3.69592C29.2607 3.50355 29.072 3.35717 28.8528 3.2772C29.5926 3.23298 30.3732 3.08842 30.6385 2.33843C30.6892 2.17913 30.7123 2.01231 30.7065 1.84523V1.83503C30.713 1.62168 30.6759 1.40927 30.5975 1.21073C30.5192 1.0122 30.4012 0.831706 30.2508 0.68027C29.7014 0.124149 28.7933 0 28.1266 0L28.1368 0.0136056Z" fill="#404041"/>
<path d="M20.603 9.00552C19.2918 9.00552 18.8428 8.03273 18.3667 7.00212L18.2884 6.83205C17.6028 5.29837 17.0519 3.70791 16.6422 2.07867C16.6405 2.06 16.6405 2.04122 16.6422 2.02255C16.6099 1.3933 17.0877 0.956226 17.8598 0.905206H18.0197C18.6422 0.905206 19.2 1.1433 19.4772 1.52935L19.4891 1.54806C19.6963 1.94082 19.8572 2.3563 19.9687 2.78615C20.0452 3.03445 20.1251 3.29635 20.2068 3.50554L20.4364 4.11438C20.5384 4.38989 20.6285 4.62458 20.7102 4.83886C20.843 4.50381 20.9527 4.16003 21.0384 3.80996V3.79125C21.2017 3.2493 21.3661 2.70679 21.5316 2.1637C21.8139 1.17051 22.336 0.670513 23.1268 0.641602H23.234C24.3972 0.641602 24.603 1.3933 24.6234 1.84058C24.6455 2.68241 24.2221 3.73513 23.9432 4.4324L23.9091 4.51404C23.7952 4.79805 23.683 5.08886 23.569 5.37628C22.8632 7.2096 22.1949 8.94769 20.8632 9.00722H20.7476C20.6988 9.00608 20.6507 9.00552 20.603 9.00552Z" fill="#F180B2"/>
<path d="M23.2312 0.969803C23.8248 0.969803 24.2516 1.17388 24.2805 1.84395C24.2992 2.59395 23.9149 3.56673 23.6241 4.29292C23.6122 4.32013 23.602 4.34734 23.5918 4.37285C22.789 6.35924 22.1445 8.59052 20.8435 8.65515H20.6037C19.5033 8.65515 19.1326 7.84053 18.6666 6.83203L18.6003 6.67897C18.2278 5.88305 17.3503 3.65517 16.9744 1.98851C16.9472 1.463 17.4336 1.25892 17.8741 1.23001H18.0119C18.4914 1.23001 18.9676 1.40007 19.1921 1.7113C19.4557 2.13306 19.6462 2.99701 19.8809 3.61265C20.1428 4.30483 20.3214 4.78782 20.4812 5.19428C20.534 5.31333 20.619 5.44088 20.6887 5.44088C20.9081 5.43067 21.2601 4.29292 21.3588 3.87285C21.5209 3.33091 21.6853 2.78952 21.852 2.24871C22.119 1.30654 22.5731 0.98681 23.1326 0.966402H23.2278M23.2278 0.286133H23.1088C22.1666 0.320146 21.5237 0.915382 21.1989 2.05483C21.0288 2.59905 20.8673 3.14497 20.7074 3.67728C20.7027 3.69064 20.6987 3.70427 20.6955 3.71809C20.6901 3.74564 20.6833 3.77288 20.6751 3.79972C20.6258 3.66707 20.5714 3.52422 20.5152 3.37116C20.4353 3.16537 20.3571 2.91367 20.2823 2.66878C20.1641 2.2116 19.9929 1.76983 19.7721 1.35246L19.7465 1.31504C19.4064 0.83545 18.755 0.549737 18.0136 0.549737H17.8299C16.8707 0.610962 16.2534 1.2045 16.2993 2.02252C16.3023 2.06085 16.308 2.09892 16.3163 2.13647C16.7006 3.84564 17.5918 6.11434 17.9863 6.95958L18.0068 7.0072L18.0493 7.10414V7.13305C18.5255 8.16366 19.0697 9.33372 20.6003 9.33372H20.8826C22.4353 9.25549 23.1411 7.42386 23.8894 5.48509C23.9982 5.20108 24.1105 4.90857 24.2295 4.62625L24.2431 4.59394L24.2618 4.55142C24.5543 3.82183 24.9931 2.73 24.9693 1.83034V1.82014C24.9506 1.36096 24.7431 0.289534 23.2414 0.289534L23.2278 0.286133Z" fill="#404041"/>
<path d="M13.5241 9.5462C11.4408 9.5462 10.1772 8.20947 9.86935 5.68056C9.71459 4.41696 9.9986 3.26051 10.6704 2.42377C11.2758 1.66867 12.167 1.21289 13.2486 1.10915C13.388 1.09555 13.5275 1.08875 13.6636 1.08875C14.2206 1.07651 14.7727 1.19579 15.2751 1.43691C15.7774 1.67803 16.2158 2.0342 16.5547 2.47649C17.0122 3.06493 17.286 3.92377 17.3676 5.02751C17.587 8.08872 15.7129 9.36593 14.0428 9.52409C13.8625 9.53769 13.6891 9.5462 13.5241 9.5462ZM13.6499 3.85064H13.536C13.4492 3.85468 13.3641 3.87673 13.2862 3.91537C13.2084 3.95401 13.1394 4.00842 13.0836 4.07513C12.8829 4.32173 12.8047 4.78261 12.8659 5.37444C12.9221 5.90335 13.1908 6.69077 13.7061 6.69077H13.7639C14.434 6.62614 14.5173 5.84043 14.4714 5.18227C14.3846 3.85064 13.8693 3.85064 13.6499 3.85064Z" fill="#F180B2"/>
<path d="M13.6643 1.42849C14.1678 1.41623 14.6671 1.52324 15.1214 1.74078C15.5757 1.95832 15.9721 2.28021 16.2782 2.68018C16.7884 3.32644 16.9585 4.2329 17.0248 5.04752C17.1626 6.98459 16.3275 8.95907 14.0061 9.18186C13.8468 9.19857 13.6867 9.20708 13.5265 9.20737C11.4075 9.20737 10.4653 7.67677 10.2102 5.63596C9.95171 3.54073 10.9806 1.66998 13.2833 1.4472C13.4099 1.4343 13.5371 1.42806 13.6643 1.42849ZM13.7068 7.04071H13.7969C14.7357 6.95058 14.865 5.93017 14.8173 5.16997C14.7561 4.20909 14.4636 3.51862 13.6575 3.51862C13.6093 3.51615 13.5611 3.51615 13.5129 3.51862C12.6082 3.60705 12.4449 4.53902 12.5367 5.41657C12.6048 6.06963 12.9534 7.03731 13.7136 7.03731M13.6711 0.744817C13.5231 0.744817 13.3735 0.744817 13.2238 0.765225C12.0486 0.880871 11.0776 1.37917 10.4126 2.2074C9.683 3.11556 9.37348 4.36215 9.54015 5.71759C9.86498 8.40465 11.2833 9.88424 13.5316 9.88424C13.7017 9.88424 13.8922 9.87404 14.0792 9.85533C15.3616 9.73458 16.3786 9.13254 17.018 8.11724C17.5469 7.27881 17.7918 6.16997 17.7085 4.9965C17.6252 3.82304 17.3241 2.91148 16.8241 2.26352C16.4541 1.78123 15.9761 1.39254 15.4284 1.12876C14.8808 0.86498 14.2788 0.733469 13.6711 0.744817ZM13.7136 6.35704C13.5112 6.35704 13.2663 5.86555 13.2119 5.33664C13.1524 4.76521 13.2459 4.41997 13.3548 4.28902C13.3822 4.25683 13.4164 4.23102 13.4549 4.21339C13.4934 4.19577 13.5352 4.18675 13.5775 4.18698H13.6575C13.7918 4.18698 14.0724 4.18698 14.1388 5.20739C14.1694 5.62235 14.1558 6.31623 13.7391 6.35534L13.7136 6.35704Z" fill="#404041"/>
<path d="M7.34954 10.2505C6.12335 10.2505 5.37165 9.74034 5.04852 8.69953C4.83461 7.99154 4.6715 7.26918 4.56043 6.53797C4.40253 5.43307 4.31731 4.31901 4.30533 3.20295C4.30447 3.1939 4.30447 3.18479 4.30533 3.17574C4.34615 2.48016 4.9856 2.14343 5.51451 2.0652C5.69182 2.03739 5.87079 2.02148 6.05022 2.01758C6.73049 2.01758 7.14716 2.37302 7.30532 3.10261V3.12982C7.30532 3.16723 7.31722 3.20295 7.32573 3.23866C7.33423 3.27438 7.34613 3.3424 7.35294 3.39512C7.36654 3.51077 7.38525 3.72505 7.41076 4.00226C7.47709 4.73526 7.58083 5.96484 7.69477 6.73695C7.72028 6.90702 7.74409 7.04647 7.7645 7.13831C7.97897 7.13152 8.19296 7.11392 8.40565 7.08559C8.64873 7.0533 8.89347 7.03513 9.13865 7.03117C9.31888 7.03006 9.49882 7.04601 9.67606 7.07878C10.2101 7.18763 10.5009 7.51586 10.5706 8.08728C10.7798 9.85258 9.62164 10.0073 8.49919 10.157C8.34953 10.1774 8.24409 10.1876 8.15906 10.1944L8.05362 10.2046C7.81996 10.233 7.5849 10.2483 7.34954 10.2505Z" fill="#F180B2"/>
<path d="M6.05157 2.35703C6.49375 2.35703 6.83218 2.5271 6.97504 3.17505C6.98694 3.26349 7.01075 3.34512 7.02266 3.43866C7.06517 3.84002 7.21823 5.71926 7.36279 6.78218C7.3835 7.01819 7.43554 7.25039 7.51755 7.47266H7.70803C8.21823 7.47266 8.66891 7.36381 9.1434 7.36381C9.30198 7.363 9.46029 7.37723 9.61618 7.40633C9.99884 7.48286 10.1859 7.68694 10.2369 8.12061C10.407 9.54408 9.62129 9.65122 8.45973 9.82129C8.22333 9.8536 8.10939 9.857 8.01925 9.86891C7.79689 9.89582 7.57317 9.91002 7.34919 9.91142C6.3696 9.91142 5.67912 9.5883 5.373 8.6002C5.16456 7.90826 5.00543 7.20241 4.89681 6.48797C4.73974 5.39783 4.65509 4.29849 4.64341 3.19716C4.67743 2.62403 5.30327 2.44206 5.56348 2.40295C5.72443 2.37732 5.88693 2.36255 6.04987 2.35873M6.04987 1.67846C5.85441 1.68189 5.65945 1.69951 5.46654 1.73118C4.75396 1.83322 4.01416 2.31451 3.96484 3.15634V3.21077C3.97722 4.34224 4.06414 5.47167 4.22505 6.59171C4.33791 7.33952 4.50386 8.07834 4.72164 8.80258C5.09069 9.99306 5.97334 10.5968 7.34919 10.5968C7.59814 10.5954 7.84683 10.58 8.09408 10.5509H8.11619L8.20292 10.5407C8.28286 10.5407 8.3951 10.5237 8.55666 10.5016C9.6553 10.3553 11.1655 10.1529 10.9155 8.05429C10.8084 7.15123 10.225 6.85021 9.75564 6.75497C9.55503 6.71629 9.3511 6.69749 9.1468 6.69885C8.88851 6.70271 8.63068 6.72202 8.37469 6.75667L8.05326 6.79069C8.05326 6.76007 8.04476 6.72946 8.03966 6.69715C7.93422 5.93355 7.82367 4.70906 7.75735 3.97607C7.73184 3.69886 7.71313 3.48287 7.70122 3.37403V3.35702C7.69102 3.2873 7.67912 3.22607 7.66891 3.17505C7.65871 3.12403 7.65701 3.11893 7.65191 3.09172C7.65285 3.07359 7.65285 3.05543 7.65191 3.0373C7.45803 2.15125 6.90871 1.67676 6.06348 1.67676L6.04987 1.67846Z" fill="#404041"/>
<path d="M50.9259 43.2963C50.9259 43.2963 44.9192 33.3678 49.0331 32.2266C50.9327 31.7011 51.6827 33.5446 51.9395 35.6824C51.9395 35.6824 54.0501 31.9103 55.8426 33.8882C57.6351 35.866 50.9259 43.2963 50.9259 43.2963ZM6.29175 23.0073C6.29175 23.0073 -1.72352 19.4358 0.339395 16.9563C1.29007 15.81 2.55027 16.6297 3.6353 17.8457C3.6353 17.8457 3.31557 14.5923 5.28155 15.0464C7.24753 15.5005 6.29175 23.0073 6.29175 23.0073ZM53.9821 20.8763C53.9821 20.8763 49.1913 17.1807 50.9702 15.8508C51.7933 15.2369 52.5008 15.9937 53.0331 16.9835C53.0331 16.9835 53.3494 14.7522 54.5943 15.3763C55.8392 16.0005 53.9821 20.8763 53.9821 20.8763Z" fill="#F180B2"/>
<path d="M32.1131 19.6878C32.1131 19.6878 28.1743 14.2456 30.5417 13.5857C31.6352 13.2813 32.3699 14.0738 32.5178 15.3051C32.5178 15.3051 33.5586 13.2643 34.943 14.2711C36.4447 15.3647 32.1131 19.6878 32.1131 19.6878ZM19.6658 20.0449C19.6658 20.0449 23.6046 14.6027 21.2373 13.9429C20.1437 13.6385 19.409 14.431 19.2611 15.6623C19.2611 15.6623 18.2203 13.6215 16.8359 14.6283C15.3342 15.7218 19.6658 20.0449 19.6658 20.0449Z" fill="#F180B2" stroke="#DA5B7D" stroke-linecap="round" stroke-linejoin="round"/>
</svg>
