<svg width="138" height="134" viewBox="0 0 138 134" fill="none" xmlns="http://www.w3.org/2000/svg">
<path d="M94.1985 1.66406H134.923C135.474 1.66406 136.002 1.88285 136.392 2.27229C136.781 2.66173 137 3.18993 137 3.74069V28.7459C136.999 29.2961 136.78 29.8234 136.391 30.2121C136.001 30.6009 135.474 30.8192 134.923 30.8192H123.835C121.198 34.6428 117.242 36.7854 109.18 40.0486C110.947 37.6786 112.552 33.5748 112.624 30.8192H94.1985C93.6483 30.8192 93.1206 30.6009 92.7313 30.2121C92.3419 29.8234 92.1227 29.2961 92.1219 28.7459V3.74069C92.1219 3.46798 92.1756 3.19794 92.2799 2.946C92.3843 2.69405 92.5373 2.46512 92.7301 2.27229C92.9229 2.07946 93.1519 1.92649 93.4038 1.82213C93.6557 1.71777 93.9258 1.66406 94.1985 1.66406Z" fill="white" stroke="#414141" stroke-width="2" stroke-linecap="round" stroke-linejoin="round"/>
<path d="M126.395 17.873C126.395 18.6064 126.103 19.3098 125.585 19.8285C125.066 20.3471 124.362 20.6385 123.629 20.6385C122.896 20.6385 122.192 20.3471 121.673 19.8285C121.155 19.3098 120.863 18.6064 120.863 17.873C120.863 17.1395 121.155 16.4361 121.673 15.9174C122.192 15.3988 122.896 15.1074 123.629 15.1074C124.362 15.1074 125.066 15.3988 125.585 15.9174C126.103 16.4361 126.395 17.1395 126.395 17.873Z" fill="#525252"/>
<path d="M117.135 17.873C117.135 18.2361 117.063 18.5957 116.924 18.9313C116.785 19.2668 116.582 19.5717 116.325 19.8285C116.068 20.0853 115.763 20.289 115.428 20.428C115.092 20.567 114.732 20.6385 114.369 20.6385C114.006 20.6385 113.646 20.567 113.311 20.428C112.975 20.289 112.671 20.0853 112.414 19.8285C112.157 19.5717 111.953 19.2668 111.814 18.9313C111.675 18.5957 111.604 18.2361 111.604 17.873C111.604 17.5098 111.675 17.1502 111.814 16.8146C111.953 16.4791 112.157 16.1742 112.414 15.9174C112.671 15.6606 112.975 15.4569 113.311 15.3179C113.646 15.179 114.006 15.1074 114.369 15.1074C114.732 15.1074 115.092 15.179 115.428 15.3179C115.763 15.4569 116.068 15.6606 116.325 15.9174C116.582 16.1742 116.785 16.4791 116.924 16.8146C117.063 17.1502 117.135 17.5098 117.135 17.873Z" fill="#525252"/>
<path d="M107.877 17.873C107.877 18.6064 107.586 19.3098 107.067 19.8285C106.548 20.3471 105.845 20.6385 105.111 20.6385C104.378 20.6385 103.675 20.3471 103.156 19.8285C102.637 19.3098 102.346 18.6064 102.346 17.873C102.346 17.1395 102.637 16.4361 103.156 15.9174C103.675 15.3988 104.378 15.1074 105.111 15.1074C105.845 15.1074 106.548 15.3988 107.067 15.9174C107.586 16.4361 107.877 17.1395 107.877 17.873Z" fill="#525252"/>
<path d="M72.2459 113.289C72.2459 113.289 68.7312 108.43 80.9538 103.044C93.1763 97.6574 98.2024 92.1129 98.2024 92.1129C98.2024 92.1129 98.5979 85.0834 104.23 85.347C104.23 85.347 109.502 81.6565 111.708 84.5737C113.913 87.491 111.708 89.4241 111.708 89.4241C111.708 89.4241 115.108 88.7036 116.98 93.8175C118.852 98.9315 111.708 102.358 109.819 100.909C109.836 100.988 75.8925 123.658 72.2459 113.289Z" fill="#E6E7E8" stroke="#404041" stroke-width="2" stroke-linecap="round" stroke-linejoin="round"/>
<path d="M85.2402 132.355V131.397C85.2402 131.397 85.2403 104.711 67.2447 105.713C50.9274 106.609 50.6462 128.225 50.7517 132.355H85.2402Z" fill="white"/>
<path d="M85.2402 132.355V131.397C85.2402 131.397 85.2403 104.711 67.2447 105.713C50.9274 106.609 50.6462 128.225 50.7517 132.355" stroke="#404041" stroke-width="2" stroke-linecap="round" stroke-linejoin="round"/>
<path d="M70.6045 113.894L70.5605 127.777L76.5444 131.846L79.8044 125.537L74.8749 112.26L70.6045 113.894Z" fill="#CBEBF9" stroke="#404041" stroke-width="2" stroke-linecap="round" stroke-linejoin="round"/>
<path d="M80.63 44.3018C81.3454 42.7925 81.7366 41.1499 81.7782 39.4801C81.8198 37.8103 81.511 36.1503 80.8716 34.6072C80.2311 33.0643 79.2744 31.6728 78.0633 30.5222C76.8514 29.3728 75.412 28.4901 73.838 27.9312C72.264 27.3723 70.5903 27.1495 68.9249 27.2772C66.4153 27.471 64.0311 28.4525 62.1125 30.0818C60.1939 31.711 58.8389 33.9046 58.2409 36.3496C57.6961 36.3496 57.1601 36.3057 56.6153 36.3057C50.2418 36.302 43.9598 37.8226 38.2935 40.7406C32.6272 43.6586 27.7409 47.8893 24.0423 53.0799C21.9154 51.1084 19.2183 49.8617 16.3385 49.5189C13.4587 49.1762 10.5444 49.7549 8.01413 51.1721C5.48386 52.5893 3.46785 54.772 2.25568 57.4066C1.04352 60.0412 0.697566 62.9923 1.26752 65.8358C1.72207 68.1043 2.74326 70.2209 4.236 71.9885C5.72874 73.7561 7.6445 75.1173 9.80488 75.9452C11.965 76.7732 14.2994 77.0416 16.591 76.7255C16.6573 83.533 18.4586 90.2111 21.8245 96.1286C25.1905 102.046 30.0099 107.007 35.8273 110.544C41.6446 114.08 48.2677 116.074 55.0704 116.338C61.8731 116.602 68.6307 115.126 74.7044 112.051C80.7781 108.976 85.9672 104.402 89.7813 98.7633C93.5953 93.1242 95.9082 86.6056 96.5014 79.8236C97.0945 73.0417 95.9483 66.2205 93.1712 60.0049C90.394 53.7893 86.0776 48.3847 80.63 44.3018Z" fill="white"/>
<path d="M39.9997 78.2824C45.089 76.9292 48.7866 74.2246 48.2593 72.2405C47.7321 70.2564 43.1788 69.745 38.0903 71.0982C33.0018 72.4514 29.3034 75.156 29.8315 77.1401C30.3587 79.1242 34.9112 79.6356 39.9997 78.2824Z" fill="#F9C1B6"/>
<path d="M85.9682 62.9011C89.7949 61.8836 92.576 59.8503 92.1797 58.3583C91.7825 56.8671 88.3591 56.4831 84.5315 57.5006C80.7049 58.5182 77.9238 60.5523 78.321 62.0435C78.7173 63.5346 82.1406 63.9186 85.9682 62.9011Z" fill="#F9C1B6"/>
<path d="M71.2458 57.3594C71.2458 57.3594 77.2648 69.3271 69.9981 72.2971C62.7313 75.2671 54.1816 63.2378 54.1816 63.2378L71.2458 57.3594Z" fill="#E15F5F"/>
<path d="M80.63 44.3018C81.3454 42.7925 81.7366 41.1499 81.7782 39.4801C81.8198 37.8103 81.511 36.1503 80.8716 34.6072C80.2311 33.0643 79.2744 31.6728 78.0633 30.5222C76.8514 29.3728 75.412 28.4901 73.838 27.9312C72.264 27.3723 70.5903 27.1495 68.9249 27.2772C66.4153 27.471 64.0311 28.4525 62.1125 30.0818C60.1939 31.711 58.8389 33.9046 58.2409 36.3496C57.6961 36.3496 57.1601 36.3057 56.6153 36.3057C50.2418 36.302 43.9598 37.8226 38.2935 40.7406C32.6272 43.6586 27.7409 47.8893 24.0423 53.0799C21.9154 51.1084 19.2183 49.8617 16.3385 49.5189C13.4587 49.1762 10.5444 49.7549 8.01413 51.1721C5.48386 52.5893 3.46785 54.772 2.25568 57.4066C1.04352 60.0412 0.697566 62.9923 1.26752 65.8358C1.72207 68.1043 2.74326 70.2209 4.236 71.9885C5.72874 73.7561 7.6445 75.1173 9.80488 75.9452C11.965 76.7732 14.2994 77.0416 16.591 76.7255C16.6573 83.533 18.4586 90.2111 21.8245 96.1286C25.1905 102.046 30.0099 107.007 35.8273 110.544C41.6446 114.08 48.2677 116.074 55.0704 116.338C61.8731 116.602 68.6307 115.126 74.7044 112.051C80.7781 108.976 85.9672 104.402 89.7813 98.7633C93.5953 93.1242 95.9082 86.6056 96.5014 79.8236C97.0945 73.0417 95.9483 66.2205 93.1712 60.0049C90.394 53.7893 86.0776 48.3847 80.63 44.3018Z" stroke="#404041" stroke-width="2" stroke-linecap="round" stroke-linejoin="round"/>
<path d="M62.5287 54.4158C62.7104 54.3465 62.9083 54.3312 63.0985 54.3718C63.2887 54.4123 63.4631 54.5069 63.6007 54.6443C63.7384 54.7818 63.8325 54.9567 63.8716 55.1473C63.9106 55.3379 63.8928 55.5357 63.8204 55.7163L63.3108 57.008L61.8609 56.6214C61.6636 56.5665 61.4875 56.4532 61.3558 56.2963C61.224 56.1395 61.1428 55.9465 61.1228 55.7427C61.1104 55.5327 61.1649 55.3243 61.2787 55.1474C61.3924 54.9705 61.5593 54.8343 61.7555 54.7585L62.5287 54.4158Z" fill="#404041" stroke="#404041" stroke-width="2" stroke-miterlimit="10"/>
<path d="M63.3105 56.9727L64.365 59.6615" stroke="#404041" stroke-width="2" stroke-miterlimit="10"/>
<path d="M55.9375 66.3048C59.0041 69.6526 64.3817 74.3008 69.2145 72.315C72.0615 71.1463 72.8611 68.5981 72.7908 65.9269C68.5994 63.0185 61.2975 62.1573 55.9375 66.3048Z" fill="#EF8E8E"/>
<path d="M71.0358 57.3594C71.0358 57.3594 77.0549 69.3271 69.7793 72.2971C62.5038 75.2671 53.9629 63.2378 53.9629 63.2378L71.0358 57.3594Z" stroke="#404041" stroke-width="2" stroke-linecap="round" stroke-linejoin="round"/>
<path d="M32.0469 53.6075C33.5209 51.2763 34.5045 48.6692 34.9378 45.9453" stroke="#404041" stroke-width="2" stroke-linecap="round" stroke-linejoin="round"/>
<path d="M61.8711 37.4219C63.1402 38.5489 64.6555 39.3632 66.2958 39.7996C67.936 40.236 69.6556 40.2823 71.317 39.9349" stroke="#404041" stroke-width="2" stroke-linecap="round" stroke-linejoin="round"/>
<path d="M47.6438 60.171C47.4426 59.9796 47.1944 59.8447 46.9245 59.7799C46.6545 59.7151 46.3722 59.7227 46.106 59.8019C46.5717 59.2571 46.7563 58.7387 46.4312 58.3169C44.9286 56.4277 37.6443 61.6384 37.6443 61.6384C37.6443 61.6384 35.8869 62.7104 36.7656 64.0636C36.9181 64.2214 37.1106 64.335 37.3226 64.3923C37.5345 64.4495 37.7581 64.4483 37.9694 64.3887C37.816 64.6125 37.7339 64.8774 37.7339 65.1487C37.7339 65.4201 37.816 65.685 37.9694 65.9088C38.4966 66.7172 40.4385 65.9088 40.4385 65.9088C40.4385 65.9088 49.1375 62.0601 47.6438 60.171Z" fill="#404041"/>
<path d="M81.1825 51.7784C81.0682 51.3039 80.6025 50.9964 79.9435 50.803C80.5938 50.4955 80.9804 50.1089 80.8222 49.5905C80.2686 47.2444 73.3006 48.8875 73.3006 48.8875C73.3006 48.8875 71.2621 49.1248 71.4905 50.724C71.552 51.137 71.9826 51.3742 72.4483 51.5324C72.2153 51.6709 72.03 51.8771 71.917 52.1235C71.804 52.3699 71.7686 52.6449 71.8156 52.9119C71.9562 53.8609 74.0563 53.9575 74.0563 53.9575C74.0563 53.9575 81.7448 54.1069 81.1825 51.7784Z" fill="#404041"/>
<path d="M62.6699 125.617L62.7754 132.357" stroke="#404041" stroke-width="2" stroke-linecap="round" stroke-linejoin="round"/>
<path d="M109.828 100.986C109.828 100.986 107.702 100.16 106.999 96.4696C105.83 90.2748 111.744 89.4401 111.744 89.4401C111.744 89.4401 115.153 88.7283 117.016 93.8335C118.879 98.9387 111.682 102.383 109.828 100.986Z" fill="#E6E7E8" stroke="#404041" stroke-width="2" stroke-linecap="round" stroke-linejoin="round"/>
<path d="M111.745 89.4218C111.745 89.4218 105.823 94.6939 103.266 90.7222C101.412 87.8665 104.259 85.3534 104.259 85.3534C104.259 85.3534 109.531 81.6629 111.745 84.5626C113.96 87.4623 111.745 89.4218 111.745 89.4218Z" fill="#E6E7E8" stroke="#404041" stroke-width="2" stroke-linecap="round" stroke-linejoin="round"/>
</svg>
