<svg width="138" height="133" viewBox="0 0 138 133" fill="none" xmlns="http://www.w3.org/2000/svg">
<path d="M94.1985 1H134.923C135.474 1 136.002 1.21879 136.392 1.60823C136.781 1.99767 137 2.52587 137 3.07662V28.0818C136.999 28.632 136.78 29.1593 136.391 29.5481C136.001 29.9368 135.474 30.1551 134.923 30.1551H123.835C121.198 33.9788 117.242 36.1213 109.18 39.3846C110.947 37.0146 112.552 32.9108 112.624 30.1551H94.1985C93.6483 30.1551 93.1206 29.9368 92.7313 29.5481C92.3419 29.1593 92.1227 28.632 92.1219 28.0818V3.07662C92.1219 2.80392 92.1756 2.53388 92.2799 2.28193C92.3843 2.02999 92.5373 1.80106 92.7301 1.60823C92.9229 1.4154 93.1518 1.26243 93.4038 1.15807C93.6557 1.05371 93.9258 1 94.1985 1Z" fill="white" stroke="#414141" stroke-width="2" stroke-linecap="round" stroke-linejoin="round"/>
<path d="M126.395 17.2079C126.395 17.9414 126.103 18.6448 125.585 19.1634C125.066 19.6821 124.362 19.9735 123.629 19.9735C122.896 19.9735 122.192 19.6821 121.673 19.1634C121.155 18.6448 120.863 17.9414 120.863 17.2079C120.863 16.4745 121.155 15.771 121.673 15.2524C122.192 14.7337 122.896 14.4424 123.629 14.4424C124.362 14.4424 125.066 14.7337 125.585 15.2524C126.103 15.771 126.395 16.4745 126.395 17.2079Z" fill="#525252"/>
<path d="M117.133 17.2079C117.133 17.5711 117.061 17.9307 116.922 18.2662C116.783 18.6018 116.58 18.9066 116.323 19.1634C116.066 19.4202 115.761 19.624 115.426 19.7629C115.09 19.9019 114.73 19.9735 114.367 19.9735C114.004 19.9735 113.644 19.9019 113.309 19.7629C112.973 19.624 112.669 19.4202 112.412 19.1634C112.155 18.9066 111.951 18.6018 111.812 18.2662C111.673 17.9307 111.602 17.5711 111.602 17.2079C111.602 16.8447 111.673 16.4851 111.812 16.1496C111.951 15.8141 112.155 15.5092 112.412 15.2524C112.669 14.9956 112.973 14.7919 113.309 14.6529C113.644 14.5139 114.004 14.4424 114.367 14.4424C114.73 14.4424 115.09 14.5139 115.426 14.6529C115.761 14.7919 116.066 14.9956 116.323 15.2524C116.58 15.5092 116.783 15.8141 116.922 16.1496C117.061 16.4851 117.133 16.8447 117.133 17.2079Z" fill="#525252"/>
<path d="M107.879 17.2079C107.879 17.9414 107.588 18.6448 107.069 19.1634C106.55 19.6821 105.847 19.9735 105.113 19.9735C104.38 19.9735 103.676 19.6821 103.158 19.1634C102.639 18.6448 102.348 17.9414 102.348 17.2079C102.348 16.4745 102.639 15.771 103.158 15.2524C103.676 14.7337 104.38 14.4424 105.113 14.4424C105.847 14.4424 106.55 14.7337 107.069 15.2524C107.588 15.771 107.879 16.4745 107.879 17.2079Z" fill="#525252"/>
<path d="M72.2459 112.624C72.2459 112.624 68.7312 107.765 80.9538 102.379C93.1763 96.9924 98.2024 91.4478 98.2024 91.4478C98.2024 91.4478 98.5979 84.4183 104.23 84.6819C104.23 84.6819 109.502 80.9914 111.708 83.9087C113.913 86.8259 111.708 88.7591 111.708 88.7591C111.708 88.7591 115.108 88.0385 116.98 93.1525C118.852 98.2665 111.708 101.693 109.819 100.244C109.836 100.323 75.8925 122.993 72.2459 112.624Z" fill="white" stroke="#404041" stroke-width="2" stroke-linecap="round" stroke-linejoin="round"/>
<path d="M85.2422 131.691V130.733C85.2422 130.733 85.2422 104.047 67.2466 105.049C50.9294 105.945 50.6482 127.561 50.7536 131.691H85.2422Z" fill="white"/>
<path d="M85.2422 131.691V130.733C85.2422 130.733 85.2422 104.047 67.2466 105.049C50.9294 105.945 50.6482 127.561 50.7536 131.691" stroke="#404041" stroke-width="2" stroke-linecap="round" stroke-linejoin="round"/>
<path d="M70.6025 113.23L70.5586 127.113L76.5425 131.182L79.8024 124.873L74.873 111.596L70.6025 113.23Z" fill="#CBEBF9" stroke="#404041" stroke-width="2" stroke-linecap="round" stroke-linejoin="round"/>
<path d="M80.63 43.6377C81.3454 42.1284 81.7366 40.4858 81.7782 38.816C81.8198 37.1462 81.511 35.4862 80.8716 33.9431C80.2311 32.4003 79.2744 31.0087 78.0633 29.8581C76.8514 28.7087 75.412 27.8261 73.838 27.2671C72.264 26.7082 70.5903 26.4854 68.9249 26.6131C66.4153 26.8069 64.0311 27.7885 62.1125 29.4177C60.1939 31.0469 58.8389 33.2406 58.2409 35.6856C57.6961 35.6856 57.1601 35.6417 56.6153 35.6417C50.2418 35.638 43.9598 37.1585 38.2935 40.0765C32.6272 42.9945 27.7409 47.2253 24.0423 52.4158C21.9154 50.4443 19.2183 49.1976 16.3385 48.8549C13.4587 48.5121 10.5444 49.0909 8.01413 50.508C5.48386 51.9252 3.46785 54.1079 2.25568 56.7425C1.04352 59.3772 0.697566 62.3282 1.26752 65.1718C1.72207 67.4403 2.74326 69.5569 4.236 71.3245C5.72874 73.0921 7.6445 74.4532 9.80488 75.2811C11.965 76.1091 14.2994 76.3775 16.591 76.0614C16.6573 82.8689 18.4586 89.547 21.8245 95.4645C25.1905 101.382 30.0099 106.343 35.8273 109.88C41.6446 113.416 48.2677 115.41 55.0704 115.674C61.8731 115.938 68.6307 114.462 74.7044 111.387C80.7781 108.312 85.9672 103.738 89.7813 98.0993C93.5953 92.4601 95.9082 85.9415 96.5014 79.1596C97.0945 72.3777 95.9483 65.5565 93.1712 59.3409C90.394 53.1253 86.0776 47.7206 80.63 43.6377Z" fill="white"/>
<path d="M39.9997 77.6183C45.089 76.2652 48.7866 73.5605 48.2593 71.5765C47.7321 69.5924 43.1788 69.081 38.0903 70.4342C33.0018 71.7873 29.3034 74.492 29.8315 76.476C30.3587 78.4601 34.9112 78.9715 39.9997 77.6183Z" fill="#F9C1B6"/>
<path d="M85.9702 62.238C89.7969 61.2205 92.5779 59.1872 92.1816 57.6952C91.7845 56.204 88.3611 55.82 84.5335 56.8376C80.7068 57.8551 77.9257 59.8893 78.3229 61.3804C78.7192 62.8715 82.1426 63.2555 85.9702 62.238Z" fill="#F9C1B6"/>
<path d="M71.2439 56.6943C71.2439 56.6943 77.2629 68.6621 69.9961 71.6321C62.7293 74.602 54.1797 62.5728 54.1797 62.5728L71.2439 56.6943Z" fill="#E15F5F"/>
<path d="M80.63 43.6377C81.3454 42.1284 81.7366 40.4858 81.7782 38.816C81.8198 37.1462 81.511 35.4862 80.8716 33.9431C80.2311 32.4003 79.2744 31.0087 78.0633 29.8581C76.8514 28.7087 75.412 27.8261 73.838 27.2671C72.264 26.7082 70.5903 26.4854 68.9249 26.6131C66.4153 26.8069 64.0311 27.7885 62.1125 29.4177C60.1939 31.0469 58.8389 33.2406 58.2409 35.6856C57.6961 35.6856 57.1601 35.6417 56.6153 35.6417C50.2418 35.638 43.9598 37.1585 38.2935 40.0765C32.6272 42.9945 27.7409 47.2253 24.0423 52.4158C21.9154 50.4443 19.2183 49.1976 16.3385 48.8549C13.4587 48.5121 10.5444 49.0909 8.01413 50.508C5.48386 51.9252 3.46785 54.1079 2.25568 56.7425C1.04352 59.3772 0.697566 62.3282 1.26752 65.1718C1.72207 67.4403 2.74326 69.5569 4.236 71.3245C5.72874 73.0921 7.6445 74.4532 9.80488 75.2811C11.965 76.1091 14.2994 76.3775 16.591 76.0614C16.6573 82.8689 18.4586 89.547 21.8245 95.4645C25.1905 101.382 30.0099 106.343 35.8273 109.88C41.6446 113.416 48.2677 115.41 55.0704 115.674C61.8731 115.938 68.6307 114.462 74.7044 111.387C80.7781 108.312 85.9672 103.738 89.7813 98.0993C93.5953 92.4601 95.9082 85.9415 96.5014 79.1596C97.0945 72.3777 95.9483 65.5565 93.1712 59.3409C90.394 53.1253 86.0776 47.7206 80.63 43.6377Z" stroke="#404041" stroke-width="2" stroke-linecap="round" stroke-linejoin="round"/>
<path d="M62.5287 53.7518C62.7104 53.6825 62.9083 53.6672 63.0985 53.7077C63.2887 53.7482 63.4631 53.8429 63.6007 53.9802C63.7384 54.1178 63.8325 54.2927 63.8716 54.4832C63.9106 54.6738 63.8928 54.8717 63.8204 55.0522L63.3108 56.3439L61.8609 55.9573C61.6636 55.9024 61.4875 55.7891 61.3558 55.6323C61.224 55.4755 61.1428 55.2824 61.1228 55.0786C61.1104 54.8687 61.1649 54.6602 61.2787 54.4833C61.3924 54.3065 61.5593 54.1703 61.7555 54.0945L62.5287 53.7518Z" fill="#404041" stroke="#404041" stroke-width="2" stroke-miterlimit="10"/>
<path d="M63.3086 56.3086L64.363 58.9974" stroke="#404041" stroke-width="2" stroke-miterlimit="10"/>
<path d="M55.9375 65.6397C59.0041 68.9875 64.3817 73.6358 69.2145 71.65C72.0615 70.4813 72.8611 67.9331 72.7908 65.2619C68.5994 62.3534 61.2975 61.4923 55.9375 65.6397Z" fill="#EF8E8E"/>
<path d="M71.0339 56.6943C71.0339 56.6943 77.0529 68.6621 69.7774 71.6321C62.5018 74.602 53.9609 62.5728 53.9609 62.5728L71.0339 56.6943Z" stroke="#404041" stroke-width="2" stroke-linecap="round" stroke-linejoin="round"/>
<path d="M32.0469 52.9425C33.5209 50.6112 34.5045 48.0042 34.9378 45.2803" stroke="#404041" stroke-width="2" stroke-linecap="round" stroke-linejoin="round"/>
<path d="M61.8711 36.7568C63.1402 37.8839 64.6555 38.6982 66.2958 39.1345C67.936 39.5709 69.6556 39.6173 71.317 39.2699" stroke="#404041" stroke-width="2" stroke-linecap="round" stroke-linejoin="round"/>
<path d="M47.6438 59.5059C47.4426 59.3146 47.1944 59.1797 46.9245 59.1149C46.6545 59.0501 46.3722 59.0577 46.106 59.1369C46.5717 58.5921 46.7563 58.0737 46.4312 57.6519C44.9286 55.7627 37.6443 60.9733 37.6443 60.9733C37.6443 60.9733 35.8869 62.0453 36.7656 63.3985C36.9181 63.5564 37.1106 63.67 37.3226 63.7273C37.5345 63.7845 37.7581 63.7833 37.9694 63.7236C37.816 63.9474 37.7339 64.2124 37.7339 64.4837C37.7339 64.755 37.816 65.02 37.9694 65.2438C38.4966 66.0522 40.4385 65.2438 40.4385 65.2438C40.4385 65.2438 49.1375 61.3951 47.6438 59.5059Z" fill="#404041"/>
<path d="M81.1825 51.1143C81.0682 50.6398 80.6025 50.3323 79.9435 50.139C80.5938 49.8314 80.9804 49.4448 80.8222 48.9264C80.2686 46.5803 73.3006 48.2234 73.3006 48.2234C73.3006 48.2234 71.2621 48.4607 71.4905 50.0599C71.552 50.4729 71.9826 50.7101 72.4483 50.8683C72.2153 51.0069 72.03 51.2131 71.917 51.4595C71.804 51.7059 71.7686 51.9809 71.8156 52.2478C71.9562 53.1968 74.0563 53.2935 74.0563 53.2935C74.0563 53.2935 81.7448 53.4429 81.1825 51.1143Z" fill="#404041"/>
<path d="M62.668 124.952L62.7734 131.692" stroke="#404041" stroke-width="2" stroke-linecap="round" stroke-linejoin="round"/>
<path d="M109.83 100.321C109.83 100.321 107.704 99.4951 107.001 95.8046C105.832 89.6098 111.745 88.775 111.745 88.775C111.745 88.775 115.155 88.0633 117.018 93.1685C118.88 98.2737 111.684 101.718 109.83 100.321Z" fill="white" stroke="#404041" stroke-width="2" stroke-linecap="round" stroke-linejoin="round"/>
<path d="M111.743 88.7577C111.743 88.7577 105.821 94.0299 103.264 90.0582C101.41 87.2024 104.257 84.6894 104.257 84.6894C104.257 84.6894 109.529 80.9989 111.743 83.8986C113.958 86.7982 111.743 88.7577 111.743 88.7577Z" fill="white" stroke="#404041" stroke-width="2" stroke-linecap="round" stroke-linejoin="round"/>
</svg>
