<svg width="852" height="159" viewBox="0 0 852 159" fill="none" xmlns="http://www.w3.org/2000/svg">
<path d="M19.0229 16.912C18.8988 16.8507 18.8056 16.7434 18.7591 16.6208L17.5953 13.1119L14.1815 14.2458C14.0573 14.2918 13.9177 14.2765 13.7935 14.2152C13.6694 14.1539 13.5763 14.0466 13.5297 13.924L13.0332 12.4224C12.9866 12.2845 12.9866 12.1466 13.0487 12.024C13.1108 11.9014 13.2039 11.8095 13.3435 11.7635L16.7574 10.6296L15.6246 7.22795C15.578 7.09004 15.5936 6.95214 15.6556 6.82955C15.7177 6.70697 15.8263 6.63036 15.9505 6.58439L17.6263 6.03277C17.766 5.9868 17.9056 5.9868 18.0298 6.04809C18.1539 6.10938 18.247 6.20132 18.2936 6.35455L19.4263 9.75622L22.8091 8.63765C22.9488 8.59168 23.0884 8.59168 23.2126 8.66829C23.3367 8.74491 23.4298 8.83685 23.4764 8.97475L23.9729 10.4764C24.0195 10.6143 24.004 10.7522 23.9419 10.8748C23.8798 10.9974 23.7712 11.0893 23.6316 11.1353L20.2488 12.2538L21.4126 15.7628C21.4591 15.9007 21.4436 16.0386 21.3815 16.1612C21.3195 16.2837 21.2108 16.3757 21.0712 16.4217L19.3953 16.9733C19.2712 17.0192 19.1315 17.0039 19.0074 16.9426L19.0229 16.912Z" fill="#FFCF33"/>
<path d="M16.8546 102.79C16.8066 102.649 16.8226 102.522 16.8867 102.396L18.6012 98.9894L15.2843 97.3333C15.1561 97.2702 15.076 97.1756 15.028 97.0336C14.9799 96.8917 14.9959 96.7655 15.06 96.6393L15.7971 95.1883C15.8612 95.0463 15.9733 94.9517 16.1015 94.9044C16.2297 94.8571 16.3739 94.8571 16.5181 94.9359L19.835 96.592L21.4855 93.2956C21.5495 93.1537 21.6617 93.0748 21.7899 93.0275C21.9341 92.9802 22.0623 92.996 22.1905 93.0591L23.8089 93.8792C23.9531 93.9423 24.0332 94.0527 24.0973 94.1789C24.1454 94.3208 24.1454 94.447 24.0652 94.589L22.4148 97.8853L25.6997 99.5256C25.8439 99.5887 25.924 99.6991 25.972 99.8411C26.0201 99.983 26.0041 100.125 25.94 100.267L25.2029 101.718C25.1388 101.86 25.0267 101.939 24.8985 101.986C24.7543 102.033 24.6261 102.018 24.4819 101.939L21.197 100.298L19.4825 103.705C19.4184 103.847 19.3062 103.926 19.1781 103.973C19.0338 104.021 18.9057 104.005 18.7614 103.926L17.1431 103.106C17.0149 103.043 16.9348 102.948 16.8867 102.806L16.8546 102.79Z" fill="#D9DAFF"/>
<path d="M4.05521 95.9389C3.96317 95.8626 3.91715 95.7709 3.90181 95.664L3.5183 92.6709L0.634302 93.0527C0.526919 93.0527 0.419535 93.0527 0.327493 92.9611C0.23545 92.8847 0.174088 92.7931 0.174088 92.6862L0.00534581 91.4187C-0.00999459 91.2965 0.00534463 91.1896 0.0820466 91.098C0.158749 91.0064 0.235451 90.9453 0.358174 90.93L3.24217 90.5482L2.874 87.662C2.85866 87.5398 2.874 87.4329 2.9507 87.3413C3.0274 87.2497 3.11945 87.2038 3.22683 87.1886L4.63814 87.0053C4.76087 86.9901 4.86825 87.0053 4.96029 87.0817C5.05234 87.1428 5.09836 87.2344 5.1137 87.3566L5.48187 90.2428L8.33518 89.8763C8.45791 89.861 8.56529 89.8763 8.65733 89.9526C8.74937 90.029 8.81073 90.1206 8.82607 90.2428L8.99482 91.5103C9.01016 91.6325 8.99482 91.7394 8.90278 91.831C8.82607 91.9226 8.73403 91.9684 8.61131 91.9837L5.758 92.3502L6.14151 95.3433C6.15685 95.4655 6.1415 95.5724 6.04946 95.664C5.97276 95.7557 5.88072 95.8015 5.758 95.8167L4.34668 96C4.2393 96 4.13191 96 4.03987 95.9084L4.05521 95.9389Z" fill="#FFCF33"/>
<path d="M164.527 37C164.527 37 164.404 36.9548 164.358 36.8946L163.301 35.4044L161.845 36.428C161.845 36.428 161.723 36.4731 161.661 36.4731C161.585 36.4731 161.539 36.428 161.493 36.3678L161.048 35.7355C161.048 35.7355 160.987 35.6151 161.002 35.5399C161.002 35.4646 161.048 35.4194 161.11 35.3743L162.565 34.3507L161.554 32.9056C161.554 32.9056 161.493 32.7852 161.508 32.7099C161.508 32.6497 161.554 32.5895 161.615 32.5443L162.32 32.0476C162.32 32.0476 162.443 31.9874 162.519 32.0024C162.581 32.0024 162.642 32.0476 162.688 32.1078L163.699 33.5529L165.139 32.5443C165.139 32.5443 165.262 32.4841 165.339 32.4992C165.415 32.5142 165.461 32.5443 165.507 32.6045L165.952 33.2368C165.952 33.2368 166.013 33.3572 165.998 33.4325C165.998 33.4927 165.952 33.5529 165.89 33.598L164.45 34.6066L165.507 36.0968C165.507 36.0968 165.569 36.2172 165.553 36.2925C165.553 36.3527 165.507 36.4129 165.446 36.4581L164.741 36.9548C164.741 36.9548 164.619 37 164.557 37H164.527Z" fill="#FFCF33"/>
<path d="M657.428 157.653C657.364 157.505 657.364 157.377 657.428 157.228L658.895 153.532L655.345 152.088C655.218 152.024 655.112 151.939 655.048 151.79C654.984 151.642 654.984 151.514 655.048 151.365L655.685 149.793C655.749 149.645 655.834 149.539 655.983 149.475C656.111 149.411 656.259 149.411 656.408 149.475L659.957 150.919L661.381 147.329C661.445 147.181 661.53 147.074 661.679 147.032C661.828 146.989 661.955 146.989 662.083 147.032L663.826 147.733C663.974 147.797 664.081 147.903 664.144 148.03C664.208 148.158 664.208 148.306 664.144 148.455L662.72 152.045L666.227 153.49C666.376 153.553 666.482 153.66 666.546 153.787C666.61 153.936 666.61 154.084 666.546 154.233L665.908 155.805C665.845 155.954 665.76 156.06 665.611 156.102C665.462 156.166 665.335 156.145 665.186 156.102L661.679 154.658L660.212 158.354C660.149 158.503 660.064 158.609 659.915 158.652C659.766 158.715 659.639 158.694 659.49 158.652L657.747 157.951C657.62 157.887 657.513 157.802 657.449 157.653H657.428Z" fill="#D9DAFF"/>
<path d="M807.579 11.6281C807.43 11.5644 807.324 11.4794 807.281 11.3307L805.687 7.67698L802.18 9.24894C802.053 9.31267 801.904 9.31267 801.755 9.24894C801.606 9.18521 801.521 9.10024 801.458 8.95154L800.777 7.40082C800.714 7.25212 800.714 7.10343 800.756 6.95473C800.799 6.80603 800.905 6.69982 801.054 6.63609L804.561 5.06413L803.03 1.53784C802.967 1.38914 802.967 1.24044 803.03 1.11299C803.094 0.985531 803.179 0.879319 803.328 0.815591L805.049 0.0508527C805.198 -0.0128754 805.347 -0.0128759 805.474 0.0296095C805.623 0.0720949 805.708 0.178309 805.772 0.327008L807.302 3.85329L810.767 2.30258C810.915 2.23885 811.064 2.23885 811.192 2.30258C811.34 2.36631 811.447 2.45128 811.511 2.59998L812.191 4.15069C812.254 4.29939 812.254 4.44809 812.191 4.57555C812.127 4.72424 812.021 4.80922 811.893 4.87294L808.429 6.42366L810.023 10.0774C810.087 10.2261 810.087 10.3748 810.023 10.5023C809.959 10.6297 809.853 10.7359 809.725 10.7997L808.004 11.5644C807.876 11.6281 807.727 11.6281 807.579 11.5644V11.6281Z" fill="#FFCF33"/>
<path d="M845.171 107.791C845.171 107.791 845.15 107.6 845.171 107.515L846.318 105.221L844.129 104.095C844.129 104.095 843.981 103.989 843.959 103.882C843.938 103.797 843.938 103.691 843.959 103.606L844.448 102.629C844.448 102.629 844.554 102.48 844.661 102.438C844.746 102.395 844.852 102.417 844.937 102.438L847.126 103.564L848.231 101.355C848.231 101.355 848.338 101.206 848.444 101.185C848.529 101.163 848.614 101.185 848.699 101.206L849.783 101.758C849.783 101.758 849.932 101.864 849.974 101.971C850.017 102.056 849.995 102.162 849.974 102.247L848.869 104.456L851.037 105.582C851.037 105.582 851.186 105.709 851.228 105.794C851.249 105.879 851.249 105.985 851.207 106.07L850.718 107.048C850.718 107.048 850.612 107.196 850.505 107.218C850.42 107.239 850.314 107.218 850.229 107.196L848.061 106.07L846.914 108.365C846.914 108.365 846.807 108.513 846.701 108.535C846.616 108.556 846.51 108.535 846.425 108.513L845.341 107.961C845.341 107.961 845.192 107.855 845.171 107.749V107.791Z" fill="#FFCF33"/>
</svg>
