<svg width="1661" height="1173" viewBox="0 0 1661 1173" fill="none" xmlns="http://www.w3.org/2000/svg">
<g opacity="0.5" clip-path="url(#clip0_547_1117)">
<path d="M1610.97 39.8503C1611.25 40.5523 1611.49 41.1118 1611.7 41.6819C1612.08 42.7111 1612.52 43.107 1613.59 43.07C1617.02 42.9434 1620.41 42.4894 1623.73 41.6132C1625.12 41.249 1625.59 40.547 1625.59 39.2855C1625.59 37.6809 1625.87 37.3273 1627.45 36.9736C1628.84 36.6622 1630.27 36.488 1631.63 36.0816C1633.39 35.5485 1635.17 34.9679 1636.83 34.1814C1640.73 32.334 1642.97 29.109 1644.11 25.0131C1645.64 19.5237 1645.19 14.1768 1642.86 9.03045C1641.03 5.01368 1638.25 1.87838 1633.62 1.14998C1631.77 0.859674 1629.83 0.9019 1627.94 1.00747C1625.53 1.14998 1623.12 1.46668 1620.73 1.79393C1619.88 1.91005 1619.21 1.8256 1618.74 1.08664C1618.2 0.215724 1617.37 -0.021798 1616.42 -0.000684901C1615.76 0.0151499 1615.09 0.0309848 1614.44 0.147107C1611.86 0.622152 1609.3 1.10247 1606.74 1.64086C1605.19 1.96811 1603.83 2.54344 1603.74 4.48585C1603.73 4.74976 1603.33 5.08757 1603.04 5.21953C1602.62 5.40955 1602.12 5.45177 1601.65 5.53623C1594.32 6.91913 1586.98 8.27565 1579.66 9.67967C1565.79 12.3294 1551.93 15.0002 1538.06 17.6604C1515.28 22.0361 1492.51 26.4224 1469.73 30.7875C1453.99 33.8014 1438.26 36.7836 1422.52 39.7711C1418.55 40.5259 1414.58 41.2702 1410.6 41.9986C1408.99 42.2941 1407.53 42.9064 1406.21 43.9093C1397.7 50.3805 1389.18 56.8305 1380.67 63.2911C1380.52 63.4072 1380.37 63.5234 1380.22 63.6448C1378.3 65.2335 1378.68 67.4926 1381.05 68.3688C1382.48 68.8914 1383.95 69.2978 1385.4 69.7201C1392.39 71.7205 1399.38 73.6946 1406.37 75.7056C1408.28 76.2598 1410.18 76.8616 1412.07 77.5266C1413.45 78.0175 1414.8 78.1231 1416.25 77.8381C1433.28 74.4811 1450.31 71.1558 1467.33 67.8357C1514.73 58.5935 1562.14 49.3618 1609.54 40.1248C1609.96 40.0456 1610.37 39.9611 1610.97 39.845V39.8503ZM1414.76 65.3866C1415.48 64.5262 1416.08 63.877 1416.59 63.1539C1417.48 61.866 1418.66 61.2537 1420.21 60.9529C1446.76 55.796 1473.3 50.5916 1499.83 45.3925C1534.95 38.5096 1570.07 31.632 1605.18 24.7122C1606.54 24.443 1607.3 24.5222 1607.87 26.396C1608.29 27.7736 1607.7 28.8715 1606.37 29.3096C1605.38 29.6368 1604.39 29.9958 1603.37 30.1963C1570.68 36.6147 1537.99 43.0173 1505.29 49.4198C1476.7 55.0201 1448.11 60.6098 1419.53 66.247C1417.87 66.5742 1416.48 66.1942 1414.76 65.3866ZM1510.07 34.5351C1510.07 34.5615 1510.08 34.5879 1510.08 34.6143C1539.32 28.8715 1568.56 23.1287 1597.79 17.3807C1599.89 16.969 1601.98 16.4939 1604.08 16.0981C1605.5 15.8289 1605.97 16.1667 1606.35 17.5496C1606.44 17.8716 1606.51 18.1935 1606.57 18.5208C1606.79 19.8192 1606.54 20.2943 1605.29 20.8221C1604.68 21.0755 1604.05 21.2919 1603.4 21.4133C1597.24 22.5851 1591.06 23.6935 1584.91 24.8969C1539.9 33.6958 1494.9 42.5264 1449.9 51.32C1438.99 53.4524 1428.05 55.4634 1417.14 57.6064C1415.69 57.8914 1414.66 57.2106 1413.54 56.6616C1412.73 56.2657 1412.57 55.5743 1413.17 54.9462C1414.08 53.9855 1415.05 53.1674 1416.48 52.8929C1447.68 46.7965 1478.87 40.6632 1510.07 34.5351H1510.07ZM1508.54 26.9871C1508.55 27.0822 1508.57 27.1719 1508.59 27.2669C1513.58 26.2851 1518.57 25.2928 1523.56 24.3269C1549.69 19.2914 1575.83 14.2612 1601.97 9.2363C1602.39 9.15712 1602.82 9.08851 1603.24 9.07267C1604.05 9.041 1604.58 9.46326 1604.87 10.1969C1605.4 11.5799 1604.82 12.4085 1603.13 12.7094C1599.29 13.4009 1595.45 14.0554 1591.62 14.7996C1550.99 22.717 1510.36 30.6503 1469.73 38.573C1452.51 41.9299 1435.29 45.2553 1418.08 48.6334C1416.77 48.892 1415.63 48.7811 1414.62 47.9102C1414.02 47.3982 1413.14 46.9337 1413.39 46.0048C1413.62 45.1233 1414.58 45.1814 1415.31 45.0388C1435.28 41.191 1455.26 37.3695 1475.24 33.5111C1486.34 31.3628 1497.43 29.1565 1508.54 26.9766V26.9871ZM1418.7 73.7316C1418.64 73.6313 1418.58 73.531 1418.52 73.4307C1419.16 72.7498 1419.81 72.0794 1420.44 71.3933C1421.57 70.1687 1422.89 69.4614 1424.58 69.1342C1436.11 66.9279 1447.61 64.6107 1459.13 62.3569C1503.81 53.6055 1548.49 44.8594 1593.17 36.1133C1598.01 35.1632 1602.86 34.1867 1607.71 33.2366C1608.69 33.0466 1609.4 33.5216 1609.63 34.4401C1609.88 35.3902 1609.49 36.1238 1608.52 36.4141C1607.79 36.6306 1607.05 36.7889 1606.3 36.9314C1594.69 39.1958 1583.07 41.4391 1571.46 43.7193C1521.1 53.6108 1470.73 63.5075 1420.37 73.4043C1419.82 73.5151 1419.26 73.6207 1418.7 73.7316ZM1621.45 15.6441C1621.09 13.7334 1620.71 11.8227 1620.39 9.90664C1620.25 9.02517 1620.17 8.12258 1620.19 7.23055C1620.24 5.7368 1621.38 4.69698 1623.47 4.51224C1626.06 4.28 1628.67 4.2061 1631.28 4.16915C1633.83 4.13221 1635.86 5.26703 1637.4 7.2675C1639.46 9.95414 1640.7 12.9944 1641.25 16.3356C1641.77 19.4709 1641.32 22.4848 1640.19 25.4089C1639.44 27.3513 1638.27 29.0193 1636.51 30.1858C1633.78 32.0068 1630.68 32.9199 1627.5 33.5322C1626.1 33.8014 1625.34 33.3475 1624.79 32.0648C1624.44 31.2467 1624.15 30.3811 1623.97 29.5049C1623.31 26.3485 1621.73 17.0851 1621.46 15.6388L1621.45 15.6441ZM1395.57 62.6894C1395.57 62.6894 1395.61 62.6788 1395.63 62.6736C1395.46 61.7868 1395.23 60.9106 1395.12 60.0186C1394.9 58.2873 1395.2 56.7461 1396.75 55.6165C1399.7 53.463 1402.59 51.2303 1405.56 49.0978C1407.4 47.773 1408.2 47.8363 1410 49.1559C1410.27 49.3512 1410.54 49.5412 1410.8 49.7471C1411.71 50.486 1411.74 50.9927 1410.98 51.8637C1410.21 52.761 1409.4 53.6372 1408.69 54.582C1407.52 56.1338 1407.85 57.675 1409.52 58.641C1410.39 59.1371 1411.3 59.5435 1412.18 60.0186C1413.28 60.615 1413.37 61.0267 1412.64 62.0191C1412 62.9005 1411.28 63.7345 1410.7 64.6529C1409.68 66.247 1410.15 67.424 1411.93 68.0732C1413.13 68.5113 1414.31 69.0075 1415.48 69.53C1416.34 69.9154 1416.5 70.6174 1415.93 71.3669C1415.53 71.8947 1415.01 72.3434 1414.66 72.9029C1414.05 73.8846 1413.25 74.006 1412.22 73.6893C1407.91 72.3803 1403.58 71.1135 1399.27 69.794C1398.7 69.6198 1398.14 69.2767 1397.67 68.8967C1397.33 68.6222 1397.03 68.1841 1396.91 67.7618C1396.42 66.0833 1396.01 64.3785 1395.56 62.6841L1395.57 62.6894ZM1611.52 22.7592C1611.52 22.7592 1611.55 22.754 1611.57 22.7487C1610.62 17.9085 1609.66 13.063 1608.72 8.22287C1608.56 7.43113 1608.45 6.63411 1608.36 5.83181C1608.23 4.65475 1608.48 4.30111 1609.64 4.05831C1610.57 3.86829 1611.5 3.69939 1612.44 3.57271C1615.5 3.15045 1615.58 3.54104 1616.04 6.11156C1617.83 16.2986 1619.62 26.4857 1621.41 36.6728C1621.43 36.8153 1621.47 36.9525 1621.48 37.095C1621.57 38.1401 1621.28 38.5993 1620.25 38.8052C1618.9 39.0797 1617.54 39.3278 1616.17 39.4967C1614.96 39.6392 1614.81 39.465 1614.57 38.2668C1613.55 33.0994 1612.53 27.932 1611.52 22.7645V22.7592ZM1392.7 63.46C1392.68 63.4653 1392.64 63.4706 1392.62 63.4759C1392.73 64.2254 1392.86 64.9749 1392.96 65.7297C1393.15 67.2076 1392.62 67.7565 1391.21 67.3976C1389.28 66.9015 1387.37 66.3156 1385.47 65.7244C1384.6 65.4552 1384.45 64.8535 1385.18 64.2834C1386.89 62.9269 1388.64 61.6179 1390.43 60.367C1391.29 59.76 1391.97 60.0714 1392.23 61.0901C1392.43 61.8713 1392.55 62.6683 1392.71 63.46H1392.7Z" fill="#4C2713"/>
<path d="M1414.77 65.388C1415.48 64.5276 1416.09 63.8784 1416.59 63.1553C1417.48 61.8674 1418.66 61.2551 1420.22 60.9543C1446.76 55.7974 1473.3 50.593 1499.83 45.3939C1534.95 38.511 1570.07 31.6334 1605.18 24.7136C1606.55 24.4444 1607.3 24.5236 1607.87 26.3974C1608.29 27.775 1607.7 28.8729 1606.37 29.311C1605.38 29.6382 1604.39 29.9972 1603.37 30.1977C1570.68 36.6161 1537.99 43.0187 1505.29 49.4212C1476.7 55.0215 1448.11 60.6112 1419.53 66.2484C1417.87 66.5756 1416.48 66.1956 1414.77 65.388Z" fill="#FFC950"/>
<path d="M1510.07 34.5359C1510.07 34.5623 1510.08 34.5887 1510.08 34.6151C1539.32 28.8724 1568.56 23.1296 1597.79 17.3815C1599.89 16.9698 1601.97 16.4948 1604.08 16.0989C1605.5 15.8297 1605.97 16.1675 1606.35 17.5505C1606.44 17.8724 1606.51 18.1944 1606.57 18.5217C1606.79 19.8201 1606.54 20.2952 1605.29 20.823C1604.68 21.0763 1604.05 21.2928 1603.4 21.4142C1597.24 22.5859 1591.06 23.6944 1584.91 24.8978C1539.9 33.6967 1494.9 42.5273 1449.9 51.3209C1438.99 53.4533 1428.05 55.4643 1417.14 57.6073C1415.69 57.8923 1414.66 57.2114 1413.54 56.6625C1412.73 56.2666 1412.57 55.5752 1413.17 54.947C1414.08 53.9864 1415.05 53.1683 1416.48 52.8938C1447.68 46.7974 1478.87 40.664 1510.07 34.5359H1510.07Z" fill="#FFC950"/>
<path d="M1508.54 26.9884C1508.55 27.0834 1508.57 27.1731 1508.59 27.2681C1513.58 26.2864 1518.57 25.2941 1523.56 24.3281C1549.69 19.2927 1575.83 14.2625 1601.97 9.23756C1602.39 9.15838 1602.81 9.08976 1603.24 9.07393C1604.05 9.04226 1604.58 9.46452 1604.86 10.1982C1605.4 11.5811 1604.82 12.4098 1603.13 12.7107C1599.29 13.4021 1595.45 14.0566 1591.62 14.8009C1550.99 22.7183 1510.36 30.6515 1469.72 38.5742C1452.51 41.9312 1435.29 45.2565 1418.08 48.6346C1416.76 48.8932 1415.62 48.7824 1414.62 47.9115C1414.02 47.3995 1413.14 46.935 1413.39 46.006C1413.62 45.1246 1414.58 45.1826 1415.31 45.0401C1435.28 41.1922 1455.26 37.3708 1475.23 33.5124C1486.34 31.3641 1497.43 29.1578 1508.54 26.9778V26.9884Z" fill="#FFC950"/>
<path d="M1418.71 73.7336C1418.64 73.6333 1418.58 73.533 1418.52 73.4327C1419.17 72.7518 1419.82 72.0815 1420.44 71.3953C1421.57 70.1708 1422.89 69.4635 1424.58 69.1362C1436.11 66.9299 1447.61 64.6127 1459.13 62.3589C1503.81 53.6075 1548.49 44.8614 1593.17 36.1153C1598.02 35.1652 1602.87 34.1887 1607.71 33.2387C1608.69 33.0486 1609.4 33.5237 1609.64 34.4421C1609.88 35.3922 1609.49 36.1259 1608.52 36.4162C1607.79 36.6326 1607.05 36.7909 1606.3 36.9334C1594.69 39.1978 1583.07 41.4411 1571.46 43.7213C1521.1 53.6128 1470.74 63.5096 1420.37 73.4063C1419.82 73.5172 1419.27 73.6227 1418.71 73.7336Z" fill="#FFC950"/>
<path d="M1621.45 15.6458C1621.09 13.735 1620.71 11.8243 1620.39 9.90828C1620.25 9.02681 1620.17 8.12423 1620.19 7.2322C1620.23 5.73844 1621.38 4.69862 1623.47 4.51388C1626.06 4.28164 1628.67 4.20774 1631.28 4.1708C1633.82 4.13385 1635.86 5.26868 1637.4 7.26915C1639.46 9.95579 1640.7 12.9961 1641.25 16.3372C1641.77 19.4725 1641.32 22.4864 1640.19 25.4106C1639.44 27.353 1638.27 29.0209 1636.51 30.1874C1633.78 32.0084 1630.68 32.9216 1627.5 33.5338C1626.1 33.803 1625.34 33.3491 1624.79 32.0665C1624.44 31.2484 1624.15 30.3827 1623.97 29.5065C1623.31 26.3501 1621.73 17.0867 1621.46 15.6405L1621.45 15.6458Z" fill="#FF6C3F"/>
<path d="M1395.57 62.6914C1395.57 62.6914 1395.61 62.6809 1395.63 62.6756C1395.46 61.7888 1395.23 60.9126 1395.12 60.0206C1394.9 58.2893 1395.2 56.7481 1396.75 55.6185C1399.7 53.465 1402.59 51.2323 1405.56 49.0999C1407.4 47.775 1408.2 47.8384 1410 49.1579C1410.27 49.3532 1410.54 49.5432 1410.8 49.7491C1411.7 50.4881 1411.74 50.9948 1410.98 51.8657C1410.2 52.763 1409.4 53.6392 1408.69 54.584C1407.52 56.1358 1407.85 57.6771 1409.52 58.643C1410.38 59.1391 1411.3 59.5456 1412.17 60.0206C1413.28 60.6171 1413.37 61.0288 1412.64 62.0211C1411.99 62.9026 1411.28 63.7365 1410.7 64.6549C1409.68 66.249 1410.15 67.426 1411.93 68.0753C1413.12 68.5134 1414.31 69.0095 1415.48 69.5321C1416.34 69.9174 1416.49 70.6194 1415.93 71.3689C1415.53 71.8967 1415.01 72.3454 1414.66 72.9049C1414.05 73.8866 1413.25 74.0081 1412.22 73.6914C1407.91 72.3823 1403.58 71.1156 1399.27 69.796C1398.7 69.6218 1398.14 69.2787 1397.67 68.8987C1397.33 68.6242 1397.03 68.1861 1396.91 67.7639C1396.42 66.0854 1396.01 64.3805 1395.56 62.6862L1395.57 62.6914Z" fill="#FFFAF5"/>
<path d="M1611.52 22.7604C1611.52 22.7604 1611.55 22.7551 1611.57 22.7498C1610.62 17.9096 1609.66 13.0642 1608.72 8.22401C1608.56 7.43227 1608.45 6.63525 1608.36 5.83295C1608.23 4.65589 1608.48 4.30225 1609.64 4.05945C1610.57 3.86943 1611.51 3.70052 1612.45 3.57385C1615.5 3.15158 1615.58 3.54218 1616.04 6.1127C1617.83 16.2998 1619.62 26.4868 1621.41 36.6739C1621.43 36.8164 1621.47 36.9537 1621.48 37.0962C1621.57 38.1413 1621.28 38.6005 1620.25 38.8063C1618.9 39.0808 1617.54 39.3289 1616.17 39.4978C1614.96 39.6403 1614.81 39.4661 1614.57 38.268C1613.55 33.1005 1612.53 27.9331 1611.52 22.7657V22.7604Z" fill="#8076CE"/>
<path d="M1392.7 63.4606C1392.67 63.4659 1392.64 63.4712 1392.62 63.4765C1392.73 64.226 1392.86 64.9755 1392.95 65.7303C1393.14 67.2082 1392.62 67.7572 1391.21 67.3982C1389.28 66.9021 1387.37 66.3162 1385.47 65.725C1384.6 65.4558 1384.45 64.8541 1385.17 64.284C1386.89 62.9275 1388.63 61.6185 1390.42 60.3676C1391.29 59.7606 1391.97 60.072 1392.23 61.0907C1392.43 61.8719 1392.55 62.6689 1392.71 63.4606H1392.7Z" fill="#4C2713"/>
</g>
<g opacity="0.5" clip-path="url(#clip1_547_1117)">
<path d="M162.331 126.535C162.571 132.451 160.371 138.012 156.661 142.844C151.731 149.277 145.261 153.562 137.061 153.937C129.941 154.261 122.961 152.691 117.171 148.294C108.111 141.416 104.481 132.056 106.521 120.69C108.021 112.332 112.441 105.667 119.061 100.632C129.591 92.6189 147.281 92.0415 157.231 107.551C161.121 113.609 162.701 119.504 162.321 126.535H162.331ZM113.401 126.15C113.931 133.484 116.811 139.704 123.711 143.564C127.071 145.438 130.691 146.441 134.451 147.028C136.631 147.372 138.721 147.028 140.771 146.126C148.081 142.895 152.731 137.283 155.121 129.685C155.471 128.581 155.591 127.345 155.551 126.18C155.331 120.588 153.691 115.351 150.521 110.813C144.841 102.668 136.071 101.148 126.911 104.856C117.761 108.564 114.091 116.263 113.421 126.14L113.401 126.15Z" fill="#4C2713"/>
<path d="M193.729 142.289C189.269 141.975 185.049 140.06 180.789 138.672C178.479 137.923 177.619 135.876 178.229 133.921C178.809 132.047 180.709 130.994 183.049 131.45C187.019 132.219 190.969 133.07 194.909 133.982C197.659 134.62 199.069 136.271 198.839 138.368C198.609 140.546 196.689 142.502 193.719 142.289H193.729Z" fill="#4C2713"/>
<path d="M178.94 82.3984C178.98 83.6039 176.61 86.3795 175.97 87.0481C173.23 89.9048 171.9 91.1407 169.02 93.8455C168.41 94.4229 165.22 96.0235 163.15 93.4707C160.78 90.543 168.78 82.2059 172.3 79.5619C175.89 76.8673 178.86 80.0786 178.94 82.3984Z" fill="#4C2713"/>
<path d="M154.771 182.09C155.081 184.187 153.821 185.747 152.231 186.243C150.521 186.77 148.611 186.091 147.811 184.065C146.551 180.874 145.661 177.541 144.701 174.239C144.381 173.114 144.221 171.919 144.171 170.754C144.111 169.133 144.931 167.938 146.411 167.381C147.931 166.813 149.231 167.36 150.241 168.586C150.521 168.931 150.831 169.305 150.971 169.721C152.231 173.59 154.101 177.653 154.761 182.1L154.771 182.09Z" fill="#4C2713"/>
<path d="M104.692 163.611C107.622 163.601 109.562 166.073 108.582 168.555C107.042 172.455 104.692 175.94 101.582 178.766C100.142 180.073 98.1618 180.002 96.8218 179.04C95.4418 178.047 94.7418 176.183 95.5718 174.41C97.3518 170.611 99.7818 167.228 102.912 164.432C103.482 163.925 104.342 163.773 104.702 163.611H104.692Z" fill="#4C2713"/>
<path d="M88.1005 121.116C88.6205 121.217 89.1405 121.419 89.6205 121.652C91.5005 122.574 92.3705 124.286 91.9305 126.089C91.5105 127.781 90.0605 129.058 88.0905 128.865C84.5205 128.521 80.9805 127.882 77.4205 127.366C77.2505 127.346 77.0805 127.234 76.9205 127.163C74.8305 126.292 73.7105 124.57 74.0705 122.767C74.4305 120.923 76.0305 119.707 78.2605 119.596C78.7105 119.576 85.2905 120.548 88.1105 121.105L88.1005 121.116Z" fill="#4C2713"/>
<path d="M106.34 76.0458C106.37 72.7029 109.13 70.9909 111.62 72.4496C112.44 72.9258 113.25 73.6855 113.7 74.5162C115.08 77.0589 116.4 79.6522 117.51 82.3266C118.44 84.5653 117.77 86.3786 116.07 87.2802C114.48 88.121 112.68 87.6854 111.43 85.7404C109.76 83.1572 108.32 80.4322 106.84 77.7275C106.5 77.1095 106.43 76.3498 106.35 76.0458H106.34Z" fill="#4C2713"/>
<path d="M120.051 118.036C119.421 117.044 118.751 116.081 118.181 115.058C117.091 113.133 117.201 111.482 118.411 110.287C119.641 109.071 121.251 109.021 123.101 110.196C123.851 110.672 124.561 111.219 125.851 112.141C125.141 110.722 124.701 109.892 124.291 109.041C123.341 107.045 123.471 105.708 124.701 104.553C125.841 103.479 127.481 103.348 129.191 104.472C131.141 105.748 132.971 107.217 135.181 108.858C134.921 107.947 134.701 107.39 134.601 106.812C134.141 104.128 136.471 101.798 138.841 102.983C143.771 105.465 148.361 108.544 150.911 113.822V113.842C151.411 114.896 150.401 116.041 149.291 115.757C148.681 115.605 148.061 115.443 147.341 115.261C149.271 118.057 151.011 120.539 152.711 123.051C153.521 124.256 154.351 125.462 154.991 126.758C155.881 128.551 155.571 130.132 154.311 131.236C153.081 132.32 151.401 132.462 149.841 131.236C147.501 129.402 145.311 127.366 142.801 125.624C145.221 128.815 147.651 131.996 150.061 135.187C150.721 136.058 151.401 136.899 152.001 137.81C152.911 139.198 153.181 140.677 152.181 142.156C151.191 143.615 149.801 144 148.151 143.544C147.821 143.453 147.481 143.412 147.151 143.342C145.971 147.809 143.341 148.66 139.821 145.763C138.561 144.729 137.371 143.625 136.151 142.541C134.931 141.467 133.721 140.384 132.281 139.482C132.891 140.252 133.561 140.991 134.111 141.812C135.341 143.635 135.251 145.438 133.931 146.806C132.571 148.214 130.541 148.285 128.781 146.948C128.351 146.624 127.961 146.229 127.601 145.823C122.911 140.535 118.221 135.248 113.551 129.939C112.841 129.129 112.151 128.237 111.681 127.275C111.351 126.596 111.031 125.452 111.361 124.986C112.531 123.334 112.591 121.592 112.681 119.667C112.781 117.469 115.131 116.355 117.421 117.175C118.241 117.469 118.991 117.955 119.771 118.35C119.921 118.188 119.901 118.198 120.051 118.036Z" fill="#FFC950"/>
</g>
<g opacity="0.5" clip-path="url(#clip2_547_1117)">
<path d="M1644.08 781.375C1645 781.489 1645.36 782.565 1644.56 783.125L1644.32 783.282C1644.3 783.387 1644.26 783.484 1644.2 783.58C1633.44 799.178 1615.56 811.723 1597.16 816.009C1592.22 819.176 1587.17 822.045 1581.82 824.574C1574.64 827.968 1567.43 831.196 1561.06 836.025C1561.32 836.637 1561.56 837.25 1561.79 837.862C1561.9 838.159 1561.81 838.404 1561.66 838.588C1561.71 839.008 1561.54 839.489 1561.05 839.699C1556.26 841.72 1551.44 844.047 1547.12 846.995C1541.73 850.66 1541.53 855.166 1541.81 861.123C1542.15 868.428 1541.56 876.013 1538.19 882.617C1532.66 893.413 1520.34 897.62 1508.91 896.229C1498.78 895.005 1486.18 888.75 1485.35 877.141C1484.72 868.445 1490.03 862.094 1496.67 857.117C1486.41 860.03 1474.12 857.79 1467.92 848.395C1461.76 839.052 1466.08 828.152 1474 821.52C1482.68 814.259 1494.81 811.574 1505.83 813.393C1512.42 814.487 1517.73 817.496 1523.57 820.549C1527.33 822.518 1531.3 824.241 1535.61 823.498C1540.11 822.719 1543.5 819.587 1546.76 816.578C1546.95 816.412 1547.15 816.342 1547.34 816.333C1547.41 815.852 1548 815.51 1548.42 815.939C1548.99 816.534 1549.56 817.173 1550.09 817.829C1555.44 816.517 1560.36 814.583 1565.2 811.924C1565.54 811.74 1565.86 811.81 1566.09 812.002C1566.56 811.399 1567.05 810.813 1567.6 810.262C1570.41 807.401 1574.16 805.931 1577.73 804.278C1582.17 802.222 1586.49 799.921 1590.79 797.586C1607.28 788.645 1624.7 778.961 1644.08 781.375ZM1641.46 783.002C1623.14 781.743 1606.73 791.103 1591.02 799.606C1586.95 801.802 1582.86 803.963 1578.67 805.905C1574.87 807.663 1570.89 809.221 1568.08 812.492C1563.63 817.698 1562.32 824.836 1558.29 830.356C1558.99 831.642 1559.67 832.954 1560.29 834.284C1566.62 829.525 1573.76 826.323 1580.88 822.955C1587.88 819.64 1594.39 815.764 1600.77 811.355C1614.37 801.968 1627.9 792.459 1641.46 783.002ZM1622.33 802.467C1628.75 797.988 1634.18 792.678 1639.23 786.834C1626.73 795.565 1614.25 804.322 1601.7 812.982C1601.46 813.148 1601.22 813.315 1600.96 813.481C1608.48 810.577 1615.66 807.13 1622.33 802.467ZM1560.61 822.395C1561.83 819.578 1563.02 816.726 1564.61 814.155C1560.4 816.543 1555.78 818.196 1551.03 819.018C1552.22 820.576 1553.33 822.238 1554.33 823.926C1556.37 823.27 1558.52 822.719 1560.61 822.395ZM1557.42 828.79C1558.36 827.268 1559.15 825.65 1559.9 823.996C1558.29 824.442 1556.63 824.792 1554.97 825.046C1555.24 825.536 1555.5 826.008 1555.75 826.489C1555.75 826.489 1555.78 826.481 1555.78 826.472C1556.41 826.244 1556.87 826.979 1556.69 827.495C1556.94 827.924 1557.18 828.353 1557.42 828.79ZM1560.02 838.107C1558.18 835.098 1556.68 831.642 1555.32 828.361C1540.4 835.447 1525.45 842.245 1511.06 850.433C1500.31 856.548 1479.71 868.157 1489.43 883.606C1496.14 894.261 1512.52 896.842 1523.58 892.923C1537.8 887.866 1540.5 873.204 1539.86 859.715C1539.61 854.483 1540.09 850.022 1544.41 846.601C1549 842.971 1554.65 840.39 1560.02 838.107ZM1554.02 827.172C1551.96 824.18 1549.88 821.066 1548.08 817.899C1544.6 821.118 1540.82 824.547 1536.01 825.396C1531.52 826.192 1527.23 824.504 1523.29 822.509C1518.04 819.85 1513.2 816.866 1507.38 815.598C1501.48 814.312 1495.26 814.417 1489.41 815.904C1478.57 818.651 1464.92 827.933 1466.94 840.915C1467.87 846.908 1472.34 851.876 1477.7 854.361C1484.55 857.528 1491.91 856.46 1499.02 854.991C1499.23 854.947 1499.41 855 1499.54 855.087C1503.35 852.541 1507.37 850.372 1510.83 848.412C1524.72 840.548 1539.11 832.937 1554.02 827.172Z" fill="#222221"/>
<path d="M1591.02 799.607C1606.73 791.104 1623.14 781.744 1641.46 783.003C1627.9 792.46 1614.38 801.969 1600.77 811.356C1594.39 815.765 1587.88 819.64 1580.88 822.956C1573.77 826.324 1566.62 829.526 1560.29 834.285C1559.67 832.955 1559 831.643 1558.29 830.357C1562.33 824.837 1563.64 817.698 1568.09 812.493C1570.89 809.221 1574.88 807.664 1578.67 805.906C1582.86 803.964 1586.95 801.803 1591.02 799.607ZM1572.67 823.595C1574.8 823.035 1576.44 820.944 1575.85 818.687C1575.32 816.649 1572.78 814.663 1570.7 815.713C1570.55 815.581 1570.33 815.511 1570.07 815.608C1568.02 816.334 1567.14 818.801 1567.69 820.821C1568.28 823.052 1570.51 824.163 1572.67 823.595Z" fill="#AFAFAF"/>
<path d="M1639.23 786.836C1634.18 792.68 1628.75 797.99 1622.33 802.469C1615.66 807.132 1608.48 810.578 1600.96 813.483C1601.22 813.317 1601.46 813.15 1601.7 812.984C1614.25 804.323 1626.73 795.567 1639.23 786.836Z" fill="#AFAFAF"/>
<path d="M1575.85 818.686C1576.44 820.943 1574.8 823.034 1572.67 823.594C1570.51 824.163 1568.28 823.052 1567.69 820.821C1567.14 818.8 1568.02 816.333 1570.07 815.607C1570.33 815.511 1570.55 815.581 1570.7 815.712C1572.78 814.662 1575.32 816.648 1575.85 818.686ZM1572.1 822.011C1573.44 821.739 1574.58 820.567 1574.28 819.124C1574.05 818.056 1573.33 817.392 1572.45 816.998C1572.4 817.637 1572.27 818.293 1572.11 818.94C1572.45 818.966 1572.79 819.01 1573.08 819.132C1573.59 819.342 1573.55 820.104 1572.94 820.139C1572.57 820.147 1572.21 820.06 1571.83 819.964C1571.74 820.313 1571.64 820.655 1571.55 820.996C1571.42 821.451 1570.64 821.363 1570.7 820.873C1570.76 820.497 1570.8 820.112 1570.84 819.719C1570.51 819.631 1570.17 819.561 1569.83 819.465C1569.42 819.342 1569.49 818.678 1569.92 818.704C1570.27 818.73 1570.62 818.774 1570.96 818.818C1571.06 818.118 1571.19 817.418 1571.41 816.779C1571.42 816.744 1571.44 816.718 1571.46 816.683C1571.28 816.648 1571.1 816.622 1570.91 816.596C1570.86 816.744 1570.78 816.875 1570.64 816.972C1568.46 818.494 1568.88 822.675 1572.1 822.011Z" fill="#222221"/>
<path d="M1574.28 819.124C1574.58 820.567 1573.44 821.74 1572.1 822.011C1568.88 822.676 1568.46 818.494 1570.64 816.972C1570.78 816.876 1570.86 816.744 1570.91 816.596C1571.1 816.622 1571.28 816.648 1571.46 816.683C1571.44 816.718 1571.43 816.744 1571.41 816.779C1571.19 817.418 1571.06 818.118 1570.96 818.818C1570.62 818.774 1570.27 818.73 1569.92 818.704C1569.49 818.678 1569.42 819.343 1569.83 819.465C1570.17 819.561 1570.51 819.631 1570.84 819.719C1570.8 820.112 1570.76 820.497 1570.71 820.874C1570.64 821.363 1571.43 821.451 1571.55 820.996C1571.64 820.655 1571.74 820.314 1571.83 819.964C1572.21 820.06 1572.57 820.147 1572.94 820.139C1573.55 820.104 1573.59 819.343 1573.08 819.133C1572.79 819.01 1572.45 818.966 1572.11 818.94C1572.28 818.293 1572.41 817.637 1572.45 816.998C1573.33 817.392 1574.05 818.057 1574.28 819.124Z" fill="#AFAFAF"/>
<path d="M1564.61 814.156C1563.02 816.728 1561.83 819.58 1560.61 822.397C1558.52 822.721 1556.37 823.272 1554.33 823.928C1553.33 822.24 1552.22 820.577 1551.03 819.02C1555.78 818.198 1560.4 816.544 1564.61 814.156Z" fill="#AFAFAF"/>
<path d="M1555.32 828.363C1556.68 831.644 1558.18 835.099 1560.02 838.109C1554.65 840.392 1549 842.973 1544.41 846.603C1540.09 850.024 1539.61 854.485 1539.86 859.717C1540.5 873.206 1537.8 887.868 1523.58 892.924C1512.52 896.844 1496.14 894.263 1489.43 883.608C1479.71 868.159 1500.31 856.55 1511.06 850.435C1525.45 842.247 1540.4 835.449 1555.32 828.363ZM1523.22 887.229C1531.23 883.704 1537.35 873.889 1535 864.983C1533.94 860.95 1530.79 857.67 1527 856.104C1524.35 855.01 1521.44 854.783 1518.63 855.22C1515.54 855.701 1512.63 858.002 1509.61 858.247C1509.08 858.291 1508.8 858.693 1508.77 859.113C1500.99 862.875 1493.31 871.806 1499 880.616C1503.97 888.297 1515.17 890.772 1523.22 887.229ZM1495.67 885.646C1496.37 885.926 1496.63 884.911 1496.14 884.526C1495.41 883.966 1494.66 883.494 1494.06 882.785C1493.42 882.051 1492.94 881.211 1492.61 880.292C1492.42 879.776 1491.67 879.968 1491.78 880.52C1492.22 882.61 1493.63 884.85 1495.67 885.646ZM1494.34 886.521C1494.8 886.635 1495.13 886.066 1494.8 885.716C1493.93 884.78 1492.86 884.159 1492.07 883.109C1491.24 881.989 1490.78 880.747 1490.41 879.417C1490.3 879.015 1489.66 879.076 1489.68 879.514C1489.77 882.112 1491.62 885.847 1494.34 886.521Z" fill="#5A9F98"/>
<path d="M1548.08 817.9C1549.88 821.067 1551.96 824.181 1554.02 827.173C1539.11 832.938 1524.72 840.549 1510.83 848.414C1507.37 850.373 1503.35 852.543 1499.54 855.089C1499.41 855.001 1499.23 854.949 1499.02 854.992C1491.91 856.462 1484.55 857.529 1477.7 854.363C1472.34 851.878 1467.87 846.909 1466.94 840.917C1464.92 827.934 1478.57 818.653 1489.4 815.906C1495.25 814.419 1501.47 814.314 1507.37 815.6C1513.19 816.868 1518.03 819.851 1523.28 822.511C1527.22 824.505 1531.52 826.194 1536 825.397C1540.81 824.549 1544.6 821.12 1548.07 817.909L1548.08 817.9ZM1505.37 845.807C1511.59 840.978 1517.05 833.428 1510.69 826.194C1504.43 819.064 1491.73 820.166 1483.95 823.893C1476.74 827.34 1472.31 835.904 1477.67 842.972C1483.89 851.178 1496.13 850.12 1504.27 845.667C1504.52 845.991 1504.95 846.139 1505.37 845.807Z" fill="#5A9F98"/>
<path d="M1535 864.982C1537.35 873.887 1531.23 883.703 1523.23 887.228C1515.17 890.771 1503.97 888.296 1499 880.615C1493.31 871.805 1501 862.874 1508.78 859.112C1508.8 858.692 1509.08 858.29 1509.61 858.246C1512.64 858.001 1515.54 855.7 1518.63 855.219C1521.44 854.782 1524.35 855.009 1527 856.102C1530.79 857.668 1533.95 860.949 1535 864.982ZM1524.14 884.656C1531.2 880.623 1536.82 869.898 1531.75 862.261C1529.18 858.377 1524.54 856.549 1520.02 856.916C1516.32 857.213 1513.42 859.873 1509.82 860.004C1502.4 864.606 1494.11 873.686 1502.5 881.848C1508.17 887.351 1517.31 888.576 1524.14 884.656Z" fill="#222221"/>
<path d="M1510.69 826.193C1517.05 833.428 1511.59 840.977 1505.38 845.806C1504.95 846.139 1504.53 845.99 1504.27 845.666C1496.13 850.119 1483.89 851.178 1477.67 842.972C1472.31 835.903 1476.74 827.339 1483.95 823.892C1491.73 820.166 1504.43 819.063 1510.69 826.193ZM1511.76 833.891C1511.97 830.147 1509.42 826.779 1506.32 824.986C1500.24 821.469 1490.88 822.711 1484.8 825.616C1476.73 829.456 1474.24 839.298 1482.24 844.73C1489.13 849.411 1496.83 846.183 1504.11 844.625C1504.17 844.459 1504.27 844.31 1504.43 844.179C1507.67 841.668 1511.51 838.353 1511.76 833.891Z" fill="#222221"/>
<path d="M1496.14 884.526C1496.63 884.911 1496.37 885.926 1495.67 885.646C1493.63 884.85 1492.22 882.61 1491.78 880.519C1491.67 879.968 1492.42 879.776 1492.61 880.292C1492.95 881.21 1493.42 882.05 1494.06 882.785C1494.66 883.494 1495.41 883.966 1496.14 884.526Z" fill="#222221"/>
<path d="M1494.8 885.715C1495.13 886.065 1494.8 886.633 1494.34 886.52C1491.62 885.846 1489.77 882.11 1489.68 879.512C1489.66 879.075 1490.3 879.014 1490.41 879.416C1490.78 880.746 1491.25 881.988 1492.07 883.108C1492.86 884.158 1493.93 884.779 1494.8 885.715Z" fill="#222221"/>
</g>
<g opacity="0.5" clip-path="url(#clip3_547_1117)">
<path d="M112.261 918.838C121.026 917.281 129.792 915.753 138.556 914.218C138.936 914.151 139.328 914.038 139.7 914.081C141.368 914.271 142.564 914.775 142.786 916.529C143.141 919.352 143.692 922.151 144.214 924.951C145.287 930.739 146.402 936.522 147.484 942.308C147.637 943.137 147.753 943.978 147.822 944.82C147.96 946.617 147.097 947.753 145.337 948.142C144.96 948.221 144.581 948.288 144.201 948.355C139.724 949.143 135.246 949.922 130.765 950.711C120.029 952.606 109.292 954.501 98.5533 956.405C88.6156 958.166 78.6764 959.941 68.7387 961.703C65.1741 962.333 61.6106 962.989 58.0301 963.544C56.9076 963.719 55.7374 963.669 54.5957 963.609C53.6043 963.556 52.6036 962.775 52.4928 961.649C52.4306 961.002 52.2435 960.364 52.1334 959.718C50.851 952.13 49.5728 944.542 48.2862 936.955C48.0428 935.511 47.7407 934.08 47.4939 932.642C47.3097 931.562 47.6302 930.821 48.619 930.385C49.4515 930.017 50.3445 929.728 51.2429 929.569C65.6578 927.002 106.34 919.891 112.258 918.843L112.261 918.838Z" fill="#FF6C3F"/>
<path d="M166.135 918.254C165.819 916.362 166.541 915.37 168.46 915.193C169.559 915.092 170.685 915.226 171.794 915.315C178.924 915.886 186.053 916.488 193.186 917.049C194.107 917.121 194.768 917.432 194.964 918.361C195.336 920.123 195.75 921.88 195.982 923.662C196.153 924.968 196.033 924.98 194.808 925.54C187.67 928.813 180.538 932.089 173.398 935.349C172.847 935.6 172.245 935.776 171.647 935.889C169.846 936.225 169.097 935.684 168.763 933.853C168.294 931.282 166.575 920.879 166.141 918.261L166.135 918.254Z" fill="#FF6C3F"/>
<path d="M155.236 914.815C155.135 914.255 155.085 913.667 155.127 913.098C155.211 911.983 155.772 911.24 156.677 911.049C157.883 910.794 159.095 910.565 160.315 910.395C161.297 910.257 161.94 910.69 162.252 911.629C162.432 912.172 162.569 912.738 162.658 913.305C163.173 916.531 163.654 919.764 164.173 922.99C165.161 929.141 166.152 935.287 167.178 941.43C167.352 942.464 167.128 943.311 166.227 943.811C164.881 944.563 163.406 945.04 161.848 945.037C160.592 945.036 160.018 944.497 159.83 943.273C159.083 938.488 156.072 919.503 155.235 914.811L155.236 914.815Z" fill="#FF6C3F"/>
<path d="M42.152 963.281C42.3458 964.717 41.4576 965.94 40.0783 966.288C39.3346 966.476 38.572 966.615 37.8062 966.698C37.1134 966.774 36.371 966.761 35.9267 966.107C35.3648 965.29 34.8616 964.461 34.6988 963.42C33.3247 954.611 31.9036 945.806 30.4993 936.998C30.3906 936.318 30.2936 935.63 30.2444 934.941C30.1687 933.878 30.68 933.149 31.7353 932.966C33.0185 932.743 34.3174 932.573 35.6163 932.487C36.9706 932.394 37.2937 932.701 37.5678 934.02C37.6314 934.321 37.6782 934.626 37.7292 934.93C38.4289 939.219 41.4498 958.11 42.1529 963.285L42.152 963.281Z" fill="#FF6C3F"/>
<path d="M156.901 940.727C157.062 941.633 157.152 942.558 157.206 943.477C157.307 945.139 156.671 945.92 155.077 946.431C154.179 946.717 153.334 946.463 152.467 946.418C151.188 946.352 150.486 945.761 150.223 944.519C150.04 943.653 149.946 942.772 149.797 941.899C148.499 934.279 147.196 926.656 145.903 919.036C145.71 917.896 145.502 916.765 145.348 915.621C145.141 914.1 145.56 913.369 147.01 912.923C148.034 912.611 149.1 912.395 150.165 912.24C151.325 912.074 151.917 912.451 152.256 913.564C152.582 914.627 152.859 915.714 153.033 916.809C153.65 920.643 156.175 936.601 156.901 940.727Z" fill="#FFFAF5"/>
<path d="M46.6055 945.274C47.6783 951.206 48.5342 955.82 49.3315 960.446C49.4735 961.264 49.4608 962.136 49.3594 962.962C49.1966 964.264 47.6536 965.018 46.4592 964.501C45.6781 964.159 45.4548 963.515 45.326 962.76C43.7688 953.539 42.2032 944.319 40.6552 935.1C40.5352 934.387 40.488 933.645 40.52 932.926C40.5734 931.769 41.4301 931.143 42.8856 931.093C44.1715 931.049 44.398 931.272 44.6159 932.677C45.341 937.315 46.0787 941.949 46.6055 945.274Z" fill="#FFFAF5"/>
<path d="M159.54 948.335C162.343 947.827 165.161 947.372 167.969 946.888C168.387 946.817 168.803 946.734 169.205 946.61C170.226 946.285 170.537 945.808 170.52 944.732C170.504 943.704 170.523 942.673 170.515 941.643C170.505 940.474 171.103 939.657 172.085 939.148C173.926 938.191 175.768 937.234 177.657 936.381C183.659 933.676 189.68 931.02 195.691 928.343C195.831 928.279 195.961 928.19 196.109 928.146C198.131 927.522 198.782 926.025 198.802 924.072C198.828 921.579 198.438 919.175 197.448 916.87C196.666 915.051 195.417 914.047 193.327 913.907C184.959 913.362 176.599 912.692 168.23 912.12C166.481 912 165.185 911.439 164.649 909.646C164.518 909.211 164.279 908.806 164.099 908.386C163.584 907.192 163.145 906.939 161.852 907.155C158.509 907.717 155.166 908.274 151.825 908.866C134.528 911.936 117.235 915.027 99.9324 918.094C83.4689 921.01 67.0011 923.905 50.5351 926.809C44.7301 927.833 38.9225 928.845 33.1194 929.878C31.9426 930.087 30.7608 930.293 29.6216 930.638C28.9101 930.854 28.2318 931.268 27.6192 931.703C26.9715 932.159 27.0205 932.909 27.1201 933.609C27.333 935.094 27.55 936.578 27.793 938.061C29.0653 945.808 30.3502 953.553 31.6216 961.296C31.9775 963.459 32.3041 965.628 32.6433 967.794C32.7593 968.53 33.0395 969.153 33.572 969.727C34.2293 970.436 34.9576 970.632 35.8561 970.473C37.6773 970.145 39.4979 969.835 41.3191 969.507C61.6002 965.833 140.422 951.799 159.528 948.342L159.54 948.335ZM112.263 918.839C121.028 917.282 129.794 915.754 138.558 914.219C138.938 914.152 139.33 914.038 139.702 914.082C141.37 914.272 142.566 914.776 142.788 916.53C143.143 919.353 143.694 922.151 144.216 924.952C145.289 930.74 146.404 936.523 147.486 942.309C147.639 943.138 147.755 943.978 147.824 944.821C147.962 946.618 147.099 947.753 145.339 948.142C144.962 948.222 144.582 948.289 144.203 948.356C139.726 949.144 135.248 949.923 130.767 950.712C120.031 952.607 109.294 954.502 98.5552 956.406C88.6175 958.167 78.6783 959.942 68.7406 961.704C65.176 962.334 61.6125 962.99 58.032 963.545C56.9095 963.72 55.7393 963.67 54.5976 963.61C53.6062 963.557 52.6056 962.776 52.4947 961.65C52.4326 961.003 52.2454 960.365 52.1354 959.719C50.8529 952.131 49.5747 944.543 48.2881 936.956C48.0447 935.512 47.7426 934.081 47.4958 932.643C47.3116 931.563 47.6322 930.822 48.621 930.386C49.4534 930.018 50.3464 929.729 51.2448 929.57C65.6597 927.003 106.342 919.892 112.26 918.844L112.263 918.839ZM166.134 918.254C165.817 916.362 166.54 915.37 168.459 915.193C169.558 915.092 170.684 915.226 171.793 915.315C178.923 915.886 186.052 916.488 193.185 917.049C194.106 917.121 194.766 917.432 194.963 918.361C195.334 920.123 195.749 921.88 195.981 923.662C196.152 924.968 196.032 924.98 194.807 925.54C187.669 928.813 180.536 932.089 173.396 935.349C172.846 935.6 172.244 935.776 171.646 935.889C169.844 936.225 169.096 935.684 168.762 933.853C168.293 931.282 166.574 920.879 166.14 918.261L166.134 918.254ZM155.238 914.815C155.137 914.255 155.088 913.667 155.13 913.098C155.214 911.983 155.774 911.24 156.679 911.049C157.886 910.794 159.097 910.565 160.317 910.395C161.299 910.257 161.942 910.69 162.254 911.629C162.434 912.172 162.571 912.738 162.66 913.305C163.175 916.531 163.656 919.764 164.175 922.99C165.163 929.141 166.154 935.286 167.18 941.429C167.354 942.463 167.13 943.311 166.23 943.811C164.883 944.563 163.409 945.04 161.85 945.037C160.594 945.036 160.021 944.497 159.832 943.273C159.085 938.488 156.075 919.503 155.237 914.811L155.238 914.815ZM42.1535 963.282C42.3473 964.718 41.4591 965.942 40.0798 966.29C39.3361 966.477 38.5734 966.616 37.8077 966.699C37.1149 966.776 36.3725 966.762 35.9282 966.108C35.3663 965.292 34.8631 964.463 34.7002 963.422C33.3261 954.612 31.9051 945.808 30.5008 937C30.3921 936.319 30.2951 935.631 30.2459 934.942C30.1702 933.879 30.6815 933.15 31.7367 932.967C33.02 932.744 34.3189 932.575 35.6178 932.488C36.972 932.395 37.2952 932.703 37.5692 934.022C37.6328 934.323 37.6797 934.628 37.7307 934.932C38.4304 939.22 41.4513 958.111 42.1543 963.286L42.1535 963.282ZM156.901 940.728C157.062 941.633 157.152 942.559 157.206 943.478C157.308 945.139 156.672 945.921 155.078 946.432C154.18 946.718 153.334 946.463 152.467 946.419C151.188 946.353 150.486 945.762 150.224 944.519C150.041 943.653 149.947 942.773 149.797 941.9C148.5 934.28 147.197 926.657 145.903 919.037C145.71 917.897 145.502 916.765 145.348 915.622C145.141 914.101 145.56 913.37 147.011 912.924C148.034 912.612 149.1 912.396 150.166 912.24C151.325 912.074 151.917 912.452 152.257 913.565C152.582 914.628 152.859 915.715 153.034 916.81C153.651 920.644 156.175 936.602 156.901 940.728ZM46.6048 945.274C47.6777 951.206 48.5336 955.82 49.3309 960.447C49.4729 961.265 49.4602 962.137 49.3588 962.963C49.196 964.265 47.653 965.019 46.4586 964.502C45.6775 964.16 45.4542 963.516 45.3254 962.761C43.7681 953.54 42.2025 944.32 40.6546 935.101C40.5346 934.388 40.4874 933.646 40.5194 932.927C40.5728 931.77 41.4294 931.144 42.8849 931.094C44.1709 931.05 44.3974 931.273 44.6152 932.678C45.3404 937.316 46.0781 941.95 46.6048 945.274Z" fill="#4C2713"/>
<path d="M126.669 943.172C127.386 943.043 128.098 942.853 128.787 942.611C129.741 942.279 130.104 941.678 130.047 940.663C130.023 940.239 129.978 939.816 129.908 939.403C129.295 935.878 128.69 932.348 128.031 928.833C127.908 928.168 127.648 927.497 127.295 926.921C126.772 926.061 125.919 925.73 124.906 925.865C124.485 925.923 124.068 925.98 123.65 926.051C114.8 927.557 105.951 929.062 97.1037 930.58C91.4452 931.552 85.7899 932.518 80.1402 933.532C76.9571 934.103 76.3021 935.063 76.821 938.205C77.44 941.925 78.0758 945.642 78.7283 949.355C79.1103 951.516 79.6081 951.905 81.7889 951.519C89.415 950.167 119.322 944.518 126.673 943.171L126.669 943.172ZM83.3252 948.349C81.846 948.618 81.0584 948.059 80.833 946.576C80.4633 944.141 80.0987 941.709 79.7584 939.268C79.4907 937.358 80.1562 936.509 82.1066 936.172C95.1249 933.913 108.143 931.654 121.163 929.4C121.542 929.333 121.921 929.24 122.304 929.229C124.232 929.158 124.873 929.832 125.146 931.107C125.681 933.621 126.217 936.139 126.677 938.669C126.85 939.615 126.308 940.281 125.361 940.542C124.99 940.646 124.609 940.709 124.23 940.781C117.559 941.992 90.2982 947.096 83.3219 948.354L83.3252 948.349Z" fill="#4C2713"/>
<path d="M83.3268 948.349C81.8475 948.618 81.06 948.059 80.8346 946.576C80.4649 944.141 80.1003 941.709 79.7599 939.268C79.4923 937.358 80.1577 936.509 82.1081 936.172C95.1265 933.913 108.145 931.654 121.164 929.4C121.544 929.333 121.922 929.24 122.305 929.229C124.233 929.158 124.874 929.832 125.148 931.107C125.683 933.621 126.219 936.139 126.678 938.669C126.852 939.615 126.31 940.281 125.363 940.542C124.991 940.646 124.611 940.709 124.232 940.78C117.561 941.992 90.2998 947.096 83.3234 948.354L83.3268 948.349Z" fill="#FFFAF5"/>
</g>
<g opacity="0.5" clip-path="url(#clip4_547_1117)">
<path d="M1490.6 374.04C1489.5 373.41 1490.02 371.94 1491.23 372C1516.32 373.34 1540.73 390.39 1541.18 417.38C1541.18 417.55 1541.15 417.7 1541.09 417.83C1565.92 431.48 1584.71 452.89 1602.34 474.63C1612.04 486.57 1621.61 498.6 1631.74 510.17C1637.38 516.61 1643.23 522.83 1648.98 529.15C1654.02 534.68 1658.49 540.46 1660.65 547.71C1660.89 548.51 1660.07 549.59 1659.2 549.06C1646.36 541.25 1635.69 529.63 1624.66 519.53C1613.12 508.97 1601.56 498.44 1590.06 487.83C1569.36 468.73 1548 448.42 1535.24 422.92C1535.16 422.77 1535.16 422.63 1535.2 422.5C1525.47 420.03 1516.87 414.55 1510.42 406.82C1506.72 402.37 1504.11 397.41 1502.06 392.04C1499.48 385.24 1497.35 377.9 1490.6 374.04ZM1494.81 374.47C1501.86 380.79 1503.08 391.2 1507.77 399.33C1513.86 409.9 1524.14 417.34 1535.71 420.86C1535.68 420.83 1535.64 420.8 1535.6 420.76C1530.98 415.15 1526.09 410.21 1520.18 405.95C1519.53 405.49 1520.31 404.53 1520.96 405C1525.54 408.25 1529.81 412.08 1533.39 416.43C1530.07 411.27 1526.37 406.56 1521.87 402.17C1521.27 401.58 1522.09 400.55 1522.7 401.14C1528.3 406.47 1533.1 412.68 1536.51 419.63C1534.16 409.88 1530.13 401.14 1524.14 393C1523.67 392.36 1524.67 391.64 1525.15 392.27C1531.24 400.23 1535.45 409.42 1537.48 419.23C1537.99 418.73 1538.57 418.34 1539.2 418.12C1539.09 417.97 1539.02 417.79 1539.02 417.55C1538.62 392.87 1517.52 377.19 1494.81 374.47ZM1540.46 419.95C1539.8 420.25 1539.12 420.49 1538.52 420.97C1537.87 421.5 1537.39 422.18 1537.03 422.92C1547 439.62 1559.23 454.24 1572.61 467.95C1575.19 466.57 1577.44 464.8 1579.17 462.39C1580.92 459.96 1581.36 457.34 1582.37 454.6C1582.37 454.58 1582.39 454.57 1582.4 454.56C1570.07 441.11 1556.56 428.85 1540.45 419.94L1540.46 419.95ZM1583.95 456.26C1583.58 461.75 1578.69 467.01 1573.8 469.17C1579.72 475.18 1585.84 481.02 1592.1 486.78C1603.38 497.18 1614.72 507.51 1626.02 517.88C1636.17 527.17 1646.03 537.88 1657.59 545.53C1654.91 538.98 1650.26 533.68 1645.44 528.47C1640.22 522.86 1635.05 517.21 1630 511.45C1620.22 500.29 1610.97 488.71 1601.64 477.19C1595.91 470.11 1590.07 463.05 1583.95 456.27V456.26Z" fill="#222221"/>
<path d="M1507.77 399.331C1503.07 391.201 1501.85 380.791 1494.81 374.471C1517.53 377.191 1538.63 392.881 1539.03 417.571C1539.03 417.811 1539.1 417.991 1539.21 418.141C1538.58 418.361 1538 418.751 1537.49 419.251C1535.46 409.441 1531.25 400.251 1525.16 392.291C1524.68 391.661 1523.68 392.371 1524.15 393.021C1530.14 401.161 1534.17 409.891 1536.52 419.651C1533.11 412.691 1528.31 406.491 1522.71 401.161C1522.09 400.571 1521.27 401.601 1521.88 402.191C1526.38 406.571 1530.08 411.291 1533.4 416.451C1529.82 412.101 1525.55 408.261 1520.97 405.021C1520.33 404.561 1519.54 405.511 1520.19 405.971C1526.1 410.231 1530.99 415.171 1535.61 420.781C1535.65 420.821 1535.69 420.851 1535.72 420.881C1524.15 417.361 1513.87 409.921 1507.78 399.351L1507.77 399.331Z" fill="#7C4A3A"/>
<path d="M1538.52 420.969C1539.12 420.489 1539.8 420.249 1540.46 419.949C1556.57 428.859 1570.08 441.109 1582.41 454.569C1582.41 454.579 1582.39 454.589 1582.38 454.609C1581.37 457.339 1580.93 459.959 1579.18 462.399C1577.45 464.799 1575.2 466.579 1572.62 467.959C1559.23 454.249 1547.01 439.629 1537.04 422.929C1537.4 422.189 1537.89 421.509 1538.53 420.979L1538.52 420.969ZM1566.61 453.709C1566.1 453.219 1565.37 453.979 1565.73 454.529C1566.97 456.369 1568.73 458.169 1570.3 459.729C1570.69 460.109 1571.26 459.519 1570.96 459.109C1569.69 457.279 1568.21 455.249 1566.6 453.709H1566.61ZM1565.85 456.539C1565.32 456.059 1564.55 456.819 1564.96 457.379C1566.73 459.829 1569.04 462.019 1571.11 464.209C1571.62 464.749 1572.59 464.109 1572.08 463.509C1570.09 461.179 1568.14 458.599 1565.85 456.529V456.539Z" fill="#AFAFAF"/>
<path d="M1565.74 454.53C1565.38 453.98 1566.11 453.22 1566.62 453.71C1568.23 455.25 1569.71 457.28 1570.98 459.11C1571.27 459.52 1570.7 460.11 1570.32 459.73C1568.75 458.17 1566.99 456.37 1565.75 454.53H1565.74Z" fill="#222221"/>
<path d="M1564.96 457.381C1564.55 456.821 1565.32 456.061 1565.85 456.541C1568.13 458.601 1570.09 461.181 1572.08 463.521C1572.59 464.121 1571.62 464.761 1571.11 464.221C1569.04 462.021 1566.72 459.831 1564.96 457.391V457.381Z" fill="#222221"/>
<path d="M1573.8 469.17C1578.7 467.02 1583.59 461.76 1583.95 456.26C1590.07 463.04 1595.91 470.11 1601.64 477.18C1610.97 488.7 1620.22 500.28 1630 511.44C1635.05 517.2 1640.22 522.85 1645.44 528.46C1650.26 533.67 1654.91 538.98 1657.59 545.52C1646.02 537.87 1636.17 527.16 1626.02 517.87C1614.71 507.5 1603.37 497.17 1592.1 486.77C1585.85 481.01 1579.72 475.17 1573.8 469.16V469.17Z" fill="#900D15"/>
</g>
<g opacity="0.5" clip-path="url(#clip5_547_1117)">
<path d="M250.276 418.225C250.966 417.754 251.984 417.801 252.455 418.79C258.489 431.363 264.555 443.638 271.828 455.567C272.283 456.289 271.766 457.231 271.107 457.592C269.697 458.345 268.286 459.13 266.875 459.883C267.189 460.495 267.142 461.218 266.389 461.735C228.535 487.509 188.299 509.437 147.874 530.878C127.074 541.929 106.211 552.869 85.5837 564.249C65.4576 575.362 46.131 588.264 25.7854 598.875C24.986 599.299 24.2023 598.577 24.1553 597.839C23.9515 597.745 23.7791 597.604 23.638 597.4C19.1238 590.603 14.7506 583.712 10.346 576.822C6.99167 571.579 2.77523 566.446 0.972656 560.435L2.10122 559.744C7.43056 564.39 10.7536 571.328 14.5781 577.245C18.5281 583.351 22.5251 589.457 26.3654 595.626C43.4506 582.912 63.0908 572.898 81.6338 562.616C101.823 551.441 122.246 540.688 142.639 529.874C184.082 507.899 225.401 485.594 264.242 459.177C264.336 459.098 264.414 459.051 264.524 459.02C265.809 457.953 267.126 456.917 268.443 455.849C261.17 444.595 254.508 432.603 249.712 420.093C249.618 419.857 249.586 419.638 249.586 419.434L250.292 418.225H250.276Z" fill="#222221"/>
<path d="M250.276 418.225L249.571 419.433C249.446 419.763 249.21 420.077 248.834 420.297C240.135 425.382 231.435 430.421 222.72 435.459C222.752 435.506 222.799 435.506 222.814 435.569C225.808 440.027 228.065 445.348 230.197 450.261C230.683 451.376 229.131 452.066 228.536 451.062C225.84 446.572 222.799 441.691 220.949 436.794C220.918 436.699 220.918 436.621 220.902 436.527C219.507 437.343 218.112 438.159 216.701 438.96C217.313 440.89 217.705 442.852 218.457 444.736C219.256 446.714 220.275 448.566 221.372 450.387C221.921 451.313 220.416 452.239 219.774 451.407C217.438 448.268 215.259 444.124 214.679 440.153C212.736 441.267 210.792 442.413 208.849 443.527C208.974 443.622 209.084 443.747 209.162 443.904C210.557 446.337 211.623 448.958 212.814 451.485C213.864 453.777 215.04 456.053 215.714 458.47C215.933 459.208 214.805 459.726 214.35 459.114C212.861 457.073 211.795 454.75 210.635 452.506C209.381 450.026 207.955 447.561 206.905 444.971C206.858 444.862 206.858 444.783 206.842 444.705C205.431 445.521 203.989 446.337 202.579 447.153C202.657 447.247 202.704 447.326 202.751 447.451C204.068 451.376 204.961 455.535 205.933 459.553C206.137 460.417 204.71 460.888 204.428 460.04C203.127 456.147 201.685 452.192 200.745 448.205C196.403 450.716 192.061 453.212 187.704 455.723C188.252 455.551 188.973 455.786 189.114 456.461C189.6 458.69 189.82 460.872 190.635 463.038C191.356 465.031 192.437 466.774 193.503 468.61C193.895 469.285 192.908 469.819 192.422 469.317C189.428 466.13 187.108 460.997 187.108 456.587C187.108 456.289 187.218 456.069 187.374 455.912C184.631 457.513 181.888 459.083 179.13 460.652C177.123 461.814 175.117 462.975 173.111 464.121C175.603 467.559 176.935 471.969 177.374 476.145C177.499 477.212 175.932 477.526 175.713 476.458C174.96 472.283 173.314 468.846 171.245 465.204C168.737 466.664 166.229 468.108 163.69 469.552C164.035 469.631 164.317 469.85 164.521 470.243C166.966 475.156 169.521 480.022 171.919 484.966C172.405 485.955 170.885 486.975 170.258 486.018C167.186 481.371 164.49 476.411 162.107 471.373C161.966 471.059 161.95 470.776 162.029 470.525C158.392 472.597 154.771 474.7 151.119 476.788C154.238 481.685 156.245 487.807 157.593 493.426C157.797 494.258 156.527 494.651 156.182 493.866C153.862 488.592 151.072 483.349 149.019 477.965C146.997 479.127 144.959 480.273 142.921 481.45C142.984 481.513 143.063 481.575 143.125 481.654C144.128 483.318 144.63 485.421 145.288 487.273C145.915 489.016 146.574 490.742 147.107 492.516C147.436 493.583 145.759 494.038 145.32 493.097C144.489 491.292 143.784 489.392 143.047 487.556C142.389 485.908 141.495 484.212 141.15 482.47C138.799 483.804 136.464 485.154 134.128 486.473C134.395 486.583 134.645 486.771 134.833 487.085C137.67 492.186 140.445 497.35 142.921 502.624C143.47 503.786 141.809 504.461 141.15 503.441C138.015 498.496 135.116 493.379 132.341 488.231C132.216 488.011 132.184 487.776 132.184 487.572C130.977 488.246 129.771 488.937 128.564 489.628C128.658 489.706 128.736 489.816 128.799 489.973C130.303 493.599 131.463 497.617 132.153 501.479C132.278 502.185 131.166 502.593 130.915 501.887C129.582 498.198 128.203 494.572 126.73 490.931C126.698 490.852 126.698 490.774 126.683 490.695C126.369 490.868 126.071 491.056 125.774 491.229C123.861 492.312 121.933 493.379 120.021 494.447C120.099 494.541 120.193 494.604 120.256 494.713C123.344 499.673 126.51 505.026 128.783 510.426C129.112 511.226 128.031 511.995 127.466 511.273C123.83 506.564 120.695 501.086 117.842 495.859C117.811 495.812 117.811 495.781 117.795 495.734C116.259 496.581 114.739 497.445 113.218 498.308C114.707 501.322 116.149 504.382 117.45 507.475C117.874 508.463 116.479 509.107 115.93 508.181C114.3 505.308 112.748 502.358 111.275 499.391C109.989 500.129 108.688 500.851 107.419 501.573C107.45 501.636 107.513 501.698 107.544 501.777C109.864 507.412 112.262 513.329 114.08 519.137C114.3 519.812 113.25 520.267 112.842 519.718C109.347 514.93 106.666 508.605 105.177 502.828C103.014 504.037 100.867 505.261 98.7193 506.47C98.7663 506.501 98.829 506.548 98.876 506.627C99.8322 507.914 100.475 509.452 101.196 510.896C101.995 512.45 102.81 513.989 103.531 515.574C104.017 516.641 102.528 517.269 101.948 516.327C101.07 514.946 100.287 513.486 99.4717 512.074C98.6566 510.677 97.6691 509.264 97.1205 507.741C97.0735 507.632 97.0735 507.522 97.0578 507.396C95.4747 508.291 93.9072 509.185 92.3084 510.064C92.3398 510.112 92.3711 510.127 92.3868 510.174C94.785 515.778 96.8384 521.554 99.1425 527.205C99.5971 528.335 97.9983 529.089 97.4183 528.021C94.5342 522.747 91.7912 517.128 89.9416 511.399C87.3239 512.874 84.7063 514.35 82.0886 515.825C82.3551 515.825 82.6059 515.982 82.8253 516.28C83.8442 517.677 84.5182 519.325 85.2862 520.864C86.117 522.527 87.0104 524.191 87.6844 525.934C88.0293 526.86 86.7753 527.849 86.1483 526.938C85.1608 525.525 84.3458 524.003 83.4993 522.48C82.6059 520.879 81.5087 519.263 80.866 517.52C80.7093 517.128 80.819 516.72 81.0228 516.406C79.2202 517.426 77.4176 518.446 75.6307 519.451C78.8126 524.599 81.3362 530.595 83.7188 536.152C84.236 537.392 82.5275 538.161 81.8692 537.031C78.844 531.851 75.5994 526.295 73.3579 520.722C71.8375 521.586 70.3327 522.433 68.8123 523.281C69.4863 524.646 69.9252 526.216 70.4581 527.629C71.0381 529.214 71.6024 530.784 72.104 532.385C72.4018 533.358 70.897 533.766 70.4738 532.918C69.6587 531.302 68.9377 529.638 68.2323 527.99C67.7308 526.828 67.1195 525.667 66.7119 524.474C65.7871 524.992 64.8466 525.525 63.9218 526.043C62.903 526.609 61.8842 527.174 60.881 527.754C64.3607 532.824 67.1351 538.365 68.7496 544.314C69.0788 545.476 67.2292 546.025 66.7903 544.958C64.4548 539.37 61.8058 534.143 58.3887 529.151C55.1598 530.988 51.9152 532.793 48.6862 534.629C51.2255 539.841 53.7177 545.837 55.0344 551.44C55.2695 552.382 53.9842 552.602 53.561 551.911C50.6142 547.202 48.1533 541.316 46.2723 536.011C44.5795 536.984 42.871 537.91 41.1781 538.883C41.2095 539.888 41.2095 540.908 41.3192 541.928C41.4446 542.022 41.5543 542.132 41.6327 542.305C42.1186 543.592 42.3067 544.942 42.8396 546.198C43.3726 547.453 44.0466 548.615 44.7519 549.776C45.1908 550.546 44.0779 551.032 43.545 550.546C42.244 549.321 41.0057 547.485 40.316 545.585C39.548 543.859 39.0464 541.944 38.9994 540.107C36.3974 541.567 33.8111 543.043 31.1934 544.487C33.7641 549.698 36.4601 555.003 38.3724 560.497C38.6232 561.235 37.6043 562.082 37.1184 561.313C33.9208 556.432 31.3502 551.079 28.7952 545.837C27.5256 546.527 26.256 547.234 24.9863 547.94C25.1274 548.066 25.2215 548.238 25.2528 548.427C25.5036 549.667 25.5663 550.907 25.9425 552.115C26.3187 553.371 26.883 554.564 27.5413 555.678C28.0272 556.51 26.6949 557.342 26.1463 556.589C24.5945 554.454 23.2465 551.676 23.1054 548.976C21.3185 549.933 19.5473 550.907 17.7604 551.864C20.5661 556.746 22.4941 562.459 23.0427 568.047C23.1838 569.381 21.3028 569.742 20.9737 568.424C19.6257 563.024 17.8074 558.08 15.2681 553.151C10.9106 555.427 6.53742 557.656 2.11721 559.791L0.988644 560.481C0.957295 560.356 0.988644 560.246 1.01999 560.136C0.0168234 560.073 -0.422063 558.551 0.62813 557.907C20.6758 545.381 41.8835 534.551 62.5111 523.03C83.1702 511.477 103.798 499.862 124.378 488.184C165.524 464.78 206.529 441.141 247.392 417.236C248.693 416.482 249.775 417.738 249.696 418.931C249.822 418.633 250.025 418.397 250.276 418.225Z" fill="#222221"/>
<path d="M248.834 420.297C249.21 420.077 249.446 419.763 249.571 419.434C249.571 419.638 249.602 419.857 249.696 420.093C254.477 432.603 261.154 444.611 268.427 455.849C267.111 456.901 265.794 457.937 264.509 459.02C264.415 459.051 264.321 459.098 264.227 459.177C225.385 485.594 184.067 507.899 142.624 529.874C122.231 540.673 101.807 551.44 81.6185 562.616C63.0755 572.897 43.4353 582.896 26.3501 595.626C22.5098 589.457 18.5128 583.351 14.5629 577.245C10.7383 571.344 7.43095 564.39 2.08594 559.744C6.52183 557.609 10.8793 555.38 15.2369 553.104C17.7761 558.033 19.5944 562.977 20.9424 568.377C21.2716 569.711 23.1368 569.334 23.0114 568C22.4628 562.397 20.5349 556.699 17.7291 551.817C19.5317 550.86 21.3029 549.887 23.0741 548.929C23.2152 551.629 24.5632 554.407 26.115 556.542C26.6793 557.311 27.9959 556.463 27.51 555.631C26.8517 554.517 26.2874 553.324 25.9112 552.068C25.535 550.86 25.488 549.62 25.2215 548.38C25.1902 548.176 25.0805 548.019 24.9551 547.893C26.2404 547.187 27.4943 546.48 28.764 545.79C31.3189 551.032 33.8895 556.385 37.0871 561.266C37.5731 562.051 38.5919 561.204 38.3411 560.45C36.4288 554.956 33.7328 549.651 31.1622 544.44C33.7641 542.996 36.3661 541.52 38.9681 540.061C39.0151 541.897 39.5167 543.812 40.2848 545.539C40.9744 547.438 42.2127 549.274 43.5137 550.499C44.0623 550.985 45.1752 550.499 44.7206 549.73C44.0153 548.568 43.3256 547.407 42.8083 546.151C42.2754 544.879 42.0873 543.545 41.6014 542.258C41.523 542.085 41.4133 541.976 41.2879 541.881C41.1939 540.861 41.1782 539.841 41.1468 538.836C42.8397 537.863 44.5482 536.937 46.2411 535.964C48.1063 541.269 50.5829 547.155 53.5297 551.864C53.9686 552.571 55.2382 552.335 55.0031 551.393C53.7021 545.79 51.1942 539.809 48.6549 534.583C51.8839 532.746 55.1285 530.941 58.3575 529.104C61.7902 534.096 64.4235 539.323 66.759 544.911C67.1979 545.978 69.0475 545.429 68.7183 544.267C67.1039 538.318 64.3295 532.777 60.8497 527.707C61.8529 527.127 62.8717 526.546 63.8906 525.997C64.8154 525.479 65.7558 524.945 66.6806 524.427C67.0882 525.62 67.6995 526.781 68.2011 527.943C68.9064 529.591 69.6431 531.255 70.4425 532.872C70.8501 533.704 72.3705 533.311 72.0727 532.338C71.5711 530.737 71.0068 529.167 70.4269 527.582C69.9096 526.169 69.4707 524.6 68.781 523.234C70.3015 522.371 71.8062 521.523 73.3266 520.676C75.5681 526.248 78.8127 531.804 81.8379 536.984C82.5119 538.114 84.2204 537.345 83.6875 536.105C81.305 530.549 78.7814 524.553 75.5994 519.404C77.402 518.4 79.1889 517.379 80.9915 516.359C80.7877 516.673 80.678 517.081 80.8347 517.473C81.4774 519.2 82.5746 520.817 83.4681 522.433C84.3145 523.94 85.1296 525.479 86.1171 526.891C86.744 527.802 88.0137 526.829 87.6532 525.887C86.9948 524.129 86.1014 522.481 85.255 520.817C84.4869 519.279 83.8129 517.63 82.7941 516.233C82.5746 515.935 82.3238 515.794 82.0573 515.778C84.675 514.303 87.277 512.827 89.9103 511.352C91.7599 517.081 94.5186 522.685 97.387 527.974C97.967 529.042 99.5658 528.288 99.1112 527.158C96.8071 521.507 94.738 515.731 92.3555 510.128C92.3398 510.08 92.3085 510.065 92.2771 510.018C93.8759 509.139 95.4434 508.228 97.0265 507.349C97.0265 507.475 97.0422 507.6 97.0892 507.695C97.6378 509.217 98.641 510.63 99.4404 512.027C100.255 513.439 101.039 514.899 101.917 516.281C102.497 517.207 103.986 516.579 103.5 515.527C102.779 513.942 101.948 512.403 101.165 510.85C100.444 509.421 99.8009 507.867 98.8448 506.58C98.7977 506.517 98.735 506.47 98.688 506.423C100.835 505.199 102.983 503.99 105.146 502.782C106.619 508.558 109.3 514.884 112.811 519.671C113.218 520.22 114.268 519.781 114.049 519.09C112.246 513.267 109.833 507.349 107.513 501.73C107.481 501.651 107.419 501.589 107.387 501.526C108.657 500.804 109.958 500.082 111.243 499.344C112.732 502.311 114.284 505.262 115.899 508.134C116.447 509.06 117.827 508.417 117.419 507.428C116.118 504.336 114.676 501.275 113.187 498.261C114.723 497.398 116.243 496.534 117.764 495.687C117.764 495.734 117.78 495.781 117.811 495.812C120.648 501.039 123.799 506.517 127.435 511.226C127.999 511.964 129.081 511.179 128.752 510.379C126.479 504.995 123.313 499.627 120.225 494.667C120.162 494.572 120.068 494.51 119.99 494.4C121.902 493.332 123.814 492.249 125.742 491.182C126.056 491.009 126.354 490.821 126.651 490.648C126.667 490.742 126.651 490.805 126.698 490.884C128.156 494.525 129.551 498.135 130.883 501.84C131.134 502.546 132.247 502.154 132.122 501.432C131.432 497.57 130.272 493.552 128.767 489.926C128.689 489.785 128.626 489.675 128.532 489.581C129.739 488.89 130.946 488.2 132.153 487.525C132.153 487.729 132.184 487.964 132.31 488.184C135.084 493.332 137.984 498.449 141.119 503.394C141.777 504.414 143.439 503.739 142.89 502.578C140.414 497.288 137.639 492.124 134.802 487.038C134.614 486.724 134.363 486.536 134.097 486.426C136.432 485.107 138.783 483.758 141.119 482.423C141.464 484.166 142.357 485.861 143.016 487.509C143.768 489.361 144.458 491.245 145.288 493.05C145.727 493.992 147.404 493.536 147.075 492.469C146.542 490.695 145.884 488.969 145.257 487.226C144.599 485.39 144.113 483.271 143.094 481.607C143.031 481.529 142.969 481.466 142.89 481.403C144.928 480.242 146.95 479.08 148.988 477.918C151.041 483.287 153.831 488.545 156.151 493.819C156.48 494.604 157.765 494.211 157.562 493.379C156.214 487.76 154.207 481.623 151.088 476.741C154.74 474.669 158.361 472.55 161.997 470.478C161.919 470.729 161.935 471.028 162.076 471.326C164.458 476.365 167.154 481.34 170.227 485.971C170.838 486.928 172.374 485.908 171.888 484.919C169.49 479.975 166.951 475.109 164.49 470.196C164.286 469.803 163.988 469.584 163.659 469.505C166.183 468.061 168.706 466.617 171.214 465.157C173.283 468.799 174.929 472.252 175.681 476.412C175.885 477.495 177.452 477.181 177.343 476.098C176.904 471.922 175.556 467.527 173.079 464.074C175.086 462.928 177.092 461.767 179.098 460.621C178.581 460.856 178.221 461.453 178.534 462.191C180.587 467.041 183.613 471.875 186.356 476.349C186.904 477.259 188.331 476.647 187.892 475.642C185.791 470.824 183.566 465.581 180.776 461.155C180.352 460.495 179.647 460.401 179.114 460.621C181.873 459.051 184.6 457.466 187.359 455.881C187.202 456.038 187.092 456.242 187.092 456.556C187.092 460.951 189.428 466.099 192.406 469.285C192.892 469.788 193.895 469.254 193.488 468.579C192.422 466.743 191.34 464.985 190.619 463.007C189.804 460.841 189.585 458.675 189.099 456.43C188.958 455.755 188.237 455.504 187.688 455.692C192.03 453.181 196.372 450.685 200.729 448.174C201.685 452.161 203.112 456.116 204.413 460.009C204.695 460.856 206.121 460.386 205.917 459.522C204.946 455.504 204.052 451.344 202.735 447.42C202.688 447.295 202.626 447.216 202.563 447.122C203.974 446.306 205.416 445.49 206.827 444.673C206.842 444.768 206.842 444.846 206.889 444.94C207.939 447.53 209.35 449.995 210.62 452.475C211.78 454.719 212.846 457.058 214.335 459.083C214.789 459.695 215.902 459.177 215.698 458.439C215.024 456.006 213.849 453.73 212.799 451.454C211.623 448.927 210.541 446.306 209.146 443.873C209.068 443.716 208.943 443.606 208.833 443.496C210.777 442.382 212.72 441.236 214.664 440.121C215.244 444.093 217.423 448.252 219.758 451.376C220.401 452.223 221.89 451.282 221.357 450.356C220.26 448.535 219.241 446.683 218.441 444.705C217.689 442.806 217.297 440.859 216.686 438.929C218.097 438.128 219.492 437.296 220.887 436.496C220.902 436.59 220.902 436.668 220.934 436.762C222.783 441.66 225.824 446.541 228.52 451.03C229.116 452.035 230.683 451.36 230.182 450.23C228.05 445.317 225.793 439.996 222.799 435.538C222.783 435.491 222.736 435.475 222.705 435.428C231.42 430.374 240.119 425.335 248.819 420.266L248.834 420.297ZM250.825 449.775C249.336 447.342 246.185 446.102 243.568 447.31C243.207 447.044 242.768 446.949 242.298 447.232C239.351 448.896 238.599 453.008 240.198 455.896C241.89 458.926 245.699 459.491 248.552 457.811C251.389 456.148 252.596 452.663 250.841 449.775H250.825ZM194.757 453.087C193.848 451.753 191.951 453.385 192.845 454.703C195.995 459.318 198.409 464.153 200.886 469.144C201.262 469.898 202.579 469.552 202.359 468.673C200.823 463.101 198.002 457.843 194.757 453.087ZM159.176 473.869C158.784 472.503 156.966 472.864 157.044 474.261C157.279 478.06 159.113 482.361 160.947 485.657C161.512 486.63 162.985 485.971 162.546 484.903C161.794 483.051 161.041 481.215 160.477 479.3C159.96 477.51 159.725 475.658 159.176 473.869ZM55.8966 532.307C55.3166 531.318 53.6394 531.71 53.8902 532.95C54.2037 534.488 55.0188 535.932 55.6301 537.376C56.2884 538.93 56.9154 540.516 57.6364 542.038C58.0126 542.807 59.3763 542.431 59.1255 541.552C58.671 540.045 58.138 538.569 57.6364 537.078C57.1035 535.524 56.7116 533.735 55.8966 532.307ZM40.0026 576.021C40.7393 575.346 39.9713 574.122 39.0465 574.53C36.3504 575.707 33.9522 577.355 31.1935 578.438C30.0963 578.846 30.8957 580.4 31.9459 580.039C34.7046 579.113 37.8082 577.999 39.9869 576.021H40.0026ZM40.2691 580.934C41.0842 580.322 40.2221 579.129 39.3443 579.49C35.9743 580.871 32.7296 583.194 29.6261 585.109C28.7953 585.627 29.3753 586.977 30.2844 586.506C33.5917 584.795 37.2909 583.163 40.2691 580.918V580.934Z" fill="#B4D6DB"/>
<path d="M243.582 447.326C246.2 446.117 249.351 447.357 250.84 449.79C252.611 452.678 251.388 456.163 248.551 457.827C245.698 459.506 241.89 458.941 240.197 455.912C238.598 453.024 239.35 448.911 242.297 447.247C242.767 446.965 243.222 447.059 243.567 447.326H243.582ZM247.407 455.268C250.965 452.82 247.532 448.581 244.147 448.77C244.1 449.037 243.99 449.288 243.755 449.492C240.4 452.333 243.363 458.046 247.423 455.268H247.407Z" fill="#222221"/>
<path d="M192.843 454.719C191.949 453.4 193.846 451.768 194.755 453.102C198 457.858 200.821 463.117 202.357 468.689C202.592 469.568 201.26 469.913 200.884 469.16C198.407 464.153 195.993 459.334 192.843 454.719Z" fill="#222221"/>
<path d="M179.127 460.636C179.66 460.417 180.365 460.527 180.788 461.17C183.578 465.612 185.804 470.855 187.904 475.658C188.343 476.663 186.917 477.29 186.368 476.364C183.625 471.891 180.6 467.056 178.547 462.206C178.233 461.468 178.594 460.872 179.111 460.636H179.127Z" fill="#222221"/>
<path d="M157.045 474.261C156.982 472.864 158.784 472.503 159.176 473.869C159.725 475.658 159.944 477.51 160.477 479.3C161.042 481.23 161.794 483.067 162.546 484.903C162.985 485.971 161.512 486.63 160.948 485.657C159.114 482.376 157.295 478.075 157.045 474.261Z" fill="#222221"/>
<path d="M53.8887 532.95C53.6379 531.71 55.315 531.318 55.895 532.306C56.7101 533.751 57.1176 535.524 57.6349 537.078C58.1521 538.569 58.6851 540.045 59.1239 541.552C59.3747 542.431 58.0111 542.807 57.6349 542.038C56.9138 540.516 56.2869 538.93 55.6285 537.376C55.0172 535.932 54.2178 534.473 53.8887 532.95Z" fill="#222221"/>
<path d="M39.0466 574.514C39.9714 574.106 40.7395 575.346 40.0028 576.005C37.8084 577.983 34.7205 579.113 31.9618 580.024C30.8959 580.385 30.1122 578.815 31.2094 578.423C33.9681 577.34 36.3663 575.691 39.0623 574.514H39.0466Z" fill="#222221"/>
<path d="M39.3415 579.489C40.2193 579.128 41.0971 580.321 40.2663 580.933C37.2881 583.162 33.5733 584.81 30.2816 586.521C29.3725 586.976 28.7926 585.626 29.6233 585.124C32.7269 583.209 35.9715 580.886 39.3415 579.504V579.489Z" fill="#222221"/>
</g>
<defs>
<clipPath id="clip0_547_1117">
<rect width="266" height="78.0024" fill="white" transform="matrix(-1 0 0 1 1645 0)"/>
</clipPath>
<clipPath id="clip1_547_1117">
<rect width="124.87" height="114.491" fill="white" transform="translate(74 71.9238)"/>
</clipPath>
<clipPath id="clip2_547_1117">
<rect width="180" height="115.484" fill="white" transform="translate(1465 781)"/>
</clipPath>
<clipPath id="clip3_547_1117">
<rect width="172.082" height="44.557" fill="white" transform="matrix(-0.978435 0.206553 0.206553 0.978435 193.371 896)"/>
</clipPath>
<clipPath id="clip4_547_1117">
<rect width="170.69" height="177.21" fill="white" transform="translate(1490 372)"/>
</clipPath>
<clipPath id="clip5_547_1117">
<rect width="272" height="182" fill="white" transform="translate(0 417)"/>
</clipPath>
</defs>
</svg>
