<svg width="1736" height="1821" viewBox="0 0 1736 1821" fill="none" xmlns="http://www.w3.org/2000/svg">
<g clip-path="url(#clip0_549_1201)">
<path opacity="0.5" d="M1736 110.476H1734.46V109H1.54164V110.476H0V1819.48H1.54164V1821H1734.44V1819.48H1735.99V110.476H1736ZM869.542 963.474V913.133H920.584V963.474H869.542ZM866.458 913.133V963.474H815.416V913.133H866.458ZM866.458 966.526V1016.87H815.416V966.526H866.458ZM869.542 966.526H920.584V1016.87H869.542V966.526ZM920.584 910.095H869.542V859.754H920.584V910.095ZM866.458 910.095H815.416V859.754H866.458V910.095ZM923.681 1016.85V966.511H974.724V1016.85H923.681ZM923.681 963.474V913.133H974.724V963.474H923.681ZM923.681 910.095V859.754H974.724V910.095H923.681ZM812.319 859.754V910.095H761.276V859.754H812.319ZM812.319 913.133V963.474H761.276V913.133H812.319ZM812.319 966.526V1016.87H761.276V966.526H812.319ZM812.319 1019.9V1070.25H761.276V1019.9H812.319ZM815.402 1019.9H866.444V1070.25H815.402V1019.9ZM869.542 1019.9H920.584V1070.25H869.542V1019.9ZM923.681 1019.9H974.724V1070.25H923.681V1019.9ZM974.724 856.702H923.681V806.361H974.724V856.702ZM920.584 856.702H869.542V806.361H920.584V856.702ZM866.458 856.702H815.416V806.361H866.458V856.702ZM812.319 856.702H761.276V806.361H812.319V856.702ZM977.807 1070.25V1019.9H1028.85V1070.25H977.807ZM977.807 1016.85V966.511H1028.85V1016.85H977.807ZM977.807 963.474V913.133H1028.85V963.474H977.807ZM977.807 910.095V859.754H1028.85V910.095H977.807ZM977.807 856.702V806.361H1028.85V856.702H977.807ZM758.193 806.361V856.702H707.151V806.361H758.193ZM758.193 859.754V910.095H707.151V859.754H758.193ZM758.193 913.133V963.474H707.151V913.133H758.193ZM758.193 966.526V1016.87H707.151V966.526H758.193ZM758.193 1019.9V1070.25H707.151V1019.9H758.193ZM758.193 1073.3V1123.64H707.151V1073.3H758.193ZM761.276 1073.3H812.319V1123.64H761.276V1073.3ZM815.402 1073.3H866.444V1123.64H815.402V1073.3ZM869.542 1073.3H920.584V1123.64H869.542V1073.3ZM923.681 1073.3H974.724V1123.64H923.681V1073.3ZM977.807 1073.3H1028.85V1123.64H977.807V1073.3ZM1028.85 803.323H977.807V752.982H1028.85V803.323ZM974.724 803.323H923.681V752.982H974.724V803.323ZM920.584 803.323H869.542V752.982H920.584V803.323ZM866.458 803.323H815.416V752.982H866.458V803.323ZM812.319 803.323H761.276V752.982H812.319V803.323ZM758.193 803.323H707.151V752.982H758.193V803.323ZM1031.95 1123.63V1073.28H1083.14V1123.63H1031.95ZM1031.95 1070.25V1019.9H1083.14V1070.25H1031.95ZM1031.95 1016.85V966.511H1083.14V1016.85H1031.95ZM1031.95 963.474V913.133H1083.14V963.474H1031.95ZM1031.95 910.095V859.754H1083.14V910.095H1031.95ZM1031.95 856.702V806.361H1083.14V856.702H1031.95ZM1031.95 803.323V752.982H1083.14V803.323H1031.95ZM704.053 752.982V803.323H653.011V752.982H704.053ZM704.053 806.361V856.702H653.011V806.361H704.053ZM704.053 859.754V910.095H653.011V859.754H704.053ZM704.053 913.133V963.474H653.011V913.133H704.053ZM704.053 966.526V1016.87H653.011V966.526H704.053ZM704.053 1019.9V1070.25H653.011V1019.9H704.053ZM704.053 1073.3V1123.64H653.011V1073.3H704.053ZM704.053 1126.68V1177.17H653.011V1126.68H704.053ZM707.137 1126.68H758.179V1177.17H707.137V1126.68ZM761.276 1126.68H812.319V1177.17H761.276V1126.68ZM815.402 1126.68H866.444V1177.17H815.402V1126.68ZM869.542 1126.68H920.584V1177.17H869.542V1126.68ZM923.681 1126.68H974.724V1177.17H923.681V1126.68ZM977.807 1126.68H1028.85V1177.17H977.807V1126.68ZM1031.95 1126.68H1083.14V1177.17H1031.95V1126.68ZM1083.14 749.93H1031.95V699.432H1083.14V749.93ZM1028.85 749.93H977.807V699.432H1028.85V749.93ZM974.724 749.93H923.681V699.432H974.724V749.93ZM920.584 749.93H869.542V699.432H920.584V749.93ZM866.458 749.93H815.416V699.432H866.458V749.93ZM812.319 749.93H761.276V699.432H812.319V749.93ZM758.193 749.93H707.151V699.432H758.193V749.93ZM704.053 749.93H653.011V699.432H704.053V749.93ZM1086.24 1177.17V1126.68H1137.28V1177.17H1086.24ZM1086.24 1123.63V1073.28H1137.28V1123.63H1086.24ZM1086.24 1070.25V1019.9H1137.28V1070.25H1086.24ZM1086.24 1016.85V966.511H1137.28V1016.85H1086.24ZM1086.24 963.474V913.133H1137.28V963.474H1086.24ZM1086.24 910.095V859.754H1137.28V910.095H1086.24ZM1086.24 856.702V806.361H1137.28V856.702H1086.24ZM1086.24 803.323V752.982H1137.28V803.323H1086.24ZM1086.24 749.93V699.432H1137.28V749.93H1086.24ZM649.914 699.432V749.93H598.703V699.432H649.914ZM649.914 752.982V803.323H598.703V752.982H649.914ZM649.914 806.361V856.702H598.703V806.361H649.914ZM649.914 859.754V910.095H598.703V859.754H649.914ZM649.914 913.133V963.474H598.703V913.133H649.914ZM649.914 966.526V1016.87H598.703V966.526H649.914ZM649.914 1019.9V1070.25H598.703V1019.9H649.914ZM649.914 1073.3V1123.64H598.703V1073.3H649.914ZM649.914 1126.68V1177.17H598.703V1126.68H649.914ZM649.914 1180.21V1230.55H598.703V1180.21H649.914ZM653.011 1180.21H704.053V1230.55H653.011V1180.21ZM707.137 1180.21H758.179V1230.55H707.137V1180.21ZM761.276 1180.21H812.319V1230.55H761.276V1180.21ZM815.402 1180.21H866.444V1230.55H815.402V1180.21ZM869.542 1180.21H920.584V1230.55H869.542V1180.21ZM923.681 1180.21H974.724V1230.55H923.681V1180.21ZM977.807 1180.21H1028.85V1230.55H977.807V1180.21ZM1031.95 1180.21H1083.14V1230.55H1031.95V1180.21ZM1086.24 1180.21H1137.28V1230.55H1086.24V1180.21ZM1137.28 696.395H1086.24V646.053H1137.28V696.395ZM1083.14 696.395H1031.95V646.053H1083.14V696.395ZM1028.85 696.395H977.807V646.053H1028.85V696.395ZM974.724 696.395H923.681V646.053H974.724V696.395ZM920.584 696.395H869.542V646.053H920.584V696.395ZM866.458 696.395H815.416V646.053H866.458V696.395ZM812.319 696.395H761.276V646.053H812.319V696.395ZM758.193 696.395H707.151V646.053H758.193V696.395ZM704.053 696.395H653.011V646.053H704.053V696.395ZM649.914 696.395H598.703V646.053H649.914V696.395ZM1140.37 1230.55V1180.21H1191.41V1230.55H1140.37ZM1140.37 1177.17V1126.68H1191.41V1177.17H1140.37ZM1140.37 1123.63V1073.28H1191.41V1123.63H1140.37ZM1140.37 1070.25V1019.9H1191.41V1070.25H1140.37ZM1140.37 1016.85V966.511H1191.41V1016.85H1140.37ZM1140.37 963.474V913.133H1191.41V963.474H1140.37ZM1140.37 910.095V859.754H1191.41V910.095H1140.37ZM1140.37 856.702V806.361H1191.41V856.702H1140.37ZM1140.37 803.323V752.982H1191.41V803.323H1140.37ZM1140.37 749.93V699.432H1191.41V749.93H1140.37ZM1140.37 696.395V646.053H1191.41V696.395H1140.37ZM595.62 646.053V696.395H544.578V646.053H595.62ZM595.62 699.432V749.93H544.578V699.432H595.62ZM595.62 752.982V803.323H544.578V752.982H595.62ZM595.62 806.361V856.702H544.578V806.361H595.62ZM595.62 859.754V910.095H544.578V859.754H595.62ZM595.62 913.133V963.474H544.578V913.133H595.62ZM595.62 966.526V1016.87H544.578V966.526H595.62ZM595.62 1019.9V1070.25H544.578V1019.9H595.62ZM595.62 1073.3V1123.64H544.578V1073.3H595.62ZM595.62 1126.68V1177.17H544.578V1126.68H595.62ZM595.62 1180.21V1230.55H544.578V1180.21H595.62ZM595.62 1233.6V1283.95H544.578V1233.6H595.62ZM598.717 1233.6H649.928V1283.95H598.717V1233.6ZM653.011 1233.6H704.053V1283.95H653.011V1233.6ZM707.137 1233.6H758.179V1283.95H707.137V1233.6ZM761.276 1233.6H812.319V1283.95H761.276V1233.6ZM815.402 1233.6H866.444V1283.95H815.402V1233.6ZM869.542 1233.6H920.584V1283.95H869.542V1233.6ZM923.681 1233.6H974.724V1283.95H923.681V1233.6ZM977.807 1233.6H1028.85V1283.95H977.807V1233.6ZM1031.95 1233.6H1083.14V1283.95H1031.95V1233.6ZM1086.24 1233.6H1137.28V1283.95H1086.24V1233.6ZM1140.37 1233.6H1191.41V1283.95H1140.37V1233.6ZM1191.41 643.002H1140.37V592.66H1191.41V643.002ZM1137.28 643.002H1086.24V592.66H1137.28V643.002ZM1083.14 643.002H1031.95V592.66H1083.14V643.002ZM1028.85 643.002H977.807V592.66H1028.85V643.002ZM974.724 643.002H923.681V592.66H974.724V643.002ZM920.584 643.002H869.542V592.66H920.584V643.002ZM866.458 643.002H815.416V592.66H866.458V643.002ZM812.319 643.002H761.276V592.66H812.319V643.002ZM758.193 643.002H707.151V592.66H758.193V643.002ZM704.053 643.002H653.011V592.66H704.053V643.002ZM649.914 643.002H598.703V592.66H649.914V643.002ZM595.62 643.002H544.578V592.66H595.62V643.002ZM1194.51 1283.95V1233.6H1245.55V1283.95H1194.51ZM1194.51 1230.55V1180.21H1245.55V1230.55H1194.51ZM1194.51 1177.17V1126.68H1245.55V1177.17H1194.51ZM1194.51 1123.63V1073.28H1245.55V1123.63H1194.51ZM1194.51 1070.25V1019.9H1245.55V1070.25H1194.51ZM1194.51 1016.85V966.511H1245.55V1016.85H1194.51ZM1194.51 963.474V913.133H1245.55V963.474H1194.51ZM1194.51 910.095V859.754H1245.55V910.095H1194.51ZM1194.51 856.702V806.361H1245.55V856.702H1194.51ZM1194.51 803.323V752.982H1245.55V803.323H1194.51ZM1194.51 749.93V699.432H1245.55V749.93H1194.51ZM1194.51 696.395V646.053H1245.55V696.395H1194.51ZM1194.51 643.002V592.66H1245.55V643.002H1194.51ZM541.494 592.675V643.016H490.452V592.675H541.494ZM541.494 646.053V696.395H490.452V646.053H541.494ZM541.494 699.432V749.93H490.452V699.432H541.494ZM541.494 752.982V803.323H490.452V752.982H541.494ZM541.494 806.361V856.702H490.452V806.361H541.494ZM541.494 859.754V910.095H490.452V859.754H541.494ZM541.494 913.133V963.474H490.452V913.133H541.494ZM541.494 966.526V1016.87H490.452V966.526H541.494ZM541.494 1019.9V1070.25H490.452V1019.9H541.494ZM541.494 1073.3V1123.64H490.452V1073.3H541.494ZM541.494 1126.68V1177.17H490.452V1126.68H541.494ZM541.494 1180.21V1230.55H490.452V1180.21H541.494ZM541.494 1233.6V1283.95H490.452V1233.6H541.494ZM541.494 1286.98V1337.33H490.452V1286.98H541.494ZM544.578 1286.98H595.62V1337.33H544.578V1286.98ZM598.717 1286.98H649.928V1337.33H598.717V1286.98ZM653.011 1286.98H704.053V1337.33H653.011V1286.98ZM707.137 1286.98H758.179V1337.33H707.137V1286.98ZM761.276 1286.98H812.319V1337.33H761.276V1286.98ZM815.402 1286.98H866.444V1337.33H815.402V1286.98ZM869.542 1286.98H920.584V1337.33H869.542V1286.98ZM923.681 1286.98H974.724V1337.33H923.681V1286.98ZM977.807 1286.98H1028.85V1337.33H977.807V1286.98ZM1031.95 1286.98H1083.14V1337.33H1031.95V1286.98ZM1086.24 1286.98H1137.28V1337.33H1086.24V1286.98ZM1140.37 1286.98H1191.41V1337.33H1140.37V1286.98ZM1194.51 1286.98H1245.55V1337.33H1194.51V1286.98ZM1245.55 589.623H1194.51V539.282H1245.55V589.623ZM1191.41 589.623H1140.37V539.282H1191.41V589.623ZM1137.28 589.623H1086.24V539.282H1137.28V589.623ZM1083.14 589.623H1031.95V539.282H1083.14V589.623ZM1028.85 589.623H977.807V539.282H1028.85V589.623ZM974.724 589.623H923.681V539.282H974.724V589.623ZM920.584 589.623H869.542V539.282H920.584V589.623ZM866.458 589.623H815.416V539.282H866.458V589.623ZM812.319 589.623H761.276V539.282H812.319V589.623ZM758.193 589.623H707.151V539.282H758.193V589.623ZM704.053 589.623H653.011V539.282H704.053V589.623ZM649.914 589.623H598.703V539.282H649.914V589.623ZM595.62 589.623H544.578V539.282H595.62V589.623ZM541.494 589.623H490.452V539.282H541.494V589.623ZM1248.63 1337.33V1286.98H1299.67V1337.33H1248.63ZM1248.63 1283.95V1233.6H1299.67V1283.95H1248.63ZM1248.63 1230.55V1180.21H1299.67V1230.55H1248.63ZM1248.63 1177.17V1126.68H1299.67V1177.17H1248.63ZM1248.63 1123.63V1073.28H1299.67V1123.63H1248.63ZM1248.63 1070.25V1019.9H1299.67V1070.25H1248.63ZM1248.63 1016.85V966.511H1299.67V1016.85H1248.63ZM1248.63 963.474V913.133H1299.67V963.474H1248.63ZM1248.63 910.095V859.754H1299.67V910.095H1248.63ZM1248.63 856.702V806.361H1299.67V856.702H1248.63ZM1248.63 803.323V752.982H1299.67V803.323H1248.63ZM1248.63 749.93V699.432H1299.67V749.93H1248.63ZM1248.63 696.395V646.053H1299.67V696.395H1248.63ZM1248.63 643.002V592.66H1299.67V643.002H1248.63ZM1248.63 589.623V539.282H1299.67V589.623H1248.63ZM487.355 539.282V589.623H436.312V539.282H487.355ZM487.355 592.675V643.016H436.312V592.675H487.355ZM487.355 646.053V696.395H436.312V646.053H487.355ZM487.355 699.432V749.93H436.312V699.432H487.355ZM487.355 752.982V803.323H436.312V752.982H487.355ZM487.355 806.361V856.702H436.312V806.361H487.355ZM487.355 859.754V910.095H436.312V859.754H487.355ZM487.355 913.133V963.474H436.312V913.133H487.355ZM487.355 966.526V1016.87H436.312V966.526H487.355ZM487.355 1019.9V1070.25H436.312V1019.9H487.355ZM487.355 1073.3V1123.64H436.312V1073.3H487.355ZM487.355 1126.68V1177.17H436.312V1126.68H487.355ZM487.355 1180.21V1230.55H436.312V1180.21H487.355ZM487.355 1233.6V1283.95H436.312V1233.6H487.355ZM487.355 1286.98V1337.33H436.312V1286.98H487.355ZM487.355 1340.38V1390.72H436.312V1340.38H487.355ZM490.452 1340.38H541.494V1390.72H490.452V1340.38ZM544.578 1340.38H595.62V1390.72H544.578V1340.38ZM598.717 1340.38H649.928V1390.72H598.717V1340.38ZM653.011 1340.38H704.053V1390.72H653.011V1340.38ZM707.137 1340.38H758.179V1390.72H707.137V1340.38ZM761.276 1340.38H812.319V1390.72H761.276V1340.38ZM815.402 1340.38H866.444V1390.72H815.402V1340.38ZM869.542 1340.38H920.584V1390.72H869.542V1340.38ZM923.681 1340.38H974.724V1390.72H923.681V1340.38ZM977.807 1340.38H1028.85V1390.72H977.807V1340.38ZM1031.95 1340.38H1083.14V1390.72H1031.95V1340.38ZM1086.24 1340.38H1137.28V1390.72H1086.24V1340.38ZM1140.37 1340.38H1191.41V1390.72H1140.37V1340.38ZM1194.51 1340.38H1245.55V1390.72H1194.51V1340.38ZM1248.63 1340.38H1299.67V1390.72H1248.63V1340.38ZM1299.67 536.244H1248.63V485.903H1299.67V536.244ZM1245.55 536.244H1194.51V485.903H1245.55V536.244ZM1191.41 536.244H1140.37V485.903H1191.41V536.244ZM1137.28 536.244H1086.24V485.903H1137.28V536.244ZM1083.14 536.244H1031.95V485.903H1083.14V536.244ZM1028.85 536.244H977.807V485.903H1028.85V536.244ZM974.724 536.244H923.681V485.903H974.724V536.244ZM920.584 536.244H869.542V485.903H920.584V536.244ZM866.458 536.244H815.416V485.903H866.458V536.244ZM812.319 536.244H761.276V485.903H812.319V536.244ZM758.193 536.244H707.151V485.903H758.193V536.244ZM704.053 536.244H653.011V485.903H704.053V536.244ZM649.914 536.244H598.703V485.903H649.914V536.244ZM595.62 536.244H544.578V485.903H595.62V536.244ZM541.494 536.244H490.452V485.903H541.494V536.244ZM487.355 536.244H436.312V485.903H487.355V536.244ZM1302.77 1390.72V1340.38H1353.81V1390.72H1302.77ZM1302.77 1337.33V1286.98H1353.81V1337.33H1302.77ZM1302.77 1283.95V1233.6H1353.81V1283.95H1302.77ZM1302.77 1230.55V1180.21H1353.81V1230.55H1302.77ZM1302.77 1177.17V1126.68H1353.81V1177.17H1302.77ZM1302.77 1123.63V1073.28H1353.81V1123.63H1302.77ZM1302.77 1070.25V1019.9H1353.81V1070.25H1302.77ZM1302.77 1016.85V966.511H1353.81V1016.85H1302.77ZM1302.77 963.474V913.133H1353.81V963.474H1302.77ZM1302.77 910.095V859.754H1353.81V910.095H1302.77ZM1302.77 856.702V806.361H1353.81V856.702H1302.77ZM1302.77 803.323V752.982H1353.81V803.323H1302.77ZM1302.77 749.93V699.432H1353.81V749.93H1302.77ZM1302.77 696.395V646.053H1353.81V696.395H1302.77ZM1302.77 643.002V592.66H1353.81V643.002H1302.77ZM1302.77 589.623V539.282H1353.81V589.623H1302.77ZM1302.77 536.244V485.903H1353.81V536.244H1302.77ZM433.229 485.903V536.244H382.187V485.903H433.229ZM433.229 539.282V589.623H382.187V539.282H433.229ZM433.229 592.675V643.016H382.187V592.675H433.229ZM433.229 646.053V696.395H382.187V646.053H433.229ZM433.229 699.432V749.93H382.187V699.432H433.229ZM433.229 752.982V803.323H382.187V752.982H433.229ZM433.229 806.361V856.702H382.187V806.361H433.229ZM433.229 859.754V910.095H382.187V859.754H433.229ZM433.229 913.133V963.474H382.187V913.133H433.229ZM433.229 966.526V1016.87H382.187V966.526H433.229ZM433.229 1019.9V1070.25H382.187V1019.9H433.229ZM433.229 1073.3V1123.64H382.187V1073.3H433.229ZM433.229 1126.68V1177.17H382.187V1126.68H433.229ZM433.229 1180.21V1230.55H382.187V1180.21H433.229ZM433.229 1233.6V1283.95H382.187V1233.6H433.229ZM433.229 1286.98V1337.33H382.187V1286.98H433.229ZM433.229 1340.38V1390.72H382.187V1340.38H433.229ZM433.229 1393.76V1444.1H382.187V1393.76H433.229ZM436.312 1393.76H487.355V1444.1H436.312V1393.76ZM490.452 1393.76H541.494V1444.1H490.452V1393.76ZM544.578 1393.76H595.62V1444.1H544.578V1393.76ZM598.717 1393.76H649.928V1444.1H598.717V1393.76ZM653.011 1393.76H704.053V1444.1H653.011V1393.76ZM707.137 1393.76H758.179V1444.1H707.137V1393.76ZM761.276 1393.76H812.319V1444.1H761.276V1393.76ZM815.402 1393.76H866.444V1444.1H815.402V1393.76ZM869.542 1393.76H920.584V1444.1H869.542V1393.76ZM923.681 1393.76H974.724V1444.1H923.681V1393.76ZM977.807 1393.76H1028.85V1444.1H977.807V1393.76ZM1031.95 1393.76H1083.14V1444.1H1031.95V1393.76ZM1086.24 1393.76H1137.28V1444.1H1086.24V1393.76ZM1140.37 1393.76H1191.41V1444.1H1140.37V1393.76ZM1194.51 1393.76H1245.55V1444.1H1194.51V1393.76ZM1248.63 1393.76H1299.67V1444.1H1248.63V1393.76ZM1302.77 1393.76H1353.81V1444.1H1302.77V1393.76ZM1353.81 482.851H1302.77V432.509H1353.81V482.851ZM1299.67 482.851H1248.63V432.509H1299.67V482.851ZM1245.55 482.851H1194.51V432.509H1245.55V482.851ZM1191.41 482.851H1140.37V432.509H1191.41V482.851ZM1137.28 482.851H1086.24V432.509H1137.28V482.851ZM1083.14 482.851H1031.95V432.509H1083.14V482.851ZM1028.85 482.851H977.807V432.509H1028.85V482.851ZM974.724 482.851H923.681V432.509H974.724V482.851ZM920.584 482.851H869.542V432.509H920.584V482.851ZM866.458 482.851H815.416V432.509H866.458V482.851ZM812.319 482.851H761.276V432.509H812.319V482.851ZM758.193 482.851H707.151V432.509H758.193V482.851ZM704.053 482.851H653.011V432.509H704.053V482.851ZM649.914 482.851H598.703V432.509H649.914V482.851ZM595.62 482.851H544.578V432.509H595.62V482.851ZM541.494 482.851H490.452V432.509H541.494V482.851ZM487.355 482.851H436.312V432.509H487.355V482.851ZM433.229 482.851H382.187V432.509H433.229V482.851ZM1356.9 1444.1V1393.76H1407.94V1444.1H1356.9ZM1356.9 1390.72V1340.38H1407.94V1390.72H1356.9ZM1356.9 1337.33V1286.98H1407.94V1337.33H1356.9ZM1356.9 1283.95V1233.6H1407.94V1283.95H1356.9ZM1356.9 1230.55V1180.21H1407.94V1230.55H1356.9ZM1356.9 1177.17V1126.68H1407.94V1177.17H1356.9ZM1356.9 1123.63V1073.28H1407.94V1123.63H1356.9ZM1356.9 1070.25V1019.9H1407.94V1070.25H1356.9ZM1356.9 1016.85V966.511H1407.94V1016.85H1356.9ZM1356.9 963.474V913.133H1407.94V963.474H1356.9ZM1356.9 910.095V859.754H1407.94V910.095H1356.9ZM1356.9 856.702V806.361H1407.94V856.702H1356.9ZM1356.9 803.323V752.982H1407.94V803.323H1356.9ZM1356.9 749.93V699.432H1407.94V749.93H1356.9ZM1356.9 696.395V646.053H1407.94V696.395H1356.9ZM1356.9 643.002V592.66H1407.94V643.002H1356.9ZM1356.9 589.623V539.282H1407.94V589.623H1356.9ZM1356.9 536.244V485.903H1407.94V536.244H1356.9ZM1356.9 482.851V432.509H1407.94V482.851H1356.9ZM379.089 432.509V482.851H328.047V432.509H379.089ZM379.089 485.903V536.244H328.047V485.903H379.089ZM379.089 539.282V589.623H328.047V539.282H379.089ZM379.089 592.675V643.016H328.047V592.675H379.089ZM379.089 646.053V696.395H328.047V646.053H379.089ZM379.089 699.432V749.93H328.047V699.432H379.089ZM379.089 752.982V803.323H328.047V752.982H379.089ZM379.089 806.361V856.702H328.047V806.361H379.089ZM379.089 859.754V910.095H328.047V859.754H379.089ZM379.089 913.133V963.474H328.047V913.133H379.089ZM379.089 966.526V1016.87H328.047V966.526H379.089ZM379.089 1019.9V1070.25H328.047V1019.9H379.089ZM379.089 1073.3V1123.64H328.047V1073.3H379.089ZM379.089 1126.68V1177.17H328.047V1126.68H379.089ZM379.089 1180.21V1230.55H328.047V1180.21H379.089ZM379.089 1233.6V1283.95H328.047V1233.6H379.089ZM379.089 1286.98V1337.33H328.047V1286.98H379.089ZM379.089 1340.38V1390.72H328.047V1340.38H379.089ZM379.089 1393.76V1444.1H328.047V1393.76H379.089ZM379.089 1447.15V1497.49H328.047V1447.15H379.089ZM382.187 1447.15H433.229V1497.49H382.187V1447.15ZM436.312 1447.15H487.355V1497.49H436.312V1447.15ZM490.452 1447.15H541.494V1497.49H490.452V1447.15ZM544.578 1447.15H595.62V1497.49H544.578V1447.15ZM598.717 1447.15H649.928V1497.49H598.717V1447.15ZM653.011 1447.15H704.053V1497.49H653.011V1447.15ZM707.137 1447.15H758.179V1497.49H707.137V1447.15ZM761.276 1447.15H812.319V1497.49H761.276V1447.15ZM815.402 1447.15H866.444V1497.49H815.402V1447.15ZM869.542 1447.15H920.584V1497.49H869.542V1447.15ZM923.681 1447.15H974.724V1497.49H923.681V1447.15ZM977.807 1447.15H1028.85V1497.49H977.807V1447.15ZM1031.95 1447.15H1083.14V1497.49H1031.95V1447.15ZM1086.24 1447.15H1137.28V1497.49H1086.24V1447.15ZM1140.37 1447.15H1191.41V1497.49H1140.37V1447.15ZM1194.51 1447.15H1245.55V1497.49H1194.51V1447.15ZM1248.63 1447.15H1299.67V1497.49H1248.63V1447.15ZM1302.77 1447.15H1353.81V1497.49H1302.77V1447.15ZM1356.9 1447.15H1407.94V1497.49H1356.9V1447.15ZM1407.95 429.472H1356.91V379.131H1407.95V429.472ZM1353.81 429.472H1302.77V379.131H1353.81V429.472ZM1299.67 429.472H1248.63V379.131H1299.67V429.472ZM1245.55 429.472H1194.51V379.131H1245.55V429.472ZM1191.41 429.472H1140.37V379.131H1191.41V429.472ZM1137.28 429.472H1086.24V379.131H1137.28V429.472ZM1083.14 429.472H1031.95V379.131H1083.14V429.472ZM1028.85 429.472H977.807V379.131H1028.85V429.472ZM974.724 429.472H923.681V379.131H974.724V429.472ZM920.584 429.472H869.542V379.131H920.584V429.472ZM866.458 429.472H815.416V379.131H866.458V429.472ZM812.319 429.472H761.276V379.131H812.319V429.472ZM758.193 429.472H707.151V379.131H758.193V429.472ZM704.053 429.472H653.011V379.131H704.053V429.472ZM649.914 429.472H598.703V379.131H649.914V429.472ZM595.62 429.472H544.578V379.131H595.62V429.472ZM541.494 429.472H490.452V379.131H541.494V429.472ZM487.355 429.472H436.312V379.131H487.355V429.472ZM433.229 429.472H382.187V379.131H433.229V429.472ZM379.089 429.472H328.047V379.131H379.089V429.472ZM1411.04 1497.48V1447.13H1462.08V1497.48H1411.04ZM1411.04 1444.1V1393.76H1462.08V1444.1H1411.04ZM1411.04 1390.72V1340.38H1462.08V1390.72H1411.04ZM1411.04 1337.33V1286.98H1462.08V1337.33H1411.04ZM1411.04 1283.95V1233.6H1462.08V1283.95H1411.04ZM1411.04 1230.55V1180.21H1462.08V1230.55H1411.04ZM1411.04 1177.17V1126.68H1462.08V1177.17H1411.04ZM1411.04 1123.63V1073.28H1462.08V1123.63H1411.04ZM1411.04 1070.25V1019.9H1462.08V1070.25H1411.04ZM1411.04 1016.85V966.511H1462.08V1016.85H1411.04ZM1411.04 963.474V913.133H1462.08V963.474H1411.04ZM1411.04 910.095V859.754H1462.08V910.095H1411.04ZM1411.04 856.702V806.361H1462.08V856.702H1411.04ZM1411.04 803.323V752.982H1462.08V803.323H1411.04ZM1411.04 749.93V699.432H1462.08V749.93H1411.04ZM1411.04 696.395V646.053H1462.08V696.395H1411.04ZM1411.04 643.002V592.66H1462.08V643.002H1411.04ZM1411.04 589.623V539.282H1462.08V589.623H1411.04ZM1411.04 536.244V485.903H1462.08V536.244H1411.04ZM1411.04 482.851V432.509H1462.08V482.851H1411.04ZM1411.04 429.472V379.131H1462.08V429.472H1411.04ZM324.964 379.131V429.472H273.922V379.131H324.964ZM324.964 432.509V482.851H273.922V432.509H324.964ZM324.964 485.903V536.244H273.922V485.903H324.964ZM324.964 539.282V589.623H273.922V539.282H324.964ZM324.964 592.675V643.016H273.922V592.675H324.964ZM324.964 646.053V696.395H273.922V646.053H324.964ZM324.964 699.432V749.93H273.922V699.432H324.964ZM324.964 752.982V803.323H273.922V752.982H324.964ZM324.964 806.361V856.702H273.922V806.361H324.964ZM324.964 859.754V910.095H273.922V859.754H324.964ZM324.964 913.133V963.474H273.922V913.133H324.964ZM324.964 966.526V1016.87H273.922V966.526H324.964ZM324.964 1019.9V1070.25H273.922V1019.9H324.964ZM324.964 1073.3V1123.64H273.922V1073.3H324.964ZM324.964 1126.68V1177.17H273.922V1126.68H324.964ZM324.964 1180.21V1230.55H273.922V1180.21H324.964ZM324.964 1233.6V1283.95H273.922V1233.6H324.964ZM324.964 1286.98V1337.33H273.922V1286.98H324.964ZM324.964 1340.38V1390.72H273.922V1340.38H324.964ZM324.964 1393.76V1444.1H273.922V1393.76H324.964ZM324.964 1447.15V1497.49H273.922V1447.15H324.964ZM324.964 1500.53V1550.87H273.922V1500.53H324.964ZM328.047 1500.53H379.089V1550.87H328.047V1500.53ZM382.187 1500.53H433.229V1550.87H382.187V1500.53ZM436.312 1500.53H487.355V1550.87H436.312V1500.53ZM490.452 1500.53H541.494V1550.87H490.452V1500.53ZM544.578 1500.53H595.62V1550.87H544.578V1500.53ZM598.717 1500.53H649.928V1550.87H598.717V1500.53ZM653.011 1500.53H704.053V1550.87H653.011V1500.53ZM707.137 1500.53H758.179V1550.87H707.137V1500.53ZM761.276 1500.53H812.319V1550.87H761.276V1500.53ZM815.402 1500.53H866.444V1550.87H815.402V1500.53ZM869.542 1500.53H920.584V1550.87H869.542V1500.53ZM923.681 1500.53H974.724V1550.87H923.681V1500.53ZM977.807 1500.53H1028.85V1550.87H977.807V1500.53ZM1031.95 1500.53H1083.14V1550.87H1031.95V1500.53ZM1086.24 1500.53H1137.28V1550.87H1086.24V1500.53ZM1140.37 1500.53H1191.41V1550.87H1140.37V1500.53ZM1194.51 1500.53H1245.55V1550.87H1194.51V1500.53ZM1248.63 1500.53H1299.67V1550.87H1248.63V1500.53ZM1302.77 1500.53H1353.81V1550.87H1302.77V1500.53ZM1356.9 1500.53H1407.94V1550.87H1356.9V1500.53ZM1411.04 1500.53H1462.08V1550.87H1411.04V1500.53ZM1462.08 376.079H1411.04V325.737H1462.08V376.079ZM1407.95 376.079H1356.91V325.737H1407.95V376.079ZM1353.81 376.079H1302.77V325.737H1353.81V376.079ZM1299.67 376.079H1248.63V325.737H1299.67V376.079ZM1245.55 376.079H1194.51V325.737H1245.55V376.079ZM1191.41 376.079H1140.37V325.737H1191.41V376.079ZM1137.28 376.079H1086.24V325.737H1137.28V376.079ZM1083.14 376.079H1031.95V325.737H1083.14V376.079ZM1028.85 376.079H977.807V325.737H1028.85V376.079ZM974.724 376.079H923.681V325.737H974.724V376.079ZM920.584 376.079H869.542V325.737H920.584V376.079ZM866.458 376.079H815.416V325.737H866.458V376.079ZM812.319 376.079H761.276V325.737H812.319V376.079ZM758.193 376.079H707.151V325.737H758.193V376.079ZM704.053 376.079H653.011V325.737H704.053V376.079ZM649.914 376.079H598.703V325.737H649.914V376.079ZM595.62 376.079H544.578V325.737H595.62V376.079ZM541.494 376.079H490.452V325.737H541.494V376.079ZM487.355 376.079H436.312V325.737H487.355V376.079ZM433.229 376.079H382.187V325.737H433.229V376.079ZM379.089 376.079H328.047V325.737H379.089V376.079ZM324.964 376.079H273.922V325.737H324.964V376.079ZM1465.18 1550.87V1500.53H1516.37V1550.87H1465.18ZM1465.18 1497.48V1447.13H1516.37V1497.48H1465.18ZM1465.18 1444.1V1393.76H1516.37V1444.1H1465.18ZM1465.18 1390.72V1340.38H1516.37V1390.72H1465.18ZM1465.18 1337.33V1286.98H1516.37V1337.33H1465.18ZM1465.18 1283.95V1233.6H1516.37V1283.95H1465.18ZM1465.18 1230.55V1180.21H1516.37V1230.55H1465.18ZM1465.18 1177.17V1126.68H1516.37V1177.17H1465.18ZM1465.18 1123.63V1073.28H1516.37V1123.63H1465.18ZM1465.18 1070.25V1019.9H1516.37V1070.25H1465.18ZM1465.18 1016.85V966.511H1516.37V1016.85H1465.18ZM1465.18 963.474V913.133H1516.37V963.474H1465.18ZM1465.18 910.095V859.754H1516.37V910.095H1465.18ZM1465.18 856.702V806.361H1516.37V856.702H1465.18ZM1465.18 803.323V752.982H1516.37V803.323H1465.18ZM1465.18 749.93V699.432H1516.37V749.93H1465.18ZM1465.18 696.395V646.053H1516.37V696.395H1465.18ZM1465.18 643.002V592.66H1516.37V643.002H1465.18ZM1465.18 589.623V539.282H1516.37V589.623H1465.18ZM1465.18 536.244V485.903H1516.37V536.244H1465.18ZM1465.18 482.851V432.509H1516.37V482.851H1465.18ZM1465.18 429.472V379.131H1516.37V429.472H1465.18ZM1465.18 376.079V325.737H1516.37V376.079H1465.18ZM270.824 325.737V376.079H219.782V325.737H270.824ZM270.824 379.131V429.472H219.782V379.131H270.824ZM270.824 432.509V482.851H219.782V432.509H270.824ZM270.824 485.903V536.244H219.782V485.903H270.824ZM270.824 539.282V589.623H219.782V539.282H270.824ZM270.824 592.675V643.016H219.782V592.675H270.824ZM270.824 646.053V696.395H219.782V646.053H270.824ZM270.824 699.432V749.93H219.782V699.432H270.824ZM270.824 752.982V803.323H219.782V752.982H270.824ZM270.824 806.361V856.702H219.782V806.361H270.824ZM270.824 859.754V910.095H219.782V859.754H270.824ZM270.824 913.133V963.474H219.782V913.133H270.824ZM270.824 966.526V1016.87H219.782V966.526H270.824ZM270.824 1019.9V1070.25H219.782V1019.9H270.824ZM270.824 1073.3V1123.64H219.782V1073.3H270.824ZM270.824 1126.68V1177.17H219.782V1126.68H270.824ZM270.824 1180.21V1230.55H219.782V1180.21H270.824ZM270.824 1233.6V1283.95H219.782V1233.6H270.824ZM270.824 1286.98V1337.33H219.782V1286.98H270.824ZM270.824 1340.38V1390.72H219.782V1340.38H270.824ZM270.824 1393.76V1444.1H219.782V1393.76H270.824ZM270.824 1447.15V1497.49H219.782V1447.15H270.824ZM270.824 1500.53V1550.87H219.782V1500.53H270.824ZM270.824 1553.91V1604.4H219.782V1553.91H270.824ZM273.922 1553.91H324.964V1604.4H273.922V1553.91ZM328.047 1553.91H379.089V1604.4H328.047V1553.91ZM382.187 1553.91H433.229V1604.4H382.187V1553.91ZM436.312 1553.91H487.355V1604.4H436.312V1553.91ZM490.452 1553.91H541.494V1604.4H490.452V1553.91ZM544.578 1553.91H595.62V1604.4H544.578V1553.91ZM598.717 1553.91H649.928V1604.4H598.717V1553.91ZM653.011 1553.91H704.053V1604.4H653.011V1553.91ZM707.137 1553.91H758.179V1604.4H707.137V1553.91ZM761.276 1553.91H812.319V1604.4H761.276V1553.91ZM815.402 1553.91H866.444V1604.4H815.402V1553.91ZM869.542 1553.91H920.584V1604.4H869.542V1553.91ZM923.681 1553.91H974.724V1604.4H923.681V1553.91ZM977.807 1553.91H1028.85V1604.4H977.807V1553.91ZM1031.95 1553.91H1083.14V1604.4H1031.95V1553.91ZM1086.24 1553.91H1137.28V1604.4H1086.24V1553.91ZM1140.37 1553.91H1191.41V1604.4H1140.37V1553.91ZM1194.51 1553.91H1245.55V1604.4H1194.51V1553.91ZM1248.63 1553.91H1299.67V1604.4H1248.63V1553.91ZM1302.77 1553.91H1353.81V1604.4H1302.77V1553.91ZM1356.9 1553.91H1407.94V1604.4H1356.9V1553.91ZM1411.04 1553.91H1462.08V1604.4H1411.04V1553.91ZM1465.18 1553.91H1516.37V1604.4H1465.18V1553.91ZM1516.37 322.7H1465.18V272.202H1516.37V322.7ZM1462.08 322.7H1411.04V272.202H1462.08V322.7ZM1407.95 322.7H1356.91V272.202H1407.95V322.7ZM1353.81 322.7H1302.77V272.202H1353.81V322.7ZM1299.67 322.7H1248.63V272.202H1299.67V322.7ZM1245.55 322.7H1194.51V272.202H1245.55V322.7ZM1191.41 322.7H1140.37V272.202H1191.41V322.7ZM1137.28 322.7H1086.24V272.202H1137.28V322.7ZM1083.14 322.7H1031.95V272.202H1083.14V322.7ZM1028.85 322.7H977.807V272.202H1028.85V322.7ZM974.724 322.7H923.681V272.202H974.724V322.7ZM920.584 322.7H869.542V272.202H920.584V322.7ZM866.458 322.7H815.416V272.202H866.458V322.7ZM812.319 322.7H761.276V272.202H812.319V322.7ZM758.193 322.7H707.151V272.202H758.193V322.7ZM704.053 322.7H653.011V272.202H704.053V322.7ZM649.914 322.7H598.703V272.202H649.914V322.7ZM595.62 322.7H544.578V272.202H595.62V322.7ZM541.494 322.7H490.452V272.202H541.494V322.7ZM487.355 322.7H436.312V272.202H487.355V322.7ZM433.229 322.7H382.187V272.202H433.229V322.7ZM379.089 322.7H328.047V272.202H379.089V322.7ZM324.964 322.7H273.922V272.202H324.964V322.7ZM270.824 322.7H219.782V272.202H270.824V322.7ZM1519.47 1604.4V1553.91H1570.51V1604.4H1519.47ZM1519.47 1550.87V1500.53H1570.51V1550.87H1519.47ZM1519.47 1497.48V1447.13H1570.51V1497.48H1519.47ZM1519.47 1444.1V1393.76H1570.51V1444.1H1519.47ZM1519.47 1390.72V1340.38H1570.51V1390.72H1519.47ZM1519.47 1337.33V1286.98H1570.51V1337.33H1519.47ZM1519.47 1283.95V1233.6H1570.51V1283.95H1519.47ZM1519.47 1230.55V1180.21H1570.51V1230.55H1519.47ZM1519.47 1177.17V1126.68H1570.51V1177.17H1519.47ZM1519.47 1123.63V1073.28H1570.51V1123.63H1519.47ZM1519.47 1070.25V1019.9H1570.51V1070.25H1519.47ZM1519.47 1016.85V966.511H1570.51V1016.85H1519.47ZM1519.47 963.474V913.133H1570.51V963.474H1519.47ZM1519.47 910.095V859.754H1570.51V910.095H1519.47ZM1519.47 856.702V806.361H1570.51V856.702H1519.47ZM1519.47 803.323V752.982H1570.51V803.323H1519.47ZM1519.47 749.93V699.432H1570.51V749.93H1519.47ZM1519.47 696.395V646.053H1570.51V696.395H1519.47ZM1519.47 643.002V592.66H1570.51V643.002H1519.47ZM1519.47 589.623V539.282H1570.51V589.623H1519.47ZM1519.47 536.244V485.903H1570.51V536.244H1519.47ZM1519.47 482.851V432.509H1570.51V482.851H1519.47ZM1519.47 429.472V379.131H1570.51V429.472H1519.47ZM1519.47 376.079V325.737H1570.51V376.079H1519.47ZM1519.47 322.7V272.202H1570.51V322.7H1519.47ZM216.699 272.202V322.7H165.488V272.202H216.699ZM216.699 325.737V376.079H165.488V325.737H216.699ZM216.699 379.131V429.472H165.488V379.131H216.699ZM216.699 432.509V482.851H165.488V432.509H216.699ZM216.699 485.903V536.244H165.488V485.903H216.699ZM216.699 539.282V589.623H165.488V539.282H216.699ZM216.699 592.675V643.016H165.488V592.675H216.699ZM216.699 646.053V696.395H165.488V646.053H216.699ZM216.699 699.432V749.93H165.488V699.432H216.699ZM216.699 752.982V803.323H165.488V752.982H216.699ZM216.699 806.361V856.702H165.488V806.361H216.699ZM216.699 859.754V910.095H165.488V859.754H216.699ZM216.699 913.133V963.474H165.488V913.133H216.699ZM216.699 966.526V1016.87H165.488V966.526H216.699ZM216.699 1019.9V1070.25H165.488V1019.9H216.699ZM216.699 1073.3V1123.64H165.488V1073.3H216.699ZM216.699 1126.68V1177.17H165.488V1126.68H216.699ZM216.699 1180.21V1230.55H165.488V1180.21H216.699ZM216.699 1233.6V1283.95H165.488V1233.6H216.699ZM216.699 1286.98V1337.33H165.488V1286.98H216.699ZM216.699 1340.38V1390.72H165.488V1340.38H216.699ZM216.699 1393.76V1444.1H165.488V1393.76H216.699ZM216.699 1447.15V1497.49H165.488V1447.15H216.699ZM216.699 1500.53V1550.87H165.488V1500.53H216.699ZM216.699 1553.91V1604.4H165.488V1553.91H216.699ZM216.699 1607.46V1657.8H165.488V1607.46H216.699ZM219.782 1607.46H270.824V1657.8H219.782V1607.46ZM273.922 1607.46H324.964V1657.8H273.922V1607.46ZM328.047 1607.46H379.089V1657.8H328.047V1607.46ZM382.187 1607.46H433.229V1657.8H382.187V1607.46ZM436.312 1607.46H487.355V1657.8H436.312V1607.46ZM490.452 1607.46H541.494V1657.8H490.452V1607.46ZM544.578 1607.46H595.62V1657.8H544.578V1607.46ZM598.717 1607.46H649.928V1657.8H598.717V1607.46ZM653.011 1607.46H704.053V1657.8H653.011V1607.46ZM707.137 1607.46H758.179V1657.8H707.137V1607.46ZM761.276 1607.46H812.319V1657.8H761.276V1607.46ZM815.402 1607.46H866.444V1657.8H815.402V1607.46ZM869.542 1607.46H920.584V1657.8H869.542V1607.46ZM923.681 1607.46H974.724V1657.8H923.681V1607.46ZM977.807 1607.46H1028.85V1657.8H977.807V1607.46ZM1031.95 1607.46H1083.14V1657.8H1031.95V1607.46ZM1086.24 1607.46H1137.28V1657.8H1086.24V1607.46ZM1140.37 1607.46H1191.41V1657.8H1140.37V1607.46ZM1194.51 1607.46H1245.55V1657.8H1194.51V1607.46ZM1248.63 1607.46H1299.67V1657.8H1248.63V1607.46ZM1302.77 1607.46H1353.81V1657.8H1302.77V1607.46ZM1356.9 1607.46H1407.94V1657.8H1356.9V1607.46ZM1411.04 1607.46H1462.08V1657.8H1411.04V1607.46ZM1465.18 1607.46H1516.37V1657.8H1465.18V1607.46ZM1519.47 1607.46H1570.51V1657.8H1519.47V1607.46ZM1570.51 269.151H1519.47V218.809H1570.51V269.151ZM1516.37 269.151H1465.18V218.809H1516.37V269.151ZM1462.08 269.151H1411.04V218.809H1462.08V269.151ZM1407.95 269.151H1356.91V218.809H1407.95V269.151ZM1353.81 269.151H1302.77V218.809H1353.81V269.151ZM1299.67 269.151H1248.63V218.809H1299.67V269.151ZM1245.55 269.151H1194.51V218.809H1245.55V269.151ZM1191.41 269.151H1140.37V218.809H1191.41V269.151ZM1137.28 269.151H1086.24V218.809H1137.28V269.151ZM1083.14 269.151H1031.95V218.809H1083.14V269.151ZM1028.85 269.151H977.807V218.809H1028.85V269.151ZM974.724 269.151H923.681V218.809H974.724V269.151ZM920.584 269.151H869.542V218.809H920.584V269.151ZM866.458 269.151H815.416V218.809H866.458V269.151ZM812.319 269.151H761.276V218.809H812.319V269.151ZM758.193 269.151H707.151V218.809H758.193V269.151ZM704.053 269.151H653.011V218.809H704.053V269.151ZM649.914 269.151H598.703V218.809H649.914V269.151ZM595.62 269.151H544.578V218.809H595.62V269.151ZM541.494 269.151H490.452V218.809H541.494V269.151ZM487.355 269.151H436.312V218.809H487.355V269.151ZM433.229 269.151H382.187V218.809H433.229V269.151ZM379.089 269.151H328.047V218.809H379.089V269.151ZM324.964 269.151H273.922V218.809H324.964V269.151ZM270.824 269.151H219.782V218.809H270.824V269.151ZM216.699 269.151H165.488V218.809H216.699V269.151ZM1573.6 1657.8V1607.46H1624.64V1657.8H1573.6ZM1573.6 1604.4V1553.91H1624.64V1604.4H1573.6ZM1573.6 1550.87V1500.53H1624.64V1550.87H1573.6ZM1573.6 1497.48V1447.13H1624.64V1497.48H1573.6ZM1573.6 1444.1V1393.76H1624.64V1444.1H1573.6ZM1573.6 1390.72V1340.38H1624.64V1390.72H1573.6ZM1573.6 1337.33V1286.98H1624.64V1337.33H1573.6ZM1573.6 1283.95V1233.6H1624.64V1283.95H1573.6ZM1573.6 1230.55V1180.21H1624.64V1230.55H1573.6ZM1573.6 1177.17V1126.68H1624.64V1177.17H1573.6ZM1573.6 1123.63V1073.28H1624.64V1123.63H1573.6ZM1573.6 1070.25V1019.9H1624.64V1070.25H1573.6ZM1573.6 1016.85V966.511H1624.64V1016.85H1573.6ZM1573.6 963.474V913.133H1624.64V963.474H1573.6ZM1573.6 910.095V859.754H1624.64V910.095H1573.6ZM1573.6 856.702V806.361H1624.64V856.702H1573.6ZM1573.6 803.323V752.982H1624.64V803.323H1573.6ZM1573.6 749.93V699.432H1624.64V749.93H1573.6ZM1573.6 696.395V646.053H1624.64V696.395H1573.6ZM1573.6 643.002V592.66H1624.64V643.002H1573.6ZM1573.6 589.623V539.282H1624.64V589.623H1573.6ZM1573.6 536.244V485.903H1624.64V536.244H1573.6ZM1573.6 482.851V432.509H1624.64V482.851H1573.6ZM1573.6 429.472V379.131H1624.64V429.472H1573.6ZM1573.6 376.079V325.737H1624.64V376.079H1573.6ZM1573.6 322.7V272.202H1624.64V322.7H1573.6ZM1573.6 269.151V218.809H1624.64V269.151H1573.6ZM162.405 218.823V269.165H111.363V218.823H162.405ZM162.405 272.202V322.7H111.363V272.202H162.405ZM162.405 325.737V376.079H111.363V325.737H162.405ZM162.405 379.131V429.472H111.363V379.131H162.405ZM162.405 432.509V482.851H111.363V432.509H162.405ZM162.405 485.903V536.244H111.363V485.903H162.405ZM162.405 539.282V589.623H111.363V539.282H162.405ZM162.405 592.675V643.016H111.363V592.675H162.405ZM162.405 646.053V696.395H111.363V646.053H162.405ZM162.405 699.432V749.93H111.363V699.432H162.405ZM162.405 752.982V803.323H111.363V752.982H162.405ZM162.405 806.361V856.702H111.363V806.361H162.405ZM162.405 859.754V910.095H111.363V859.754H162.405ZM162.405 913.133V963.474H111.363V913.133H162.405ZM162.405 966.526V1016.87H111.363V966.526H162.405ZM162.405 1019.9V1070.25H111.363V1019.9H162.405ZM162.405 1073.3V1123.64H111.363V1073.3H162.405ZM162.405 1126.68V1177.17H111.363V1126.68H162.405ZM162.405 1180.21V1230.55H111.363V1180.21H162.405ZM162.405 1233.6V1283.95H111.363V1233.6H162.405ZM162.405 1286.98V1337.33H111.363V1286.98H162.405ZM162.405 1340.38V1390.72H111.363V1340.38H162.405ZM162.405 1393.76V1444.1H111.363V1393.76H162.405ZM162.405 1447.15V1497.49H111.363V1447.15H162.405ZM162.405 1500.53V1550.87H111.363V1500.53H162.405ZM162.405 1553.91V1604.4H111.363V1553.91H162.405ZM162.405 1607.46V1657.8H111.363V1607.46H162.405ZM162.405 1660.83V1711.18H111.363V1660.83H162.405ZM165.488 1660.83H216.699V1711.18H165.488V1660.83ZM219.782 1660.83H270.824V1711.18H219.782V1660.83ZM273.922 1660.83H324.964V1711.18H273.922V1660.83ZM328.047 1660.83H379.089V1711.18H328.047V1660.83ZM382.187 1660.83H433.229V1711.18H382.187V1660.83ZM436.312 1660.83H487.355V1711.18H436.312V1660.83ZM490.452 1660.83H541.494V1711.18H490.452V1660.83ZM544.578 1660.83H595.62V1711.18H544.578V1660.83ZM598.717 1660.83H649.928V1711.18H598.717V1660.83ZM653.011 1660.83H704.053V1711.18H653.011V1660.83ZM707.137 1660.83H758.179V1711.18H707.137V1660.83ZM761.276 1660.83H812.319V1711.18H761.276V1660.83ZM815.402 1660.83H866.444V1711.18H815.402V1660.83ZM869.542 1660.83H920.584V1711.18H869.542V1660.83ZM923.681 1660.83H974.724V1711.18H923.681V1660.83ZM977.807 1660.83H1028.85V1711.18H977.807V1660.83ZM1031.95 1660.83H1083.14V1711.18H1031.95V1660.83ZM1086.24 1660.83H1137.28V1711.18H1086.24V1660.83ZM1140.37 1660.83H1191.41V1711.18H1140.37V1660.83ZM1194.51 1660.83H1245.55V1711.18H1194.51V1660.83ZM1248.63 1660.83H1299.67V1711.18H1248.63V1660.83ZM1302.77 1660.83H1353.81V1711.18H1302.77V1660.83ZM1356.9 1660.83H1407.94V1711.18H1356.9V1660.83ZM1411.04 1660.83H1462.08V1711.18H1411.04V1660.83ZM1465.18 1660.83H1516.37V1711.18H1465.18V1660.83ZM1519.47 1660.83H1570.51V1711.18H1519.47V1660.83ZM1573.6 1660.83H1624.64V1711.18H1573.6V1660.83ZM1624.64 215.772H1573.6V165.43H1624.64V215.772ZM1570.51 215.772H1519.47V165.43H1570.51V215.772ZM1516.37 215.772H1465.18V165.43H1516.37V215.772ZM1462.08 215.772H1411.04V165.43H1462.08V215.772ZM1407.95 215.772H1356.91V165.43H1407.95V215.772ZM1353.81 215.772H1302.77V165.43H1353.81V215.772ZM1299.67 215.772H1248.63V165.43H1299.67V215.772ZM1245.55 215.772H1194.51V165.43H1245.55V215.772ZM1191.41 215.772H1140.37V165.43H1191.41V215.772ZM1137.28 215.772H1086.24V165.43H1137.28V215.772ZM1083.14 215.772H1031.95V165.43H1083.14V215.772ZM1028.85 215.772H977.807V165.43H1028.85V215.772ZM974.724 215.772H923.681V165.43H974.724V215.772ZM920.584 215.772H869.542V165.43H920.584V215.772ZM866.458 215.772H815.416V165.43H866.458V215.772ZM812.319 215.772H761.276V165.43H812.319V215.772ZM758.193 215.772H707.151V165.43H758.193V215.772ZM704.053 215.772H653.011V165.43H704.053V215.772ZM649.914 215.772H598.703V165.43H649.914V215.772ZM595.62 215.772H544.578V165.43H595.62V215.772ZM541.494 215.772H490.452V165.43H541.494V215.772ZM487.355 215.772H436.312V165.43H487.355V215.772ZM433.229 215.772H382.187V165.43H433.229V215.772ZM379.089 215.772H328.047V165.43H379.089V215.772ZM324.964 215.772H273.922V165.43H324.964V215.772ZM270.824 215.772H219.782V165.43H270.824V215.772ZM216.699 215.772H165.488V165.43H216.699V215.772ZM162.405 215.772H111.363V165.43H162.405V215.772ZM1627.73 1711.18V1660.83H1678.78V1711.18H1627.73ZM1627.73 1657.8V1607.46H1678.78V1657.8H1627.73ZM1627.73 1604.4V1553.91H1678.78V1604.4H1627.73ZM1627.73 1550.87V1500.53H1678.78V1550.87H1627.73ZM1627.73 1497.48V1447.13H1678.78V1497.48H1627.73ZM1627.73 1444.1V1393.76H1678.78V1444.1H1627.73ZM1627.73 1390.72V1340.38H1678.78V1390.72H1627.73ZM1627.73 1337.33V1286.98H1678.78V1337.33H1627.73ZM1627.73 1283.95V1233.6H1678.78V1283.95H1627.73ZM1627.73 1230.55V1180.21H1678.78V1230.55H1627.73ZM1627.73 1177.17V1126.68H1678.78V1177.17H1627.73ZM1627.73 1123.63V1073.28H1678.78V1123.63H1627.73ZM1627.73 1070.25V1019.9H1678.78V1070.25H1627.73ZM1627.73 1016.85V966.511H1678.78V1016.85H1627.73ZM1627.73 963.474V913.133H1678.78V963.474H1627.73ZM1627.73 910.095V859.754H1678.78V910.095H1627.73ZM1627.73 856.702V806.361H1678.78V856.702H1627.73ZM1627.73 803.323V752.982H1678.78V803.323H1627.73ZM1627.73 749.93V699.432H1678.78V749.93H1627.73ZM1627.73 696.395V646.053H1678.78V696.395H1627.73ZM1627.73 643.002V592.66H1678.78V643.002H1627.73ZM1627.73 589.623V539.282H1678.78V589.623H1627.73ZM1627.73 536.244V485.903H1678.78V536.244H1627.73ZM1627.73 482.851V432.509H1678.78V482.851H1627.73ZM1627.73 429.472V379.131H1678.78V429.472H1627.73ZM1627.73 376.079V325.737H1678.78V376.079H1627.73ZM1627.73 322.7V272.202H1678.78V322.7H1627.73ZM1627.73 269.151V218.809H1678.78V269.151H1627.73ZM1627.73 215.772V165.43H1678.78V215.772H1627.73ZM108.265 165.43V215.772H57.2229V165.43H108.265ZM108.265 218.823V269.165H57.2229V218.823H108.265ZM108.265 272.202V322.7H57.2229V272.202H108.265ZM108.265 325.737V376.079H57.2229V325.737H108.265ZM108.265 379.131V429.472H57.2229V379.131H108.265ZM108.265 432.509V482.851H57.2229V432.509H108.265ZM108.265 485.903V536.244H57.2229V485.903H108.265ZM108.265 539.282V589.623H57.2229V539.282H108.265ZM108.265 592.675V643.016H57.2229V592.675H108.265ZM108.265 646.053V696.395H57.2229V646.053H108.265ZM108.265 699.432V749.93H57.2229V699.432H108.265ZM108.265 752.982V803.323H57.2229V752.982H108.265ZM108.265 806.361V856.702H57.2229V806.361H108.265ZM108.265 859.754V910.095H57.2229V859.754H108.265ZM108.265 913.133V963.474H57.2229V913.133H108.265ZM108.265 966.526V1016.87H57.2229V966.526H108.265ZM108.265 1019.9V1070.25H57.2229V1019.9H108.265ZM108.265 1073.3V1123.64H57.2229V1073.3H108.265ZM108.265 1126.68V1177.17H57.2229V1126.68H108.265ZM108.265 1180.21V1230.55H57.2229V1180.21H108.265ZM108.265 1233.6V1283.95H57.2229V1233.6H108.265ZM108.265 1286.98V1337.33H57.2229V1286.98H108.265ZM108.265 1340.38V1390.72H57.2229V1340.38H108.265ZM108.265 1393.76V1444.1H57.2229V1393.76H108.265ZM108.265 1447.15V1497.49H57.2229V1447.15H108.265ZM108.265 1500.53V1550.87H57.2229V1500.53H108.265ZM108.265 1553.91V1604.4H57.2229V1553.91H108.265ZM108.265 1607.46V1657.8H57.2229V1607.46H108.265ZM108.265 1660.83V1711.18H57.2229V1660.83H108.265ZM108.265 1714.23V1764.57H57.2229V1714.23H108.265ZM111.363 1714.23H162.405V1764.57H111.363V1714.23ZM165.488 1714.23H216.699V1764.57H165.488V1714.23ZM219.782 1714.23H270.824V1764.57H219.782V1714.23ZM273.922 1714.23H324.964V1764.57H273.922V1714.23ZM328.047 1714.23H379.089V1764.57H328.047V1714.23ZM382.187 1714.23H433.229V1764.57H382.187V1714.23ZM436.312 1714.23H487.355V1764.57H436.312V1714.23ZM490.452 1714.23H541.494V1764.57H490.452V1714.23ZM544.578 1714.23H595.62V1764.57H544.578V1714.23ZM598.717 1714.23H649.928V1764.57H598.717V1714.23ZM653.011 1714.23H704.053V1764.57H653.011V1714.23ZM707.137 1714.23H758.179V1764.57H707.137V1714.23ZM761.276 1714.23H812.319V1764.57H761.276V1714.23ZM815.402 1714.23H866.444V1764.57H815.402V1714.23ZM869.542 1714.23H920.584V1764.57H869.542V1714.23ZM923.681 1714.23H974.724V1764.57H923.681V1714.23ZM977.807 1714.23H1028.85V1764.57H977.807V1714.23ZM1031.95 1714.23H1083.14V1764.57H1031.95V1714.23ZM1086.24 1714.23H1137.28V1764.57H1086.24V1714.23ZM1140.37 1714.23H1191.41V1764.57H1140.37V1714.23ZM1194.51 1714.23H1245.55V1764.57H1194.51V1714.23ZM1248.63 1714.23H1299.67V1764.57H1248.63V1714.23ZM1302.77 1714.23H1353.81V1764.57H1302.77V1714.23ZM1356.9 1714.23H1407.94V1764.57H1356.9V1714.23ZM1411.04 1714.23H1462.08V1764.57H1411.04V1714.23ZM1465.18 1714.23H1516.37V1764.57H1465.18V1714.23ZM1519.47 1714.23H1570.51V1764.57H1519.47V1714.23ZM1573.6 1714.23H1624.64V1764.57H1573.6V1714.23ZM1627.73 1714.23H1678.78V1764.57H1627.73V1714.23ZM1678.78 162.379H1627.73V112.051H1678.78V162.393V162.379ZM1624.64 162.379H1573.6V112.051H1624.64V162.393V162.379ZM1570.51 162.379H1519.47V112.051H1570.51V162.393V162.379ZM1516.37 162.379H1465.18V112.051H1516.37V162.393V162.379ZM1462.08 162.379H1411.04V112.051H1462.08V162.393V162.379ZM1407.95 162.379H1356.91V112.051H1407.95V162.393V162.379ZM1353.81 162.379H1302.77V112.051H1353.81V162.393V162.379ZM1299.67 162.379H1248.63V112.051H1299.67V162.393V162.379ZM1245.55 162.379H1194.51V112.051H1245.55V162.393V162.379ZM1191.41 162.379H1140.37V112.051H1191.41V162.393V162.379ZM1137.28 162.379H1086.24V112.051H1137.28V162.393V162.379ZM1083.14 162.379H1031.95V112.051H1083.14V162.393V162.379ZM1028.85 162.379H977.807V112.051H1028.85V162.393V162.379ZM974.724 162.379H923.681V112.051H974.724V162.393V162.379ZM920.584 162.379H869.542V112.051H920.584V162.393V162.379ZM866.458 162.379H815.416V112.051H866.458V162.393V162.379ZM812.319 162.379H761.276V112.051H812.319V162.393V162.379ZM758.193 162.379H707.151V112.051H758.193V162.393V162.379ZM704.053 162.379H653.011V112.051H704.053V162.393V162.379ZM649.914 162.379H598.703V112.051H649.914V162.393V162.379ZM595.62 162.379H544.578V112.051H595.62V162.393V162.379ZM541.494 162.379H490.452V112.051H541.494V162.393V162.379ZM487.355 162.379H436.312V112.051H487.355V162.393V162.379ZM433.229 162.379H382.187V112.051H433.229V162.393V162.379ZM379.089 162.379H328.047V112.051H379.089V162.393V162.379ZM324.964 162.379H273.922V112.051H324.964V162.393V162.379ZM270.824 162.379H219.782V112.051H270.824V162.393V162.379ZM216.699 162.379H165.488V112.051H216.699V162.393V162.379ZM162.405 162.379H111.363V112.051H162.405V162.393V162.379ZM108.265 162.379H57.2229V112.051H108.265V162.393V162.379ZM1681.86 1764.57V1714.23H1732.9V1764.57H1681.86ZM1681.86 1711.18V1660.83H1732.9V1711.18H1681.86ZM1681.86 1657.8V1607.46H1732.9V1657.8H1681.86ZM1681.86 1604.4V1553.91H1732.9V1604.4H1681.86ZM1681.86 1550.87V1500.53H1732.9V1550.87H1681.86ZM1681.86 1497.48V1447.13H1732.9V1497.48H1681.86ZM1681.86 1444.1V1393.76H1732.9V1444.1H1681.86ZM1681.86 1390.72V1340.38H1732.9V1390.72H1681.86ZM1681.86 1337.33V1286.98H1732.9V1337.33H1681.86ZM1681.86 1283.95V1233.6H1732.9V1283.95H1681.86ZM1681.86 1230.55V1180.21H1732.9V1230.55H1681.86ZM1681.86 1177.17V1126.68H1732.9V1177.17H1681.86ZM1681.86 1123.63V1073.28H1732.9V1123.63H1681.86ZM1681.86 1070.25V1019.9H1732.9V1070.25H1681.86ZM1681.86 1016.85V966.511H1732.9V1016.85H1681.86ZM1681.86 963.474V913.133H1732.9V963.474H1681.86ZM1681.86 910.095V859.754H1732.9V910.095H1681.86ZM1681.86 856.702V806.361H1732.9V856.702H1681.86ZM1681.86 803.323V752.982H1732.9V803.323H1681.86ZM1681.86 749.93V699.432H1732.9V749.93H1681.86ZM1681.86 696.395V646.053H1732.9V696.395H1681.86ZM1681.86 643.002V592.66H1732.9V643.002H1681.86ZM1681.86 589.623V539.282H1732.9V589.623H1681.86ZM1681.86 536.244V485.903H1732.9V536.244H1681.86ZM1681.86 482.851V432.509H1732.9V482.851H1681.86ZM1681.86 429.472V379.131H1732.9V429.472H1681.86ZM1681.86 376.079V325.737H1732.9V376.079H1681.86ZM1681.86 322.7V272.202H1732.9V322.7H1681.86ZM1681.86 269.151V218.809H1732.9V269.151H1681.86ZM1681.86 215.772V165.43H1732.9V215.772H1681.86ZM1681.86 162.379V112.051H1732.9V162.393H1681.86V162.379ZM54.1396 112.051V162.393H3.08328V112.051H54.1256H54.1396ZM54.1396 165.43V215.772H3.08328V165.43H54.1256H54.1396ZM54.1396 218.823V269.165H3.08328V218.823H54.1256H54.1396ZM54.1396 272.202V322.7H3.08328V272.202H54.1256H54.1396ZM54.1396 325.737V376.079H3.08328V325.737H54.1256H54.1396ZM54.1396 379.131V429.472H3.08328V379.131H54.1256H54.1396ZM54.1396 432.509V482.851H3.08328V432.509H54.1256H54.1396ZM54.1396 485.903V536.244H3.08328V485.903H54.1256H54.1396ZM54.1396 539.282V589.623H3.08328V539.282H54.1256H54.1396ZM54.1396 592.675V643.016H3.08328V592.675H54.1256H54.1396ZM54.1396 646.053V696.395H3.08328V646.053H54.1256H54.1396ZM54.1396 699.432V749.93H3.08328V699.432H54.1256H54.1396ZM54.1396 752.982V803.323H3.08328V752.982H54.1256H54.1396ZM54.1396 806.361V856.702H3.08328V806.361H54.1256H54.1396ZM54.1396 859.754V910.095H3.08328V859.754H54.1256H54.1396ZM54.1396 913.133V963.474H3.08328V913.133H54.1256H54.1396ZM54.1396 966.526V1016.87H3.08328V966.526H54.1256H54.1396ZM54.1396 1019.9V1070.25H3.08328V1019.9H54.1256H54.1396ZM54.1396 1073.3V1123.64H3.08328V1073.3H54.1256H54.1396ZM54.1396 1126.68V1177.17H3.08328V1126.68H54.1256H54.1396ZM54.1396 1180.21V1230.55H3.08328V1180.21H54.1256H54.1396ZM54.1396 1233.6V1283.95H3.08328V1233.6H54.1256H54.1396ZM54.1396 1286.98V1337.33H3.08328V1286.98H54.1256H54.1396ZM54.1396 1340.38V1390.72H3.08328V1340.38H54.1256H54.1396ZM54.1396 1393.76V1444.1H3.08328V1393.76H54.1256H54.1396ZM54.1396 1447.15V1497.49H3.08328V1447.15H54.1256H54.1396ZM54.1396 1500.53V1550.87H3.08328V1500.53H54.1256H54.1396ZM54.1396 1553.91V1604.4H3.08328V1553.91H54.1256H54.1396ZM54.1396 1607.46V1657.8H3.08328V1607.46H54.1256H54.1396ZM54.1396 1660.83V1711.18H3.08328V1660.83H54.1256H54.1396ZM54.1396 1714.23V1764.57H3.08328V1714.23H54.1256H54.1396ZM54.1396 1767.61V1817.95H3.08328V1767.61H54.1256H54.1396ZM57.2229 1767.61H108.265V1817.95H57.2229V1767.61ZM111.363 1767.61H162.405V1817.95H111.363V1767.61ZM165.488 1767.61H216.699V1817.95H165.488V1767.61ZM219.782 1767.61H270.824V1817.95H219.782V1767.61ZM273.922 1767.61H324.964V1817.95H273.922V1767.61ZM328.047 1767.61H379.089V1817.95H328.047V1767.61ZM382.187 1767.61H433.229V1817.95H382.187V1767.61ZM436.312 1767.61H487.355V1817.95H436.312V1767.61ZM490.452 1767.61H541.494V1817.95H490.452V1767.61ZM544.578 1767.61H595.62V1817.95H544.578V1767.61ZM598.717 1767.61H649.928V1817.95H598.717V1767.61ZM653.011 1767.61H704.053V1817.95H653.011V1767.61ZM707.137 1767.61H758.179V1817.95H707.137V1767.61ZM761.276 1767.61H812.319V1817.95H761.276V1767.61ZM815.402 1767.61H866.444V1817.95H815.402V1767.61ZM869.542 1767.61H920.584V1817.95H869.542V1767.61ZM923.681 1767.61H974.724V1817.95H923.681V1767.61ZM977.807 1767.61H1028.85V1817.95H977.807V1767.61ZM1031.95 1767.61H1083.14V1817.95H1031.95V1767.61ZM1086.24 1767.61H1137.28V1817.95H1086.24V1767.61ZM1140.37 1767.61H1191.41V1817.95H1140.37V1767.61ZM1194.51 1767.61H1245.55V1817.95H1194.51V1767.61ZM1248.63 1767.61H1299.67V1817.95H1248.63V1767.61ZM1302.77 1767.61H1353.81V1817.95H1302.77V1767.61ZM1356.9 1767.61H1407.94V1817.95H1356.9V1767.61ZM1411.04 1767.61H1462.08V1817.95H1411.04V1767.61ZM1465.18 1767.61H1516.37V1817.95H1465.18V1767.61ZM1519.47 1767.61H1570.51V1817.95H1519.47V1767.61ZM1573.6 1767.61H1624.64V1817.95H1573.6V1767.61ZM1627.73 1767.61H1678.78V1817.95H1627.73V1767.61ZM1681.86 1767.61H1732.9V1817.95H1681.86V1767.61Z" fill="#EAEAEA"/>
</g>
<defs>
<clipPath id="clip0_549_1201">
<rect width="1736" height="1712" fill="white" transform="translate(0 109)"/>
</clipPath>
</defs>
</svg>
